<?xml version="1.0" encoding="utf-8"?>
<!-- Generator: Adobe Illustrator 19.0.0, SVG Export Plug-In . SVG Version: 6.00 Build 0)  -->
<svg version="1.1" id="Layer_1" xmlns="http://www.w3.org/2000/svg" xmlns:xlink="http://www.w3.org/1999/xlink" x="0px" y="0px"
	 viewBox="0 0 402.5 58" style="enable-background:new 0 0 402.5 58;" xml:space="preserve">
<style type="text/css">
	.st0{fill:#619E43;stroke:#000000;stroke-width:2;stroke-miterlimit:10;}
	.st1{fill:#FFFFFF;}
	.st2{fill:none;stroke:#010101;stroke-width:2;stroke-miterlimit:10;}
</style>
<path id="XMLID_59_" class="st0" d="M394.3,54.3H283.8c-2.8,0-5-2.2-5-5v-40c0-2.8,2.2-5,5-5h110.5c2.8,0,5,2.2,5,5v40
	C399.3,52.1,397,54.3,394.3,54.3z"/>
<g id="XMLID_61_">
	<g id="XMLID_165_">
		<path id="XMLID_174_" class="st1" d="M322.9,23.9c2.8,0,4.4,1.4,4.4,3.8c0,2.5-1.6,4-4.4,4h-2.6v3.4h-1.9V23.9H322.9z M320.3,30.1
			h2.5c1.7,0,2.7-0.7,2.7-2.3c0-1.5-1-2.2-2.7-2.2h-2.5V30.1z"/>
		<path id="XMLID_171_" class="st1" d="M340.1,29.5c0,3.2-2.6,5.7-5.9,5.7c-3.3,0-5.9-2.5-5.9-5.7c0-3.2,2.6-5.7,5.9-5.7
			C337.5,23.9,340.1,26.3,340.1,29.5z M330.1,29.5c0,2.2,1.8,4,4,4s4-1.8,4-4c0-2.2-1.8-4-4-4C332,25.6,330.1,27.3,330.1,29.5z"/>
		<path id="XMLID_169_" class="st1" d="M346.9,31.7c0,2.3-1.3,3.5-3.5,3.5c-1.3,0-2.5-0.6-3.3-1.6l0.9-1.4c0.7,0.8,1.6,1.2,2.4,1.2
			c1,0,1.6-0.6,1.6-1.8v-6h-3.9v-1.7h5.8V31.7z"/>
		<path id="XMLID_166_" class="st1" d="M360.6,29.5c0,3.2-2.6,5.7-5.9,5.7c-3.3,0-5.9-2.5-5.9-5.7c0-3.2,2.6-5.7,5.9-5.7
			C358,23.9,360.6,26.3,360.6,29.5z M350.6,29.5c0,2.2,1.8,4,4,4s4-1.8,4-4c0-2.2-1.8-4-4-4C352.4,25.6,350.6,27.3,350.6,29.5z"/>
	</g>
</g>
<path id="XMLID_19_" class="st0" d="M119.8,54.3H9.3c-2.8,0-5-2.2-5-5v-40c0-2.8,2.2-5,5-5h110.5c2.8,0,5,2.2,5,5v40
	C124.8,52.1,122.5,54.3,119.8,54.3z"/>
<g id="XMLID_50_">
	<g id="XMLID_140_">
		<path id="XMLID_148_" class="st1" d="M49.5,31.7c0,2.3-1.3,3.5-3.5,3.5c-1.3,0-2.5-0.6-3.3-1.6l0.9-1.4c0.7,0.8,1.6,1.2,2.4,1.2
			c1,0,1.6-0.6,1.6-1.8v-6h-3.9v-1.7h5.8V31.7z"/>
		<path id="XMLID_146_" class="st1" d="M59.8,25L59,26.7c-1.2-0.7-2.4-1-3.3-1c-1.1,0-1.8,0.4-1.8,1.2c0,2.4,6.1,1.1,6,5.2
			c0,2-1.8,3.2-4.2,3.2c-1.8,0-3.4-0.7-4.6-1.8l0.8-1.6c1.2,1.1,2.6,1.6,3.8,1.6c1.3,0,2.1-0.5,2.1-1.4c0-2.5-6.1-1.1-6.1-5.1
			c0-1.9,1.6-3.1,4.1-3.1C57.3,23.9,58.7,24.3,59.8,25z"/>
		<path id="XMLID_143_" class="st1" d="M73.1,29.5c0,3.2-2.6,5.7-5.9,5.7c-3.3,0-5.9-2.5-5.9-5.7c0-3.2,2.6-5.7,5.9-5.7
			C70.5,23.9,73.1,26.3,73.1,29.5z M63.1,29.5c0,2.2,1.8,4,4,4s4-1.8,4-4c0-2.2-1.8-4-4-4C65,25.6,63.1,27.3,63.1,29.5z"/>
		<path id="XMLID_141_" class="st1" d="M83,35.1l-6-8v8h-1.9V23.9H77l6,8.1v-8.1h1.9v11.2H83z"/>
	</g>
</g>
<polyline id="XMLID_24_" class="st2" points="267.3,34.9 272.9,29.4 267.4,23.8 "/>
<polyline id="XMLID_15_" class="st2" points="135.5,23.8 129.9,29.2 135.3,34.9 "/>
<line id="XMLID_20_" class="st2" x1="272.9" y1="29.3" x2="131.4" y2="29.3"/>
</svg>
