<?xml version="1.0" encoding="utf-8"?>
<!-- Generator: Adobe Illustrator 19.0.0, SVG Export Plug-In . SVG Version: 6.00 Build 0)  -->
<svg version="1.1" id="Layer_1" xmlns="http://www.w3.org/2000/svg" xmlns:xlink="http://www.w3.org/1999/xlink" x="0px" y="0px"
	 viewBox="-350 258.4 576.7 117.3" style="enable-background:new -350 258.4 576.7 117.3;" xml:space="preserve">
<style type="text/css">
	.st0{fill:#6BB245;stroke:#000000;stroke-width:2;stroke-miterlimit:10;}
	.st1{fill:#FFFFFF;}
	.st2{fill:#ED1F24;}
	.st3{fill:none;stroke:#000000;stroke-width:2;stroke-miterlimit:10;}
</style>
<rect id="XMLID_29_" x="-346.5" y="262.3" class="st0" width="120" height="110.9"/>
<g>
	<path class="st1" d="M-297,305.5c0,1.8-0.7,2.9-2.1,3.5l2.8,4h-3.1l-2.5-3.6h-1.7v3.6h-2.5v-11.2h4.2c1.7,0,3,0.3,3.7,0.9
		S-297,304.2-297,305.5z M-300,306.9c0.3-0.3,0.5-0.7,0.5-1.3s-0.2-1-0.5-1.2c-0.3-0.2-0.9-0.3-1.7-0.3h-1.9v3.3h1.8
		C-300.9,307.3-300.3,307.1-300,306.9z"/>
	<path class="st1" d="M-286.4,301.8v2.2h-5.6v2.3h5v2.1h-5v2.3h5.7v2.2h-8.2v-11.2H-286.4z"/>
	<path class="st1" d="M-281.4,304c-0.2,0.2-0.4,0.5-0.4,0.8s0.1,0.6,0.4,0.8c0.3,0.2,1,0.4,2,0.7c1.1,0.3,1.9,0.7,2.5,1.2
		c0.6,0.5,0.9,1.3,0.9,2.3s-0.4,1.8-1.1,2.4s-1.7,0.9-3,0.9c-1.8,0-3.4-0.7-4.8-2l1.5-1.8c1.2,1.1,2.3,1.6,3.3,1.6
		c0.5,0,0.8-0.1,1.1-0.3s0.4-0.5,0.4-0.8s-0.1-0.6-0.4-0.8s-0.8-0.4-1.6-0.6c-1.3-0.3-2.3-0.7-2.9-1.2s-0.9-1.3-0.9-2.3
		s0.4-1.9,1.1-2.5c0.8-0.6,1.7-0.9,2.9-0.9c0.7,0,1.5,0.1,2.2,0.4s1.4,0.6,2,1.1l-1.3,1.8c-1-0.7-2-1.1-3-1.1
		C-280.8,303.7-281.1,303.8-281.4,304z"/>
	<path class="st1" d="M-269.1,304v9h-2.5v-9h-3.2v-2.2h8.8v2.2H-269.1z"/>
	<path class="st1" d="M-304,330c1.2,0,2.2-0.5,3-1.5l1.6,1.6c-1.3,1.4-2.8,2.1-4.5,2.1s-3.1-0.5-4.3-1.6s-1.7-2.5-1.7-4.1
		c0-1.7,0.6-3,1.7-4.2c1.1-1.1,2.5-1.7,4.2-1.7c1.8,0,3.4,0.7,4.6,2.1l-1.6,1.8c-0.8-1-1.8-1.5-2.9-1.5c-0.9,0-1.7,0.3-2.4,0.9
		s-1,1.4-1,2.5s0.3,1.9,0.9,2.5C-305.7,329.7-304.9,330-304,330z"/>
	<path class="st1" d="M-295.3,332.2h-2.4v-11.9h2.4V332.2z"/>
	<path class="st1" d="M-292.8,322.5c-0.3-0.3-0.4-0.6-0.4-1s0.1-0.7,0.4-1c0.3-0.3,0.6-0.4,1-0.4s0.7,0.1,1,0.4
		c0.3,0.3,0.4,0.6,0.4,1s-0.1,0.7-0.4,1c-0.3,0.3-0.6,0.4-1,0.4S-292.5,322.8-292.8,322.5z M-290.6,332.2h-2.4v-8.6h2.4V332.2z"/>
	<path class="st1" d="M-280.9,330.9c-1,0.9-2.1,1.4-3.4,1.4s-2.4-0.4-3.2-1.2c-0.9-0.8-1.3-1.9-1.3-3.2c0-1.4,0.4-2.4,1.3-3.2
		c0.9-0.8,1.9-1.2,3.1-1.2s2.2,0.4,3,1.1c0.8,0.7,1.2,1.7,1.2,2.9v1.3h-6.3c0.1,0.5,0.3,0.9,0.7,1.2c0.4,0.3,0.9,0.4,1.4,0.4
		c0.8,0,1.5-0.3,2.1-0.8L-280.9,330.9z M-283.2,325.8c-0.3-0.3-0.7-0.4-1.2-0.4s-0.9,0.1-1.3,0.4s-0.6,0.7-0.7,1.2h3.8
		C-282.7,326.5-282.8,326.1-283.2,325.8z"/>
	<path class="st1" d="M-276,327.4v4.8h-2.4v-8.6h2.4v1c0.7-0.7,1.5-1.1,2.4-1.1s1.7,0.3,2.3,1c0.6,0.6,0.9,1.5,0.9,2.6v5.2h-2.4
		v-4.9c0-1.3-0.5-2-1.5-2c-0.5,0-0.9,0.2-1.3,0.5S-276,326.7-276,327.4z"/>
	<path class="st1" d="M-265.5,325.3v3.9c0,0.3,0.1,0.6,0.3,0.8s0.4,0.3,0.6,0.3c0.4,0,0.8-0.2,1.1-0.6l0.9,1.7c-0.7,0.7-1.5,1-2.4,1
		c-0.8,0-1.5-0.3-2.1-0.8c-0.6-0.5-0.9-1.3-0.9-2.2v-4h-1v-1.7h1V321h2.4v2.6h2.1v1.7H-265.5z"/>
</g>
<rect id="XMLID_7_" x="104.5" y="262.3" class="st0" width="120" height="110.9"/>
<g>
	<path class="st1" d="M154,297.2c0,1.8-0.7,2.9-2.1,3.5l2.8,4h-3.1l-2.5-3.6h-1.7v3.6h-2.5v-11.2h4.2c1.7,0,3,0.3,3.7,0.9
		S154,295.9,154,297.2z M151,298.5c0.3-0.3,0.5-0.7,0.5-1.3s-0.2-1-0.5-1.2s-0.9-0.3-1.7-0.3h-1.9v3.3h1.8
		C150.1,298.9,150.7,298.8,151,298.5z"/>
	<path class="st1" d="M164.6,293.5v2.2h-5.6v2.3h5v2.1h-5v2.3h5.7v2.2h-8.2v-11.2H164.6z"/>
	<path class="st1" d="M169.6,295.7c-0.2,0.2-0.4,0.5-0.4,0.8s0.1,0.6,0.4,0.8c0.3,0.2,1,0.4,2,0.7s1.9,0.7,2.5,1.2
		c0.6,0.5,0.9,1.3,0.9,2.3s-0.4,1.8-1.1,2.4s-1.7,0.9-3,0.9c-1.8,0-3.4-0.7-4.8-2l1.5-1.8c1.2,1.1,2.3,1.6,3.3,1.6
		c0.5,0,0.8-0.1,1.1-0.3c0.3-0.2,0.4-0.5,0.4-0.8s-0.1-0.6-0.4-0.8s-0.8-0.4-1.6-0.6c-1.3-0.3-2.3-0.7-2.9-1.2s-0.9-1.3-0.9-2.3
		s0.4-1.9,1.1-2.5c0.8-0.6,1.7-0.9,2.9-0.9c0.7,0,1.5,0.1,2.2,0.4c0.7,0.3,1.4,0.6,2,1.1l-1.3,1.8c-1-0.7-2-1.1-3-1.1
		C170.2,295.4,169.9,295.5,169.6,295.7z"/>
	<path class="st1" d="M181.9,295.6v9h-2.5v-9h-3.2v-2.2h8.8v2.2H181.9z"/>
	<path class="st1" d="M138.6,314.9c-0.2,0.2-0.4,0.5-0.4,0.8s0.1,0.6,0.4,0.8c0.3,0.2,1,0.4,2,0.7c1.1,0.3,1.9,0.7,2.5,1.2
		s0.9,1.3,0.9,2.3s-0.4,1.8-1.1,2.4s-1.7,0.9-3,0.9c-1.8,0-3.4-0.7-4.8-2l1.5-1.8c1.2,1.1,2.3,1.6,3.3,1.6c0.5,0,0.8-0.1,1.1-0.3
		c0.3-0.2,0.4-0.5,0.4-0.8s-0.1-0.6-0.4-0.8s-0.8-0.4-1.6-0.6c-1.3-0.3-2.3-0.7-2.9-1.2s-0.9-1.3-0.9-2.3s0.4-1.9,1.1-2.5
		s1.7-0.9,2.9-0.9c0.7,0,1.5,0.1,2.2,0.4c0.7,0.3,1.4,0.6,2,1.1l-1.3,1.8c-1-0.7-2-1.1-3-1.1C139.1,314.6,138.8,314.7,138.6,314.9z"
		/>
	<path class="st1" d="M153.4,322.6c-1,0.9-2.1,1.4-3.4,1.4s-2.4-0.4-3.2-1.2c-0.9-0.8-1.3-1.9-1.3-3.2c0-1.4,0.4-2.4,1.3-3.2
		c0.9-0.8,1.9-1.2,3.1-1.2c1.2,0,2.2,0.4,3,1.1s1.2,1.7,1.2,2.9v1.3h-6.3c0.1,0.5,0.3,0.9,0.7,1.2s0.9,0.4,1.4,0.4
		c0.8,0,1.5-0.3,2.1-0.8L153.4,322.6z M151.1,317.5c-0.3-0.3-0.7-0.4-1.2-0.4s-0.9,0.1-1.3,0.4s-0.6,0.7-0.7,1.2h3.8
		C151.6,318.2,151.4,317.8,151.1,317.5z"/>
	<path class="st1" d="M160.3,317.4c-0.7,0-1.2,0.3-1.6,0.8c-0.4,0.5-0.5,1.2-0.5,2v3.7h-2.4v-8.6h2.4v1.1c0.3-0.4,0.7-0.7,1.2-0.9
		c0.5-0.2,0.9-0.4,1.4-0.4l0,2.3H160.3z"/>
	<path class="st1" d="M164.7,323.9l-3.4-8.6h2.5l2.1,5.4l2.1-5.4h2.5l-3.4,8.6H164.7z"/>
	<path class="st1" d="M171.9,314.2c-0.3-0.3-0.4-0.6-0.4-1s0.1-0.7,0.4-1c0.3-0.3,0.6-0.4,1-0.4s0.7,0.1,1,0.4
		c0.3,0.3,0.4,0.6,0.4,1s-0.1,0.7-0.4,1c-0.3,0.3-0.6,0.4-1,0.4S172.2,314.4,171.9,314.2z M174.1,323.9h-2.4v-8.6h2.4V323.9z"/>
	<path class="st1" d="M180.5,321.9c0.8,0,1.5-0.4,2.2-1.2l1.4,1.6c-1.1,1.2-2.3,1.7-3.6,1.7c-1.3,0-2.4-0.4-3.3-1.2
		c-0.9-0.8-1.3-1.9-1.3-3.2s0.5-2.4,1.4-3.2c0.9-0.8,2-1.2,3.2-1.2c0.6,0,1.2,0.1,1.9,0.4c0.6,0.3,1.2,0.6,1.7,1.1l-1.2,1.6
		c-0.3-0.3-0.6-0.6-1-0.8c-0.4-0.2-0.8-0.3-1.2-0.3c-0.6,0-1.2,0.2-1.6,0.6c-0.5,0.4-0.7,1-0.7,1.7c0,0.7,0.2,1.3,0.7,1.7
		C179.4,321.7,179.9,321.9,180.5,321.9z"/>
	<path class="st1" d="M193.2,322.6c-1,0.9-2.1,1.4-3.4,1.4s-2.4-0.4-3.2-1.2c-0.9-0.8-1.3-1.9-1.3-3.2c0-1.4,0.4-2.4,1.3-3.2
		s1.9-1.2,3.1-1.2c1.2,0,2.2,0.4,3,1.1c0.8,0.7,1.2,1.7,1.2,2.9v1.3h-6.3c0.1,0.5,0.3,0.9,0.7,1.2c0.4,0.3,0.9,0.4,1.4,0.4
		c0.8,0,1.5-0.3,2.1-0.8L193.2,322.6z M190.9,317.5c-0.3-0.3-0.7-0.4-1.2-0.4s-0.9,0.1-1.3,0.4s-0.6,0.7-0.7,1.2h3.8
		C191.4,318.2,191.2,317.8,190.9,317.5z"/>
	<path class="st2" d="M136.1,336.9c0,2.1-1.1,3.5-2.7,3.5c-0.9,0-1.5-0.3-1.6-1.1l0-0.3c-0.6,0.8-1.4,1.2-2.4,1.2
		c-1.7,0-3.2-1.3-3.2-3.3c0-1.8,1.2-3.3,3.1-3.3c1.2,0,2.1,0.8,2.2,1.1v-0.9h1.5v4.9c0,0.5,0.3,0.8,0.6,0.8c0.7,0,1.3-1,1.3-2.4
		c0-2.8-1.9-4.9-5.1-4.9c-2.9,0-5.2,2.2-5.2,5c0,2.7,2.2,4.7,5,4.7c0.8,0,1.9-0.3,2.7-0.8l0.6,1c-0.8,0.6-2.2,1-3.3,1
		c-3.6,0-6.2-2.5-6.2-5.9c0-3.4,2.8-6.1,6.4-6.1C133.4,330.8,136.1,333.4,136.1,336.9z M127.8,336.8c0,1.1,0.7,2,1.8,2
		c1.1,0,1.8-0.9,1.8-2c0-1.1-0.7-1.9-1.8-1.9C128.5,334.9,127.8,335.8,127.8,336.8z"/>
	<path class="st2" d="M145.9,332.3l-1,1.2c-0.7-0.8-1.7-1.2-2.7-1.2c-2,0-3.5,1.5-3.5,3.4s1.5,3.5,3.5,3.5c1,0,2-0.4,2.7-1.2l1,1.1
		c-1,1-2.4,1.6-3.8,1.6c-2.9,0-5.1-2.2-5.1-5c0-2.8,2.3-4.9,5.2-4.9C143.6,330.8,145,331.4,145.9,332.3z"/>
	<path class="st2" d="M154.4,336.9c0,2.2-1.6,3.8-3.9,3.8c-2.3,0-3.9-1.5-3.9-3.8c0-2.3,1.6-3.8,3.9-3.8
		C152.8,333.2,154.4,334.7,154.4,336.9z M148.2,337c0,1.4,0.9,2.4,2.3,2.4c1.3,0,2.3-1,2.3-2.4c0-1.4-0.9-2.4-2.3-2.4
		C149.2,334.5,148.2,335.5,148.2,337z"/>
	<path class="st2" d="M163.2,336v4.6h-1.6v-4.2c0-1.1-0.7-1.8-1.8-1.8c-1.2,0-2,0.9-2.1,2v4h-1.6v-7.5h1.6v1.4
		c0.5-1,1.5-1.5,2.7-1.5C162.1,333.2,163.2,334.2,163.2,336z"/>
	<path class="st2" d="M169.6,340.2c-0.6,0.4-1.2,0.5-1.8,0.5c-1.1,0-2.1-0.6-2.1-2.2v-3.9h-1.1v-1.2h1.1v-2h1.6v2h2.2v1.2h-2.2v3.6
		c0,0.8,0.3,1,0.8,1c0.3,0,0.7-0.1,1.1-0.3L169.6,340.2z"/>
	<path class="st2" d="M172.6,334.7c0.5-1,1.4-1.5,2.6-1.5v1.5c-1.5-0.1-2.5,0.8-2.6,2.1v3.9H171v-7.5h1.6V334.7z"/>
	<path class="st2" d="M183.6,336.9c0,2.2-1.6,3.8-3.9,3.8c-2.3,0-3.9-1.5-3.9-3.8c0-2.3,1.6-3.8,3.9-3.8
		C182,333.2,183.6,334.7,183.6,336.9z M177.5,337c0,1.4,0.9,2.4,2.3,2.4c1.3,0,2.3-1,2.3-2.4c0-1.4-0.9-2.4-2.3-2.4
		C178.4,334.5,177.5,335.5,177.5,337z"/>
	<path class="st2" d="M185.4,340.7v-10.4h1.6v10.4H185.4z"/>
	<path class="st2" d="M189.5,340.7v-10.4h1.6v10.4H189.5z"/>
	<path class="st2" d="M200.1,337.6h-5.6c0.3,1.1,1.1,1.9,2.3,1.9c0.8,0,1.6-0.3,2.1-0.9l0.9,0.9c-0.7,0.8-1.8,1.3-3.1,1.3
		c-2.3,0-3.8-1.5-3.8-3.8c0-2.3,1.6-3.8,3.8-3.8C199.2,333.2,200.3,334.9,200.1,337.6z M198.7,336.4c-0.1-1.2-0.9-1.9-2.1-1.9
		c-1.2,0-2,0.7-2.2,1.9H198.7z"/>
	<path class="st2" d="M203.4,334.7c0.5-1,1.4-1.5,2.6-1.5v1.5c-1.5-0.1-2.5,0.8-2.6,2.1v3.9h-1.6v-7.5h1.6V334.7z"/>
</g>
<polyline id="XMLID_33_" class="st3" points="-152,303.3 -146.4,297.9 -151.9,292.2 "/>
<line id="XMLID_32_" class="st3" x1="-146.4" y1="297.8" x2="-222.9" y2="297.8"/>
<polyline id="XMLID_5_" class="st3" points="-217.3,334.7 -222.9,340.1 -217.4,345.8 "/>
<line id="XMLID_4_" class="st3" x1="-222.9" y1="340.2" x2="-146.4" y2="340.2"/>
<rect id="XMLID_11_" x="-140.5" y="276.3" class="st0" width="158.7" height="82.9"/>
<g>
	<path class="st2" d="M-113.5,319.5c0,2.1-1.1,3.5-2.7,3.5c-0.9,0-1.5-0.3-1.6-1.1l0-0.3c-0.6,0.8-1.4,1.2-2.4,1.2
		c-1.7,0-3.2-1.3-3.2-3.3c0-1.8,1.2-3.3,3.1-3.3c1.2,0,2.1,0.8,2.2,1.1v-0.9h1.5v4.9c0,0.5,0.3,0.8,0.6,0.8c0.7,0,1.3-1,1.3-2.4
		c0-2.8-1.9-4.9-5.1-4.9c-2.9,0-5.2,2.2-5.2,5c0,2.7,2.2,4.7,5,4.7c0.8,0,1.9-0.3,2.7-0.8l0.6,1c-0.8,0.6-2.2,1-3.3,1
		c-3.6,0-6.2-2.5-6.2-5.9c0-3.4,2.8-6.1,6.4-6.1C-116.2,313.5-113.5,316-113.5,319.5z M-121.8,319.5c0,1.1,0.7,2,1.8,2
		c1.1,0,1.8-0.9,1.8-2c0-1.1-0.7-1.9-1.8-1.9C-121.1,317.6-121.8,318.5-121.8,319.5z"/>
	<path class="st2" d="M-103.7,315l-1,1.2c-0.7-0.8-1.7-1.2-2.7-1.2c-2,0-3.5,1.5-3.5,3.4s1.5,3.5,3.5,3.5c1,0,2-0.4,2.7-1.2l1,1.1
		c-1,1-2.4,1.6-3.8,1.6c-2.9,0-5.1-2.2-5.1-5c0-2.8,2.3-4.9,5.2-4.9C-106,313.5-104.6,314.1-103.7,315z"/>
	<path class="st2" d="M-95.2,319.6c0,2.2-1.6,3.8-3.9,3.8c-2.3,0-3.9-1.5-3.9-3.8c0-2.3,1.6-3.8,3.9-3.8
		C-96.8,315.8-95.2,317.3-95.2,319.6z M-101.4,319.6c0,1.4,0.9,2.4,2.3,2.4c1.3,0,2.3-1,2.3-2.4c0-1.4-0.9-2.4-2.3-2.4
		C-100.4,317.2-101.4,318.2-101.4,319.6z"/>
	<path class="st2" d="M-86.4,318.7v4.6H-88v-4.2c0-1.1-0.7-1.8-1.8-1.8c-1.2,0-2,0.9-2.1,2v4h-1.6v-7.5h1.6v1.4
		c0.5-1,1.5-1.5,2.7-1.5C-87.5,315.8-86.4,316.9-86.4,318.7z"/>
	<path class="st2" d="M-80.1,322.9c-0.6,0.4-1.2,0.5-1.8,0.5c-1.1,0-2.1-0.6-2.1-2.2v-3.9H-85v-1.2h1.1v-2h1.6v2h2.2v1.2h-2.2v3.6
		c0,0.8,0.3,1,0.8,1c0.3,0,0.7-0.1,1.1-0.3L-80.1,322.9z"/>
	<path class="st2" d="M-77,317.4c0.5-1,1.4-1.5,2.6-1.5v1.5c-1.5-0.1-2.5,0.8-2.6,2.1v3.9h-1.6v-7.5h1.6V317.4z"/>
	<path class="st2" d="M-66,319.6c0,2.2-1.6,3.8-3.9,3.8c-2.3,0-3.9-1.5-3.9-3.8c0-2.3,1.6-3.8,3.9-3.8
		C-67.6,315.8-66,317.3-66,319.6z M-72.1,319.6c0,1.4,0.9,2.4,2.3,2.4c1.3,0,2.3-1,2.3-2.4c0-1.4-0.9-2.4-2.3-2.4
		C-71.2,317.2-72.1,318.2-72.1,319.6z"/>
	<path class="st2" d="M-64.2,323.3v-10.4h1.6v10.4H-64.2z"/>
	<path class="st2" d="M-60.1,323.3v-10.4h1.6v10.4H-60.1z"/>
	<path class="st2" d="M-49.5,320.2h-5.6c0.3,1.1,1.1,1.9,2.3,1.9c0.8,0,1.6-0.3,2.1-0.9l0.9,0.9c-0.7,0.8-1.8,1.3-3.1,1.3
		c-2.3,0-3.8-1.5-3.8-3.8c0-2.3,1.6-3.8,3.8-3.8C-50.4,315.8-49.3,317.5-49.5,320.2z M-50.9,319c-0.1-1.2-0.9-1.9-2.1-1.9
		c-1.2,0-2,0.7-2.2,1.9H-50.9z"/>
	<path class="st2" d="M-46.2,317.4c0.5-1,1.4-1.5,2.6-1.5v1.5c-1.5-0.1-2.5,0.8-2.6,2.1v3.9h-1.6v-7.5h1.6V317.4z"/>
	<path class="st2" d="M-41,321.1l-0.9,2.2h-1.7l4.3-9.8h1.7l4.3,9.8h-1.8l-0.9-2.2H-41z M-38.5,315.3l-1.8,4.4h3.7L-38.5,315.3z"/>
	<path class="st2" d="M-25.4,323.3H-27v-1.3c-0.5,0.9-1.4,1.3-2.6,1.3c-2.1,0-3.6-1.6-3.6-3.8c0-2.2,1.4-3.8,3.5-3.8
		c1.2,0,2.1,0.5,2.6,1.4v-4.2h1.6V323.3z M-27,319.6c0-1.4-0.9-2.5-2.3-2.5s-2.3,1-2.3,2.5c0,1.4,0.9,2.4,2.3,2.4
		C-27.9,322.1-27,321-27,319.6z"/>
	<path class="st2" d="M-21.2,323.3l-2.9-7.5h1.7l2.1,5.9l2-5.9h1.6l-2.9,7.5H-21.2z"/>
	<path class="st2" d="M-13.8,313.7c0,0.6-0.4,1-0.9,1s-0.9-0.4-0.9-1c0-0.6,0.4-1,0.9-1S-13.8,313.2-13.8,313.7z M-15.6,323.3v-7.5
		h1.6v7.5H-15.6z"/>
	<path class="st2" d="M-5.5,317l-0.9,1c-0.5-0.5-1.2-0.9-2.1-0.8c-1.3,0-2.2,1-2.2,2.4s0.9,2.4,2.2,2.4c0.9,0,1.7-0.3,2.2-0.9
		l0.9,0.9c-0.7,0.9-1.8,1.4-3.2,1.4c-2.2,0-3.8-1.5-3.8-3.8c0-2.3,1.5-3.8,3.8-3.8C-7.2,315.8-6.1,316.3-5.5,317z"/>
	<path class="st2" d="M2.6,320.2h-5.6c0.3,1.1,1.1,1.9,2.3,1.9c0.8,0,1.6-0.3,2.1-0.9l0.9,0.9c-0.7,0.8-1.8,1.3-3.1,1.3
		c-2.3,0-3.8-1.5-3.8-3.8c0-2.3,1.6-3.8,3.8-3.8C1.7,315.8,2.8,317.5,2.6,320.2z M1.2,319c-0.1-1.2-0.9-1.9-2.1-1.9
		c-1.2,0-2,0.7-2.2,1.9H1.2z"/>
</g>
<polyline id="XMLID_9_" class="st3" points="93,303.3 98.6,297.9 93.1,292.2 "/>
<line id="XMLID_3_" class="st3" x1="98.6" y1="297.8" x2="22.1" y2="297.8"/>
<polyline id="XMLID_2_" class="st3" points="27.7,334.7 22.1,340.1 27.6,345.8 "/>
<line id="XMLID_1_" class="st3" x1="22.1" y1="340.2" x2="98.6" y2="340.2"/>
</svg>
