<?xml version="1.0" encoding="utf-8"?>
<!-- Generator: Adobe Illustrator 19.0.0, SVG Export Plug-In . SVG Version: 6.00 Build 0)  -->
<svg version="1.1" id="Layer_1" xmlns="http://www.w3.org/2000/svg" xmlns:xlink="http://www.w3.org/1999/xlink" x="0px" y="0px"
	 viewBox="0 0 1424 389.6" style="enable-background:new 0 0 1424 389.6;" xml:space="preserve">
<style type="text/css">
	.st0{fill:#FFFFFF;stroke:#000000;stroke-width:2;stroke-miterlimit:10;}
	.st1{opacity:0.3;fill:#619E43;}
	.st2{fill:#619E43;stroke:#000000;stroke-width:2;stroke-miterlimit:10;}
	.st3{fill:#FFFFFF;}
	.st4{opacity:0.4;fill:#7DC245;}
	.st5{fill:#7DC245;stroke:#000000;stroke-width:2;stroke-miterlimit:10;}
	.st6{opacity:0.4;fill:#A6CE3D;}
	.st7{fill:#A6CE3D;stroke:#000000;stroke-width:2;stroke-miterlimit:10;}
	.st8{opacity:0.4;fill:#A4C486;}
	.st9{fill:#A4C486;stroke:#000000;stroke-width:2;stroke-miterlimit:10;}
	.st10{fill:none;stroke:#010101;stroke-width:2;stroke-miterlimit:10;}
	.st11{fill:#6BB345;stroke:#010101;stroke-width:2;stroke-miterlimit:10;}
	.st12{fill:#010101;}
</style>
<rect id="XMLID_18_" x="186.6" y="57.5" class="st0" width="180" height="322.6"/>
<rect id="XMLID_15_" x="186.6" y="58.5" class="st1" width="180" height="320.6"/>
<rect id="XMLID_17_" x="186.6" y="7.5" class="st2" width="180" height="50"/>
<g id="XMLID_386_">
	<g id="XMLID_523_">
		<path id="XMLID_538_" class="st3" d="M243,33.5c-0.2,0-0.4,0-0.6,0h-3v3.8h-2.1V24.7h5.1c3.2,0,5.1,1.6,5.1,4.3
			c0,2-0.9,3.4-2.6,4.1l2.8,4.2h-2.4L243,33.5z M242.4,31.6c1.9,0,3.1-0.8,3.1-2.5c0-1.7-1.1-2.4-3.1-2.4h-3v5H242.4z"/>
		<path id="XMLID_536_" class="st3" d="M252.4,26.6V30h6.2v1.9h-6.2v3.5h7.1v1.9h-9.2V24.7h9v1.9H252.4z"/>
		<path id="XMLID_534_" class="st3" d="M270.7,25.9l-0.9,1.9c-1.4-0.8-2.7-1.2-3.7-1.2c-1.2,0-2.1,0.5-2.1,1.3
			c0,2.8,6.8,1.3,6.8,5.8c0,2.3-2,3.6-4.8,3.6c-2,0-3.9-0.8-5.1-2l0.9-1.8c1.3,1.2,2.9,1.8,4.3,1.8c1.5,0,2.4-0.6,2.4-1.5
			c0-2.8-6.8-1.2-6.8-5.7c0-2.2,1.9-3.5,4.6-3.5C267.9,24.6,269.5,25.1,270.7,25.9z"/>
		<path id="XMLID_532_" class="st3" d="M277.9,26.6v10.7h-2.1V26.6h-4v-1.9h10.1v1.9H277.9z"/>
		<path id="XMLID_529_" class="st3" d="M290.2,34.5l-1.2,2.8h-2.2l5.6-12.6h2.2l5.5,12.6h-2.3l-1.2-2.8H290.2z M293.3,27l-2.4,5.6
			h4.8L293.3,27z"/>
		<path id="XMLID_526_" class="st3" d="M306.7,24.7c3.2,0,5,1.6,5,4.3c0,2.8-1.8,4.5-5,4.5h-2.9v3.8h-2.1V24.7H306.7z M303.8,31.6
			h2.8c1.9,0,3-0.8,3-2.5c0-1.7-1.1-2.4-3-2.4h-2.8V31.6z"/>
		<path id="XMLID_524_" class="st3" d="M313.8,37.3V24.7h2.1v12.6H313.8z"/>
	</g>
</g>
<g id="XMLID_296_">
	<g id="XMLID_1215_">
		<path id="XMLID_1302_" d="M234.7,124.6c3.8,0,6.5,2.6,6.5,6.3c0,3.6-2.8,6.3-6.6,6.3h-5.1v-12.6H234.7z M231.7,135.3h3.1
			c2.4,0,4.3-1.8,4.3-4.4c0-2.6-1.9-4.4-4.4-4.4h-3V135.3z"/>
		<path id="XMLID_1299_" d="M245.6,124.9c0,0.7-0.5,1.2-1.2,1.2c-0.7,0-1.2-0.5-1.2-1.2c0-0.7,0.5-1.3,1.2-1.3
			C245.1,123.6,245.6,124.1,245.6,124.9z M243.4,137.2v-9.6h2.1v9.6H243.4z"/>
		<path id="XMLID_1297_" d="M254.7,128.5l-0.8,1.5c-0.8-0.5-1.9-0.8-2.8-0.8c-0.8,0-1.4,0.3-1.4,1c0,1.8,5.1,0.8,5.1,4.3
			c0,2-1.7,2.8-3.7,2.8c-1.4,0-2.9-0.5-3.9-1.3l0.7-1.5c0.8,0.7,2.2,1.2,3.2,1.2c0.9,0,1.6-0.3,1.6-1c0-2-5-0.9-5-4.3
			c0-1.9,1.7-2.8,3.5-2.8C252.6,127.5,253.8,127.9,254.7,128.5z"/>
		<path id="XMLID_1294_" d="M267,132.4c0,2.9-1.8,4.8-4.5,4.8c-1.5,0-2.7-0.6-3.4-1.7v5.1H257v-13.1h2.1v1.7
			c0.7-1.1,1.9-1.7,3.3-1.7C265.2,127.5,267,129.5,267,132.4z M264.9,132.4c0-1.8-1.2-3.1-2.9-3.1s-2.9,1.3-2.9,3.1
			c0,1.9,1.2,3.1,2.9,3.1S264.9,134.2,264.9,132.4z"/>
		<path id="XMLID_1291_" d="M274.9,136c-0.7,0.8-1.8,1.3-3.2,1.3c-2.1,0-3.4-1.3-3.4-3c0-1.7,1.3-2.9,3.6-2.9h2.9v-0.3
			c0-1.2-0.8-1.9-2.3-1.9c-0.9,0-1.9,0.3-2.8,1l-0.8-1.4c1.3-0.8,2.3-1.2,4.1-1.2c2.5,0,3.9,1.3,3.9,3.4l0,6.3h-2V136z M274.9,133.8
			v-0.9h-2.6c-1.4,0-2,0.4-2,1.3c0,0.9,0.7,1.4,1.9,1.4C273.7,135.6,274.8,134.9,274.9,133.8z"/>
		<path id="XMLID_1289_" d="M285.2,136.6c-0.8,0.5-1.5,0.7-2.4,0.7c-1.4,0-2.7-0.8-2.7-2.8v-5h-1.4V128h1.4v-2.6h2.1v2.6h2.8v1.5
			h-2.8v4.6c0,1,0.4,1.3,1,1.3c0.4,0,0.9-0.1,1.4-0.4L285.2,136.6z"/>
		<path id="XMLID_1287_" d="M294.8,129.1l-1.1,1.3c-0.7-0.7-1.6-1.1-2.7-1.1c-1.7,0-2.8,1.2-2.8,3.1s1.2,3.1,2.8,3.1
			c1.2,0,2.2-0.4,2.8-1.2l1.2,1.2c-0.9,1.1-2.3,1.8-4.1,1.8c-2.8,0-4.8-2-4.8-4.8c0-2.9,2-4.9,4.8-4.9
			C292.6,127.5,294,128.1,294.8,129.1z"/>
		<path id="XMLID_1285_" d="M306.4,131.2v6h-2.1v-5.4c0-1.4-0.9-2.3-2.3-2.3c-1.7,0-2.7,1.3-2.7,3v4.7h-2.1v-13.4h2.1v5.7
			c0.7-1.4,1.9-1.9,3.5-1.9C305,127.5,306.4,128.9,306.4,131.2z"/>
		<path id="XMLID_1282_" d="M317.6,133.2h-7.2c0.3,1.5,1.5,2.4,3,2.4c1,0,2-0.4,2.7-1.1l1.1,1.2c-0.9,1-2.3,1.6-4,1.6
			c-3,0-4.9-2-4.9-4.8c0-2.9,2-4.9,4.8-4.9C316.5,127.5,317.8,129.7,317.6,133.2z M315.8,131.7c-0.1-1.5-1.1-2.5-2.7-2.5
			c-1.5,0-2.6,1-2.8,2.5H315.8z"/>
		<path id="XMLID_1280_" d="M321.8,129.5c0.6-1.3,1.8-2,3.3-2v2c-1.9-0.1-3.2,1-3.3,2.7v5h-2.1v-9.6h2.1V129.5z"/>
		<path id="XMLID_1278_" d="M255.8,147.4l-0.9,1.9c-1.4-0.8-2.7-1.2-3.7-1.2c-1.2,0-2.1,0.5-2.1,1.3c0,2.8,6.8,1.3,6.8,5.8
			c0,2.3-2,3.6-4.8,3.6c-2,0-3.9-0.8-5.1-2l0.9-1.8c1.3,1.2,2.9,1.8,4.3,1.8c1.5,0,2.4-0.6,2.4-1.5c0-2.8-6.8-1.2-6.8-5.7
			c0-2.2,1.9-3.5,4.6-3.5C253,146.1,254.6,146.6,255.8,147.4z"/>
		<path id="XMLID_1275_" d="M266.7,154.8h-7.2c0.3,1.5,1.5,2.4,3,2.4c1,0,2-0.4,2.7-1.1l1.1,1.2c-0.9,1-2.3,1.6-4,1.6
			c-3,0-4.9-2-4.9-4.8c0-2.9,2-4.9,4.8-4.9C265.6,149.1,267,151.3,266.7,154.8z M264.9,153.3c-0.1-1.5-1.1-2.5-2.7-2.5
			c-1.5,0-2.6,1-2.8,2.5H264.9z"/>
		<path id="XMLID_1273_" d="M271,151.1c0.6-1.3,1.8-2,3.3-2v2c-1.9-0.1-3.2,1-3.3,2.7v5h-2.1v-9.6h2.1V151.1z"/>
		<path id="XMLID_1271_" d="M278.7,158.8l-3.7-9.6h2.2l2.7,7.5l2.6-7.5h2.1l-3.7,9.6H278.7z"/>
		<path id="XMLID_1269_" d="M286,158.8v-13.4h2.1v13.4H286z"/>
		<path id="XMLID_1266_" d="M299.6,154.8h-7.2c0.3,1.5,1.5,2.4,3,2.4c1,0,2-0.4,2.7-1.1l1.1,1.2c-0.9,1-2.3,1.6-4,1.6
			c-3,0-4.9-2-4.9-4.8c0-2.9,2-4.9,4.8-4.9C298.5,149.1,299.9,151.3,299.6,154.8z M297.8,153.3c-0.1-1.5-1.1-2.5-2.7-2.5
			c-1.5,0-2.6,1-2.8,2.5H297.8z"/>
		<path id="XMLID_1264_" d="M307.2,158.2c-0.8,0.5-1.5,0.7-2.4,0.7c-1.4,0-2.7-0.8-2.7-2.8v-5h-1.4v-1.5h1.4v-2.6h2.1v2.6h2.8v1.5
			h-2.8v4.6c0,1,0.4,1.3,1,1.3c0.4,0,0.9-0.1,1.4-0.4L307.2,158.2z"/>
		<path id="XMLID_1262_" d="M228.1,288.4v-5.2h-6.7v5.2h-2.1v-12.6h2.1v5.5h6.7v-5.5h2.1v12.6H228.1z"/>
		<path id="XMLID_1260_" d="M238.8,287.8c-0.8,0.5-1.5,0.7-2.4,0.7c-1.4,0-2.7-0.8-2.7-2.8v-5h-1.4v-1.5h1.4v-2.6h2.1v2.6h2.8v1.5
			h-2.8v4.6c0,1,0.4,1.3,1,1.3c0.4,0,0.9-0.1,1.4-0.4L238.8,287.8z"/>
		<path id="XMLID_1258_" d="M246.1,287.8c-0.8,0.5-1.5,0.7-2.4,0.7c-1.4,0-2.7-0.8-2.7-2.8v-5h-1.4v-1.5h1.4v-2.6h2.1v2.6h2.8v1.5
			h-2.8v4.6c0,1,0.4,1.3,1,1.3c0.4,0,0.9-0.1,1.4-0.4L246.1,287.8z"/>
		<path id="XMLID_1255_" d="M258.1,283.6c0,2.9-1.8,4.8-4.5,4.8c-1.5,0-2.7-0.6-3.4-1.7v5.1h-2.1v-13.1h2.1v1.7
			c0.7-1.1,1.9-1.7,3.3-1.7C256.3,278.7,258.1,280.7,258.1,283.6z M256,283.6c0-1.8-1.2-3.1-2.9-3.1s-2.9,1.3-2.9,3.1
			c0,1.9,1.2,3.1,2.9,3.1S256,285.4,256,283.6z"/>
		<path id="XMLID_1253_" d="M271.8,288.4l0-9.4l-4,8.1h-1.4l-4-8.1v9.4h-2v-12.6h2.5l4.2,8.4l4.1-8.4h2.5v12.6H271.8z"/>
		<path id="XMLID_1250_" d="M285.4,284.4h-7.2c0.3,1.5,1.5,2.4,3,2.4c1,0,2-0.4,2.7-1.1l1.1,1.2c-0.9,1-2.3,1.6-4,1.6
			c-3,0-4.9-2-4.9-4.8c0-2.9,2-4.9,4.8-4.9C284.3,278.7,285.6,280.9,285.4,284.4z M283.6,282.9c-0.1-1.5-1.1-2.5-2.7-2.5
			c-1.5,0-2.6,1-2.8,2.5H283.6z"/>
		<path id="XMLID_1248_" d="M293.7,279.7l-0.8,1.5c-0.8-0.5-1.9-0.8-2.8-0.8c-0.8,0-1.4,0.3-1.4,1c0,1.8,5.1,0.8,5.1,4.3
			c0,2-1.7,2.8-3.7,2.8c-1.4,0-2.9-0.5-3.9-1.3l0.7-1.5c0.8,0.7,2.2,1.2,3.2,1.2c0.9,0,1.6-0.3,1.6-1c0-2-5-0.9-5-4.3
			c0-1.9,1.7-2.8,3.5-2.8C291.6,278.7,292.9,279.1,293.7,279.7z"/>
		<path id="XMLID_1246_" d="M302.2,279.7l-0.8,1.5c-0.8-0.5-1.9-0.8-2.8-0.8c-0.8,0-1.4,0.3-1.4,1c0,1.8,5.1,0.8,5.1,4.3
			c0,2-1.7,2.8-3.7,2.8c-1.4,0-2.9-0.5-3.9-1.3l0.7-1.5c0.8,0.7,2.2,1.2,3.2,1.2c0.9,0,1.6-0.3,1.6-1c0-2-5-0.9-5-4.3
			c0-1.9,1.7-2.8,3.5-2.8C300.1,278.7,301.3,279.1,302.2,279.7z"/>
		<path id="XMLID_1243_" d="M310.2,287.2c-0.7,0.8-1.8,1.3-3.2,1.3c-2.1,0-3.4-1.3-3.4-3c0-1.7,1.3-2.9,3.6-2.9h2.9v-0.3
			c0-1.2-0.8-1.9-2.3-1.9c-0.9,0-1.9,0.3-2.8,1l-0.8-1.4c1.3-0.8,2.3-1.2,4.1-1.2c2.5,0,3.9,1.3,3.9,3.4l0,6.3h-2V287.2z M310.2,285
			v-0.9h-2.6c-1.4,0-2,0.4-2,1.3c0,0.9,0.7,1.4,1.9,1.4C308.9,286.8,310.1,286.1,310.2,285z"/>
		<path id="XMLID_1240_" d="M323.6,287.5c0,2.8-2,4.5-5,4.5c-1.5,0-2.8-0.5-4-1.3l0.9-1.5c0.9,0.7,1.8,1,3,1c1.8,0,3-1.1,3-2.7v-1.2
			c-0.6,1-1.7,1.6-3.2,1.6c-2.6,0-4.3-1.9-4.3-4.6c0-2.7,1.7-4.5,4.2-4.6c1.5,0,2.6,0.6,3.2,1.6v-1.5h2.1V287.5z M321.6,283.4
			c0-1.7-1.1-2.9-2.8-2.9c-1.6,0-2.8,1.2-2.8,2.9c0,1.7,1.1,3,2.8,3C320.4,286.3,321.6,285.1,321.6,283.4z"/>
		<path id="XMLID_1237_" d="M334.9,284.4h-7.2c0.3,1.5,1.5,2.4,3,2.4c1,0,2-0.4,2.7-1.1l1.1,1.2c-0.9,1-2.3,1.6-4,1.6
			c-3,0-4.9-2-4.9-4.8c0-2.9,2-4.9,4.8-4.9C333.8,278.7,335.2,280.9,334.9,284.4z M333.1,282.9c-0.1-1.5-1.1-2.5-2.7-2.5
			c-1.5,0-2.6,1-2.8,2.5H333.1z"/>
		<path id="XMLID_1235_" d="M245.2,299.3l-1.2,1.5c-0.9-1-2.2-1.6-3.5-1.6c-2.5,0-4.5,1.9-4.5,4.4s2,4.4,4.5,4.4
			c1.3,0,2.6-0.6,3.5-1.5l1.3,1.4c-1.3,1.3-3.1,2.1-4.9,2.1c-3.7,0-6.6-2.8-6.6-6.4c0-3.6,2.9-6.3,6.6-6.3
			C242.2,297.3,244,298.1,245.2,299.3z"/>
		<path id="XMLID_1232_" d="M256.1,305.2c0,2.9-2,4.9-5,4.9c-3,0-5-2-5-4.9c0-2.9,2-4.9,5-4.9C254,300.3,256.1,302.3,256.1,305.2z
			 M248.2,305.2c0,1.9,1.2,3.1,2.9,3.1c1.7,0,2.9-1.3,2.9-3.1c0-1.8-1.2-3.1-2.9-3.1C249.4,302.1,248.2,303.4,248.2,305.2z"/>
		<path id="XMLID_1230_" d="M267.4,304v6h-2.1v-5.4c0-1.4-0.9-2.3-2.3-2.3c-1.6,0-2.6,1.1-2.7,2.6v5.1h-2.1v-9.6h2.1v1.8
			c0.7-1.3,1.9-1.9,3.5-1.9C266.1,300.3,267.4,301.7,267.4,304z"/>
		<path id="XMLID_1228_" d="M272.1,310l-3.7-9.6h2.2l2.7,7.5l2.6-7.5h2.1l-3.7,9.6H272.1z"/>
		<path id="XMLID_1225_" d="M287.4,306h-7.2c0.3,1.5,1.5,2.4,3,2.4c1,0,2-0.4,2.7-1.1l1.1,1.2c-0.9,1-2.3,1.6-4,1.6
			c-3,0-4.9-2-4.9-4.8c0-2.9,2-4.9,4.8-4.9C286.3,300.3,287.7,302.5,287.4,306z M285.6,304.5c-0.1-1.5-1.1-2.5-2.7-2.5
			c-1.5,0-2.6,1-2.8,2.5H285.6z"/>
		<path id="XMLID_1223_" d="M291.6,302.3c0.6-1.3,1.8-2,3.3-2v2c-1.9-0.1-3.2,1-3.3,2.7v5h-2.1v-9.6h2.1V302.3z"/>
		<path id="XMLID_1221_" d="M302.1,309.4c-0.8,0.5-1.5,0.7-2.4,0.7c-1.4,0-2.7-0.8-2.7-2.8v-5h-1.4v-1.5h1.4v-2.6h2.1v2.6h2.8v1.5
			h-2.8v4.6c0,1,0.4,1.3,1,1.3c0.4,0,0.9-0.1,1.4-0.4L302.1,309.4z"/>
		<path id="XMLID_1218_" d="M312.3,306h-7.2c0.3,1.5,1.5,2.4,3,2.4c1,0,2-0.4,2.7-1.1l1.1,1.2c-0.9,1-2.3,1.6-4,1.6
			c-3,0-4.9-2-4.9-4.8c0-2.9,2-4.9,4.8-4.9C311.2,300.3,312.5,302.5,312.3,306z M310.5,304.5c-0.1-1.5-1.1-2.5-2.7-2.5
			c-1.5,0-2.6,1-2.8,2.5H310.5z"/>
		<path id="XMLID_1216_" d="M316.5,302.3c0.6-1.3,1.8-2,3.3-2v2c-1.9-0.1-3.2,1-3.3,2.7v5h-2.1v-9.6h2.1V302.3z"/>
	</g>
</g>
<rect id="XMLID_32_" x="464.7" y="57.5" class="st0" width="180" height="322.6"/>
<rect id="XMLID_31_" x="464.7" y="58.5" class="st4" width="180" height="320.6"/>
<rect id="XMLID_30_" x="464.7" y="7.5" class="st5" width="180" height="50"/>
<g id="XMLID_254_">
	<g id="XMLID_836_">
		<path id="XMLID_875_" class="st3" d="M480.3,34.5l-1.2,2.8h-2.2l5.6-12.6h2.2l5.5,12.6h-2.3l-1.2-2.8H480.3z M483.5,27l-2.4,5.6
			h4.8L483.5,27z"/>
		<path id="XMLID_872_" class="st3" d="M501.8,32.6c0,2.9-1.8,4.8-4.5,4.8c-1.5,0-2.7-0.6-3.4-1.7v5.1h-2.1V27.7h2.1v1.7
			c0.7-1.1,1.9-1.7,3.3-1.7C499.9,27.7,501.8,29.6,501.8,32.6z M499.7,32.5c0-1.8-1.2-3.1-2.9-3.1c-1.7,0-2.9,1.3-2.9,3.1
			c0,1.9,1.2,3.1,2.9,3.1C498.5,35.6,499.7,34.3,499.7,32.5z"/>
		<path id="XMLID_869_" class="st3" d="M514,32.6c0,2.9-1.8,4.8-4.5,4.8c-1.5,0-2.7-0.6-3.4-1.7v5.1H504V27.7h2.1v1.7
			c0.7-1.1,1.9-1.7,3.3-1.7C512.2,27.7,514,29.6,514,32.6z M512,32.5c0-1.8-1.2-3.1-2.9-3.1c-1.7,0-2.9,1.3-2.9,3.1
			c0,1.9,1.2,3.1,2.9,3.1C510.7,35.6,512,34.3,512,32.5z"/>
		<path id="XMLID_867_" class="st3" d="M516.3,37.3V24h2.1v13.4H516.3z"/>
		<path id="XMLID_864_" class="st3" d="M523.7,25c0,0.7-0.5,1.2-1.2,1.2c-0.7,0-1.2-0.5-1.2-1.2c0-0.7,0.5-1.3,1.2-1.3
			C523.2,23.7,523.7,24.3,523.7,25z M521.5,37.3v-9.6h2.1v9.6H521.5z"/>
		<path id="XMLID_862_" class="st3" d="M534.5,29.2l-1.1,1.3c-0.7-0.7-1.6-1.1-2.7-1.1c-1.7,0-2.8,1.2-2.8,3.1s1.2,3.1,2.8,3.1
			c1.2,0,2.2-0.4,2.8-1.2l1.2,1.2c-0.9,1.1-2.3,1.8-4.1,1.8c-2.8,0-4.8-2-4.8-4.8c0-2.9,2-4.9,4.8-4.9
			C532.3,27.7,533.6,28.2,534.5,29.2z"/>
		<path id="XMLID_859_" class="st3" d="M542.1,36.1c-0.7,0.8-1.8,1.3-3.2,1.3c-2.1,0-3.4-1.3-3.4-3c0-1.7,1.3-2.9,3.6-2.9h2.9v-0.3
			c0-1.2-0.8-1.9-2.3-1.9c-0.9,0-1.9,0.3-2.8,1l-0.8-1.4c1.3-0.8,2.3-1.2,4.1-1.2c2.5,0,3.9,1.3,3.9,3.4l0,6.3h-2V36.1z M542.1,34
			v-0.9h-2.6c-1.4,0-2,0.4-2,1.3c0,0.9,0.7,1.4,1.9,1.4C540.9,35.8,542,35,542.1,34z"/>
		<path id="XMLID_857_" class="st3" d="M552.3,36.7c-0.8,0.5-1.5,0.7-2.4,0.7c-1.4,0-2.7-0.8-2.7-2.8v-5h-1.4v-1.5h1.4v-2.6h2.1v2.6
			h2.8v1.5h-2.8v4.6c0,1,0.4,1.3,1,1.3c0.4,0,0.9-0.1,1.4-0.4L552.3,36.7z"/>
		<path id="XMLID_854_" class="st3" d="M556.5,25c0,0.7-0.5,1.2-1.2,1.2s-1.2-0.5-1.2-1.2c0-0.7,0.5-1.3,1.2-1.3
			S556.5,24.3,556.5,25z M554.2,37.3v-9.6h2.1v9.6H554.2z"/>
		<path id="XMLID_851_" class="st3" d="M568.5,32.5c0,2.9-2,4.9-5,4.9c-3,0-5-2-5-4.9c0-2.9,2-4.9,5-4.9
			C566.4,27.7,568.5,29.6,568.5,32.5z M560.5,32.5c0,1.9,1.2,3.1,2.9,3.1c1.7,0,2.9-1.3,2.9-3.1c0-1.8-1.2-3.1-2.9-3.1
			C561.7,29.5,560.5,30.7,560.5,32.5z"/>
		<path id="XMLID_849_" class="st3" d="M579.8,31.4v6h-2.1v-5.4c0-1.4-0.9-2.3-2.3-2.3c-1.6,0-2.6,1.1-2.7,2.6v5.1h-2.1v-9.6h2.1
			v1.8c0.7-1.3,1.9-1.9,3.5-1.9C578.4,27.7,579.8,29.1,579.8,31.4z"/>
		<path id="XMLID_847_" class="st3" d="M594.9,35.4v1.9h-7.6V24.7h2.1v10.7H594.9z"/>
		<path id="XMLID_844_" class="st3" d="M602.5,36.1c-0.7,0.8-1.8,1.3-3.2,1.3c-2.1,0-3.4-1.3-3.4-3c0-1.7,1.3-2.9,3.6-2.9h2.9v-0.3
			c0-1.2-0.8-1.9-2.3-1.9c-0.9,0-1.9,0.3-2.8,1l-0.8-1.4c1.3-0.8,2.3-1.2,4.1-1.2c2.5,0,3.9,1.3,3.9,3.4l0,6.3h-2V36.1z M602.5,34
			v-0.9h-2.6c-1.4,0-2,0.4-2,1.3c0,0.9,0.7,1.4,1.9,1.4C601.3,35.8,602.4,35,602.5,34z"/>
		<path id="XMLID_842_" class="st3" d="M610.8,38.6c-0.6,1.5-1.7,2.3-3.1,2.3c-0.9,0-1.5-0.3-2.2-0.8l0.9-1.6
			c0.5,0.3,0.8,0.5,1.2,0.5c0.6,0,1.1-0.3,1.5-1.1l0.3-0.7l-4-9.4h2.1l2.9,7.3l2.7-7.3h2.1L610.8,38.6z"/>
		<path id="XMLID_839_" class="st3" d="M624.7,33.3h-7.2c0.3,1.5,1.5,2.4,3,2.4c1,0,2-0.4,2.7-1.1l1.1,1.2c-0.9,1-2.3,1.6-4,1.6
			c-3,0-4.9-2-4.9-4.8c0-2.9,2-4.9,4.8-4.9C623.6,27.7,624.9,29.9,624.7,33.3z M622.9,31.8c-0.1-1.5-1.1-2.5-2.7-2.5
			c-1.5,0-2.6,1-2.8,2.5H622.9z"/>
		<path id="XMLID_837_" class="st3" d="M628.9,29.6c0.6-1.3,1.8-2,3.3-2v2c-1.9-0.1-3.2,1-3.3,2.7v5h-2.1v-9.6h2.1V29.6z"/>
	</g>
</g>
<g id="XMLID_230_">
	<g id="XMLID_619_">
		<path id="XMLID_677_" d="M522,126.5l-1.2,1.5c-0.9-1-2.2-1.6-3.5-1.6c-2.5,0-4.5,1.9-4.5,4.4s2,4.4,4.5,4.4c1.3,0,2.6-0.6,3.5-1.5
			l1.3,1.4c-1.3,1.3-3.1,2.1-4.9,2.1c-3.7,0-6.6-2.8-6.6-6.4c0-3.6,2.9-6.3,6.6-6.3C519,124.5,520.7,125.3,522,126.5z"/>
		<path id="XMLID_639_" d="M532.8,132.4c0,2.9-2,4.9-5,4.9c-3,0-5-2-5-4.9c0-2.9,2-4.9,5-4.9C530.8,127.5,532.8,129.5,532.8,132.4z
			 M524.9,132.4c0,1.9,1.2,3.1,2.9,3.1c1.7,0,2.9-1.3,2.9-3.1c0-1.8-1.2-3.1-2.9-3.1C526.1,129.3,524.9,130.6,524.9,132.4z"/>
		<path id="XMLID_637_" d="M544.2,131.2v6h-2.1v-5.4c0-1.4-0.9-2.3-2.3-2.3c-1.6,0-2.6,1.1-2.7,2.6v5.1H535v-9.6h2.1v1.8
			c0.7-1.3,1.9-1.9,3.5-1.9C542.8,127.5,544.2,128.9,544.2,131.2z"/>
		<path id="XMLID_635_" d="M552.4,136.6c-0.8,0.5-1.5,0.7-2.4,0.7c-1.4,0-2.7-0.8-2.7-2.8v-5H546V128h1.4v-2.6h2.1v2.6h2.8v1.5h-2.8
			v4.6c0,1,0.4,1.3,1,1.3c0.4,0,0.9-0.1,1.4-0.4L552.4,136.6z"/>
		<path id="XMLID_633_" d="M556.3,129.5c0.6-1.3,1.8-2,3.3-2v2c-1.9-0.1-3.2,1-3.3,2.7v5h-2.1v-9.6h2.1V129.5z"/>
		<path id="XMLID_629_" d="M570.4,132.4c0,2.9-2,4.9-5,4.9c-3,0-5-2-5-4.9c0-2.9,2-4.9,5-4.9C568.4,127.5,570.4,129.5,570.4,132.4z
			 M562.5,132.4c0,1.9,1.2,3.1,2.9,3.1c1.7,0,2.9-1.3,2.9-3.1c0-1.8-1.2-3.1-2.9-3.1C563.7,129.3,562.5,130.6,562.5,132.4z"/>
		<path id="XMLID_627_" d="M572.7,137.2v-13.4h2.1v13.4H572.7z"/>
		<path id="XMLID_625_" d="M578,137.2v-13.4h2.1v13.4H578z"/>
		<path id="XMLID_622_" d="M591.6,133.2h-7.2c0.3,1.5,1.5,2.4,3,2.4c1,0,2-0.4,2.7-1.1l1.1,1.2c-0.9,1-2.3,1.6-4,1.6
			c-3,0-4.9-2-4.9-4.8c0-2.9,2-4.9,4.8-4.9C590.5,127.5,591.9,129.7,591.6,133.2z M589.8,131.7c-0.1-1.5-1.1-2.5-2.7-2.5
			c-1.5,0-2.6,1-2.8,2.5H589.8z"/>
		<path id="XMLID_620_" d="M595.9,129.5c0.6-1.3,1.8-2,3.3-2v2c-1.9-0.1-3.2,1-3.3,2.7v5h-2.1v-9.6h2.1V129.5z"/>
	</g>
</g>
<rect id="XMLID_41_" x="741.1" y="57.5" class="st0" width="180" height="322.6"/>
<rect id="XMLID_40_" x="741.1" y="58.5" class="st6" width="180" height="320.6"/>
<rect id="XMLID_39_" x="741.1" y="7.5" class="st7" width="180" height="50"/>
<g id="XMLID_200_">
	<g id="XMLID_696_">
		<path id="XMLID_724_" class="st3" d="M783.5,25.9l-0.9,1.9c-1.4-0.8-2.7-1.2-3.7-1.2c-1.2,0-2.1,0.5-2.1,1.3
			c0,2.8,6.8,1.3,6.8,5.8c0,2.3-2,3.6-4.8,3.6c-2,0-3.9-0.8-5.1-2l0.9-1.8c1.3,1.2,2.9,1.8,4.3,1.8c1.5,0,2.4-0.6,2.4-1.5
			c0-2.8-6.8-1.2-6.8-5.7c0-2.2,1.9-3.5,4.6-3.5C780.7,24.6,782.3,25.1,783.5,25.9z"/>
		<path id="XMLID_721_" class="st3" d="M794.4,33.3h-7.2c0.3,1.5,1.5,2.4,3,2.4c1,0,2-0.4,2.7-1.1l1.1,1.2c-0.9,1-2.3,1.6-4,1.6
			c-3,0-4.9-2-4.9-4.8c0-2.9,2-4.9,4.8-4.9C793.3,27.7,794.7,29.9,794.4,33.3z M792.6,31.8c-0.1-1.5-1.1-2.5-2.7-2.5
			c-1.5,0-2.6,1-2.8,2.5H792.6z"/>
		<path id="XMLID_719_" class="st3" d="M798.7,29.6c0.6-1.3,1.8-2,3.3-2v2c-1.9-0.1-3.2,1-3.3,2.7v5h-2.1v-9.6h2.1V29.6z"/>
		<path id="XMLID_717_" class="st3" d="M806.4,37.3l-3.7-9.6h2.2l2.7,7.5l2.6-7.5h2.1l-3.7,9.6H806.4z"/>
		<path id="XMLID_714_" class="st3" d="M815.8,25c0,0.7-0.5,1.2-1.2,1.2c-0.7,0-1.2-0.5-1.2-1.2c0-0.7,0.5-1.3,1.2-1.3
			C815.3,23.7,815.8,24.3,815.8,25z M813.6,37.3v-9.6h2.1v9.6H813.6z"/>
		<path id="XMLID_712_" class="st3" d="M826.6,29.2l-1.1,1.3c-0.7-0.7-1.6-1.1-2.7-1.1c-1.7,0-2.8,1.2-2.8,3.1s1.2,3.1,2.8,3.1
			c1.2,0,2.2-0.4,2.8-1.2l1.2,1.2c-0.9,1.1-2.3,1.8-4.1,1.8c-2.8,0-4.8-2-4.8-4.8c0-2.9,2-4.9,4.8-4.9
			C824.4,27.7,825.7,28.2,826.6,29.2z"/>
		<path id="XMLID_709_" class="st3" d="M836.9,33.3h-7.2c0.3,1.5,1.5,2.4,3,2.4c1,0,2-0.4,2.7-1.1l1.1,1.2c-0.9,1-2.3,1.6-4,1.6
			c-3,0-4.9-2-4.9-4.8c0-2.9,2-4.9,4.8-4.9C835.8,27.7,837.2,29.9,836.9,33.3z M835.1,31.8c-0.1-1.5-1.1-2.5-2.7-2.5
			c-1.5,0-2.6,1-2.8,2.5H835.1z"/>
		<path id="XMLID_707_" class="st3" d="M851.4,35.4v1.9h-7.6V24.7h2.1v10.7H851.4z"/>
		<path id="XMLID_704_" class="st3" d="M859.1,36.1c-0.7,0.8-1.8,1.3-3.2,1.3c-2.1,0-3.4-1.3-3.4-3c0-1.7,1.3-2.9,3.6-2.9h2.9v-0.3
			c0-1.2-0.8-1.9-2.3-1.9c-0.9,0-1.9,0.3-2.8,1l-0.8-1.4c1.3-0.8,2.3-1.2,4.1-1.2c2.5,0,3.9,1.3,3.9,3.4l0,6.3h-2V36.1z M859.1,34
			v-0.9h-2.6c-1.4,0-2,0.4-2,1.3c0,0.9,0.7,1.4,1.9,1.4C857.8,35.8,859,35,859.1,34z"/>
		<path id="XMLID_702_" class="st3" d="M867.4,38.6c-0.6,1.5-1.7,2.3-3.1,2.3c-0.9,0-1.5-0.3-2.2-0.8l0.9-1.6
			c0.5,0.3,0.8,0.5,1.2,0.5c0.6,0,1.1-0.3,1.5-1.1l0.3-0.7l-4-9.4h2.1L867,35l2.7-7.3h2.1L867.4,38.6z"/>
		<path id="XMLID_699_" class="st3" d="M881.2,33.3H874c0.3,1.5,1.5,2.4,3,2.4c1,0,2-0.4,2.7-1.1l1.1,1.2c-0.9,1-2.3,1.6-4,1.6
			c-3,0-4.9-2-4.9-4.8c0-2.9,2-4.9,4.8-4.9C880.1,27.7,881.5,29.9,881.2,33.3z M879.4,31.8c-0.1-1.5-1.1-2.5-2.7-2.5
			c-1.5,0-2.6,1-2.8,2.5H879.4z"/>
		<path id="XMLID_697_" class="st3" d="M885.4,29.6c0.6-1.3,1.8-2,3.3-2v2c-1.9-0.1-3.2,1-3.3,2.7v5h-2.1v-9.6h2.1V29.6z"/>
	</g>
</g>
<g id="XMLID_176_">
	<g id="XMLID_566_">
		<path id="XMLID_616_" d="M796.8,137.2V132h-6.7v5.2H788v-12.6h2.1v5.5h6.7v-5.5h2.1v12.6H796.8z"/>
		<path id="XMLID_585_" d="M804.3,124.9c0,0.7-0.5,1.2-1.2,1.2c-0.7,0-1.2-0.5-1.2-1.2c0-0.7,0.5-1.3,1.2-1.3
			C803.8,123.6,804.3,124.1,804.3,124.9z M802.1,137.2v-9.6h2.1v9.6H802.1z"/>
		<path id="XMLID_582_" d="M817.3,132.4c0,2.9-1.8,4.8-4.5,4.8c-1.5,0-2.7-0.6-3.4-1.7v1.7h-2.1v-13.4h2.1v5.4
			c0.7-1.1,1.9-1.7,3.3-1.7C815.4,127.5,817.3,129.5,817.3,132.4z M815.2,132.4c0-1.8-1.2-3.1-2.9-3.1c-1.7,0-2.9,1.3-2.9,3.1
			c0,1.9,1.2,3.1,2.9,3.1C814,135.5,815.2,134.2,815.2,132.4z"/>
		<path id="XMLID_579_" d="M827.9,133.2h-7.2c0.3,1.5,1.5,2.4,3,2.4c1,0,2-0.4,2.7-1.1l1.1,1.2c-0.9,1-2.3,1.6-4,1.6
			c-3,0-4.9-2-4.9-4.8c0-2.9,2-4.9,4.8-4.9C826.8,127.5,828.1,129.7,827.9,133.2z M826.1,131.7c-0.1-1.5-1.1-2.5-2.7-2.5
			c-1.5,0-2.6,1-2.8,2.5H826.1z"/>
		<path id="XMLID_577_" d="M832.1,129.5c0.6-1.3,1.8-2,3.3-2v2c-1.9-0.1-3.2,1-3.3,2.7v5H830v-9.6h2.1V129.5z"/>
		<path id="XMLID_575_" d="M846.3,131.2v6h-2.1v-5.4c0-1.4-0.9-2.3-2.3-2.3c-1.6,0-2.6,1.1-2.7,2.6v5.1h-2.1v-9.6h2.1v1.8
			c0.7-1.3,1.9-1.9,3.5-1.9C845,127.5,846.3,128.9,846.3,131.2z"/>
		<path id="XMLID_572_" d="M854.8,136c-0.7,0.8-1.8,1.3-3.2,1.3c-2.1,0-3.4-1.3-3.4-3c0-1.7,1.3-2.9,3.6-2.9h2.9v-0.3
			c0-1.2-0.8-1.9-2.3-1.9c-0.9,0-1.9,0.3-2.8,1l-0.8-1.4c1.3-0.8,2.3-1.2,4.1-1.2c2.5,0,3.9,1.3,3.9,3.4l0,6.3h-2V136z M854.8,133.8
			v-0.9h-2.6c-1.4,0-2,0.4-2,1.3c0,0.9,0.7,1.4,1.9,1.4C853.6,135.6,854.7,134.9,854.8,133.8z"/>
		<path id="XMLID_570_" d="M865,136.6c-0.8,0.5-1.5,0.7-2.4,0.7c-1.4,0-2.7-0.8-2.7-2.8v-5h-1.4V128h1.4v-2.6h2.1v2.6h2.8v1.5H862
			v4.6c0,1,0.4,1.3,1,1.3c0.4,0,0.9-0.1,1.4-0.4L865,136.6z"/>
		<path id="XMLID_567_" d="M875.3,133.2H868c0.3,1.5,1.5,2.4,3,2.4c1,0,2-0.4,2.7-1.1l1.1,1.2c-0.9,1-2.3,1.6-4,1.6
			c-3,0-4.9-2-4.9-4.8c0-2.9,2-4.9,4.8-4.9C874.1,127.5,875.5,129.7,875.3,133.2z M873.5,131.7c-0.1-1.5-1.1-2.5-2.7-2.5
			c-1.5,0-2.6,1-2.8,2.5H873.5z"/>
	</g>
</g>
<rect id="XMLID_48_" x="1014.8" y="57.5" class="st0" width="180" height="322.6"/>
<rect id="XMLID_46_" x="1014.8" y="58.5" class="st8" width="180" height="320.6"/>
<rect id="XMLID_45_" x="1014.8" y="7.5" class="st9" width="180" height="50"/>
<g id="XMLID_149_">
	<g id="XMLID_586_">
		<path id="XMLID_611_" class="st3" d="M1064,33.5c-0.2,0-0.4,0-0.6,0h-3v3.8h-2.1V24.7h5.1c3.2,0,5.1,1.6,5.1,4.3
			c0,2-0.9,3.4-2.6,4.1l2.8,4.2h-2.4L1064,33.5z M1063.4,31.6c1.9,0,3.1-0.8,3.1-2.5c0-1.7-1.1-2.4-3.1-2.4h-3v5H1063.4z"/>
		<path id="XMLID_608_" class="st3" d="M1079.6,33.3h-7.2c0.3,1.5,1.5,2.4,3,2.4c1,0,2-0.4,2.7-1.1l1.1,1.2c-0.9,1-2.3,1.6-4,1.6
			c-3,0-4.9-2-4.9-4.8c0-2.9,2-4.9,4.8-4.9C1078.5,27.7,1079.9,29.9,1079.6,33.3z M1077.8,31.8c-0.1-1.5-1.1-2.5-2.7-2.5
			c-1.5,0-2.6,1-2.8,2.5H1077.8z"/>
		<path id="XMLID_604_" class="st3" d="M1091.9,32.6c0,2.9-1.8,4.8-4.5,4.8c-1.5,0-2.7-0.6-3.4-1.7v5.1h-2.1V27.7h2.1v1.7
			c0.7-1.1,1.9-1.7,3.3-1.7C1090,27.7,1091.9,29.6,1091.9,32.6z M1089.8,32.5c0-1.8-1.2-3.1-2.9-3.1c-1.7,0-2.9,1.3-2.9,3.1
			c0,1.9,1.2,3.1,2.9,3.1C1088.6,35.6,1089.8,34.3,1089.8,32.5z"/>
		<path id="XMLID_601_" class="st3" d="M1103.1,32.5c0,2.9-2,4.9-5,4.9c-3,0-5-2-5-4.9c0-2.9,2-4.9,5-4.9
			C1101.1,27.7,1103.1,29.6,1103.1,32.5z M1095.2,32.5c0,1.9,1.2,3.1,2.9,3.1c1.7,0,2.9-1.3,2.9-3.1c0-1.8-1.2-3.1-2.9-3.1
			C1096.4,29.5,1095.2,30.7,1095.2,32.5z"/>
		<path id="XMLID_599_" class="st3" d="M1111.5,28.6l-0.8,1.5c-0.8-0.5-1.9-0.8-2.8-0.8c-0.8,0-1.4,0.3-1.4,1c0,1.8,5.1,0.8,5.1,4.3
			c0,2-1.7,2.8-3.7,2.8c-1.4,0-2.9-0.5-3.9-1.3l0.7-1.5c0.8,0.7,2.2,1.2,3.2,1.2c0.9,0,1.6-0.3,1.6-1c0-2-5-0.9-5-4.3
			c0-1.9,1.7-2.8,3.5-2.8C1109.3,27.7,1110.6,28,1111.5,28.6z"/>
		<path id="XMLID_596_" class="st3" d="M1116,25c0,0.7-0.5,1.2-1.2,1.2s-1.2-0.5-1.2-1.2c0-0.7,0.5-1.3,1.2-1.3S1116,24.3,1116,25z
			 M1113.7,37.3v-9.6h2.1v9.6H1113.7z"/>
		<path id="XMLID_594_" class="st3" d="M1124.3,36.7c-0.8,0.5-1.5,0.7-2.4,0.7c-1.4,0-2.7-0.8-2.7-2.8v-5h-1.4v-1.5h1.4v-2.6h2.1
			v2.6h2.8v1.5h-2.8v4.6c0,1,0.4,1.3,1,1.3c0.4,0,0.9-0.1,1.4-0.4L1124.3,36.7z"/>
		<path id="XMLID_591_" class="st3" d="M1135.2,32.5c0,2.9-2,4.9-5,4.9c-3,0-5-2-5-4.9c0-2.9,2-4.9,5-4.9
			C1133.1,27.7,1135.2,29.6,1135.2,32.5z M1127.2,32.5c0,1.9,1.2,3.1,2.9,3.1c1.7,0,2.9-1.3,2.9-3.1c0-1.8-1.2-3.1-2.9-3.1
			C1128.4,29.5,1127.2,30.7,1127.2,32.5z"/>
		<path id="XMLID_589_" class="st3" d="M1139.4,29.6c0.6-1.3,1.8-2,3.3-2v2c-1.9-0.1-3.2,1-3.3,2.7v5h-2.1v-9.6h2.1V29.6z"/>
		<path id="XMLID_587_" class="st3" d="M1148.6,38.6c-0.6,1.5-1.7,2.3-3.1,2.3c-0.9,0-1.5-0.3-2.2-0.8l0.9-1.6
			c0.5,0.3,0.8,0.5,1.2,0.5c0.6,0,1.1-0.3,1.5-1.1l0.3-0.7l-4-9.4h2.1l2.9,7.3l2.7-7.3h2.1L1148.6,38.6z"/>
	</g>
</g>
<g id="XMLID_114_">
	<g id="XMLID_642_">
		<path id="XMLID_675_" d="M1048.4,133.3c0,2.5-1.5,4-3.9,4c-1.5,0-2.8-0.7-3.7-1.8l1-1.6c0.8,0.9,1.8,1.4,2.7,1.4
			c1.1,0,1.8-0.7,1.8-2v-6.7h-4.4v-1.9h6.5V133.3z"/>
		<path id="XMLID_672_" d="M1061.4,132.4c0,2.9-1.8,4.8-4.5,4.8c-1.5,0-2.7-0.6-3.4-1.7v5.1h-2.1v-13.1h2.1v1.7
			c0.7-1.1,1.9-1.7,3.3-1.7C1059.5,127.5,1061.4,129.5,1061.4,132.4z M1059.3,132.4c0-1.8-1.2-3.1-2.9-3.1c-1.7,0-2.9,1.3-2.9,3.1
			c0,1.9,1.2,3.1,2.9,3.1C1058.1,135.5,1059.3,134.2,1059.3,132.4z"/>
		<path id="XMLID_669_" d="M1069.3,136c-0.7,0.8-1.8,1.3-3.2,1.3c-2.1,0-3.4-1.3-3.4-3c0-1.7,1.3-2.9,3.6-2.9h2.9v-0.3
			c0-1.2-0.8-1.9-2.3-1.9c-0.9,0-1.9,0.3-2.8,1l-0.8-1.4c1.3-0.8,2.3-1.2,4.1-1.2c2.5,0,3.9,1.3,3.9,3.4l0,6.3h-2V136z
			 M1069.3,133.8v-0.9h-2.6c-1.4,0-2,0.4-2,1.3c0,0.9,0.7,1.4,1.9,1.4C1068,135.6,1069.1,134.9,1069.3,133.8z"/>
		<path id="XMLID_666_" d="M1079.9,133.4c-0.2,0-0.4,0-0.6,0h-3v3.8h-2.1v-12.6h5.1c3.2,0,5.1,1.6,5.1,4.3c0,2-0.9,3.4-2.6,4.1
			l2.8,4.2h-2.4L1079.9,133.4z M1079.3,131.5c1.9,0,3.1-0.8,3.1-2.5c0-1.7-1.1-2.4-3.1-2.4h-3v5H1079.3z"/>
		<path id="XMLID_663_" d="M1095.5,133.2h-7.2c0.3,1.5,1.5,2.4,3,2.4c1,0,2-0.4,2.7-1.1l1.1,1.2c-0.9,1-2.3,1.6-4,1.6
			c-3,0-4.9-2-4.9-4.8c0-2.9,2-4.9,4.8-4.9C1094.4,127.5,1095.8,129.7,1095.5,133.2z M1093.7,131.7c-0.1-1.5-1.1-2.5-2.7-2.5
			c-1.5,0-2.6,1-2.8,2.5H1093.7z"/>
		<path id="XMLID_660_" d="M1107.8,132.4c0,2.9-1.8,4.8-4.5,4.8c-1.5,0-2.7-0.6-3.4-1.7v5.1h-2.1v-13.1h2.1v1.7
			c0.7-1.1,1.9-1.7,3.3-1.7C1105.9,127.5,1107.8,129.5,1107.8,132.4z M1105.7,132.4c0-1.8-1.2-3.1-2.9-3.1c-1.7,0-2.9,1.3-2.9,3.1
			c0,1.9,1.2,3.1,2.9,3.1C1104.5,135.5,1105.7,134.2,1105.7,132.4z"/>
		<path id="XMLID_657_" d="M1119,132.4c0,2.9-2,4.9-5,4.9c-3,0-5-2-5-4.9c0-2.9,2-4.9,5-4.9C1117,127.5,1119,129.5,1119,132.4z
			 M1111.1,132.4c0,1.9,1.2,3.1,2.9,3.1c1.7,0,2.9-1.3,2.9-3.1c0-1.8-1.2-3.1-2.9-3.1C1112.3,129.3,1111.1,130.6,1111.1,132.4z"/>
		<path id="XMLID_655_" d="M1127.4,128.5l-0.8,1.5c-0.8-0.5-1.9-0.8-2.8-0.8c-0.8,0-1.4,0.3-1.4,1c0,1.8,5.1,0.8,5.1,4.3
			c0,2-1.7,2.8-3.7,2.8c-1.4,0-2.9-0.5-3.9-1.3l0.7-1.5c0.8,0.7,2.2,1.2,3.2,1.2c0.9,0,1.6-0.3,1.6-1c0-2-5-0.9-5-4.3
			c0-1.9,1.7-2.8,3.5-2.8C1125.2,127.5,1126.5,127.9,1127.4,128.5z"/>
		<path id="XMLID_652_" d="M1131.9,124.9c0,0.7-0.5,1.2-1.2,1.2s-1.2-0.5-1.2-1.2c0-0.7,0.5-1.3,1.2-1.3S1131.9,124.1,1131.9,124.9z
			 M1129.6,137.2v-9.6h2.1v9.6H1129.6z"/>
		<path id="XMLID_650_" d="M1140.2,136.6c-0.8,0.5-1.5,0.7-2.4,0.7c-1.4,0-2.7-0.8-2.7-2.8v-5h-1.4V128h1.4v-2.6h2.1v2.6h2.8v1.5
			h-2.8v4.6c0,1,0.4,1.3,1,1.3c0.4,0,0.9-0.1,1.4-0.4L1140.2,136.6z"/>
		<path id="XMLID_647_" d="M1151,132.4c0,2.9-2,4.9-5,4.9c-3,0-5-2-5-4.9c0-2.9,2-4.9,5-4.9C1149,127.5,1151,129.5,1151,132.4z
			 M1143.1,132.4c0,1.9,1.2,3.1,2.9,3.1c1.7,0,2.9-1.3,2.9-3.1c0-1.8-1.2-3.1-2.9-3.1C1144.3,129.3,1143.1,130.6,1143.1,132.4z"/>
		<path id="XMLID_645_" d="M1155.3,129.5c0.6-1.3,1.8-2,3.3-2v2c-1.9-0.1-3.2,1-3.3,2.7v5h-2.1v-9.6h2.1V129.5z"/>
		<path id="XMLID_643_" d="M1164.5,138.5c-0.6,1.5-1.7,2.3-3.1,2.3c-0.9,0-1.5-0.3-2.2-0.8l0.9-1.6c0.5,0.3,0.8,0.5,1.2,0.5
			c0.6,0,1.1-0.3,1.5-1.1l0.3-0.7l-4-9.4h2.1l2.9,7.3l2.7-7.3h2.1L1164.5,138.5z"/>
	</g>
</g>
<polyline id="XMLID_54_" class="st10" points="449.1,136.2 454.7,130.7 449.2,125.1 "/>
<line id="XMLID_53_" class="st10" x1="454.7" y1="130.6" x2="378.2" y2="130.6"/>
<polyline id="XMLID_49_" class="st10" points="383.8,144.3 378.2,149.7 383.7,155.4 "/>
<line id="XMLID_44_" class="st10" x1="378.2" y1="149.8" x2="454.7" y2="149.8"/>
<polyline id="XMLID_59_" class="st10" points="170.1,136.2 175.7,130.7 170.2,125.1 "/>
<line id="XMLID_43_" class="st10" x1="175.7" y1="130.6" x2="99.2" y2="130.6"/>
<polyline id="XMLID_42_" class="st10" points="104.8,144.3 99.2,149.7 104.7,155.4 "/>
<line id="XMLID_35_" class="st10" x1="99.2" y1="149.8" x2="175.7" y2="149.8"/>
<polyline id="XMLID_58_" class="st10" points="725.5,136.2 731.1,130.7 725.6,125.1 "/>
<line id="XMLID_55_" class="st10" x1="731.1" y1="130.6" x2="654.7" y2="130.6"/>
<polyline id="XMLID_50_" class="st10" points="660.2,144.3 654.7,149.7 660.1,155.4 "/>
<line id="XMLID_47_" class="st10" x1="654.7" y1="149.8" x2="731.1" y2="149.8"/>
<polyline id="XMLID_57_" class="st10" points="1002,136.2 1007.6,130.7 1002.1,125.1 "/>
<line id="XMLID_56_" class="st10" x1="1007.6" y1="130.6" x2="931.1" y2="130.6"/>
<polyline id="XMLID_52_" class="st10" points="936.7,144.3 931.1,149.7 936.6,155.4 "/>
<line id="XMLID_51_" class="st10" x1="931.1" y1="149.8" x2="1007.6" y2="149.8"/>
<polyline id="XMLID_63_" class="st10" points="1277.5,136.2 1283.1,130.7 1277.6,125.1 "/>
<line id="XMLID_62_" class="st10" x1="1283.1" y1="130.6" x2="1206.6" y2="130.6"/>
<polyline id="XMLID_61_" class="st10" points="1212.2,144.3 1206.6,149.7 1212.1,155.4 "/>
<line id="XMLID_60_" class="st10" x1="1206.6" y1="149.8" x2="1283.1" y2="149.8"/>
<path id="XMLID_24_" class="st11" d="M1296.2,104.3v61.4c0,7,26.9,12.6,60.2,12.6s60.2-5.6,60.2-12.6V104"/>
<ellipse id="XMLID_22_" class="st11" cx="1356.4" cy="104.3" rx="60.2" ry="13.8"/>
<g id="XMLID_109_">
	<g id="XMLID_410_">
		<path id="XMLID_413_" class="st3" d="M1354.4,150.7v-5.2h-6.7v5.2h-2.1v-12.6h2.1v5.5h6.7v-5.5h2.1v12.6H1354.4z"/>
		<path id="XMLID_411_" class="st3" d="M1367.4,141.2c0,1.3-1,2.7-2.3,4.1l-3.3,3.5h6.2v1.9h-9v-1.5l4.6-5c0.9-0.9,1.5-2,1.5-2.7
			c0-1-0.8-1.6-2.1-1.6c-1.1,0-2.4,0.6-3.4,1.6l-0.8-1.6c1.4-1.1,3-1.8,4.6-1.8C1365.8,138,1367.4,139.2,1367.4,141.2z"/>
	</g>
</g>
<g id="XMLID_88_">
	<g id="XMLID_480_">
		<path id="XMLID_493_" class="st12" d="M34.4,182.1l-1.2,1.5c-0.9-1-2.2-1.6-3.5-1.6c-2.5,0-4.5,1.9-4.5,4.4s2,4.4,4.5,4.4
			c1.3,0,2.6-0.6,3.5-1.5l1.3,1.4c-1.3,1.3-3.1,2.1-4.9,2.1c-3.7,0-6.6-2.8-6.6-6.4c0-3.6,2.9-6.3,6.6-6.3
			C31.4,180.2,33.2,180.9,34.4,182.1z"/>
		<path id="XMLID_491_" class="st12" d="M36.6,192.8v-13.4h2.1v13.4H36.6z"/>
		<path id="XMLID_488_" class="st12" d="M44,180.5c0,0.7-0.5,1.2-1.2,1.2c-0.7,0-1.2-0.5-1.2-1.2c0-0.7,0.5-1.3,1.2-1.3
			C43.5,179.2,44,179.8,44,180.5z M41.8,192.8v-9.6h2.1v9.6H41.8z"/>
		<path id="XMLID_485_" class="st12" d="M55.3,188.8h-7.2c0.3,1.5,1.5,2.4,3,2.4c1,0,2-0.4,2.7-1.1l1.1,1.2c-0.9,1-2.3,1.6-4,1.6
			c-3,0-4.9-2-4.9-4.8c0-2.9,2-4.9,4.8-4.9C54.2,183.2,55.6,185.4,55.3,188.8z M53.5,187.3c-0.1-1.5-1.1-2.5-2.7-2.5
			c-1.5,0-2.6,1-2.8,2.5H53.5z"/>
		<path id="XMLID_483_" class="st12" d="M66.6,186.9v6h-2.1v-5.4c0-1.4-0.9-2.3-2.3-2.3c-1.6,0-2.6,1.1-2.7,2.6v5.1h-2.1v-9.6h2.1
			v1.8c0.7-1.3,1.9-1.9,3.5-1.9C65.3,183.2,66.6,184.6,66.6,186.9z"/>
		<path id="XMLID_481_" class="st12" d="M74.8,192.2c-0.8,0.5-1.5,0.7-2.4,0.7c-1.4,0-2.7-0.8-2.7-2.8v-5h-1.4v-1.5h1.4V181h2.1v2.6
			h2.8v1.5h-2.8v4.6c0,1,0.4,1.3,1,1.3c0.4,0,0.9-0.1,1.4-0.4L74.8,192.2z"/>
	</g>
</g>
<g id="XMLID_66_">
	<path id="XMLID_79_" class="st12" d="M122.3,295.8c0,2.5-1.5,4-3.9,4c-1.5,0-2.8-0.7-3.7-1.8l1-1.6c0.8,0.9,1.8,1.4,2.7,1.4
		c1.1,0,1.8-0.7,1.8-2V289h-4.4v-1.9h6.5V295.8z"/>
	<path id="XMLID_81_" class="st12" d="M133.9,288.3l-0.9,1.9c-1.4-0.8-2.7-1.2-3.7-1.2c-1.2,0-2.1,0.5-2.1,1.3
		c0,2.8,6.8,1.3,6.8,5.8c0,2.3-2,3.6-4.8,3.6c-2,0-3.9-0.8-5.1-2l0.9-1.8c1.3,1.2,2.9,1.8,4.3,1.8c1.5,0,2.4-0.6,2.4-1.5
		c0-2.8-6.8-1.2-6.8-5.7c0-2.2,1.9-3.5,4.6-3.5C131.1,287,132.7,287.5,133.9,288.3z"/>
	<path id="XMLID_83_" class="st12" d="M148.8,293.4c0,3.6-2.9,6.4-6.7,6.4c-3.8,0-6.7-2.8-6.7-6.4c0-3.6,2.9-6.4,6.7-6.4
		C145.9,287,148.8,289.8,148.8,293.4z M137.6,293.4c0,2.5,2.1,4.5,4.5,4.5s4.5-2,4.5-4.5s-2-4.4-4.5-4.4
		C139.7,288.9,137.6,290.9,137.6,293.4z"/>
	<path id="XMLID_86_" class="st12" d="M159.9,299.7l-6.7-9v9h-2.1v-12.6h2.1l6.8,9.1v-9.1h2.1v12.6H159.9z"/>
</g>
<g id="XMLID_1_">
	<path id="XMLID_2_" class="st12" d="M398.9,287.1c3.2,0,5,1.6,5,4.3c0,2.8-1.8,4.5-5,4.5H396v3.8h-2.1v-12.6H398.9z M396,293.9h2.8
		c1.9,0,3-0.8,3-2.5c0-1.7-1.1-2.4-3-2.4H396V293.9z"/>
	<path id="XMLID_5_" class="st12" d="M418.3,293.4c0,3.6-2.9,6.4-6.7,6.4s-6.7-2.8-6.7-6.4c0-3.6,2.9-6.4,6.7-6.4
		S418.3,289.8,418.3,293.4z M407.1,293.4c0,2.5,2.1,4.5,4.5,4.5s4.5-2,4.5-4.5s-2-4.4-4.5-4.4C409.1,288.9,407.1,290.9,407.1,293.4z
		"/>
	<path id="XMLID_8_" class="st12" d="M425.9,295.8c0,2.5-1.5,4-3.9,4c-1.5,0-2.8-0.7-3.7-1.8l1-1.6c0.8,0.9,1.8,1.4,2.7,1.4
		c1.1,0,1.8-0.7,1.8-2V289h-4.4v-1.9h6.5V295.8z"/>
	<path id="XMLID_10_" class="st12" d="M441.3,293.4c0,3.6-2.9,6.4-6.7,6.4c-3.8,0-6.7-2.8-6.7-6.4c0-3.6,2.9-6.4,6.7-6.4
		C438.4,287,441.3,289.8,441.3,293.4z M430.1,293.4c0,2.5,2.1,4.5,4.5,4.5s4.5-2,4.5-4.5s-2-4.4-4.5-4.4
		C432.1,288.9,430.1,290.9,430.1,293.4z"/>
</g>
<path id="XMLID_28_" class="st11" d="M58.8,146.6v-6.7c1.5-0.7,5.8-5.9,6.3-9.9c1.2-0.1,3-1.2,3.6-5.5c0.3-2.3-0.9-3.6-1.6-4
	c0,0,1.8-3.4,1.8-7.4c0-8.1-3.2-15.1-10-15.1c0,0-2.4-5-10-5c-14.2,0-20.1,9.1-20.1,20.1c0,3.7,1.8,7.4,1.8,7.4
	c-0.7,0.4-1.9,1.7-1.6,4c0.5,4.3,2.4,5.4,3.6,5.5c0.5,4,4.8,9.1,6.3,9.9v6.7c-3.3,10-30.1,3.3-30.1,26.8H89
	C89,149.9,62.2,156.6,58.8,146.6z"/>
<path id="XMLID_104_" class="st10" d="M139,278.2c0,0,48-35.8,133.7-35.8c93.7,0,143.6,35.8,143.6,35.8"/>
<polyline id="XMLID_101_" class="st10" points="409.5,279.9 417.3,279.2 416.6,271.4 "/>
<path id="XMLID_107_" class="st10" d="M417.5,307.8c0,0-48.1,37.6-133.9,37.6c-93.9,0-143.8-37.6-143.8-37.6"/>
<polyline id="XMLID_106_" class="st10" points="146.5,305.9 138.8,306.7 139.5,314.9 "/>
</svg>
