<?xml version="1.0" encoding="utf-8"?>
<!-- Generator: Adobe Illustrator 19.0.0, SVG Export Plug-In . SVG Version: 6.00 Build 0)  -->
<svg version="1.1" id="Layer_1" xmlns="http://www.w3.org/2000/svg" xmlns:xlink="http://www.w3.org/1999/xlink" x="0px" y="0px"
	 viewBox="0 0 343.8 237.3" style="enable-background:new 0 0 343.8 237.3;" xml:space="preserve">
<style type="text/css">
	.st0{fill:#87C540;stroke:#000000;stroke-width:2;stroke-miterlimit:10;}
	.st1{fill:#FFFFFF;}
	.st2{fill:none;stroke:#010101;stroke-width:2;stroke-miterlimit:10;}
	.st3{fill:#A6CE3D;stroke:#000000;stroke-width:2;stroke-miterlimit:10;}
	.st4{fill:#7DC245;stroke:#000000;stroke-width:2;stroke-miterlimit:10;}
	.st5{fill:#619E43;stroke:#000000;stroke-width:2;stroke-miterlimit:10;}
</style>
<path id="XMLID_25_" class="st0" d="M335.5,54.3H164.7c-2.8,0-5-2.2-5-5v-40c0-2.8,2.2-5,5-5h170.8c2.8,0,5,2.2,5,5v40
	C340.5,52.1,338.2,54.3,335.5,54.3z"/>
<g id="XMLID_257_">
	<g id="XMLID_659_">
		<path id="XMLID_688_" class="st1" d="M206.9,25.6l-1.1,1.4c-0.8-0.9-2-1.4-3.1-1.4c-2.2,0-4,1.7-4,3.9c0,2.2,1.8,4,4,4
			c1.1,0,2.3-0.5,3.1-1.3l1.1,1.2c-1.1,1.1-2.8,1.8-4.3,1.8c-3.3,0-5.8-2.5-5.8-5.7c0-3.2,2.6-5.6,5.9-5.6
			C204.2,23.9,205.8,24.5,206.9,25.6z"/>
		<path id="XMLID_686_" class="st1" d="M210.5,28.3c0.6-1.2,1.6-1.8,2.9-1.8v1.8c-1.7-0.1-2.8,0.9-2.9,2.4v4.5h-1.8v-8.5h1.8V28.3z"
			/>
		<path id="XMLID_683_" class="st1" d="M222.5,31.6H216c0.3,1.3,1.3,2.1,2.6,2.1c0.9,0,1.8-0.4,2.4-1l1,1c-0.8,0.9-2,1.4-3.5,1.4
			c-2.6,0-4.4-1.7-4.4-4.3c0-2.6,1.8-4.3,4.3-4.3C221.5,26.6,222.7,28.5,222.5,31.6z M220.9,30.2c-0.1-1.4-1-2.2-2.4-2.2
			c-1.3,0-2.3,0.8-2.5,2.2H220.9z"/>
		<path id="XMLID_680_" class="st1" d="M229.5,34.1c-0.6,0.8-1.6,1.1-2.8,1.1c-1.8,0-3-1.1-3-2.6c0-1.6,1.2-2.5,3.2-2.6h2.6v-0.3
			c0-1.1-0.7-1.7-2-1.7c-0.8,0-1.7,0.3-2.5,0.9l-0.8-1.3c1.2-0.7,2-1.1,3.7-1.1c2.2,0,3.4,1.1,3.4,3l0,5.6h-1.8V34.1z M229.5,32.1
			v-0.8h-2.3c-1.2,0-1.8,0.3-1.8,1.1c0,0.8,0.6,1.3,1.6,1.3C228.4,33.8,229.4,33.1,229.5,32.1z"/>
		<path id="XMLID_678_" class="st1" d="M238.6,34.6c-0.7,0.4-1.4,0.6-2.1,0.6c-1.3,0-2.4-0.7-2.4-2.5v-4.4h-1.2v-1.4h1.2v-2.3h1.8
			v2.3h2.5v1.4h-2.5v4.1c0,0.9,0.3,1.2,0.9,1.2c0.4,0,0.8-0.1,1.3-0.4L238.6,34.6z"/>
		<path id="XMLID_675_" class="st1" d="M247.7,31.6h-6.4c0.3,1.3,1.3,2.1,2.6,2.1c0.9,0,1.8-0.4,2.4-1l1,1c-0.8,0.9-2,1.4-3.5,1.4
			c-2.6,0-4.4-1.7-4.4-4.3c0-2.6,1.8-4.3,4.3-4.3C246.7,26.6,247.9,28.5,247.7,31.6z M246.1,30.2c-0.1-1.4-1-2.2-2.4-2.2
			c-1.3,0-2.3,0.8-2.5,2.2H246.1z"/>
		<path id="XMLID_673_" class="st1" d="M255.6,28.3c0.6-1.2,1.6-1.8,2.9-1.8v1.8c-1.7-0.1-2.8,0.9-2.9,2.4v4.5h-1.8v-8.5h1.8V28.3z"
			/>
		<path id="XMLID_670_" class="st1" d="M267.5,31.6h-6.4c0.3,1.3,1.3,2.1,2.6,2.1c0.9,0,1.8-0.4,2.4-1l1,1c-0.8,0.9-2,1.4-3.5,1.4
			c-2.6,0-4.4-1.7-4.4-4.3c0-2.6,1.8-4.3,4.3-4.3C266.5,26.6,267.7,28.5,267.5,31.6z M265.9,30.2c-0.1-1.4-1-2.2-2.4-2.2
			c-1.3,0-2.3,0.8-2.5,2.2H265.9z"/>
		<path id="XMLID_668_" class="st1" d="M276.4,28l-1,1.2c-0.6-0.6-1.4-1-2.4-1c-1.5,0-2.5,1.1-2.5,2.7c0,1.6,1.1,2.7,2.5,2.7
			c1.1,0,1.9-0.4,2.5-1l1,1c-0.8,1-2,1.6-3.6,1.6c-2.5,0-4.3-1.7-4.3-4.3c0-2.6,1.8-4.3,4.3-4.3C274.5,26.6,275.7,27.1,276.4,28z"/>
		<path id="XMLID_665_" class="st1" d="M286.2,30.9c0,2.6-1.8,4.3-4.4,4.3c-2.6,0-4.5-1.8-4.5-4.3c0-2.6,1.8-4.3,4.5-4.3
			C284.4,26.6,286.2,28.3,286.2,30.9z M279.2,30.9c0,1.6,1.1,2.8,2.6,2.8c1.5,0,2.6-1.1,2.6-2.8c0-1.6-1.1-2.8-2.6-2.8
			C280.2,28.1,279.2,29.3,279.2,30.9z"/>
		<path id="XMLID_663_" class="st1" d="M290,28.3c0.6-1.2,1.6-1.8,2.9-1.8v1.8c-1.7-0.1-2.8,0.9-2.9,2.4v4.5h-1.8v-8.5h1.8V28.3z"/>
		<path id="XMLID_660_" class="st1" d="M302.5,35.1h-1.8v-1.5c-0.6,1-1.6,1.5-3,1.5c-2.4,0-4.1-1.8-4.1-4.4c0-2.6,1.6-4.3,4-4.3
			c1.4,0,2.4,0.6,3,1.6v-4.8h1.8V35.1z M300.7,30.9c0-1.6-1.1-2.8-2.6-2.8c-1.5,0-2.6,1.2-2.6,2.8c0,1.6,1.1,2.8,2.6,2.8
			C299.6,33.7,300.7,32.5,300.7,30.9z"/>
	</g>
</g>
<g id="XMLID_237_">
	<g id="XMLID_466_">
		<path id="XMLID_485_" d="M34.7,20.5v-4.6h-5.9v4.6h-1.9V9.3h1.9v4.9h5.9V9.3h1.9v11.2H34.7z"/>
		<path id="XMLID_483_" d="M43.6,11v9.5h-1.9V11h-3.5V9.3h9V11H43.6z"/>
		<path id="XMLID_480_" d="M52.9,11v9.5H51V11h-3.5V9.3h9V11H52.9z"/>
		<path id="XMLID_477_" d="M62.5,9.3c2.8,0,4.4,1.4,4.4,3.8c0,2.5-1.6,4-4.4,4h-2.6v3.4H58V9.3H62.5z M59.9,15.4h2.5
			c1.7,0,2.7-0.7,2.7-2.3c0-1.5-1-2.2-2.7-2.2h-2.5V15.4z"/>
		<path id="XMLID_474_" d="M77.4,9.3c2.8,0,4.4,1.4,4.4,3.8c0,2.5-1.6,4-4.4,4h-2.6v3.4h-1.9V9.3H77.4z M74.8,15.4h2.5
			c1.7,0,2.7-0.7,2.7-2.3c0-1.5-1-2.2-2.7-2.2h-2.5V15.4z"/>
		<path id="XMLID_471_" d="M94.6,14.9c0,3.2-2.6,5.7-5.9,5.7c-3.3,0-5.9-2.5-5.9-5.7c0-3.2,2.6-5.7,5.9-5.7
			C92,9.2,94.6,11.7,94.6,14.9z M84.7,14.9c0,2.2,1.8,4,4,4s4-1.8,4-4c0-2.2-1.8-4-4-4C86.5,10.9,84.7,12.6,84.7,14.9z"/>
		<path id="XMLID_469_" d="M104.2,10.3l-0.8,1.7c-1.2-0.7-2.4-1-3.3-1c-1.1,0-1.8,0.4-1.8,1.2c0,2.4,6.1,1.1,6,5.2
			c0,2-1.8,3.2-4.2,3.2c-1.8,0-3.4-0.7-4.6-1.8l0.8-1.6c1.2,1.1,2.6,1.6,3.8,1.6c1.3,0,2.1-0.5,2.1-1.4c0-2.5-6.1-1.1-6.1-5.1
			c0-1.9,1.6-3.1,4.1-3.1C101.8,9.2,103.2,9.7,104.2,10.3z"/>
		<path id="XMLID_467_" d="M110.7,11v9.5h-1.9V11h-3.5V9.3h9V11H110.7z"/>
	</g>
</g>
<polyline id="XMLID_33_" class="st2" points="139,34.9 144.6,29.4 139.1,23.8 "/>
<line id="XMLID_32_" class="st2" x1="144.6" y1="29.3" x2="3.2" y2="29.3"/>
<path id="XMLID_23_" class="st3" d="M335.5,114.3H164.7c-2.8,0-5-2.2-5-5v-40c0-2.8,2.2-5,5-5h170.8c2.8,0,5,2.2,5,5v40
	C340.5,112.1,338.2,114.3,335.5,114.3z"/>
<g id="XMLID_209_">
	<g id="XMLID_556_">
		<path id="XMLID_613_" class="st1" d="M208.1,91.7c-0.2,0-0.3,0-0.5,0h-2.7v3.4H203V83.9h4.5c2.9,0,4.5,1.4,4.5,3.8
			c0,1.8-0.8,3.1-2.3,3.6l2.5,3.7h-2.1L208.1,91.7z M207.6,90.1c1.7,0,2.7-0.7,2.7-2.3c0-1.5-1-2.2-2.7-2.2h-2.7v4.4H207.6z"/>
		<path id="XMLID_610_" class="st1" d="M222,91.6h-6.4c0.3,1.3,1.3,2.1,2.6,2.1c0.9,0,1.8-0.4,2.4-1l1,1c-0.8,0.9-2,1.4-3.5,1.4
			c-2.6,0-4.4-1.7-4.4-4.3c0-2.6,1.8-4.3,4.3-4.3C221,86.6,222.2,88.5,222,91.6z M220.4,90.2c-0.1-1.4-1-2.2-2.4-2.2
			c-1.3,0-2.3,0.8-2.5,2.2H220.4z"/>
		<path id="XMLID_607_" class="st1" d="M229,94.1c-0.6,0.8-1.6,1.1-2.8,1.1c-1.8,0-3-1.1-3-2.6c0-1.6,1.2-2.5,3.2-2.6h2.6v-0.3
			c0-1.1-0.7-1.7-2-1.7c-0.8,0-1.7,0.3-2.5,0.9l-0.8-1.3c1.2-0.7,2-1.1,3.7-1.1c2.2,0,3.4,1.1,3.4,3l0,5.6H229V94.1z M229,92.1v-0.8
			h-2.3c-1.2,0-1.8,0.3-1.8,1.1c0,0.8,0.6,1.3,1.6,1.3C227.9,93.8,228.9,93.1,229,92.1z"/>
		<path id="XMLID_604_" class="st1" d="M241.4,95.1h-1.8v-1.5c-0.6,1-1.6,1.5-3,1.5c-2.4,0-4.1-1.8-4.1-4.4c0-2.6,1.6-4.3,4-4.3
			c1.4,0,2.4,0.6,3,1.6v-4.8h1.8V95.1z M239.6,90.9c0-1.6-1.1-2.8-2.6-2.8c-1.5,0-2.6,1.2-2.6,2.8c0,1.6,1.1,2.8,2.6,2.8
			C238.5,93.7,239.6,92.5,239.6,90.9z"/>
		<path id="XMLID_602_" class="st1" d="M250.2,88.3c0.6-1.2,1.6-1.8,2.9-1.8v1.8c-1.7-0.1-2.8,0.9-2.9,2.4v4.5h-1.8v-8.5h1.8V88.3z"
			/>
		<path id="XMLID_599_" class="st1" d="M262.1,91.6h-6.4c0.3,1.3,1.3,2.1,2.6,2.1c0.9,0,1.8-0.4,2.4-1l1,1c-0.8,0.9-2,1.4-3.5,1.4
			c-2.6,0-4.4-1.7-4.4-4.3c0-2.6,1.8-4.3,4.3-4.3C261.1,86.6,262.3,88.5,262.1,91.6z M260.5,90.2c-0.1-1.4-1-2.2-2.4-2.2
			c-1.3,0-2.3,0.8-2.5,2.2H260.5z"/>
		<path id="XMLID_565_" class="st1" d="M271,88l-1,1.2c-0.6-0.6-1.4-1-2.4-1c-1.5,0-2.5,1.1-2.5,2.7c0,1.6,1.1,2.7,2.5,2.7
			c1.1,0,1.9-0.4,2.5-1l1,1c-0.8,1-2,1.6-3.6,1.6c-2.5,0-4.3-1.7-4.3-4.3c0-2.6,1.8-4.3,4.3-4.3C269.1,86.6,270.3,87.1,271,88z"/>
		<path id="XMLID_562_" class="st1" d="M280.8,90.9c0,2.6-1.8,4.3-4.4,4.3c-2.6,0-4.5-1.8-4.5-4.3c0-2.6,1.8-4.3,4.5-4.3
			C279,86.6,280.8,88.3,280.8,90.9z M273.8,90.9c0,1.6,1.1,2.8,2.6,2.8c1.5,0,2.6-1.1,2.6-2.8c0-1.6-1.1-2.8-2.6-2.8
			C274.8,88.1,273.8,89.3,273.8,90.9z"/>
		<path id="XMLID_560_" class="st1" d="M284.6,88.3c0.6-1.2,1.6-1.8,2.9-1.8v1.8c-1.7-0.1-2.8,0.9-2.9,2.4v4.5h-1.8v-8.5h1.8V88.3z"
			/>
		<path id="XMLID_557_" class="st1" d="M297.1,95.1h-1.8v-1.5c-0.6,1-1.6,1.5-3,1.5c-2.4,0-4.1-1.8-4.1-4.4c0-2.6,1.6-4.3,4-4.3
			c1.4,0,2.4,0.6,3,1.6v-4.8h1.8V95.1z M295.3,90.9c0-1.6-1.1-2.8-2.6-2.8c-1.5,0-2.6,1.2-2.6,2.8c0,1.6,1.1,2.8,2.6,2.8
			C294.2,93.7,295.3,92.5,295.3,90.9z"/>
	</g>
</g>
<g id="XMLID_193_">
	<g id="XMLID_380_">
		<path id="XMLID_412_" d="M40.3,80.5v-4.6h-5.9v4.6h-1.9V69.3h1.9v4.9h5.9v-4.9h1.9v11.2H40.3z"/>
		<path id="XMLID_410_" d="M49.2,71v9.5h-1.9V71h-3.5v-1.7h9V71H49.2z"/>
		<path id="XMLID_408_" d="M58.5,71v9.5h-1.9V71H53v-1.7h9V71H58.5z"/>
		<path id="XMLID_405_" d="M68.1,69.3c2.8,0,4.4,1.4,4.4,3.8c0,2.5-1.6,4-4.4,4h-2.6v3.4h-1.9V69.3H68.1z M65.5,75.4H68
			c1.7,0,2.7-0.7,2.7-2.3c0-1.5-1-2.2-2.7-2.2h-2.5V75.4z"/>
		<path id="XMLID_385_" d="M87.8,75v4.1c-1.1,0.9-2.8,1.5-4.4,1.5c-3.3,0-5.9-2.5-5.9-5.7s2.6-5.7,6-5.7c1.6,0,3.2,0.6,4.3,1.6
			l-1.1,1.4c-0.9-0.8-2.1-1.3-3.2-1.3c-2.3,0-4.1,1.7-4.1,4c0,2.2,1.8,4,4.1,4c0.8,0,1.8-0.3,2.6-0.8V75H87.8z"/>
		<path id="XMLID_383_" d="M92.4,71v3h5.5v1.7h-5.5v3.1h6.3v1.7h-8.2V69.3h8V71H92.4z"/>
		<path id="XMLID_381_" d="M105.1,71v9.5h-1.9V71h-3.5v-1.7h9V71H105.1z"/>
	</g>
</g>
<polyline id="XMLID_5_" class="st2" points="139,94.9 144.6,89.4 139.1,83.8 "/>
<line id="XMLID_4_" class="st2" x1="144.6" y1="89.3" x2="3.2" y2="89.3"/>
<path id="XMLID_37_" class="st4" d="M335.5,174.3H164.7c-2.8,0-5-2.2-5-5v-40c0-2.8,2.2-5,5-5h170.8c2.8,0,5,2.2,5,5v40
	C340.5,172.1,338.2,174.3,335.5,174.3z"/>
<g id="XMLID_161_">
	<g id="XMLID_566_">
		<path id="XMLID_596_" class="st1" d="M203.6,150.5c0,2.9-1.8,4.7-4.9,4.7c-3,0-4.9-1.8-4.9-4.7v-6.6h1.9v6.6c0,1.9,1.2,3,3,3
			c1.8,0,3-1.1,3-3v-6.6h1.9V150.5z"/>
		<path id="XMLID_593_" class="st1" d="M215.1,150.9c0,2.5-1.6,4.3-4,4.3c-1.4,0-2.4-0.5-3-1.5v4.6h-1.8v-11.6h1.8v1.5
			c0.6-1,1.6-1.5,3-1.5C213.5,146.6,215.1,148.3,215.1,150.9z M213.3,150.9c0-1.6-1.1-2.8-2.6-2.8s-2.6,1.2-2.6,2.8
			c0,1.6,1.1,2.8,2.6,2.8S213.3,152.5,213.3,150.9z"/>
		<path id="XMLID_590_" class="st1" d="M225.2,155.1h-1.8v-1.5c-0.6,1-1.6,1.5-3,1.5c-2.4,0-4.1-1.8-4.1-4.4c0-2.6,1.6-4.3,4-4.3
			c1.4,0,2.4,0.6,3,1.6v-4.8h1.8V155.1z M223.3,150.9c0-1.6-1.1-2.8-2.6-2.8c-1.5,0-2.6,1.2-2.6,2.8c0,1.6,1.1,2.8,2.6,2.8
			C222.3,153.7,223.3,152.5,223.3,150.9z"/>
		<path id="XMLID_587_" class="st1" d="M233.1,154.1c-0.6,0.8-1.6,1.1-2.8,1.1c-1.8,0-3-1.1-3-2.6c0-1.6,1.2-2.5,3.2-2.6h2.6v-0.3
			c0-1.1-0.7-1.7-2-1.7c-0.8,0-1.7,0.3-2.5,0.9l-0.8-1.3c1.2-0.7,2-1.1,3.7-1.1c2.2,0,3.4,1.1,3.4,3l0,5.6h-1.8V154.1z M233.1,152.1
			v-0.8h-2.3c-1.2,0-1.8,0.3-1.8,1.1c0,0.8,0.6,1.3,1.6,1.3C232,153.8,233,153.1,233.1,152.1z"/>
		<path id="XMLID_585_" class="st1" d="M242.2,154.6c-0.7,0.4-1.4,0.6-2.1,0.6c-1.3,0-2.4-0.7-2.4-2.5v-4.4h-1.2v-1.4h1.2v-2.3h1.8
			v2.3h2.5v1.4h-2.5v4.1c0,0.9,0.3,1.2,0.9,1.2c0.4,0,0.8-0.1,1.3-0.4L242.2,154.6z"/>
		<path id="XMLID_582_" class="st1" d="M251.3,151.6h-6.4c0.3,1.3,1.3,2.1,2.6,2.1c0.9,0,1.8-0.4,2.4-1l1,1c-0.8,0.9-2,1.4-3.5,1.4
			c-2.6,0-4.4-1.7-4.4-4.3c0-2.6,1.8-4.3,4.3-4.3C250.3,146.6,251.5,148.5,251.3,151.6z M249.7,150.2c-0.1-1.4-1-2.2-2.4-2.2
			c-1.3,0-2.3,0.8-2.5,2.2H249.7z"/>
		<path id="XMLID_580_" class="st1" d="M259.1,148.3c0.6-1.2,1.6-1.8,2.9-1.8v1.8c-1.7-0.1-2.8,0.9-2.9,2.4v4.5h-1.8v-8.5h1.8V148.3
			z"/>
		<path id="XMLID_577_" class="st1" d="M271.1,151.6h-6.4c0.3,1.3,1.3,2.1,2.6,2.1c0.9,0,1.8-0.4,2.4-1l1,1c-0.8,0.9-2,1.4-3.5,1.4
			c-2.6,0-4.4-1.7-4.4-4.3c0-2.6,1.8-4.3,4.3-4.3C270.1,146.6,271.3,148.5,271.1,151.6z M269.5,150.2c-0.1-1.4-1-2.2-2.4-2.2
			c-1.3,0-2.3,0.8-2.5,2.2H269.5z"/>
		<path id="XMLID_575_" class="st1" d="M280,148l-1,1.2c-0.6-0.6-1.4-1-2.4-1c-1.5,0-2.5,1.1-2.5,2.7c0,1.6,1.1,2.7,2.5,2.7
			c1.1,0,1.9-0.4,2.5-1l1,1c-0.8,1-2,1.6-3.6,1.6c-2.5,0-4.3-1.7-4.3-4.3c0-2.6,1.8-4.3,4.3-4.3C278,146.6,279.2,147.1,280,148z"/>
		<path id="XMLID_572_" class="st1" d="M289.8,150.9c0,2.6-1.8,4.3-4.4,4.3c-2.6,0-4.5-1.8-4.5-4.3c0-2.6,1.8-4.3,4.5-4.3
			C288,146.6,289.8,148.3,289.8,150.9z M282.7,150.9c0,1.6,1.1,2.8,2.6,2.8c1.5,0,2.6-1.1,2.6-2.8c0-1.6-1.1-2.8-2.6-2.8
			C283.8,148.1,282.7,149.3,282.7,150.9z"/>
		<path id="XMLID_570_" class="st1" d="M293.5,148.3c0.6-1.2,1.6-1.8,2.9-1.8v1.8c-1.7-0.1-2.8,0.9-2.9,2.4v4.5h-1.8v-8.5h1.8V148.3
			z"/>
		<path id="XMLID_567_" class="st1" d="M306.1,155.1h-1.8v-1.5c-0.6,1-1.6,1.5-3,1.5c-2.4,0-4.1-1.8-4.1-4.4c0-2.6,1.6-4.3,4-4.3
			c1.4,0,2.4,0.6,3,1.6v-4.8h1.8V155.1z M304.3,150.9c0-1.6-1.1-2.8-2.6-2.8c-1.5,0-2.6,1.2-2.6,2.8c0,1.6,1.1,2.8,2.6,2.8
			C303.2,153.7,304.3,152.5,304.3,150.9z"/>
	</g>
</g>
<g id="XMLID_144_">
	<g id="XMLID_386_">
		<path id="XMLID_401_" d="M40,140.5v-4.6h-5.9v4.6h-1.9v-11.2h1.9v4.9H40v-4.9h1.9v11.2H40z"/>
		<path id="XMLID_399_" d="M48.9,131v9.5H47V131h-3.5v-1.7h9v1.7H48.9z"/>
		<path id="XMLID_397_" d="M58.2,131v9.5h-1.9V131h-3.5v-1.7h9v1.7H58.2z"/>
		<path id="XMLID_394_" d="M67.8,129.3c2.8,0,4.4,1.4,4.4,3.8c0,2.5-1.6,4-4.4,4h-2.6v3.4h-1.9v-11.2H67.8z M65.3,135.4h2.5
			c1.7,0,2.7-0.7,2.7-2.3c0-1.5-1-2.2-2.7-2.2h-2.5V135.4z"/>
		<path id="XMLID_391_" d="M82.7,129.3c2.8,0,4.4,1.4,4.4,3.8c0,2.5-1.6,4-4.4,4h-2.6v3.4h-1.9v-11.2H82.7z M80.1,135.4h2.5
			c1.7,0,2.7-0.7,2.7-2.3c0-1.5-1-2.2-2.7-2.2h-2.5V135.4z"/>
		<path id="XMLID_389_" d="M98.6,135.8c0,2.9-1.8,4.7-4.9,4.7c-3,0-4.9-1.8-4.9-4.7v-6.6h1.9v6.6c0,1.9,1.2,3,3,3c1.8,0,3-1.1,3-3
			v-6.6h1.9V135.8z"/>
		<path id="XMLID_387_" d="M105.3,131v9.5h-1.9V131h-3.5v-1.7h9v1.7H105.3z"/>
	</g>
</g>
<polyline id="XMLID_10_" class="st2" points="139,154.9 144.6,149.4 139.1,143.8 "/>
<line id="XMLID_9_" class="st2" x1="144.6" y1="149.3" x2="3.2" y2="149.3"/>
<path id="XMLID_59_" class="st5" d="M335.5,234.3H164.7c-2.8,0-5-2.2-5-5v-40c0-2.8,2.2-5,5-5h170.8c2.8,0,5,2.2,5,5v40
	C340.5,232.1,338.2,234.3,335.5,234.3z"/>
<g id="XMLID_112_">
	<g id="XMLID_515_">
		<path id="XMLID_544_" class="st1" d="M202.4,203.9c3.4,0,5.8,2.4,5.8,5.6c0,3.2-2.4,5.6-5.8,5.6h-4.5v-11.2H202.4z M199.7,213.4
			h2.8c2.2,0,3.8-1.6,3.8-3.9c0-2.3-1.7-3.9-3.9-3.9h-2.7V213.4z"/>
		<path id="XMLID_541_" class="st1" d="M217.6,211.6h-6.4c0.3,1.3,1.3,2.1,2.6,2.1c0.9,0,1.8-0.4,2.4-1l1,1c-0.8,0.9-2,1.4-3.5,1.4
			c-2.6,0-4.4-1.7-4.4-4.3c0-2.6,1.8-4.3,4.3-4.3C216.6,206.6,217.8,208.5,217.6,211.6z M216,210.2c-0.1-1.4-1-2.2-2.4-2.2
			c-1.3,0-2.3,0.8-2.5,2.2H216z"/>
		<path id="XMLID_539_" class="st1" d="M219.6,215.1v-11.9h1.8v11.9H219.6z"/>
		<path id="XMLID_536_" class="st1" d="M231.7,211.6h-6.4c0.3,1.3,1.3,2.1,2.6,2.1c0.9,0,1.8-0.4,2.4-1l1,1c-0.8,0.9-2,1.4-3.5,1.4
			c-2.6,0-4.4-1.7-4.4-4.3c0-2.6,1.8-4.3,4.3-4.3C230.7,206.6,231.9,208.5,231.7,211.6z M230.1,210.2c-0.1-1.4-1-2.2-2.4-2.2
			c-1.3,0-2.3,0.8-2.5,2.2H230.1z"/>
		<path id="XMLID_534_" class="st1" d="M238.4,214.6c-0.7,0.4-1.4,0.6-2.1,0.6c-1.3,0-2.4-0.7-2.4-2.5v-4.4h-1.2v-1.4h1.2v-2.3h1.8
			v2.3h2.5v1.4h-2.5v4.1c0,0.9,0.3,1.2,0.9,1.2c0.4,0,0.8-0.1,1.3-0.4L238.4,214.6z"/>
		<path id="XMLID_531_" class="st1" d="M247.5,211.6h-6.4c0.3,1.3,1.3,2.1,2.6,2.1c0.9,0,1.8-0.4,2.4-1l1,1c-0.8,0.9-2,1.4-3.5,1.4
			c-2.6,0-4.4-1.7-4.4-4.3c0-2.6,1.8-4.3,4.3-4.3C246.5,206.6,247.8,208.5,247.5,211.6z M245.9,210.2c-0.1-1.4-1-2.2-2.4-2.2
			c-1.3,0-2.3,0.8-2.5,2.2H245.9z"/>
		<path id="XMLID_529_" class="st1" d="M255.4,208.3c0.6-1.2,1.6-1.8,2.9-1.8v1.8c-1.7-0.1-2.8,0.9-2.9,2.4v4.5h-1.8v-8.5h1.8V208.3
			z"/>
		<path id="XMLID_526_" class="st1" d="M267.4,211.6h-6.4c0.3,1.3,1.3,2.1,2.6,2.1c0.9,0,1.8-0.4,2.4-1l1,1c-0.8,0.9-2,1.4-3.5,1.4
			c-2.6,0-4.4-1.7-4.4-4.3c0-2.6,1.8-4.3,4.3-4.3C266.4,206.6,267.6,208.5,267.4,211.6z M265.8,210.2c-0.1-1.4-1-2.2-2.4-2.2
			c-1.3,0-2.3,0.8-2.5,2.2H265.8z"/>
		<path id="XMLID_524_" class="st1" d="M276.3,208l-1,1.2c-0.6-0.6-1.4-1-2.4-1c-1.5,0-2.5,1.1-2.5,2.7c0,1.6,1.1,2.7,2.5,2.7
			c1.1,0,1.9-0.4,2.5-1l1,1c-0.8,1-2,1.6-3.6,1.6c-2.5,0-4.3-1.7-4.3-4.3c0-2.6,1.8-4.3,4.3-4.3C274.3,206.6,275.5,207.1,276.3,208z
			"/>
		<path id="XMLID_521_" class="st1" d="M286.1,210.9c0,2.6-1.8,4.3-4.4,4.3c-2.6,0-4.5-1.8-4.5-4.3c0-2.6,1.8-4.3,4.5-4.3
			C284.2,206.6,286.1,208.3,286.1,210.9z M279,210.9c0,1.6,1.1,2.8,2.6,2.8c1.5,0,2.6-1.1,2.6-2.8c0-1.6-1.1-2.8-2.6-2.8
			C280.1,208.1,279,209.3,279,210.9z"/>
		<path id="XMLID_519_" class="st1" d="M289.8,208.3c0.6-1.2,1.6-1.8,2.9-1.8v1.8c-1.7-0.1-2.8,0.9-2.9,2.4v4.5H288v-8.5h1.8V208.3z
			"/>
		<path id="XMLID_516_" class="st1" d="M302.4,215.1h-1.8v-1.5c-0.6,1-1.6,1.5-3,1.5c-2.4,0-4.1-1.8-4.1-4.4c0-2.6,1.6-4.3,4-4.3
			c1.4,0,2.4,0.6,3,1.6v-4.8h1.8V215.1z M300.6,210.9c0-1.6-1.1-2.8-2.6-2.8c-1.5,0-2.6,1.2-2.6,2.8c0,1.6,1.1,2.8,2.6,2.8
			C299.5,213.7,300.6,212.5,300.6,210.9z"/>
	</g>
</g>
<g id="XMLID_28_">
	<g id="XMLID_428_">
		<path id="XMLID_449_" d="M25.3,200.5v-4.6h-5.9v4.6h-1.9v-11.2h1.9v4.9h5.9v-4.9h1.9v11.2H25.3z"/>
		<path id="XMLID_447_" d="M34.2,191v9.5h-1.9V191h-3.5v-1.7h9v1.7H34.2z"/>
		<path id="XMLID_445_" d="M43.5,191v9.5h-1.9V191h-3.5v-1.7h9v1.7H43.5z"/>
		<path id="XMLID_442_" d="M53.1,189.3c2.8,0,4.4,1.4,4.4,3.8c0,2.5-1.6,4-4.4,4h-2.6v3.4h-1.9v-11.2H53.1z M50.5,195.4H53
			c1.7,0,2.7-0.7,2.7-2.3c0-1.5-1-2.2-2.7-2.2h-2.5V195.4z"/>
		<path id="XMLID_439_" d="M68.1,189.3c3.4,0,5.8,2.4,5.8,5.6c0,3.2-2.4,5.6-5.8,5.6h-4.5v-11.2H68.1z M65.4,198.8h2.8
			c2.2,0,3.8-1.6,3.8-3.9c0-2.3-1.7-3.9-3.9-3.9h-2.7V198.8z"/>
		<path id="XMLID_437_" d="M77.8,191v3h5.5v1.7h-5.5v3.1h6.3v1.7h-8.2v-11.2h8v1.7H77.8z"/>
		<path id="XMLID_435_" d="M93.2,198.8v1.7h-6.7v-11.2h1.9v9.5H93.2z"/>
		<path id="XMLID_433_" d="M96.9,191v3h5.5v1.7h-5.5v3.1h6.3v1.7H95v-11.2h8v1.7H96.9z"/>
		<path id="XMLID_431_" d="M109.6,191v9.5h-1.9V191h-3.5v-1.7h9v1.7H109.6z"/>
		<path id="XMLID_429_" d="M116.6,191v3h5.5v1.7h-5.5v3.1h6.3v1.7h-8.2v-11.2h8v1.7H116.6z"/>
	</g>
</g>
<polyline id="XMLID_24_" class="st2" points="139,214.9 144.6,209.4 139.1,203.8 "/>
<line id="XMLID_20_" class="st2" x1="144.6" y1="209.3" x2="3.2" y2="209.3"/>
</svg>
