<?xml version="1.0" encoding="utf-8"?>
<!-- Generator: Adobe Illustrator 19.0.0, SVG Export Plug-In . SVG Version: 6.00 Build 0)  -->
<svg version="1.1" id="Layer_1" xmlns="http://www.w3.org/2000/svg" xmlns:xlink="http://www.w3.org/1999/xlink" x="0px" y="0px"
	 viewBox="-406.5 -31.9 683.6 447.7" style="enable-background:new -406.5 -31.9 683.6 447.7;" xml:space="preserve">
<style type="text/css">
	.st0{fill:none;stroke:#010101;stroke-width:2;stroke-miterlimit:10;}
	.st1{fill:#AA1E58;}
	.st2{fill:#2F4199;}
	.st3{fill:#64958F;}
	.st4{fill:#6A3E3E;}
	.st5{fill:none;stroke:#000000;stroke-width:2;stroke-miterlimit:10;}
</style>
<rect id="XMLID_29_" x="-398.5" y="126.2" class="st0" width="197" height="130.9"/>
<g>
	<path d="M-375.2,150.1c0,0.6-0.2,1-0.7,1.1c0.5,0.1,0.7,0.4,0.7,1.1v1.6c0,0.5,0.2,0.7,0.9,0.7v0.9h-0.4c-1.1,0-1.6-0.4-1.6-1.3
		v-2.1c0-0.4-0.1-0.5-0.4-0.5h-0.3v-0.9h0.3c0.3,0,0.4-0.2,0.4-0.5v-2.1c0-0.9,0.4-1.3,1.6-1.3h0.4v0.9c-0.7,0-0.9,0.2-0.9,0.7
		V150.1z"/>
	<path d="M-368.3,162c0.2,0.1,0.3,0.3,0.3,0.5c0,0.4-0.3,0.6-0.6,0.6c-0.3,0-0.6-0.2-0.6-0.6c0-0.2,0.1-0.4,0.2-0.5l0.6-0.9h0.6
		L-368.3,162z M-366.8,162c0.2,0.1,0.3,0.3,0.3,0.5c0,0.4-0.3,0.6-0.6,0.6c-0.3,0-0.6-0.2-0.6-0.6c0-0.2,0.1-0.4,0.2-0.5l0.6-0.9
		h0.6L-366.8,162z"/>
	<path d="M-364.5,161.4c0,0.4-0.3,0.7-0.7,0.7c-0.4,0-0.7-0.3-0.7-0.7c0-0.4,0.3-0.7,0.7-0.7C-364.8,160.7-364.5,161-364.5,161.4z
		 M-365.8,168.2v-5.3h1.1v5.3H-365.8z"/>
	<path d="M-357.9,168.2h-1.1v-0.9c-0.4,0.6-1,1-1.9,1c-1.5,0-2.5-1.1-2.5-2.7c0-1.6,1-2.7,2.5-2.7c0.9,0,1.5,0.3,1.9,1v-3h1.1V168.2
		z M-359,165.6c0-1-0.7-1.7-1.6-1.7s-1.6,0.7-1.6,1.7c0,1,0.7,1.7,1.6,1.7C-359.7,167.3-359,166.6-359,165.6z"/>
	<path d="M-355.3,161.9c0,0.2-0.1,0.4-0.2,0.5l-0.6,0.9h-0.6l0.4-0.9c-0.2-0.1-0.3-0.3-0.3-0.5c0-0.4,0.3-0.6,0.6-0.6
		C-355.5,161.2-355.3,161.5-355.3,161.9z M-353.8,161.9c0,0.2-0.1,0.4-0.2,0.5l-0.6,0.9h-0.6l0.4-0.9c-0.2-0.1-0.3-0.3-0.3-0.5
		c0-0.4,0.3-0.6,0.6-0.6C-354.1,161.2-353.8,161.5-353.8,161.9z"/>
	<path d="M-349.3,164.7c0,0.4-0.3,0.7-0.6,0.7s-0.6-0.3-0.6-0.7c0-0.4,0.3-0.6,0.6-0.6S-349.3,164.3-349.3,164.7z M-349.3,167.6
		c0,0.4-0.3,0.7-0.6,0.7s-0.6-0.3-0.6-0.7c0-0.4,0.3-0.6,0.6-0.6S-349.3,167.3-349.3,167.6z"/>
	<path d="M-341.2,162.9c0,0.7-0.5,1.5-1.3,2.3l-1.8,1.9h3.4v1.1h-5v-0.9l2.6-2.8c0.5-0.5,0.8-1.1,0.8-1.5c0-0.6-0.4-0.9-1.2-0.9
		c-0.6,0-1.3,0.3-1.9,0.9l-0.5-0.9c0.8-0.6,1.6-1,2.5-1C-342.2,161.2-341.2,161.9-341.2,162.9z"/>
	<path d="M-338.8,167.7c0,0.2-0.1,0.4-0.2,0.5l-0.6,0.9h-0.6l0.4-0.9c-0.2-0.1-0.3-0.3-0.3-0.5c0-0.4,0.3-0.6,0.6-0.6
		C-339.1,167-338.8,167.3-338.8,167.7z"/>
	<path d="M-368.3,176c0.2,0.1,0.3,0.3,0.3,0.5c0,0.4-0.3,0.6-0.6,0.6c-0.3,0-0.6-0.2-0.6-0.6c0-0.2,0.1-0.4,0.2-0.5l0.6-0.9h0.6
		L-368.3,176z M-366.8,176c0.2,0.1,0.3,0.3,0.3,0.5c0,0.4-0.3,0.6-0.6,0.6c-0.3,0-0.6-0.2-0.6-0.6c0-0.2,0.1-0.4,0.2-0.5l0.6-0.9
		h0.6L-366.8,176z"/>
	<path d="M-360.7,178.9v3.3h-1.1v-3c0-0.8-0.5-1.3-1.3-1.3c-0.9,0-1.4,0.6-1.5,1.4v2.8h-1.1v-5.3h1.1v1c0.4-0.7,1.1-1.1,2-1.1
		C-361.4,176.9-360.7,177.7-360.7,178.9z"/>
	<path d="M-356,181.6c-0.4,0.5-1,0.7-1.8,0.7c-1.1,0-1.9-0.7-1.9-1.6c0-1,0.7-1.6,2-1.6h1.6v-0.2c0-0.7-0.4-1.1-1.3-1.1
		c-0.5,0-1,0.2-1.6,0.5l-0.5-0.8c0.7-0.4,1.3-0.7,2.3-0.7c1.4,0,2.1,0.7,2.1,1.9l0,3.5h-1.1V181.6z M-356,180.4v-0.5h-1.4
		c-0.7,0-1.1,0.2-1.1,0.7c0,0.5,0.4,0.8,1,0.8C-356.7,181.4-356,180.9-356,180.4z"/>
	<path d="M-344.4,178.9v3.3h-1.1v-3c0-0.8-0.5-1.3-1.3-1.3c-0.9,0-1.5,0.7-1.5,1.7v2.6h-1.1v-3c0-0.8-0.5-1.3-1.2-1.3
		c-0.9,0-1.5,0.7-1.5,1.7v2.6h-1.1v-5.3h1.1v1c0.4-0.7,1-1.1,1.9-1.1c0.9,0,1.6,0.5,1.8,1.3c0.3-0.9,1-1.3,2-1.3
		C-345.1,176.9-344.4,177.7-344.4,178.9z"/>
	<path d="M-338.2,180h-4c0.2,0.8,0.8,1.3,1.6,1.3c0.6,0,1.1-0.2,1.5-0.6l0.6,0.6c-0.5,0.6-1.3,0.9-2.2,0.9c-1.6,0-2.7-1.1-2.7-2.7
		c0-1.6,1.1-2.7,2.7-2.7C-338.8,176.9-338,178.1-338.2,180z M-339.2,179.2c0-0.9-0.6-1.4-1.5-1.4c-0.8,0-1.4,0.5-1.6,1.4H-339.2z"/>
	<path d="M-336.1,175.9c0,0.2-0.1,0.4-0.2,0.5l-0.6,0.9h-0.6l0.4-0.9c-0.2-0.1-0.3-0.3-0.3-0.5c0-0.4,0.3-0.6,0.6-0.6
		C-336.4,175.2-336.1,175.5-336.1,175.9z M-334.6,175.9c0,0.2-0.1,0.4-0.2,0.5l-0.6,0.9h-0.6l0.4-0.9c-0.2-0.1-0.3-0.3-0.3-0.5
		c0-0.4,0.3-0.6,0.6-0.6C-334.9,175.2-334.6,175.5-334.6,175.9z"/>
	<path d="M-330.2,178.7c0,0.4-0.3,0.7-0.6,0.7s-0.6-0.3-0.6-0.7c0-0.4,0.3-0.6,0.6-0.6S-330.2,178.3-330.2,178.7z M-330.2,181.6
		c0,0.4-0.3,0.7-0.6,0.7s-0.6-0.3-0.6-0.7c0-0.4,0.3-0.6,0.6-0.6S-330.2,181.3-330.2,181.6z"/>
	<path d="M-325.9,176c0.2,0.1,0.3,0.3,0.3,0.5c0,0.4-0.3,0.6-0.6,0.6c-0.3,0-0.6-0.2-0.6-0.6c0-0.2,0.1-0.4,0.2-0.5l0.6-0.9h0.6
		L-325.9,176z M-324.4,176c0.2,0.1,0.3,0.3,0.3,0.5c0,0.4-0.3,0.6-0.6,0.6c-0.3,0-0.6-0.2-0.6-0.6c0-0.2,0.1-0.4,0.2-0.5l0.6-0.9
		h0.6L-324.4,176z"/>
	<path d="M-322.2,176.3v2h3.2v1h-3.2v2.9h-1.2v-7h4.7l0,1.1H-322.2z"/>
	<path d="M-313,180h-4c0.2,0.8,0.8,1.3,1.6,1.3c0.6,0,1.1-0.2,1.5-0.6l0.6,0.6c-0.5,0.6-1.3,0.9-2.2,0.9c-1.6,0-2.7-1.1-2.7-2.7
		c0-1.6,1.1-2.7,2.7-2.7C-313.6,176.9-312.8,178.1-313,180z M-314,179.2c0-0.9-0.6-1.4-1.5-1.4c-0.8,0-1.4,0.5-1.6,1.4H-314z"/>
	<path d="M-306.7,182.2h-1.1v-0.9c-0.4,0.6-1,1-1.9,1c-1.5,0-2.5-1.1-2.5-2.7c0-1.6,1-2.7,2.5-2.7c0.9,0,1.5,0.3,1.9,1v-3h1.1V182.2
		z M-307.9,179.6c0-1-0.7-1.7-1.6-1.7s-1.6,0.7-1.6,1.7c0,1,0.7,1.7,1.6,1.7C-308.5,181.3-307.9,180.6-307.9,179.6z"/>
	<path d="M-300.3,180h-4c0.2,0.8,0.8,1.3,1.6,1.3c0.6,0,1.1-0.2,1.5-0.6l0.6,0.6c-0.5,0.6-1.3,0.9-2.2,0.9c-1.6,0-2.7-1.1-2.7-2.7
		c0-1.6,1.1-2.7,2.7-2.7C-300.9,176.9-300.1,178.1-300.3,180z M-301.3,179.2c0-0.9-0.6-1.4-1.5-1.4c-0.8,0-1.4,0.5-1.6,1.4H-301.3z"
		/>
	<path d="M-297.9,178c0.4-0.7,1-1.1,1.8-1.1v1.1c-1.1-0.1-1.7,0.6-1.8,1.5v2.8h-1.1v-5.3h1.1V178z"/>
	<path d="M-290.5,180h-4c0.2,0.8,0.8,1.3,1.6,1.3c0.6,0,1.1-0.2,1.5-0.6l0.6,0.6c-0.5,0.6-1.3,0.9-2.2,0.9c-1.6,0-2.7-1.1-2.7-2.7
		c0-1.6,1.1-2.7,2.7-2.7C-291.1,176.9-290.3,178.1-290.5,180z M-291.5,179.2c0-0.9-0.6-1.4-1.5-1.4c-0.8,0-1.4,0.5-1.6,1.4H-291.5z"
		/>
	<path d="M-288.1,178c0.4-0.7,1-1.1,1.8-1.1v1.1c-1.1-0.1-1.7,0.6-1.8,1.5v2.8h-1.1v-5.3h1.1V178z"/>
	<path d="M-284.5,175.9c0,0.2-0.1,0.4-0.2,0.5l-0.6,0.9h-0.6l0.4-0.9c-0.2-0.1-0.3-0.3-0.3-0.5c0-0.4,0.3-0.6,0.6-0.6
		C-284.8,175.2-284.5,175.5-284.5,175.9z M-283,175.9c0,0.2-0.1,0.4-0.2,0.5l-0.6,0.9h-0.6l0.4-0.9c-0.2-0.1-0.3-0.3-0.3-0.5
		c0-0.4,0.3-0.6,0.6-0.6C-283.3,175.2-283,175.5-283,175.9z"/>
	<path d="M-281.1,181.7c0,0.2-0.1,0.4-0.2,0.5l-0.6,0.9h-0.6l0.4-0.9c-0.2-0.1-0.3-0.3-0.3-0.5c0-0.4,0.3-0.6,0.6-0.6
		C-281.4,181-281.1,181.3-281.1,181.7z"/>
	<path d="M-368.3,190c0.2,0.1,0.3,0.3,0.3,0.5c0,0.4-0.3,0.6-0.6,0.6c-0.3,0-0.6-0.2-0.6-0.6c0-0.2,0.1-0.4,0.2-0.5l0.6-0.9h0.6
		L-368.3,190z M-366.8,190c0.2,0.1,0.3,0.3,0.3,0.5c0,0.4-0.3,0.6-0.6,0.6c-0.3,0-0.6-0.2-0.6-0.6c0-0.2,0.1-0.4,0.2-0.5l0.6-0.9
		h0.6L-366.8,190z"/>
	<path d="M-360.7,192.9v3.3h-1.1v-3c0-0.8-0.5-1.3-1.3-1.3c-0.9,0-1.4,0.6-1.5,1.4v2.8h-1.1v-5.3h1.1v1c0.4-0.7,1.1-1.1,2-1.1
		C-361.4,190.9-360.7,191.7-360.7,192.9z"/>
	<path d="M-356,195.6c-0.4,0.5-1,0.7-1.8,0.7c-1.1,0-1.9-0.7-1.9-1.6c0-1,0.7-1.6,2-1.6h1.6v-0.2c0-0.7-0.4-1.1-1.3-1.1
		c-0.5,0-1,0.2-1.6,0.5l-0.5-0.8c0.7-0.4,1.3-0.7,2.3-0.7c1.4,0,2.1,0.7,2.1,1.9l0,3.5h-1.1V195.6z M-356,194.4v-0.5h-1.4
		c-0.7,0-1.1,0.2-1.1,0.7c0,0.5,0.4,0.8,1,0.8C-356.7,195.4-356,194.9-356,194.4z"/>
	<path d="M-350.3,195.9c-0.4,0.3-0.9,0.4-1.3,0.4c-0.8,0-1.5-0.5-1.5-1.5V192h-0.7v-0.9h0.7v-1.5h1.1v1.5h1.6v0.9h-1.6v2.5
		c0,0.5,0.2,0.7,0.6,0.7c0.2,0,0.5-0.1,0.8-0.2L-350.3,195.9z"/>
	<path d="M-348,189.4c0,0.4-0.3,0.7-0.7,0.7c-0.4,0-0.7-0.3-0.7-0.7c0-0.4,0.3-0.7,0.7-0.7C-348.3,188.7-348,189-348,189.4z
		 M-349.2,196.2v-5.3h1.1v5.3H-349.2z"/>
	<path d="M-341.3,193.6c0,1.6-1.1,2.7-2.8,2.7c-1.6,0-2.8-1.1-2.8-2.7c0-1.6,1.1-2.7,2.8-2.7C-342.5,190.9-341.3,192-341.3,193.6z
		 M-345.7,193.6c0,1,0.7,1.7,1.6,1.7c0.9,0,1.6-0.7,1.6-1.7c0-1-0.7-1.7-1.6-1.7C-345,191.9-345.7,192.6-345.7,193.6z"/>
	<path d="M-335,192.9v3.3h-1.1v-3c0-0.8-0.5-1.3-1.3-1.3c-0.9,0-1.4,0.6-1.5,1.4v2.8h-1.1v-5.3h1.1v1c0.4-0.7,1.1-1.1,2-1.1
		C-335.8,190.9-335,191.7-335,192.9z"/>
	<path d="M-330.3,195.6c-0.4,0.5-1,0.7-1.8,0.7c-1.1,0-1.9-0.7-1.9-1.6c0-1,0.7-1.6,2-1.6h1.6v-0.2c0-0.7-0.4-1.1-1.3-1.1
		c-0.5,0-1,0.2-1.6,0.5l-0.5-0.8c0.7-0.4,1.3-0.7,2.3-0.7c1.4,0,2.1,0.7,2.1,1.9l0,3.5h-1.1V195.6z M-330.3,194.4v-0.5h-1.4
		c-0.7,0-1.1,0.2-1.1,0.7c0,0.5,0.4,0.8,1,0.8C-331,195.4-330.4,194.9-330.3,194.4z"/>
	<path d="M-327.6,196.2v-7.4h1.1v7.4H-327.6z"/>
	<path d="M-323.4,189.4c0,0.4-0.3,0.7-0.7,0.7c-0.4,0-0.7-0.3-0.7-0.7c0-0.4,0.3-0.7,0.7-0.7C-323.7,188.7-323.4,189-323.4,189.4z
		 M-324.7,196.2v-5.3h1.1v5.3H-324.7z"/>
	<path d="M-318.8,195.9c-0.4,0.3-0.9,0.4-1.3,0.4c-0.8,0-1.5-0.5-1.5-1.5V192h-0.7v-0.9h0.7v-1.5h1.1v1.5h1.6v0.9h-1.6v2.5
		c0,0.5,0.2,0.7,0.6,0.7c0.2,0,0.5-0.1,0.8-0.2L-318.8,195.9z"/>
	<path d="M-315.7,197c-0.3,0.8-0.9,1.3-1.7,1.3c-0.5,0-0.9-0.1-1.2-0.5l0.5-0.9c0.3,0.2,0.4,0.3,0.7,0.3c0.4,0,0.6-0.2,0.8-0.6
		l0.2-0.4l-2.2-5.2h1.2l1.6,4l1.5-4h1.1L-315.7,197z"/>
	<path d="M-311.6,189.9c0,0.2-0.1,0.4-0.2,0.5l-0.6,0.9h-0.6l0.4-0.9c-0.2-0.1-0.3-0.3-0.3-0.5c0-0.4,0.3-0.6,0.6-0.6
		C-311.9,189.2-311.6,189.5-311.6,189.9z M-310.1,189.9c0,0.2-0.1,0.4-0.2,0.5l-0.6,0.9h-0.6l0.4-0.9c-0.2-0.1-0.3-0.3-0.3-0.5
		c0-0.4,0.3-0.6,0.6-0.6C-310.4,189.2-310.1,189.5-310.1,189.9z"/>
	<path d="M-305.7,192.7c0,0.4-0.3,0.7-0.6,0.7s-0.6-0.3-0.6-0.7c0-0.4,0.3-0.6,0.6-0.6S-305.7,192.3-305.7,192.7z M-305.7,195.6
		c0,0.4-0.3,0.7-0.6,0.7s-0.6-0.3-0.6-0.7c0-0.4,0.3-0.6,0.6-0.6S-305.7,195.3-305.7,195.6z"/>
	<path d="M-301.4,190c0.2,0.1,0.3,0.3,0.3,0.5c0,0.4-0.3,0.6-0.6,0.6c-0.3,0-0.6-0.2-0.6-0.6c0-0.2,0.1-0.4,0.2-0.5l0.6-0.9h0.6
		L-301.4,190z M-299.9,190c0.2,0.1,0.3,0.3,0.3,0.5c0,0.4-0.3,0.6-0.6,0.6c-0.3,0-0.6-0.2-0.6-0.6c0-0.2,0.1-0.4,0.2-0.5l0.6-0.9
		h0.6L-299.9,190z"/>
	<path d="M-294.1,189.9l-0.5,1c-0.8-0.5-1.5-0.6-2-0.6c-0.7,0-1.1,0.3-1.1,0.7c0,1.5,3.8,0.7,3.8,3.2c0,1.2-1.1,2-2.6,2
		c-1.1,0-2.1-0.5-2.9-1.1l0.5-1c0.7,0.7,1.6,1,2.4,1c0.8,0,1.3-0.3,1.3-0.8c0-1.6-3.8-0.7-3.8-3.2c0-1.2,1-1.9,2.5-1.9
		C-295.6,189.2-294.7,189.5-294.1,189.9z"/>
	<path d="M-287.7,196.2l-1.3-3.9l-1.3,3.9h-1.2l-2-5.3h1.2l1.4,4.2l1.3-4.2h1.2l1.3,4.2l1.4-4.2h1.2l-1.9,5.3H-287.7z"/>
	<path d="M-282.5,189.4c0,0.4-0.3,0.7-0.7,0.7c-0.4,0-0.7-0.3-0.7-0.7c0-0.4,0.3-0.7,0.7-0.7C-282.8,188.7-282.5,189-282.5,189.4z
		 M-283.7,196.2v-5.3h1.1v5.3H-283.7z"/>
	<path d="M-277.9,195.9c-0.4,0.3-0.9,0.4-1.3,0.4c-0.8,0-1.5-0.5-1.5-1.5V192h-0.7v-0.9h0.7v-1.5h1.1v1.5h1.6v0.9h-1.6v2.5
		c0,0.5,0.2,0.7,0.6,0.7c0.2,0,0.5-0.1,0.8-0.2L-277.9,195.9z"/>
	<path d="M-275.8,195.3l3.1,0v0.9l-4.5,0v-0.8l3-3.6h-2.9v-0.9l4.4,0v0.8L-275.8,195.3z"/>
	<path d="M-266.8,194h-4c0.2,0.8,0.8,1.3,1.6,1.3c0.6,0,1.1-0.2,1.5-0.6l0.6,0.6c-0.5,0.6-1.3,0.9-2.2,0.9c-1.6,0-2.7-1.1-2.7-2.7
		c0-1.6,1.1-2.7,2.7-2.7C-267.5,190.9-266.7,192.1-266.8,194z M-267.8,193.2c0-0.9-0.6-1.4-1.5-1.4c-0.8,0-1.4,0.5-1.6,1.4H-267.8z"
		/>
	<path d="M-264.5,192c0.4-0.7,1-1.1,1.8-1.1v1.1c-1.1-0.1-1.7,0.6-1.8,1.5v2.8h-1.1v-5.3h1.1V192z"/>
	<path d="M-261.7,196.2v-7.4h1.1v7.4H-261.7z"/>
	<path d="M-255.6,195.6c-0.4,0.5-1,0.7-1.8,0.7c-1.1,0-1.9-0.7-1.9-1.6c0-1,0.7-1.6,2-1.6h1.6v-0.2c0-0.7-0.4-1.1-1.3-1.1
		c-0.5,0-1,0.2-1.6,0.5l-0.5-0.8c0.7-0.4,1.3-0.7,2.3-0.7c1.4,0,2.1,0.7,2.1,1.9l0,3.5h-1.1V195.6z M-255.6,194.4v-0.5h-1.4
		c-0.7,0-1.1,0.2-1.1,0.7c0,0.5,0.4,0.8,1,0.8C-256.3,195.4-255.6,194.9-255.6,194.4z"/>
	<path d="M-247.8,192.9v3.3h-1.1v-3c0-0.8-0.5-1.3-1.3-1.3c-0.9,0-1.4,0.6-1.5,1.4v2.8h-1.1v-5.3h1.1v1c0.4-0.7,1.1-1.1,2-1.1
		C-248.5,190.9-247.8,191.7-247.8,192.9z"/>
	<path d="M-241.2,196.2h-1.1v-0.9c-0.4,0.6-1,1-1.9,1c-1.5,0-2.5-1.1-2.5-2.7c0-1.6,1-2.7,2.5-2.7c0.9,0,1.5,0.3,1.9,1v-3h1.1V196.2
		z M-242.3,193.6c0-1-0.7-1.7-1.6-1.7s-1.6,0.7-1.6,1.7c0,1,0.7,1.7,1.6,1.7C-243,195.3-242.3,194.6-242.3,193.6z"/>
	<path d="M-238.6,189.9c0,0.2-0.1,0.4-0.2,0.5l-0.6,0.9h-0.6l0.4-0.9c-0.2-0.1-0.3-0.3-0.3-0.5c0-0.4,0.3-0.6,0.6-0.6
		C-238.9,189.2-238.6,189.5-238.6,189.9z M-237.1,189.9c0,0.2-0.1,0.4-0.2,0.5l-0.6,0.9h-0.6l0.4-0.9c-0.2-0.1-0.3-0.3-0.3-0.5
		c0-0.4,0.3-0.6,0.6-0.6C-237.4,189.2-237.1,189.5-237.1,189.9z"/>
	<path d="M-235.3,195.7c0,0.2-0.1,0.4-0.2,0.5l-0.6,0.9h-0.6l0.4-0.9c-0.2-0.1-0.3-0.3-0.3-0.5c0-0.4,0.3-0.6,0.6-0.6
		C-235.6,195-235.3,195.3-235.3,195.7z"/>
	<path d="M-368.3,204c0.2,0.1,0.3,0.3,0.3,0.5c0,0.4-0.3,0.6-0.6,0.6c-0.3,0-0.6-0.2-0.6-0.6c0-0.2,0.1-0.4,0.2-0.5l0.6-0.9h0.6
		L-368.3,204z M-366.8,204c0.2,0.1,0.3,0.3,0.3,0.5c0,0.4-0.3,0.6-0.6,0.6c-0.3,0-0.6-0.2-0.6-0.6c0-0.2,0.1-0.4,0.2-0.5l0.6-0.9
		h0.6L-366.8,204z"/>
	<path d="M-360.2,207.6c0,1.6-1,2.7-2.5,2.7c-0.8,0-1.5-0.3-1.9-1v0.9h-1.1v-7.4h1.1v3c0.4-0.6,1-1,1.9-1
		C-361.2,204.9-360.2,206-360.2,207.6z M-361.3,207.5c0-1-0.7-1.7-1.6-1.7s-1.6,0.7-1.6,1.7c0,1,0.7,1.7,1.6,1.7
		S-361.3,208.6-361.3,207.5z"/>
	<path d="M-357.7,203.4c0,0.4-0.3,0.7-0.7,0.7c-0.4,0-0.7-0.3-0.7-0.7c0-0.4,0.3-0.7,0.7-0.7C-358,202.7-357.7,203-357.7,203.4z
		 M-359,210.2v-5.3h1.1v5.3H-359z"/>
	<path d="M-355,206c0.4-0.7,1-1.1,1.8-1.1v1.1c-1.1-0.1-1.7,0.6-1.8,1.5v2.8h-1.1v-5.3h1.1V206z"/>
	<path d="M-349.2,209.9c-0.4,0.3-0.9,0.4-1.3,0.4c-0.8,0-1.5-0.5-1.5-1.5V206h-0.7v-0.9h0.7v-1.5h1.1v1.5h1.6v0.9h-1.6v2.5
		c0,0.5,0.2,0.7,0.6,0.7c0.2,0,0.5-0.1,0.8-0.2L-349.2,209.9z"/>
	<path d="M-343,206.9v3.3h-1.1v-3c0-0.8-0.5-1.3-1.3-1.3c-0.9,0-1.5,0.7-1.5,1.7v2.6h-1.1v-7.4h1.1v3.1c0.4-0.8,1.1-1.1,2-1.1
		C-343.7,204.9-343,205.7-343,206.9z"/>
	<path d="M-338.5,203.2c2.1,0,3.6,1.5,3.6,3.5c0,2-1.5,3.5-3.6,3.5h-2.8v-7H-338.5z M-340.2,209.2h1.7c1.4,0,2.4-1,2.4-2.4
		c0-1.4-1.1-2.4-2.4-2.4h-1.7V209.2z"/>
	<path d="M-330.5,209.6c-0.4,0.5-1,0.7-1.8,0.7c-1.1,0-1.9-0.7-1.9-1.6c0-1,0.7-1.6,2-1.6h1.6v-0.2c0-0.7-0.4-1.1-1.3-1.1
		c-0.5,0-1,0.2-1.6,0.5l-0.5-0.8c0.7-0.4,1.3-0.7,2.3-0.7c1.4,0,2.1,0.7,2.1,1.9l0,3.5h-1.1V209.6z M-330.5,208.4v-0.5h-1.4
		c-0.7,0-1.1,0.2-1.1,0.7c0,0.5,0.4,0.8,1,0.8C-331.2,209.4-330.6,208.9-330.5,208.4z"/>
	<path d="M-324.8,209.9c-0.4,0.3-0.9,0.4-1.3,0.4c-0.8,0-1.5-0.5-1.5-1.5V206h-0.7v-0.9h0.7v-1.5h1.1v1.5h1.6v0.9h-1.6v2.5
		c0,0.5,0.2,0.7,0.6,0.7c0.2,0,0.5-0.1,0.8-0.2L-324.8,209.9z"/>
	<path d="M-319.1,208h-4c0.2,0.8,0.8,1.3,1.6,1.3c0.6,0,1.1-0.2,1.5-0.6l0.6,0.6c-0.5,0.6-1.3,0.9-2.2,0.9c-1.6,0-2.7-1.1-2.7-2.7
		c0-1.6,1.1-2.7,2.7-2.7C-319.8,204.9-319,206.1-319.1,208z M-320.1,207.2c0-0.9-0.6-1.4-1.5-1.4c-0.8,0-1.4,0.5-1.6,1.4H-320.1z"/>
	<path d="M-317.1,203.9c0,0.2-0.1,0.4-0.2,0.5l-0.6,0.9h-0.6l0.4-0.9c-0.2-0.1-0.3-0.3-0.3-0.5c0-0.4,0.3-0.6,0.6-0.6
		C-317.4,203.2-317.1,203.5-317.1,203.9z M-315.6,203.9c0,0.2-0.1,0.4-0.2,0.5l-0.6,0.9h-0.6l0.4-0.9c-0.2-0.1-0.3-0.3-0.3-0.5
		c0-0.4,0.3-0.6,0.6-0.6C-315.9,203.2-315.6,203.5-315.6,203.9z"/>
	<path d="M-311.1,206.7c0,0.4-0.3,0.7-0.6,0.7s-0.6-0.3-0.6-0.7c0-0.4,0.3-0.6,0.6-0.6S-311.1,206.3-311.1,206.7z M-311.1,209.6
		c0,0.4-0.3,0.7-0.6,0.7s-0.6-0.3-0.6-0.7c0-0.4,0.3-0.6,0.6-0.6S-311.1,209.3-311.1,209.6z"/>
	<path d="M-306.8,204c0.2,0.1,0.3,0.3,0.3,0.5c0,0.4-0.3,0.6-0.6,0.6c-0.3,0-0.6-0.2-0.6-0.6c0-0.2,0.1-0.4,0.2-0.5l0.6-0.9h0.6
		L-306.8,204z M-305.4,204c0.2,0.1,0.3,0.3,0.3,0.5c0,0.4-0.3,0.6-0.6,0.6c-0.3,0-0.6-0.2-0.6-0.6c0-0.2,0.1-0.4,0.2-0.5l0.6-0.9
		h0.6L-305.4,204z"/>
	<path d="M-303.7,210.2v-5.9h-1.4v-1h2.5v7H-303.7z"/>
	<path d="M-300.7,209.7l0.5-0.9c0.4,0.3,1,0.4,1.5,0.4c1.4,0,2-1,1.9-2.5c-0.4,0.6-1,1-1.9,1c-1.4,0-2.2-0.9-2.2-2.2
		c0-1.4,1-2.3,2.5-2.3c1.8,0,2.8,1.3,2.8,3.4c0,2.2-1.2,3.7-3,3.7C-299.3,210.3-300.1,210.1-300.7,209.7z M-297,205.5
		c0-0.6-0.4-1.3-1.4-1.3c-0.8,0-1.4,0.5-1.4,1.3c0,0.8,0.5,1.3,1.4,1.3C-297.5,206.8-296.9,206.2-297,205.5z"/>
	<path d="M-289.7,205c0,0.7-0.4,1.2-1,1.5c0.8,0.3,1.4,0.9,1.4,1.8c0,1.2-1,2-2.7,2c-1.6,0-2.7-0.8-2.7-2c0-0.9,0.5-1.5,1.4-1.8
		c-0.7-0.3-1.1-0.9-1.1-1.5c0-1.1,0.9-1.8,2.3-1.8C-290.6,203.2-289.7,203.9-289.7,205z M-293.6,208.2c0,0.8,0.6,1.2,1.6,1.2
		s1.6-0.4,1.6-1.2c0-0.7-0.6-1.2-1.6-1.2C-293.1,207-293.6,207.4-293.6,208.2z M-293.4,205.1c0,0.6,0.5,1,1.3,1c0.8,0,1.3-0.4,1.3-1
		s-0.5-1-1.3-1C-292.9,204-293.4,204.4-293.4,205.1z"/>
	<path d="M-287.4,210.2v-5.9h-1.4v-1h2.5v7H-287.4z"/>
	<path d="M-284.4,207.6v-0.8h2.5v0.8H-284.4z"/>
	<path d="M-275,206.7c0,2.3-1.1,3.5-3,3.5c-1.9,0-3-1.3-3-3.5s1.1-3.5,3-3.5C-276,203.2-275,204.5-275,206.7z M-279.7,206.7
		c0,1.8,0.6,2.6,1.8,2.6c1.2,0,1.8-0.8,1.8-2.6c0-1.8-0.6-2.6-1.8-2.6C-279.1,204.1-279.7,205-279.7,206.7z"/>
	<path d="M-269,205c0,0.7-0.4,1.2-1,1.5c0.8,0.3,1.4,0.9,1.4,1.8c0,1.2-1,2-2.7,2c-1.6,0-2.7-0.8-2.7-2c0-0.9,0.5-1.5,1.4-1.8
		c-0.7-0.3-1.1-0.9-1.1-1.5c0-1.1,0.9-1.8,2.3-1.8C-269.9,203.2-269,203.9-269,205z M-272.9,208.2c0,0.8,0.6,1.2,1.6,1.2
		s1.6-0.4,1.6-1.2c0-0.7-0.6-1.2-1.6-1.2C-272.3,207-272.9,207.4-272.9,208.2z M-272.7,205.1c0,0.6,0.5,1,1.3,1c0.8,0,1.3-0.4,1.3-1
		s-0.5-1-1.3-1C-272.2,204-272.7,204.4-272.7,205.1z"/>
	<path d="M-267.6,207.6v-0.8h2.5v0.8H-267.6z"/>
	<path d="M-258.1,206.7c0,2.3-1.1,3.5-3,3.5c-1.9,0-3-1.3-3-3.5s1.1-3.5,3-3.5C-259.2,203.2-258.1,204.5-258.1,206.7z M-262.8,206.7
		c0,1.8,0.6,2.6,1.8,2.6c1.2,0,1.8-0.8,1.8-2.6c0-1.8-0.6-2.6-1.8-2.6C-262.3,204.1-262.8,205-262.8,206.7z"/>
	<path d="M-252.1,205c0,0.7-0.4,1.2-1,1.5c0.8,0.3,1.4,0.9,1.4,1.8c0,1.2-1,2-2.7,2c-1.6,0-2.7-0.8-2.7-2c0-0.9,0.5-1.5,1.4-1.8
		c-0.7-0.3-1.1-0.9-1.1-1.5c0-1.1,0.9-1.8,2.3-1.8C-253.1,203.2-252.1,203.9-252.1,205z M-256.1,208.2c0,0.8,0.6,1.2,1.6,1.2
		s1.6-0.4,1.6-1.2c0-0.7-0.6-1.2-1.6-1.2C-255.5,207-256.1,207.4-256.1,208.2z M-255.8,205.1c0,0.6,0.5,1,1.3,1c0.8,0,1.3-0.4,1.3-1
		s-0.5-1-1.3-1C-255.3,204-255.8,204.4-255.8,205.1z"/>
	<path d="M-249.7,203.9c0,0.2-0.1,0.4-0.2,0.5l-0.6,0.9h-0.6l0.4-0.9c-0.2-0.1-0.3-0.3-0.3-0.5c0-0.4,0.3-0.6,0.6-0.6
		C-250,203.2-249.7,203.5-249.7,203.9z M-248.2,203.9c0,0.2-0.1,0.4-0.2,0.5l-0.6,0.9h-0.6l0.4-0.9c-0.2-0.1-0.3-0.3-0.3-0.5
		c0-0.4,0.3-0.6,0.6-0.6C-248.5,203.2-248.2,203.5-248.2,203.9z"/>
	<path d="M-246.3,209.7c0,0.2-0.1,0.4-0.2,0.5l-0.6,0.9h-0.6l0.4-0.9c-0.2-0.1-0.3-0.3-0.3-0.5c0-0.4,0.3-0.6,0.6-0.6
		C-246.6,209-246.3,209.3-246.3,209.7z"/>
	<path d="M-368.3,218c0.2,0.1,0.3,0.3,0.3,0.5c0,0.4-0.3,0.6-0.6,0.6c-0.3,0-0.6-0.2-0.6-0.6c0-0.2,0.1-0.4,0.2-0.5l0.6-0.9h0.6
		L-368.3,218z M-366.8,218c0.2,0.1,0.3,0.3,0.3,0.5c0,0.4-0.3,0.6-0.6,0.6c-0.3,0-0.6-0.2-0.6-0.6c0-0.2,0.1-0.4,0.2-0.5l0.6-0.9
		h0.6L-366.8,218z"/>
	<path d="M-362.8,223.9c-0.4,0.3-0.9,0.4-1.3,0.4c-0.8,0-1.5-0.5-1.5-1.5V220h-0.7v-0.9h0.7v-1.5h1.1v1.5h1.6v0.9h-1.6v2.5
		c0,0.5,0.2,0.7,0.6,0.7c0.2,0,0.5-0.1,0.8-0.2L-362.8,223.9z"/>
	<path d="M-360.5,217.4c0,0.4-0.3,0.7-0.7,0.7c-0.4,0-0.7-0.3-0.7-0.7c0-0.4,0.3-0.7,0.7-0.7C-360.8,216.7-360.5,217-360.5,217.4z
		 M-361.7,224.2v-5.3h1.1v5.3H-361.7z"/>
	<path d="M-355.9,223.9c-0.4,0.3-0.9,0.4-1.3,0.4c-0.8,0-1.5-0.5-1.5-1.5V220h-0.7v-0.9h0.7v-1.5h1.1v1.5h1.6v0.9h-1.6v2.5
		c0,0.5,0.2,0.7,0.6,0.7c0.2,0,0.5-0.1,0.8-0.2L-355.9,223.9z"/>
	<path d="M-354.7,224.2v-7.4h1.1v7.4H-354.7z"/>
	<path d="M-347.2,222h-4c0.2,0.8,0.8,1.3,1.6,1.3c0.6,0,1.1-0.2,1.5-0.6l0.6,0.6c-0.5,0.6-1.3,0.9-2.2,0.9c-1.6,0-2.7-1.1-2.7-2.7
		c0-1.6,1.1-2.7,2.7-2.7C-347.8,218.9-347,220.1-347.2,222z M-348.2,221.2c0-0.9-0.6-1.4-1.5-1.4c-0.8,0-1.4,0.5-1.6,1.4H-348.2z"/>
	<path d="M-342.5,219.4l-0.4,0.8c-0.5-0.3-1.1-0.5-1.5-0.5c-0.4,0-0.8,0.1-0.8,0.5c0,1,2.8,0.5,2.8,2.4c0,1.1-1,1.6-2,1.6
		c-0.8,0-1.6-0.3-2.1-0.7l0.4-0.8c0.5,0.4,1.2,0.7,1.8,0.7c0.5,0,0.9-0.2,0.9-0.6c0-1.1-2.8-0.5-2.8-2.4c0-1.1,0.9-1.5,2-1.5
		C-343.7,218.9-343,219.1-342.5,219.4z"/>
	<path d="M-340.4,217.9c0,0.2-0.1,0.4-0.2,0.5l-0.6,0.9h-0.6l0.4-0.9c-0.2-0.1-0.3-0.3-0.3-0.5c0-0.4,0.3-0.6,0.6-0.6
		C-340.7,217.2-340.4,217.5-340.4,217.9z M-338.9,217.9c0,0.2-0.1,0.4-0.2,0.5l-0.6,0.9h-0.6l0.4-0.9c-0.2-0.1-0.3-0.3-0.3-0.5
		c0-0.4,0.3-0.6,0.6-0.6C-339.2,217.2-338.9,217.5-338.9,217.9z"/>
	<path d="M-334.5,220.7c0,0.4-0.3,0.7-0.6,0.7s-0.6-0.3-0.6-0.7c0-0.4,0.3-0.6,0.6-0.6S-334.5,220.3-334.5,220.7z M-334.5,223.6
		c0,0.4-0.3,0.7-0.6,0.7s-0.6-0.3-0.6-0.7c0-0.4,0.3-0.6,0.6-0.6S-334.5,223.3-334.5,223.6z"/>
	<path d="M-330,224.2v-5.9h-1.4v-1h2.5v7H-330z"/>
	<path d="M-321.2,220.7c0,2.3-1.1,3.5-3,3.5c-1.9,0-3-1.3-3-3.5s1.1-3.5,3-3.5C-322.3,217.2-321.2,218.5-321.2,220.7z M-325.9,220.7
		c0,1.8,0.6,2.6,1.8,2.6c1.2,0,1.8-0.8,1.8-2.6c0-1.8-0.6-2.6-1.8-2.6C-325.4,218.1-325.9,219-325.9,220.7z"/>
	<path d="M-317.7,220.2c1.2,0.1,2,0.8,2,1.9c0,1.3-1,2.2-2.5,2.2c-0.9,0-1.8-0.3-2.4-0.8l0.5-1c0.5,0.5,1.1,0.7,1.8,0.7
		c0.9,0,1.5-0.5,1.5-1.2c0-0.8-0.5-1.1-1.5-1.1h-1v-0.7l1.8-2h-2.8v-1h4.3v0.7l-2,2.2L-317.7,220.2z"/>
	<path d="M-373.3,235.6h-0.3c-0.3,0-0.4,0.1-0.4,0.5v2.1c0,0.9-0.4,1.3-1.6,1.3h-0.4v-0.9c0.7,0,0.9-0.2,0.9-0.7v-1.6
		c0-0.6,0.2-0.9,0.7-1.1c-0.5-0.1-0.7-0.4-0.7-1.1v-1.6c0-0.5-0.2-0.7-0.9-0.7v-0.9h0.4c1.1,0,1.6,0.3,1.6,1.3v2.1
		c0,0.4,0.1,0.5,0.4,0.5h0.3V235.6z"/>
</g>
<rect id="XMLID_4_" x="-39.5" y="-25.3" class="st0" width="310.1" height="434"/>
<g>
	<path class="st1" d="M-11.8-4.2c0,1.6-1,2.7-2.5,2.7c-0.8,0-1.5-0.3-1.9-1v2.9h-1.1v-7.3h1.1V-6c0.4-0.6,1-1,1.9-1
		C-12.8-6.9-11.8-5.8-11.8-4.2z M-13-4.2c0-1-0.7-1.7-1.6-1.7c-0.9,0-1.6,0.7-1.6,1.7c0,1,0.7,1.7,1.6,1.7C-13.6-2.5-13-3.2-13-4.2z
		"/>
	<path class="st1" d="M-5.8-1.6h-1.1v-1c-0.4,0.7-1,1.1-1.9,1.1c-1.2,0-1.9-0.8-1.9-2v-3.3h1.1v3c0,0.8,0.5,1.3,1.2,1.3
		c0.9,0,1.5-0.7,1.5-1.7v-2.6h1.1V-1.6z"/>
	<path class="st1" d="M1.5-4.2c0,1.6-1,2.7-2.5,2.7c-0.8,0-1.5-0.3-1.9-1v0.9H-4V-9h1.1v3c0.4-0.6,1-1,1.9-1
		C0.5-6.9,1.5-5.8,1.5-4.2z M0.4-4.2c0-1-0.7-1.7-1.6-1.7c-0.9,0-1.6,0.7-1.6,1.7c0,1,0.7,1.7,1.6,1.7C-0.3-2.5,0.4-3.2,0.4-4.2z"/>
	<path class="st1" d="M2.8-1.6V-9h1.1v7.4H2.8z"/>
	<path class="st1" d="M6.9-8.4c0,0.4-0.3,0.7-0.7,0.7C5.9-7.7,5.6-8,5.6-8.4c0-0.4,0.3-0.7,0.7-0.7C6.6-9.1,6.9-8.8,6.9-8.4z
		 M5.7-1.6v-5.3h1.1v5.3H5.7z"/>
	<path class="st1" d="M12.9-6.1l-0.6,0.7c-0.4-0.4-0.9-0.6-1.5-0.6c-0.9,0-1.6,0.7-1.6,1.7s0.7,1.7,1.6,1.7c0.7,0,1.2-0.2,1.6-0.6
		l0.6,0.6c-0.5,0.6-1.2,1-2.3,1C9.1-1.5,8-2.6,8-4.2c0-1.6,1.1-2.7,2.7-2.7C11.6-6.9,12.4-6.6,12.9-6.1z"/>
	<path class="st1" d="M21.1-6.1l-0.6,0.7c-0.4-0.4-0.9-0.6-1.5-0.6c-0.9,0-1.6,0.7-1.6,1.7S18-2.5,19-2.5c0.7,0,1.2-0.2,1.6-0.6
		l0.6,0.6c-0.5,0.6-1.2,1-2.3,1c-1.6,0-2.7-1.1-2.7-2.7c0-1.6,1.1-2.7,2.7-2.7C19.9-6.9,20.6-6.6,21.1-6.1z"/>
	<path class="st1" d="M22.4-1.6V-9h1.1v7.4H22.4z"/>
	<path class="st1" d="M28.5-2.2c-0.4,0.5-1,0.7-1.8,0.7c-1.1,0-1.9-0.7-1.9-1.6c0-1,0.7-1.6,2-1.6h1.6v-0.2c0-0.7-0.4-1.1-1.3-1.1
		c-0.5,0-1,0.2-1.6,0.5l-0.5-0.8c0.7-0.4,1.3-0.7,2.3-0.7c1.4,0,2.1,0.7,2.1,1.9l0,3.5h-1.1V-2.2z M28.5-3.4v-0.5h-1.4
		c-0.8,0-1.1,0.2-1.1,0.7c0,0.5,0.4,0.8,1,0.8C27.8-2.4,28.4-2.9,28.5-3.4z"/>
	<path class="st1" d="M34.6-6.4l-0.4,0.8C33.7-5.8,33.1-6,32.7-6c-0.4,0-0.8,0.1-0.8,0.5c0,1,2.8,0.5,2.8,2.4c0,1.1-1,1.6-2,1.6
		c-0.8,0-1.6-0.3-2.1-0.7l0.4-0.8c0.5,0.4,1.2,0.7,1.8,0.7c0.5,0,0.9-0.2,0.9-0.6c0-1.1-2.8-0.5-2.8-2.4c0-1.1,0.9-1.5,2-1.5
		C33.4-6.9,34.1-6.7,34.6-6.4z"/>
	<path class="st1" d="M39.3-6.4l-0.4,0.8C38.4-5.8,37.8-6,37.4-6c-0.5,0-0.8,0.1-0.8,0.5c0,1,2.8,0.5,2.8,2.4c0,1.1-1,1.6-2,1.6
		c-0.8,0-1.6-0.3-2.1-0.7l0.4-0.8c0.5,0.4,1.2,0.7,1.8,0.7c0.5,0,0.9-0.2,0.9-0.6c0-1.1-2.8-0.5-2.8-2.4c0-1.1,0.9-1.5,2-1.5
		C38.1-6.9,38.8-6.7,39.3-6.4z"/>
	<path d="M46-8.6c1.8,0,2.8,0.9,2.8,2.4c0,1.6-1,2.5-2.8,2.5h-1.6v2.1h-1.2v-7H46z M44.4-4.7H46c1.1,0,1.7-0.5,1.7-1.4
		c0-0.9-0.6-1.4-1.7-1.4h-1.6V-4.7z"/>
	<path d="M49.9-1.6V-9h1.1v7.4H49.9z"/>
	<path d="M56-2.2c-0.4,0.5-1,0.7-1.8,0.7c-1.1,0-1.9-0.7-1.9-1.6c0-1,0.7-1.6,2-1.6H56v-0.2C56-5.6,55.6-6,54.7-6
		c-0.5,0-1,0.2-1.6,0.5l-0.5-0.8C53.4-6.7,54-6.9,55-6.9c1.4,0,2.1,0.7,2.1,1.9l0,3.5H56V-2.2z M56-3.4v-0.5h-1.4
		c-0.8,0-1.1,0.2-1.1,0.7c0,0.5,0.4,0.8,1,0.8C55.3-2.4,56-2.9,56-3.4z"/>
	<path d="M60.6-0.8c-0.3,0.8-0.9,1.3-1.7,1.3c-0.5,0-0.9-0.1-1.2-0.5l0.5-0.9c0.3,0.2,0.5,0.3,0.7,0.3c0.4,0,0.6-0.2,0.8-0.6
		l0.2-0.4l-2.2-5.2h1.2l1.6,4l1.5-4H63L60.6-0.8z"/>
	<path d="M68.3-3.8h-4C64.5-3,65.1-2.5,66-2.5c0.6,0,1.1-0.2,1.5-0.6l0.6,0.6c-0.5,0.6-1.3,0.9-2.2,0.9c-1.6,0-2.7-1.1-2.7-2.7
		c0-1.6,1.1-2.7,2.7-2.7C67.7-6.9,68.5-5.7,68.3-3.8z M67.3-4.6c0-0.9-0.6-1.4-1.5-1.4c-0.8,0-1.4,0.5-1.6,1.4H67.3z"/>
	<path d="M70.7-5.8c0.4-0.7,1-1.1,1.8-1.1v1.1c-1.1-0.1-1.7,0.6-1.8,1.5v2.8h-1.1v-5.3h1.1V-5.8z"/>
	<path d="M79.9-5.7c0,0.6-0.2,1-0.7,1.1c0.5,0.1,0.7,0.4,0.7,1.1v1.6c0,0.5,0.2,0.7,1,0.7v0.9h-0.4c-1.1,0-1.6-0.4-1.6-1.3v-2.1
		c0-0.4-0.1-0.5-0.4-0.5h-0.3v-0.9h0.3c0.3,0,0.4-0.2,0.4-0.5v-2.1c0-0.9,0.4-1.3,1.6-1.3h0.4v0.9c-0.7,0-1,0.2-1,0.7V-5.7z"/>
	<path class="st1" d="M8.8,9.8c0,1.6-1,2.7-2.5,2.7c-0.8,0-1.5-0.3-1.9-1v2.9H3.3V7.1h1.1V8c0.4-0.6,1-1,1.9-1
		C7.8,7.1,8.8,8.2,8.8,9.8z M7.7,9.8C7.7,8.8,7,8,6,8C5.1,8,4.4,8.8,4.4,9.8c0,1,0.7,1.7,1.6,1.7C7,11.5,7.7,10.8,7.7,9.8z"/>
	<path class="st1" d="M11.2,8.2c0.4-0.7,1-1.1,1.8-1.1v1.1c-1.1-0.1-1.7,0.6-1.8,1.5v2.8H10V7.1h1.1V8.2z"/>
	<path class="st1" d="M15.2,5.6c0,0.4-0.3,0.7-0.7,0.7S13.9,6,13.9,5.6c0-0.4,0.3-0.7,0.7-0.7S15.2,5.2,15.2,5.6z M14,12.4V7.1h1.1
		v5.3H14z"/>
	<path class="st1" d="M18,12.4L16,7.1h1.2l1.5,4.2l1.5-4.2h1.1l-2,5.3H18z"/>
	<path class="st1" d="M25.1,11.8c-0.4,0.5-1,0.7-1.8,0.7c-1.1,0-1.9-0.7-1.9-1.6c0-1,0.7-1.6,2-1.6h1.6V9.1c0-0.7-0.4-1.1-1.3-1.1
		c-0.5,0-1,0.2-1.6,0.5l-0.5-0.8c0.7-0.4,1.3-0.7,2.3-0.7c1.4,0,2.1,0.7,2.1,1.9l0,3.5h-1.1V11.8z M25.1,10.6v-0.5h-1.4
		c-0.8,0-1.1,0.2-1.1,0.7c0,0.5,0.4,0.8,1,0.8C24.4,11.6,25,11.1,25.1,10.6z"/>
	<path class="st1" d="M30.8,12.1c-0.4,0.3-0.9,0.4-1.3,0.4c-0.8,0-1.5-0.5-1.5-1.5V8.2h-0.7V7.3H28V5.9h1.1v1.5h1.6v0.9h-1.6v2.5
		c0,0.5,0.2,0.7,0.6,0.7c0.2,0,0.5-0.1,0.8-0.2L30.8,12.1z"/>
	<path class="st1" d="M36.5,10.2h-4c0.2,0.8,0.8,1.3,1.6,1.3c0.6,0,1.1-0.2,1.5-0.6l0.6,0.6c-0.5,0.6-1.3,0.9-2.2,0.9
		c-1.6,0-2.7-1.1-2.7-2.7c0-1.6,1.1-2.7,2.7-2.7C35.8,7.1,36.6,8.3,36.5,10.2z M35.5,9.4C35.4,8.5,34.8,8,34,8
		c-0.8,0-1.4,0.5-1.6,1.4H35.5z"/>
	<path class="st1" d="M41.5,5.6c0,0.4-0.3,0.7-0.7,0.7c-0.4,0-0.7-0.3-0.7-0.7c0-0.4,0.3-0.7,0.7-0.7C41.2,4.9,41.5,5.2,41.5,5.6z
		 M40.2,12.4V7.1h1.1v5.3H40.2z"/>
	<path class="st1" d="M48.2,9.1v3.3H47v-3c0-0.8-0.5-1.3-1.3-1.3c-0.9,0-1.4,0.6-1.5,1.4v2.8h-1.1V7.1h1.1v1c0.4-0.7,1.1-1.1,2-1.1
		C47.4,7.1,48.2,7.9,48.2,9.1z"/>
	<path class="st1" d="M52.7,12.1c-0.4,0.3-0.9,0.4-1.3,0.4c-0.8,0-1.5-0.5-1.5-1.5V8.2h-0.7V7.3h0.7V5.9h1.1v1.5h1.6v0.9h-1.6v2.5
		c0,0.5,0.2,0.7,0.6,0.7c0.2,0,0.5-0.1,0.8-0.2L52.7,12.1z"/>
	<path class="st2" d="M57.6,5.6c0,0.4-0.3,0.7-0.7,0.7S56.3,6,56.3,5.6c0-0.4,0.3-0.7,0.7-0.7S57.6,5.2,57.6,5.6z M56.4,12.4V7.1
		h1.1v5.3H56.4z"/>
	<path class="st2" d="M64.3,12.4h-1.1v-0.9c-0.4,0.6-1,1-1.9,1c-1.5,0-2.5-1.1-2.5-2.7c0-1.6,1-2.7,2.5-2.7c0.9,0,1.5,0.3,1.9,1V5
		h1.1V12.4z M63.1,9.8c0-1-0.7-1.7-1.6-1.7c-1,0-1.6,0.7-1.6,1.7c0,1,0.7,1.7,1.6,1.7C62.4,11.5,63.1,10.8,63.1,9.8z"/>
	<path d="M66.9,11.9c0,0.2-0.1,0.4-0.2,0.5l-0.6,0.9h-0.6l0.4-0.9c-0.2-0.1-0.3-0.3-0.3-0.5c0-0.4,0.3-0.6,0.6-0.6
		C66.6,11.2,66.9,11.5,66.9,11.9z M65.6,8.9c0-0.4,0.3-0.6,0.6-0.6c0.4,0,0.6,0.3,0.6,0.6c0,0.4-0.3,0.7-0.6,0.7
		C65.9,9.6,65.6,9.3,65.6,8.9z"/>
	<path class="st1" d="M8.8,23.8c0,1.6-1,2.7-2.5,2.7c-0.8,0-1.5-0.3-1.9-1v2.9H3.3v-7.3h1.1V22c0.4-0.6,1-1,1.9-1
		C7.8,21.1,8.8,22.2,8.8,23.8z M7.7,23.8C7.7,22.8,7,22,6,22c-0.9,0-1.6,0.7-1.6,1.7c0,1,0.7,1.7,1.6,1.7C7,25.5,7.7,24.8,7.7,23.8z
		"/>
	<path class="st1" d="M11.2,22.2c0.4-0.7,1-1.1,1.8-1.1v1.1c-1.1-0.1-1.7,0.6-1.8,1.5v2.8H10v-5.3h1.1V22.2z"/>
	<path class="st1" d="M15.2,19.6c0,0.4-0.3,0.7-0.7,0.7s-0.7-0.3-0.7-0.7c0-0.4,0.3-0.7,0.7-0.7S15.2,19.2,15.2,19.6z M14,26.4v-5.3
		h1.1v5.3H14z"/>
	<path class="st1" d="M18,26.4L16,21.1h1.2l1.5,4.2l1.5-4.2h1.1l-2,5.3H18z"/>
	<path class="st1" d="M25.1,25.8c-0.4,0.5-1,0.7-1.8,0.7c-1.1,0-1.9-0.7-1.9-1.6c0-1,0.7-1.6,2-1.6h1.6v-0.2c0-0.7-0.4-1.1-1.3-1.1
		c-0.5,0-1,0.2-1.6,0.5l-0.5-0.8c0.7-0.4,1.3-0.7,2.3-0.7c1.4,0,2.1,0.7,2.1,1.9l0,3.5h-1.1V25.8z M25.1,24.6v-0.5h-1.4
		c-0.8,0-1.1,0.2-1.1,0.7c0,0.5,0.4,0.8,1,0.8C24.4,25.6,25,25.1,25.1,24.6z"/>
	<path class="st1" d="M30.8,26.1c-0.4,0.3-0.9,0.4-1.3,0.4c-0.8,0-1.5-0.5-1.5-1.5v-2.8h-0.7v-0.9H28v-1.5h1.1v1.5h1.6v0.9h-1.6v2.5
		c0,0.5,0.2,0.7,0.6,0.7c0.2,0,0.5-0.1,0.8-0.2L30.8,26.1z"/>
	<path class="st1" d="M36.5,24.2h-4c0.2,0.8,0.8,1.3,1.6,1.3c0.6,0,1.1-0.2,1.5-0.6l0.6,0.6c-0.5,0.6-1.3,0.9-2.2,0.9
		c-1.6,0-2.7-1.1-2.7-2.7c0-1.6,1.1-2.7,2.7-2.7C35.8,21.1,36.6,22.3,36.5,24.2z M35.5,23.4c0-0.9-0.6-1.4-1.5-1.4
		c-0.8,0-1.4,0.5-1.6,1.4H35.5z"/>
	<path d="M45.1,20.1l-0.5,1c-0.8-0.5-1.5-0.6-2-0.6c-0.7,0-1.1,0.3-1.1,0.7c0,1.5,3.8,0.7,3.8,3.2c0,1.2-1.1,2-2.6,2
		c-1.1,0-2.1-0.5-2.9-1.1l0.5-1c0.7,0.7,1.6,1,2.4,1c0.8,0,1.3-0.3,1.3-0.8c0-1.6-3.8-0.7-3.8-3.2c0-1.2,1-1.9,2.5-1.9
		C43.5,19.4,44.4,19.7,45.1,20.1z"/>
	<path d="M49.5,26.1c-0.4,0.3-0.9,0.4-1.3,0.4c-0.8,0-1.5-0.5-1.5-1.5v-2.8h-0.7v-0.9h0.7v-1.5h1.1v1.5h1.6v0.9h-1.6v2.5
		c0,0.5,0.2,0.7,0.6,0.7c0.2,0,0.5-0.1,0.8-0.2L49.5,26.1z"/>
	<path d="M51.7,22.2c0.4-0.7,1-1.1,1.8-1.1v1.1c-1.1-0.1-1.7,0.6-1.8,1.5v2.8h-1.1v-5.3h1.1V22.2z"/>
	<path d="M55.7,19.6c0,0.4-0.3,0.7-0.7,0.7s-0.7-0.3-0.7-0.7c0-0.4,0.3-0.7,0.7-0.7S55.7,19.2,55.7,19.6z M54.5,26.4v-5.3h1.1v5.3
		H54.5z"/>
	<path d="M62.4,23.1v3.3h-1.1v-3c0-0.8-0.5-1.3-1.3-1.3c-0.9,0-1.4,0.6-1.5,1.4v2.8h-1.1v-5.3h1.1v1c0.4-0.7,1.1-1.1,2-1.1
		C61.7,21.1,62.4,21.9,62.4,23.1z"/>
	<path d="M68.7,25.9c0,1.5-1.1,2.5-2.8,2.5c-0.8,0-1.6-0.3-2.2-0.7l0.5-0.8c0.5,0.4,1,0.6,1.7,0.6c1,0,1.7-0.6,1.7-1.5v-0.7
		c-0.4,0.6-1,0.9-1.8,0.9c-1.4,0-2.4-1-2.4-2.6c0-1.5,0.9-2.5,2.4-2.5c0.8,0,1.4,0.3,1.8,0.9v-0.9h1.1V25.9z M67.6,23.6
		c0-1-0.6-1.6-1.5-1.6c-0.9,0-1.5,0.7-1.5,1.6c0,1,0.6,1.6,1.5,1.6C67,25.3,67.6,24.6,67.6,23.6z"/>
	<path class="st2" d="M78,23.1v3.3h-1.1v-3c0-0.8-0.5-1.3-1.3-1.3c-0.9,0-1.4,0.6-1.5,1.4v2.8h-1.1v-5.3h1.1v1
		c0.4-0.7,1.1-1.1,2-1.1C77.3,21.1,78,21.9,78,23.1z"/>
	<path class="st2" d="M82.7,25.8c-0.4,0.5-1,0.7-1.8,0.7c-1.1,0-1.9-0.7-1.9-1.6c0-1,0.7-1.6,2-1.6h1.6v-0.2c0-0.7-0.4-1.1-1.3-1.1
		c-0.5,0-1,0.2-1.6,0.5l-0.5-0.8c0.7-0.4,1.3-0.7,2.3-0.7c1.4,0,2.1,0.7,2.1,1.9l0,3.5h-1.1V25.8z M82.7,24.6v-0.5h-1.4
		c-0.8,0-1.1,0.2-1.1,0.7c0,0.5,0.4,0.8,1,0.8C82,25.6,82.7,25.1,82.7,24.6z"/>
	<path class="st2" d="M94.3,23.1v3.3h-1.1v-3c0-0.8-0.5-1.3-1.3-1.3c-0.9,0-1.5,0.7-1.5,1.7v2.6h-1.1v-3c0-0.8-0.5-1.3-1.2-1.3
		c-0.9,0-1.5,0.7-1.5,1.7v2.6h-1.1v-5.3h1.1v1c0.4-0.7,1-1.1,1.9-1.1c0.9,0,1.6,0.5,1.8,1.3c0.3-0.9,1-1.3,2-1.3
		C93.6,21.1,94.3,21.9,94.3,23.1z"/>
	<path class="st2" d="M100.5,24.2h-4c0.2,0.8,0.8,1.3,1.6,1.3c0.6,0,1.1-0.2,1.5-0.6l0.6,0.6c-0.5,0.6-1.3,0.9-2.2,0.9
		c-1.6,0-2.7-1.1-2.7-2.7c0-1.6,1.1-2.7,2.7-2.7C99.9,21.1,100.7,22.3,100.5,24.2z M99.5,23.4c0-0.9-0.6-1.4-1.5-1.4
		c-0.8,0-1.4,0.5-1.6,1.4H99.5z"/>
	<path d="M102.6,25.9c0,0.2-0.1,0.4-0.2,0.5l-0.6,0.9h-0.6l0.4-0.9c-0.2-0.1-0.3-0.3-0.3-0.5c0-0.4,0.3-0.6,0.6-0.6
		C102.3,25.2,102.6,25.5,102.6,25.9z M101.3,22.9c0-0.4,0.3-0.6,0.6-0.6c0.4,0,0.6,0.3,0.6,0.6c0,0.4-0.3,0.7-0.6,0.7
		C101.6,23.6,101.3,23.3,101.3,22.9z"/>
	<path class="st1" d="M8.8,37.8c0,1.6-1,2.7-2.5,2.7c-0.8,0-1.5-0.3-1.9-1v2.9H3.3v-7.3h1.1V36c0.4-0.6,1-1,1.9-1
		C7.8,35.1,8.8,36.2,8.8,37.8z M7.7,37.8C7.7,36.8,7,36,6,36c-0.9,0-1.6,0.7-1.6,1.7c0,1,0.7,1.7,1.6,1.7C7,39.5,7.7,38.8,7.7,37.8z
		"/>
	<path class="st1" d="M11.2,36.2c0.4-0.7,1-1.1,1.8-1.1v1.1c-1.1-0.1-1.7,0.6-1.8,1.5v2.8H10v-5.3h1.1V36.2z"/>
	<path class="st1" d="M15.2,33.6c0,0.4-0.3,0.7-0.7,0.7s-0.7-0.3-0.7-0.7c0-0.4,0.3-0.7,0.7-0.7S15.2,33.2,15.2,33.6z M14,40.4v-5.3
		h1.1v5.3H14z"/>
	<path class="st1" d="M18,40.4L16,35.1h1.2l1.5,4.2l1.5-4.2h1.1l-2,5.3H18z"/>
	<path class="st1" d="M25.1,39.8c-0.4,0.5-1,0.7-1.8,0.7c-1.1,0-1.9-0.7-1.9-1.6c0-1,0.7-1.6,2-1.6h1.6v-0.2c0-0.7-0.4-1.1-1.3-1.1
		c-0.5,0-1,0.2-1.6,0.5l-0.5-0.8c0.7-0.4,1.3-0.7,2.3-0.7c1.4,0,2.1,0.7,2.1,1.9l0,3.5h-1.1V39.8z M25.1,38.6v-0.5h-1.4
		c-0.8,0-1.1,0.2-1.1,0.7c0,0.5,0.4,0.8,1,0.8C24.4,39.6,25,39.1,25.1,38.6z"/>
	<path class="st1" d="M30.8,40.1c-0.4,0.3-0.9,0.4-1.3,0.4c-0.8,0-1.5-0.5-1.5-1.5v-2.8h-0.7v-0.9H28v-1.5h1.1v1.5h1.6v0.9h-1.6v2.5
		c0,0.5,0.2,0.7,0.6,0.7c0.2,0,0.5-0.1,0.8-0.2L30.8,40.1z"/>
	<path class="st1" d="M36.5,38.2h-4c0.2,0.8,0.8,1.3,1.6,1.3c0.6,0,1.1-0.2,1.5-0.6l0.6,0.6c-0.5,0.6-1.3,0.9-2.2,0.9
		c-1.6,0-2.7-1.1-2.7-2.7c0-1.6,1.1-2.7,2.7-2.7C35.8,35.1,36.6,36.3,36.5,38.2z M35.5,37.4c0-0.9-0.6-1.4-1.5-1.4
		c-0.8,0-1.4,0.5-1.6,1.4H35.5z"/>
	<path d="M45.1,34.1l-0.5,1c-0.8-0.5-1.5-0.6-2-0.6c-0.7,0-1.1,0.3-1.1,0.7c0,1.5,3.8,0.7,3.8,3.2c0,1.2-1.1,2-2.6,2
		c-1.1,0-2.1-0.5-2.9-1.1l0.5-1c0.7,0.7,1.6,1,2.4,1c0.8,0,1.3-0.3,1.3-0.8c0-1.6-3.8-0.7-3.8-3.2c0-1.2,1-1.9,2.5-1.9
		C43.5,33.4,44.4,33.7,45.1,34.1z"/>
	<path d="M49.5,40.1c-0.4,0.3-0.9,0.4-1.3,0.4c-0.8,0-1.5-0.5-1.5-1.5v-2.8h-0.7v-0.9h0.7v-1.5h1.1v1.5h1.6v0.9h-1.6v2.5
		c0,0.5,0.2,0.7,0.6,0.7c0.2,0,0.5-0.1,0.8-0.2L49.5,40.1z"/>
	<path d="M51.7,36.2c0.4-0.7,1-1.1,1.8-1.1v1.1c-1.1-0.1-1.7,0.6-1.8,1.5v2.8h-1.1v-5.3h1.1V36.2z"/>
	<path d="M55.7,33.6c0,0.4-0.3,0.7-0.7,0.7s-0.7-0.3-0.7-0.7c0-0.4,0.3-0.7,0.7-0.7S55.7,33.2,55.7,33.6z M54.5,40.4v-5.3h1.1v5.3
		H54.5z"/>
	<path d="M62.4,37.1v3.3h-1.1v-3c0-0.8-0.5-1.3-1.3-1.3c-0.9,0-1.4,0.6-1.5,1.4v2.8h-1.1v-5.3h1.1v1c0.4-0.7,1.1-1.1,2-1.1
		C61.7,35.1,62.4,35.9,62.4,37.1z"/>
	<path d="M68.7,39.9c0,1.5-1.1,2.5-2.8,2.5c-0.8,0-1.6-0.3-2.2-0.7l0.5-0.8c0.5,0.4,1,0.6,1.7,0.6c1,0,1.7-0.6,1.7-1.5v-0.7
		c-0.4,0.6-1,0.9-1.8,0.9c-1.4,0-2.4-1-2.4-2.6c0-1.5,0.9-2.5,2.4-2.5c0.8,0,1.4,0.3,1.8,0.9v-0.9h1.1V39.9z M67.6,37.6
		c0-1-0.6-1.6-1.5-1.6c-0.9,0-1.5,0.7-1.5,1.6c0,1,0.6,1.6,1.5,1.6C67,39.3,67.6,38.6,67.6,37.6z"/>
	<path class="st2" d="M78,37.1v3.3h-1.1v-3c0-0.8-0.5-1.3-1.3-1.3c-0.9,0-1.4,0.6-1.5,1.4v2.8h-1.1v-5.3h1.1v1
		c0.4-0.7,1.1-1.1,2-1.1C77.3,35.1,78,35.9,78,37.1z"/>
	<path class="st2" d="M82.7,39.8c-0.4,0.5-1,0.7-1.8,0.7c-1.1,0-1.9-0.7-1.9-1.6c0-1,0.7-1.6,2-1.6h1.6v-0.2c0-0.7-0.4-1.1-1.3-1.1
		c-0.5,0-1,0.2-1.6,0.5l-0.5-0.8c0.7-0.4,1.3-0.7,2.3-0.7c1.4,0,2.1,0.7,2.1,1.9l0,3.5h-1.1V39.8z M82.7,38.6v-0.5h-1.4
		c-0.8,0-1.1,0.2-1.1,0.7c0,0.5,0.4,0.8,1,0.8C82,39.6,82.7,39.1,82.7,38.6z"/>
	<path class="st2" d="M88.4,40.1c-0.4,0.3-0.9,0.4-1.3,0.4c-0.8,0-1.5-0.5-1.5-1.5v-2.8h-0.8v-0.9h0.8v-1.5h1.1v1.5h1.6v0.9h-1.6
		v2.5c0,0.5,0.2,0.7,0.6,0.7c0.2,0,0.5-0.1,0.8-0.2L88.4,40.1z"/>
	<path class="st2" d="M90.7,33.6c0,0.4-0.3,0.7-0.7,0.7s-0.7-0.3-0.7-0.7c0-0.4,0.3-0.7,0.7-0.7S90.7,33.2,90.7,33.6z M89.5,40.4
		v-5.3h1.1v5.3H89.5z"/>
	<path class="st2" d="M97.4,37.8c0,1.6-1.1,2.7-2.8,2.7c-1.6,0-2.8-1.1-2.8-2.7c0-1.6,1.1-2.7,2.8-2.7
		C96.2,35.1,97.4,36.2,97.4,37.8z M93,37.8c0,1,0.7,1.7,1.6,1.7c0.9,0,1.6-0.7,1.6-1.7c0-1-0.7-1.7-1.6-1.7
		C93.6,36.1,93,36.8,93,37.8z"/>
	<path class="st2" d="M103.7,37.1v3.3h-1.1v-3c0-0.8-0.5-1.3-1.3-1.3c-0.9,0-1.4,0.6-1.5,1.4v2.8h-1.1v-5.3h1.1v1
		c0.4-0.7,1.1-1.1,2-1.1C102.9,35.1,103.7,35.9,103.7,37.1z"/>
	<path class="st2" d="M108.4,39.8c-0.4,0.5-1,0.7-1.8,0.7c-1.1,0-1.9-0.7-1.9-1.6c0-1,0.7-1.6,2-1.6h1.6v-0.2c0-0.7-0.4-1.1-1.3-1.1
		c-0.5,0-1,0.2-1.6,0.5l-0.5-0.8c0.7-0.4,1.3-0.7,2.3-0.7c1.4,0,2.1,0.7,2.1,1.9l0,3.5h-1.1V39.8z M108.4,38.6v-0.5h-1.4
		c-0.7,0-1.1,0.2-1.1,0.7c0,0.5,0.4,0.8,1,0.8C107.7,39.6,108.3,39.1,108.4,38.6z"/>
	<path class="st2" d="M111.1,40.4V33h1.1v7.4H111.1z"/>
	<path class="st2" d="M115.2,33.6c0,0.4-0.3,0.7-0.7,0.7c-0.4,0-0.7-0.3-0.7-0.7c0-0.4,0.3-0.7,0.7-0.7
		C115,32.9,115.2,33.2,115.2,33.6z M114,40.4v-5.3h1.1v5.3H114z"/>
	<path class="st2" d="M119.9,40.1c-0.4,0.3-0.9,0.4-1.3,0.4c-0.8,0-1.5-0.5-1.5-1.5v-2.8h-0.7v-0.9h0.7v-1.5h1.1v1.5h1.6v0.9h-1.6
		v2.5c0,0.5,0.2,0.7,0.6,0.7c0.2,0,0.5-0.1,0.8-0.2L119.9,40.1z"/>
	<path class="st2" d="M123,41.2c-0.3,0.8-0.9,1.3-1.7,1.3c-0.5,0-0.9-0.1-1.2-0.5l0.5-0.9c0.3,0.2,0.5,0.3,0.7,0.3
		c0.4,0,0.6-0.2,0.8-0.6l0.2-0.4l-2.2-5.2h1.2l1.6,4l1.5-4h1.1L123,41.2z"/>
	<path d="M127.1,39.9c0,0.2-0.1,0.4-0.2,0.5l-0.6,0.9h-0.6l0.4-0.9c-0.2-0.1-0.3-0.3-0.3-0.5c0-0.4,0.3-0.6,0.6-0.6
		C126.8,39.2,127.1,39.5,127.1,39.9z M125.8,36.9c0-0.4,0.3-0.6,0.6-0.6c0.4,0,0.6,0.3,0.6,0.6c0,0.4-0.3,0.7-0.6,0.7
		C126.1,37.6,125.8,37.3,125.8,36.9z"/>
	<path class="st1" d="M8.8,51.8c0,1.6-1,2.7-2.5,2.7c-0.8,0-1.5-0.3-1.9-1v2.9H3.3v-7.3h1.1V50c0.4-0.6,1-1,1.9-1
		C7.8,49.1,8.8,50.2,8.8,51.8z M7.7,51.8C7.7,50.8,7,50,6,50c-0.9,0-1.6,0.7-1.6,1.7c0,1,0.7,1.7,1.6,1.7C7,53.5,7.7,52.8,7.7,51.8z
		"/>
	<path class="st1" d="M11.2,50.2c0.4-0.7,1-1.1,1.8-1.1v1.1c-1.1-0.1-1.7,0.6-1.8,1.5v2.8H10v-5.3h1.1V50.2z"/>
	<path class="st1" d="M15.2,47.6c0,0.4-0.3,0.7-0.7,0.7s-0.7-0.3-0.7-0.7c0-0.4,0.3-0.7,0.7-0.7S15.2,47.2,15.2,47.6z M14,54.4v-5.3
		h1.1v5.3H14z"/>
	<path class="st1" d="M18,54.4L16,49.1h1.2l1.5,4.2l1.5-4.2h1.1l-2,5.3H18z"/>
	<path class="st1" d="M25.1,53.8c-0.4,0.5-1,0.7-1.8,0.7c-1.1,0-1.9-0.7-1.9-1.6c0-1,0.7-1.6,2-1.6h1.6v-0.2c0-0.7-0.4-1.1-1.3-1.1
		c-0.5,0-1,0.2-1.6,0.5l-0.5-0.8c0.7-0.4,1.3-0.7,2.3-0.7c1.4,0,2.1,0.7,2.1,1.9l0,3.5h-1.1V53.8z M25.1,52.6v-0.5h-1.4
		c-0.8,0-1.1,0.2-1.1,0.7c0,0.5,0.4,0.8,1,0.8C24.4,53.6,25,53.1,25.1,52.6z"/>
	<path class="st1" d="M30.8,54.1c-0.4,0.3-0.9,0.4-1.3,0.4c-0.8,0-1.5-0.5-1.5-1.5v-2.8h-0.7v-0.9H28v-1.5h1.1v1.5h1.6v0.9h-1.6v2.5
		c0,0.5,0.2,0.7,0.6,0.7c0.2,0,0.5-0.1,0.8-0.2L30.8,54.1z"/>
	<path class="st1" d="M36.5,52.2h-4c0.2,0.8,0.8,1.3,1.6,1.3c0.6,0,1.1-0.2,1.5-0.6l0.6,0.6c-0.5,0.6-1.3,0.9-2.2,0.9
		c-1.6,0-2.7-1.1-2.7-2.7c0-1.6,1.1-2.7,2.7-2.7C35.8,49.1,36.6,50.3,36.5,52.2z M35.5,51.4c0-0.9-0.6-1.4-1.5-1.4
		c-0.8,0-1.4,0.5-1.6,1.4H35.5z"/>
	<path d="M43.2,47.4c2.1,0,3.6,1.5,3.6,3.5c0,2-1.5,3.5-3.6,3.5h-2.8v-7H43.2z M41.5,53.4h1.7c1.4,0,2.4-1,2.4-2.4
		c0-1.4-1.1-2.4-2.4-2.4h-1.7V53.4z"/>
	<path d="M51.2,53.8c-0.4,0.5-1,0.7-1.8,0.7c-1.1,0-1.9-0.7-1.9-1.6c0-1,0.7-1.6,2-1.6h1.6v-0.2c0-0.7-0.4-1.1-1.3-1.1
		c-0.5,0-1,0.2-1.6,0.5l-0.5-0.8c0.7-0.4,1.3-0.7,2.3-0.7c1.4,0,2.1,0.7,2.1,1.9l0,3.5h-1.1V53.8z M51.2,52.6v-0.5h-1.4
		c-0.8,0-1.1,0.2-1.1,0.7c0,0.5,0.4,0.8,1,0.8C50.5,53.6,51.1,53.1,51.2,52.6z"/>
	<path d="M56.9,54.1c-0.4,0.3-0.9,0.4-1.3,0.4c-0.8,0-1.5-0.5-1.5-1.5v-2.8h-0.8v-0.9h0.8v-1.5h1.1v1.5h1.6v0.9h-1.6v2.5
		c0,0.5,0.2,0.7,0.6,0.7c0.2,0,0.5-0.1,0.8-0.2L56.9,54.1z"/>
	<path d="M62.5,52.2h-4c0.2,0.8,0.8,1.3,1.6,1.3c0.6,0,1.1-0.2,1.5-0.6l0.6,0.6c-0.5,0.6-1.3,0.9-2.2,0.9c-1.6,0-2.7-1.1-2.7-2.7
		c0-1.6,1.1-2.7,2.7-2.7C61.9,49.1,62.7,50.3,62.5,52.2z M61.5,51.4c0-0.9-0.6-1.4-1.5-1.4c-0.8,0-1.4,0.5-1.6,1.4H61.5z"/>
	<path class="st2" d="M71.9,51.8c0,1.6-1,2.7-2.5,2.7c-0.8,0-1.5-0.3-1.9-1v0.9h-1.1V47h1.1v3c0.4-0.6,1-1,1.9-1
		C70.9,49.1,71.9,50.2,71.9,51.8z M70.8,51.8c0-1-0.7-1.7-1.6-1.7c-0.9,0-1.6,0.7-1.6,1.7c0,1,0.7,1.7,1.6,1.7
		C70.1,53.5,70.8,52.8,70.8,51.8z"/>
	<path class="st2" d="M74.4,47.6c0,0.4-0.3,0.7-0.7,0.7c-0.4,0-0.7-0.3-0.7-0.7c0-0.4,0.3-0.7,0.7-0.7
		C74.1,46.9,74.4,47.2,74.4,47.6z M73.1,54.4v-5.3h1.1v5.3H73.1z"/>
	<path class="st2" d="M77.1,50.2c0.4-0.7,1-1.1,1.8-1.1v1.1c-1.1-0.1-1.7,0.6-1.8,1.5v2.8H76v-5.3h1.1V50.2z"/>
	<path class="st2" d="M82.9,54.1c-0.4,0.3-0.9,0.4-1.3,0.4c-0.8,0-1.5-0.5-1.5-1.5v-2.8h-0.8v-0.9h0.8v-1.5h1.1v1.5h1.6v0.9h-1.6
		v2.5c0,0.5,0.2,0.7,0.6,0.7c0.2,0,0.5-0.1,0.8-0.2L82.9,54.1z"/>
	<path class="st2" d="M89.1,51.1v3.3H88v-3c0-0.8-0.5-1.3-1.3-1.3c-0.9,0-1.5,0.7-1.5,1.7v2.6H84V47h1.1v3.1c0.4-0.8,1.1-1.1,2-1.1
		C88.4,49.1,89.1,49.9,89.1,51.1z"/>
	<path class="st2" d="M93.6,47.4c2.1,0,3.6,1.5,3.6,3.5c0,2-1.5,3.5-3.6,3.5h-2.8v-7H93.6z M91.9,53.4h1.7c1.4,0,2.4-1,2.4-2.4
		c0-1.4-1.1-2.4-2.4-2.4h-1.7V53.4z"/>
	<path class="st2" d="M101.6,53.8c-0.4,0.5-1,0.7-1.8,0.7c-1.1,0-1.9-0.7-1.9-1.6c0-1,0.7-1.6,2-1.6h1.6v-0.2c0-0.7-0.4-1.1-1.3-1.1
		c-0.5,0-1,0.2-1.6,0.5l-0.5-0.8c0.7-0.4,1.3-0.7,2.3-0.7c1.4,0,2.1,0.7,2.1,1.9l0,3.5h-1.1V53.8z M101.6,52.6v-0.5h-1.4
		c-0.7,0-1.1,0.2-1.1,0.7c0,0.5,0.4,0.8,1,0.8C100.9,53.6,101.5,53.1,101.6,52.6z"/>
	<path class="st2" d="M107.3,54.1c-0.4,0.3-0.9,0.4-1.3,0.4c-0.8,0-1.5-0.5-1.5-1.5v-2.8h-0.7v-0.9h0.7v-1.5h1.1v1.5h1.6v0.9h-1.6
		v2.5c0,0.5,0.2,0.7,0.6,0.7c0.2,0,0.5-0.1,0.8-0.2L107.3,54.1z"/>
	<path class="st2" d="M113,52.2h-4c0.2,0.8,0.8,1.3,1.6,1.3c0.6,0,1.1-0.2,1.5-0.6l0.6,0.6c-0.5,0.6-1.3,0.9-2.2,0.9
		c-1.6,0-2.7-1.1-2.7-2.7c0-1.6,1.1-2.7,2.7-2.7C112.3,49.1,113.1,50.3,113,52.2z M112,51.4c0-0.9-0.6-1.4-1.5-1.4
		c-0.8,0-1.4,0.5-1.6,1.4H112z"/>
	<path d="M115,53.9c0,0.2-0.1,0.4-0.2,0.5l-0.6,0.9h-0.6l0.4-0.9c-0.2-0.1-0.3-0.3-0.3-0.5c0-0.4,0.3-0.6,0.6-0.6
		C114.7,53.2,115,53.5,115,53.9z M113.8,50.9c0-0.4,0.3-0.6,0.6-0.6c0.4,0,0.6,0.3,0.6,0.6c0,0.4-0.3,0.7-0.6,0.7
		C114,51.6,113.8,51.3,113.8,50.9z"/>
	<path class="st1" d="M8.8,65.8c0,1.6-1,2.7-2.5,2.7c-0.8,0-1.5-0.3-1.9-1v2.9H3.3v-7.3h1.1V64c0.4-0.6,1-1,1.9-1
		C7.8,63.1,8.8,64.2,8.8,65.8z M7.7,65.8C7.7,64.8,7,64,6,64c-0.9,0-1.6,0.7-1.6,1.7c0,1,0.7,1.7,1.6,1.7C7,67.5,7.7,66.8,7.7,65.8z
		"/>
	<path class="st1" d="M11.2,64.2c0.4-0.7,1-1.1,1.8-1.1v1.1c-1.1-0.1-1.7,0.6-1.8,1.5v2.8H10v-5.3h1.1V64.2z"/>
	<path class="st1" d="M15.2,61.6c0,0.4-0.3,0.7-0.7,0.7s-0.7-0.3-0.7-0.7c0-0.4,0.3-0.7,0.7-0.7S15.2,61.2,15.2,61.6z M14,68.4v-5.3
		h1.1v5.3H14z"/>
	<path class="st1" d="M18,68.4L16,63.1h1.2l1.5,4.2l1.5-4.2h1.1l-2,5.3H18z"/>
	<path class="st1" d="M25.1,67.8c-0.4,0.5-1,0.7-1.8,0.7c-1.1,0-1.9-0.7-1.9-1.6c0-1,0.7-1.6,2-1.6h1.6v-0.2c0-0.7-0.4-1.1-1.3-1.1
		c-0.5,0-1,0.2-1.6,0.5l-0.5-0.8c0.7-0.4,1.3-0.7,2.3-0.7c1.4,0,2.1,0.7,2.1,1.9l0,3.5h-1.1V67.8z M25.1,66.6v-0.5h-1.4
		c-0.8,0-1.1,0.2-1.1,0.7c0,0.5,0.4,0.8,1,0.8C24.4,67.6,25,67.1,25.1,66.6z"/>
	<path class="st1" d="M30.8,68.1c-0.4,0.3-0.9,0.4-1.3,0.4c-0.8,0-1.5-0.5-1.5-1.5v-2.8h-0.7v-0.9H28v-1.5h1.1v1.5h1.6v0.9h-1.6v2.5
		c0,0.5,0.2,0.7,0.6,0.7c0.2,0,0.5-0.1,0.8-0.2L30.8,68.1z"/>
	<path class="st1" d="M36.5,66.2h-4c0.2,0.8,0.8,1.3,1.6,1.3c0.6,0,1.1-0.2,1.5-0.6l0.6,0.6c-0.5,0.6-1.3,0.9-2.2,0.9
		c-1.6,0-2.7-1.1-2.7-2.7c0-1.6,1.1-2.7,2.7-2.7C35.8,63.1,36.6,64.3,36.5,66.2z M35.5,65.4c0-0.9-0.6-1.4-1.5-1.4
		c-0.8,0-1.4,0.5-1.6,1.4H35.5z"/>
	<path class="st1" d="M41.5,61.6c0,0.4-0.3,0.7-0.7,0.7c-0.4,0-0.7-0.3-0.7-0.7c0-0.4,0.3-0.7,0.7-0.7
		C41.2,60.9,41.5,61.2,41.5,61.6z M40.2,68.4v-5.3h1.1v5.3H40.2z"/>
	<path class="st1" d="M48.2,65.1v3.3H47v-3c0-0.8-0.5-1.3-1.3-1.3c-0.9,0-1.4,0.6-1.5,1.4v2.8h-1.1v-5.3h1.1v1
		c0.4-0.7,1.1-1.1,2-1.1C47.4,63.1,48.2,63.9,48.2,65.1z"/>
	<path class="st1" d="M52.7,68.1c-0.4,0.3-0.9,0.4-1.3,0.4c-0.8,0-1.5-0.5-1.5-1.5v-2.8h-0.7v-0.9h0.7v-1.5h1.1v1.5h1.6v0.9h-1.6
		v2.5c0,0.5,0.2,0.7,0.6,0.7c0.2,0,0.5-0.1,0.8-0.2L52.7,68.1z"/>
	<path class="st2" d="M59.4,68.1c-0.4,0.3-0.9,0.4-1.3,0.4c-0.8,0-1.5-0.5-1.5-1.5v-2.8h-0.8v-0.9h0.8v-1.5h1.1v1.5h1.6v0.9h-1.6
		v2.5c0,0.5,0.2,0.7,0.6,0.7c0.2,0,0.5-0.1,0.8-0.2L59.4,68.1z"/>
	<path class="st2" d="M61.7,61.6c0,0.4-0.3,0.7-0.7,0.7s-0.7-0.3-0.7-0.7c0-0.4,0.3-0.7,0.7-0.7S61.7,61.2,61.7,61.6z M60.4,68.4
		v-5.3h1.1v5.3H60.4z"/>
	<path class="st2" d="M66.3,68.1c-0.4,0.3-0.9,0.4-1.3,0.4c-0.8,0-1.5-0.5-1.5-1.5v-2.8h-0.8v-0.9h0.8v-1.5h1.1v1.5h1.6v0.9h-1.6
		v2.5c0,0.5,0.2,0.7,0.6,0.7c0.2,0,0.5-0.1,0.8-0.2L66.3,68.1z"/>
	<path class="st2" d="M67.4,68.4V61h1.1v7.4H67.4z"/>
	<path class="st2" d="M75,66.2h-4c0.2,0.8,0.8,1.3,1.6,1.3c0.6,0,1.1-0.2,1.5-0.6l0.6,0.6c-0.5,0.6-1.3,0.9-2.2,0.9
		c-1.6,0-2.7-1.1-2.7-2.7c0-1.6,1.1-2.7,2.7-2.7C74.3,63.1,75.1,64.3,75,66.2z M74,65.4c0-0.9-0.6-1.4-1.5-1.4
		c-0.8,0-1.4,0.5-1.6,1.4H74z"/>
	<path d="M77,67.9c0,0.2-0.1,0.4-0.2,0.5l-0.6,0.9h-0.6l0.4-0.9c-0.2-0.1-0.3-0.3-0.3-0.5c0-0.4,0.3-0.6,0.6-0.6
		C76.7,67.2,77,67.5,77,67.9z M75.8,64.9c0-0.4,0.3-0.6,0.6-0.6c0.4,0,0.6,0.3,0.6,0.6c0,0.4-0.3,0.7-0.6,0.7
		C76,65.6,75.8,65.3,75.8,64.9z"/>
	<path class="st3" d="M2.2,97.6l3.2-9.3h1l-3.2,9.3H2.2z"/>
	<path class="st3" d="M5.5,97.6l3.2-9.3h1l-3.2,9.3H5.5z"/>
	<path class="st3" d="M10.7,95.9c0,0.4-0.3,0.7-0.6,0.7c-0.4,0-0.6-0.3-0.6-0.7c0-0.4,0.3-0.6,0.6-0.6
		C10.4,95.2,10.7,95.5,10.7,95.9z"/>
	<path class="st3" d="M12.9,95.9c0,0.4-0.3,0.7-0.6,0.7c-0.4,0-0.6-0.3-0.6-0.7c0-0.4,0.3-0.6,0.6-0.6
		C12.6,95.2,12.9,95.5,12.9,95.9z"/>
	<path class="st1" d="M8.8,121.8c0,1.6-1,2.7-2.5,2.7c-0.8,0-1.5-0.3-1.9-1v2.9H3.3v-7.3h1.1v0.9c0.4-0.6,1-1,1.9-1
		C7.8,119.1,8.8,120.2,8.8,121.8z M7.7,121.8c0-1-0.7-1.7-1.6-1.7c-0.9,0-1.6,0.7-1.6,1.7c0,1,0.7,1.7,1.6,1.7
		C7,123.5,7.7,122.8,7.7,121.8z"/>
	<path class="st1" d="M14.9,124.4h-1.1v-1c-0.4,0.7-1,1.1-1.9,1.1c-1.2,0-1.9-0.8-1.9-2v-3.3H11v3c0,0.8,0.5,1.3,1.2,1.3
		c0.9,0,1.5-0.7,1.5-1.7v-2.6h1.1V124.4z"/>
	<path class="st1" d="M22.2,121.8c0,1.6-1,2.7-2.5,2.7c-0.8,0-1.5-0.3-1.9-1v0.9h-1.1V117h1.1v3c0.4-0.6,1-1,1.9-1
		C21.1,119.1,22.2,120.2,22.2,121.8z M21,121.8c0-1-0.7-1.7-1.6-1.7c-0.9,0-1.6,0.7-1.6,1.7c0,1,0.7,1.7,1.6,1.7
		C20.3,123.5,21,122.8,21,121.8z"/>
	<path class="st1" d="M23.4,124.4V117h1.1v7.4H23.4z"/>
	<path class="st1" d="M27.5,117.6c0,0.4-0.3,0.7-0.7,0.7c-0.4,0-0.7-0.3-0.7-0.7c0-0.4,0.3-0.7,0.7-0.7
		C27.3,116.9,27.5,117.2,27.5,117.6z M26.3,124.4v-5.3h1.1v5.3H26.3z"/>
	<path class="st1" d="M33.5,119.9l-0.6,0.7c-0.4-0.4-0.9-0.6-1.5-0.6c-0.9,0-1.6,0.7-1.6,1.7s0.7,1.7,1.6,1.7c0.7,0,1.2-0.2,1.6-0.6
		l0.6,0.6c-0.5,0.6-1.2,1-2.3,1c-1.6,0-2.7-1.1-2.7-2.7c0-1.6,1.1-2.7,2.7-2.7C32.3,119.1,33,119.4,33.5,119.9z"/>
	<path class="st1" d="M38.6,124.4l-2.1-5.3h1.2l1.5,4.2l1.5-4.2h1.1l-2,5.3H38.6z"/>
	<path class="st1" d="M47.5,121.8c0,1.6-1.1,2.7-2.8,2.7c-1.6,0-2.8-1.1-2.8-2.7c0-1.6,1.1-2.7,2.8-2.7
		C46.3,119.1,47.5,120.2,47.5,121.8z M43.1,121.8c0,1,0.7,1.7,1.6,1.7c0.9,0,1.6-0.7,1.6-1.7c0-1-0.7-1.7-1.6-1.7
		C43.7,120.1,43.1,120.8,43.1,121.8z"/>
	<path class="st1" d="M49.9,117.6c0,0.4-0.3,0.7-0.7,0.7s-0.7-0.3-0.7-0.7c0-0.4,0.3-0.7,0.7-0.7S49.9,117.2,49.9,117.6z
		 M48.7,124.4v-5.3h1.1v5.3H48.7z"/>
	<path class="st1" d="M56.6,124.4h-1.1v-0.9c-0.4,0.6-1,1-1.9,1c-1.5,0-2.5-1.1-2.5-2.7c0-1.6,1-2.7,2.5-2.7c0.9,0,1.5,0.3,1.9,1v-3
		h1.1V124.4z M55.4,121.8c0-1-0.7-1.7-1.6-1.7c-1,0-1.6,0.7-1.6,1.7c0,1,0.7,1.7,1.6,1.7C54.8,123.5,55.4,122.8,55.4,121.8z"/>
	<path d="M64.4,119.6l-0.4,0.8c-0.5-0.3-1.1-0.5-1.5-0.5c-0.4,0-0.8,0.1-0.8,0.5c0,1,2.8,0.5,2.8,2.4c0,1.1-1,1.6-2,1.6
		c-0.8,0-1.6-0.3-2.1-0.7l0.4-0.8c0.5,0.4,1.2,0.7,1.8,0.7c0.5,0,0.9-0.2,0.9-0.6c0-1.1-2.8-0.5-2.8-2.4c0-1.1,0.9-1.5,2-1.5
		C63.2,119.1,63.9,119.3,64.4,119.6z"/>
	<path d="M70.3,122.2h-4c0.2,0.8,0.8,1.3,1.6,1.3c0.6,0,1.1-0.2,1.5-0.6l0.6,0.6c-0.5,0.6-1.3,0.9-2.2,0.9c-1.6,0-2.7-1.1-2.7-2.7
		c0-1.6,1.1-2.7,2.7-2.7C69.7,119.1,70.4,120.3,70.3,122.2z M69.3,121.4c0-0.9-0.6-1.4-1.5-1.4c-0.8,0-1.4,0.5-1.6,1.4H69.3z"/>
	<path d="M74.5,124.1c-0.4,0.3-0.9,0.4-1.3,0.4c-0.8,0-1.5-0.5-1.5-1.5v-2.8h-0.8v-0.9h0.8v-1.5h1.1v1.5h1.6v0.9h-1.6v2.5
		c0,0.5,0.2,0.7,0.6,0.7c0.2,0,0.5-0.1,0.8-0.2L74.5,124.1z"/>
	<path d="M75.6,124.4v-7h1.2v7H75.6z"/>
	<path d="M83.6,124.4h-1.1v-0.9c-0.4,0.6-1,1-1.9,1c-1.5,0-2.5-1.1-2.5-2.7c0-1.6,1-2.7,2.5-2.7c0.9,0,1.5,0.3,1.9,1v-3h1.1V124.4z
		 M82.5,121.8c0-1-0.7-1.7-1.6-1.7c-1,0-1.6,0.7-1.6,1.7c0,1,0.7,1.7,1.6,1.7C81.8,123.5,82.5,122.8,82.5,121.8z"/>
	<path d="M87.6,117c-0.7,1.1-1.2,2.7-1.2,4.3c0,1.7,0.4,3.2,1.2,4.3h-1c-0.8-1.1-1.2-2.7-1.2-4.3c0-1.7,0.4-3.2,1.2-4.3H87.6z"/>
	<path class="st1" d="M89.8,117.6c0,0.4-0.3,0.7-0.7,0.7s-0.7-0.3-0.7-0.7c0-0.4,0.3-0.7,0.7-0.7S89.8,117.2,89.8,117.6z
		 M88.6,124.4v-5.3h1.1v5.3H88.6z"/>
	<path class="st1" d="M96.5,121.1v3.3h-1.1v-3c0-0.8-0.5-1.3-1.3-1.3c-0.9,0-1.4,0.6-1.5,1.4v2.8h-1.1v-5.3h1.1v1
		c0.4-0.7,1.1-1.1,2-1.1C95.8,119.1,96.5,119.9,96.5,121.1z"/>
	<path class="st1" d="M101.1,124.1c-0.4,0.3-0.9,0.4-1.3,0.4c-0.8,0-1.5-0.5-1.5-1.5v-2.8h-0.7v-0.9h0.7v-1.5h1.1v1.5h1.6v0.9h-1.6
		v2.5c0,0.5,0.2,0.7,0.6,0.7c0.2,0,0.5-0.1,0.8-0.2L101.1,124.1z"/>
	<path class="st4" d="M105.9,117.6c0,0.4-0.3,0.7-0.7,0.7s-0.7-0.3-0.7-0.7c0-0.4,0.3-0.7,0.7-0.7S105.9,117.2,105.9,117.6z
		 M104.7,124.4v-5.3h1.1v5.3H104.7z"/>
	<path class="st4" d="M112.6,124.4h-1.1v-0.9c-0.4,0.6-1,1-1.9,1c-1.5,0-2.5-1.1-2.5-2.7c0-1.6,1-2.7,2.5-2.7c0.9,0,1.5,0.3,1.9,1
		v-3h1.1V124.4z M111.5,121.8c0-1-0.7-1.7-1.6-1.7c-1,0-1.6,0.7-1.6,1.7c0,1,0.7,1.7,1.6,1.7C110.8,123.5,111.5,122.8,111.5,121.8z"
		/>
	<path d="M115.7,117c0.8,1.1,1.2,2.7,1.2,4.3c0,1.7-0.4,3.2-1.2,4.3h-1c0.7-1.1,1.2-2.7,1.2-4.3c0-1.7-0.5-3.2-1.2-4.3H115.7z"/>
	<path d="M124.3,120.3c0,0.6-0.2,1-0.7,1.1c0.5,0.1,0.7,0.4,0.7,1.1v1.6c0,0.5,0.2,0.7,0.9,0.7v0.9h-0.4c-1.1,0-1.6-0.4-1.6-1.3
		v-2.1c0-0.4-0.1-0.5-0.4-0.5h-0.3v-0.9h0.3c0.3,0,0.4-0.2,0.4-0.5v-2.1c0-0.9,0.4-1.3,1.6-1.3h0.4v0.9c-0.7,0-0.9,0.2-0.9,0.7
		V120.3z"/>
	<path class="st1" d="M24.3,138.1c-0.4,0.3-0.9,0.4-1.3,0.4c-0.8,0-1.5-0.5-1.5-1.5v-2.8h-0.7v-0.9h0.7v-1.5h1.1v1.5h1.6v0.9h-1.6
		v2.5c0,0.5,0.2,0.7,0.6,0.7c0.2,0,0.5-0.1,0.8-0.2L24.3,138.1z"/>
	<path class="st1" d="M30.5,135.1v3.3h-1.1v-3c0-0.8-0.5-1.3-1.3-1.3c-0.9,0-1.5,0.7-1.5,1.7v2.6h-1.1V131h1.1v3.1
		c0.4-0.8,1.1-1.1,2-1.1C29.8,133.1,30.5,133.9,30.5,135.1z"/>
	<path class="st1" d="M33.3,131.6c0,0.4-0.3,0.7-0.7,0.7c-0.4,0-0.7-0.3-0.7-0.7c0-0.4,0.3-0.7,0.7-0.7
		C33,130.9,33.3,131.2,33.3,131.6z M32,138.4v-5.3h1.1v5.3H32z"/>
	<path class="st1" d="M38.3,133.6l-0.4,0.8c-0.5-0.3-1.1-0.5-1.5-0.5c-0.5,0-0.8,0.1-0.8,0.5c0,1,2.8,0.5,2.8,2.4c0,1.1-1,1.6-2,1.6
		c-0.8,0-1.6-0.3-2.1-0.7l0.4-0.8c0.5,0.4,1.2,0.7,1.8,0.7c0.5,0,0.9-0.2,0.9-0.6c0-1.1-2.8-0.5-2.8-2.4c0-1.1,0.9-1.5,2-1.5
		C37.1,133.1,37.9,133.3,38.3,133.6z"/>
	<path d="M43,137.9c0,0.4-0.3,0.7-0.6,0.7c-0.4,0-0.6-0.3-0.6-0.7c0-0.4,0.3-0.6,0.6-0.6C42.8,137.2,43,137.5,43,137.9z"/>
	<path class="st2" d="M48.2,131.6c0,0.4-0.3,0.7-0.7,0.7c-0.4,0-0.7-0.3-0.7-0.7c0-0.4,0.3-0.7,0.7-0.7
		C47.9,130.9,48.2,131.2,48.2,131.6z M46.9,138.4v-5.3h1.1v5.3H46.9z"/>
	<path class="st2" d="M54.8,138.4h-1.1v-0.9c-0.4,0.6-1,1-1.9,1c-1.5,0-2.5-1.1-2.5-2.7c0-1.6,1-2.7,2.5-2.7c0.9,0,1.5,0.3,1.9,1v-3
		h1.1V138.4z M53.7,135.8c0-1-0.7-1.7-1.6-1.7c-1,0-1.6,0.7-1.6,1.7c0,1,0.7,1.7,1.6,1.7C53,137.5,53.7,136.8,53.7,135.8z"/>
	<path d="M58.7,134.5v-0.8h4.3v0.8H58.7z M58.7,136.6v-0.8h4.3v0.8H58.7z"/>
	<path class="st4" d="M68,131.6c0,0.4-0.3,0.7-0.7,0.7c-0.4,0-0.7-0.3-0.7-0.7c0-0.4,0.3-0.7,0.7-0.7C67.7,130.9,68,131.2,68,131.6z
		 M66.7,138.4v-5.3h1.1v5.3H66.7z"/>
	<path class="st4" d="M74.6,138.4h-1.1v-0.9c-0.4,0.6-1,1-1.9,1c-1.5,0-2.5-1.1-2.5-2.7c0-1.6,1-2.7,2.5-2.7c0.9,0,1.5,0.3,1.9,1v-3
		h1.1V138.4z M73.5,135.8c0-1-0.7-1.7-1.6-1.7c-1,0-1.6,0.7-1.6,1.7c0,1,0.7,1.7,1.6,1.7C72.8,137.5,73.5,136.8,73.5,135.8z"/>
	<path d="M77.2,137.9c0,0.2-0.1,0.4-0.2,0.5l-0.6,0.9h-0.6l0.4-0.9c-0.2-0.1-0.3-0.3-0.3-0.5c0-0.4,0.3-0.6,0.6-0.6
		C76.9,137.2,77.2,137.5,77.2,137.9z M76,134.9c0-0.4,0.3-0.6,0.6-0.6c0.4,0,0.6,0.3,0.6,0.6c0,0.4-0.3,0.7-0.6,0.7
		C76.3,135.6,76,135.3,76,134.9z"/>
	<path d="M6.4,149.8H6.1c-0.3,0-0.4,0.1-0.4,0.5v2.1c0,0.9-0.4,1.3-1.6,1.3H3.7v-0.9c0.7,0,1-0.2,1-0.7v-1.6c0-0.6,0.2-0.9,0.7-1.1
		c-0.5-0.1-0.7-0.4-0.7-1.1v-1.6c0-0.5-0.2-0.7-1-0.7V145h0.4c1.1,0,1.6,0.3,1.6,1.3v2.1c0,0.4,0.1,0.5,0.4,0.5h0.3V149.8z"/>
	<path class="st1" d="M8.8,177.8c0,1.6-1,2.7-2.5,2.7c-0.8,0-1.5-0.3-1.9-1v2.9H3.3v-7.3h1.1v0.9c0.4-0.6,1-1,1.9-1
		C7.8,175.1,8.8,176.2,8.8,177.8z M7.7,177.8c0-1-0.7-1.7-1.6-1.7c-0.9,0-1.6,0.7-1.6,1.7c0,1,0.7,1.7,1.6,1.7
		C7,179.5,7.7,178.8,7.7,177.8z"/>
	<path class="st1" d="M14.9,180.4h-1.1v-1c-0.4,0.7-1,1.1-1.9,1.1c-1.2,0-1.9-0.8-1.9-2v-3.3H11v3c0,0.8,0.5,1.3,1.2,1.3
		c0.9,0,1.5-0.7,1.5-1.7v-2.6h1.1V180.4z"/>
	<path class="st1" d="M22.2,177.8c0,1.6-1,2.7-2.5,2.7c-0.8,0-1.5-0.3-1.9-1v0.9h-1.1V173h1.1v3c0.4-0.6,1-1,1.9-1
		C21.1,175.1,22.2,176.2,22.2,177.8z M21,177.8c0-1-0.7-1.7-1.6-1.7c-0.9,0-1.6,0.7-1.6,1.7c0,1,0.7,1.7,1.6,1.7
		C20.3,179.5,21,178.8,21,177.8z"/>
	<path class="st1" d="M23.4,180.4V173h1.1v7.4H23.4z"/>
	<path class="st1" d="M27.5,173.6c0,0.4-0.3,0.7-0.7,0.7c-0.4,0-0.7-0.3-0.7-0.7c0-0.4,0.3-0.7,0.7-0.7
		C27.3,172.9,27.5,173.2,27.5,173.6z M26.3,180.4v-5.3h1.1v5.3H26.3z"/>
	<path class="st1" d="M33.5,175.9l-0.6,0.7c-0.4-0.4-0.9-0.6-1.5-0.6c-0.9,0-1.6,0.7-1.6,1.7s0.7,1.7,1.6,1.7c0.7,0,1.2-0.2,1.6-0.6
		l0.6,0.6c-0.5,0.6-1.2,1-2.3,1c-1.6,0-2.7-1.1-2.7-2.7c0-1.6,1.1-2.7,2.7-2.7C32.3,175.1,33,175.4,33.5,175.9z"/>
	<path class="st1" d="M38.6,180.4l-2.1-5.3h1.2l1.5,4.2l1.5-4.2h1.1l-2,5.3H38.6z"/>
	<path class="st1" d="M47.5,177.8c0,1.6-1.1,2.7-2.8,2.7c-1.6,0-2.8-1.1-2.8-2.7c0-1.6,1.1-2.7,2.8-2.7
		C46.3,175.1,47.5,176.2,47.5,177.8z M43.1,177.8c0,1,0.7,1.7,1.6,1.7c0.9,0,1.6-0.7,1.6-1.7c0-1-0.7-1.7-1.6-1.7
		C43.7,176.1,43.1,176.8,43.1,177.8z"/>
	<path class="st1" d="M49.9,173.6c0,0.4-0.3,0.7-0.7,0.7s-0.7-0.3-0.7-0.7c0-0.4,0.3-0.7,0.7-0.7S49.9,173.2,49.9,173.6z
		 M48.7,180.4v-5.3h1.1v5.3H48.7z"/>
	<path class="st1" d="M56.6,180.4h-1.1v-0.9c-0.4,0.6-1,1-1.9,1c-1.5,0-2.5-1.1-2.5-2.7c0-1.6,1-2.7,2.5-2.7c0.9,0,1.5,0.3,1.9,1v-3
		h1.1V180.4z M55.4,177.8c0-1-0.7-1.7-1.6-1.7c-1,0-1.6,0.7-1.6,1.7c0,1,0.7,1.7,1.6,1.7C54.8,179.5,55.4,178.8,55.4,177.8z"/>
	<path d="M64.4,175.6l-0.4,0.8c-0.5-0.3-1.1-0.5-1.5-0.5c-0.4,0-0.8,0.1-0.8,0.5c0,1,2.8,0.5,2.8,2.4c0,1.1-1,1.6-2,1.6
		c-0.8,0-1.6-0.3-2.1-0.7l0.4-0.8c0.5,0.4,1.2,0.7,1.8,0.7c0.5,0,0.9-0.2,0.9-0.6c0-1.1-2.8-0.5-2.8-2.4c0-1.1,0.9-1.5,2-1.5
		C63.2,175.1,63.9,175.3,64.4,175.6z"/>
	<path d="M70.3,178.2h-4c0.2,0.8,0.8,1.3,1.6,1.3c0.6,0,1.1-0.2,1.5-0.6l0.6,0.6c-0.5,0.6-1.3,0.9-2.2,0.9c-1.6,0-2.7-1.1-2.7-2.7
		c0-1.6,1.1-2.7,2.7-2.7C69.7,175.1,70.4,176.3,70.3,178.2z M69.3,177.4c0-0.9-0.6-1.4-1.5-1.4c-0.8,0-1.4,0.5-1.6,1.4H69.3z"/>
	<path d="M74.5,180.1c-0.4,0.3-0.9,0.4-1.3,0.4c-0.8,0-1.5-0.5-1.5-1.5v-2.8h-0.8v-0.9h0.8v-1.5h1.1v1.5h1.6v0.9h-1.6v2.5
		c0,0.5,0.2,0.7,0.6,0.7c0.2,0,0.5-0.1,0.8-0.2L74.5,180.1z"/>
	<path d="M80.5,180.4l-3.7-5v5h-1.2v-7h1.2l3.7,5v-5h1.2v7H80.5z"/>
	<path d="M86.7,179.8c-0.4,0.5-1,0.7-1.8,0.7c-1.1,0-1.9-0.7-1.9-1.6c0-1,0.7-1.6,2-1.6h1.6v-0.2c0-0.7-0.4-1.1-1.3-1.1
		c-0.5,0-1,0.2-1.6,0.5l-0.5-0.8c0.7-0.4,1.3-0.7,2.3-0.7c1.4,0,2.1,0.7,2.1,1.9l0,3.5h-1.1V179.8z M86.7,178.6v-0.5h-1.4
		c-0.7,0-1.1,0.2-1.1,0.7c0,0.5,0.4,0.8,1,0.8C86,179.6,86.6,179.1,86.7,178.6z"/>
	<path d="M98.2,177.1v3.3h-1.1v-3c0-0.8-0.5-1.3-1.3-1.3c-0.9,0-1.5,0.7-1.5,1.7v2.6h-1.1v-3c0-0.8-0.5-1.3-1.2-1.3
		c-0.9,0-1.5,0.7-1.5,1.7v2.6h-1.1v-5.3h1.1v1c0.4-0.7,1-1.1,1.9-1.1c0.9,0,1.6,0.5,1.8,1.3c0.3-0.9,1-1.3,2-1.3
		C97.5,175.1,98.2,175.9,98.2,177.1z"/>
	<path d="M104.4,178.2h-4c0.2,0.8,0.8,1.3,1.6,1.3c0.6,0,1.1-0.2,1.5-0.6l0.6,0.6c-0.5,0.6-1.3,0.9-2.2,0.9c-1.6,0-2.7-1.1-2.7-2.7
		c0-1.6,1.1-2.7,2.7-2.7C103.8,175.1,104.6,176.3,104.4,178.2z M103.4,177.4c0-0.9-0.6-1.4-1.5-1.4c-0.8,0-1.4,0.5-1.6,1.4H103.4z"
		/>
	<path d="M107.8,173c-0.7,1.1-1.2,2.7-1.2,4.3c0,1.7,0.5,3.2,1.2,4.3h-1c-0.8-1.1-1.2-2.7-1.2-4.3c0-1.7,0.4-3.2,1.2-4.3H107.8z"/>
	<path d="M113.7,174.1l-0.5,1c-0.8-0.5-1.5-0.6-2-0.6c-0.7,0-1.1,0.3-1.1,0.7c0,1.5,3.8,0.7,3.8,3.2c0,1.2-1.1,2-2.6,2
		c-1.1,0-2.1-0.5-2.9-1.1l0.5-1c0.7,0.7,1.6,1,2.4,1c0.8,0,1.3-0.3,1.3-0.8c0-1.6-3.8-0.7-3.8-3.2c0-1.2,1-1.9,2.5-1.9
		C112.1,173.4,113,173.7,113.7,174.1z"/>
	<path d="M118.1,180.1c-0.4,0.3-0.9,0.4-1.3,0.4c-0.8,0-1.5-0.5-1.5-1.5v-2.8h-0.7v-0.9h0.7v-1.5h1.1v1.5h1.6v0.9h-1.6v2.5
		c0,0.5,0.2,0.7,0.6,0.7c0.2,0,0.5-0.1,0.8-0.2L118.1,180.1z"/>
	<path d="M120.3,176.2c0.4-0.7,1-1.1,1.8-1.1v1.1c-1.1-0.1-1.7,0.6-1.8,1.5v2.8h-1.1v-5.3h1.1V176.2z"/>
	<path d="M124.3,173.6c0,0.4-0.3,0.7-0.7,0.7c-0.4,0-0.7-0.3-0.7-0.7c0-0.4,0.3-0.7,0.7-0.7C124,172.9,124.3,173.2,124.3,173.6z
		 M123.1,180.4v-5.3h1.1v5.3H123.1z"/>
	<path d="M131,177.1v3.3h-1.1v-3c0-0.8-0.5-1.3-1.3-1.3c-0.9,0-1.4,0.6-1.5,1.4v2.8h-1.1v-5.3h1.1v1c0.4-0.7,1.1-1.1,2-1.1
		C130.3,175.1,131,175.9,131,177.1z"/>
	<path d="M137.3,179.9c0,1.5-1.1,2.5-2.8,2.5c-0.8,0-1.6-0.3-2.2-0.7l0.5-0.8c0.5,0.4,1,0.6,1.7,0.6c1,0,1.7-0.6,1.7-1.5v-0.7
		c-0.4,0.6-1,0.9-1.8,0.9c-1.4,0-2.4-1-2.4-2.6c0-1.5,0.9-2.5,2.4-2.5c0.8,0,1.4,0.3,1.8,0.9v-0.9h1.1V179.9z M136.2,177.6
		c0-1-0.6-1.6-1.5-1.6c-0.9,0-1.5,0.7-1.5,1.6c0,1,0.6,1.6,1.5,1.6C135.6,179.3,136.2,178.6,136.2,177.6z"/>
	<path class="st4" d="M146.6,177.1v3.3h-1.1v-3c0-0.8-0.5-1.3-1.3-1.3c-0.9,0-1.4,0.6-1.5,1.4v2.8h-1.1v-5.3h1.1v1
		c0.4-0.7,1.1-1.1,2-1.1C145.9,175.1,146.6,175.9,146.6,177.1z"/>
	<path class="st4" d="M151.3,179.8c-0.4,0.5-1,0.7-1.8,0.7c-1.1,0-1.9-0.7-1.9-1.6c0-1,0.7-1.6,2-1.6h1.6v-0.2
		c0-0.7-0.4-1.1-1.3-1.1c-0.5,0-1,0.2-1.6,0.5l-0.5-0.8c0.7-0.4,1.3-0.7,2.3-0.7c1.4,0,2.1,0.7,2.1,1.9l0,3.5h-1.1V179.8z
		 M151.3,178.6v-0.5h-1.4c-0.8,0-1.1,0.2-1.1,0.7c0,0.5,0.4,0.8,1,0.8C150.6,179.6,151.3,179.1,151.3,178.6z"/>
	<path class="st4" d="M162.9,177.1v3.3h-1.1v-3c0-0.8-0.5-1.3-1.3-1.3c-0.9,0-1.5,0.7-1.5,1.7v2.6h-1.1v-3c0-0.8-0.5-1.3-1.2-1.3
		c-0.9,0-1.5,0.7-1.5,1.7v2.6H154v-5.3h1.1v1c0.4-0.7,1-1.1,1.9-1.1c0.9,0,1.6,0.5,1.8,1.3c0.3-0.9,1-1.3,2-1.3
		C162.2,175.1,162.9,175.9,162.9,177.1z"/>
	<path class="st4" d="M169.1,178.2h-4c0.2,0.8,0.8,1.3,1.6,1.3c0.6,0,1.1-0.2,1.5-0.6l0.6,0.6c-0.5,0.6-1.3,0.9-2.2,0.9
		c-1.6,0-2.7-1.1-2.7-2.7c0-1.6,1.1-2.7,2.7-2.7C168.5,175.1,169.3,176.3,169.1,178.2z M168.1,177.4c0-0.9-0.6-1.4-1.5-1.4
		c-0.8,0-1.4,0.5-1.6,1.4H168.1z"/>
	<path d="M171.7,173c0.8,1.1,1.2,2.7,1.2,4.3c0,1.7-0.4,3.2-1.2,4.3h-1c0.7-1.1,1.2-2.7,1.2-4.3c0-1.7-0.5-3.2-1.2-4.3H171.7z"/>
	<path d="M180.2,176.3c0,0.6-0.2,1-0.7,1.1c0.5,0.1,0.7,0.4,0.7,1.1v1.6c0,0.5,0.2,0.7,0.9,0.7v0.9h-0.4c-1.1,0-1.6-0.4-1.6-1.3
		v-2.1c0-0.4-0.1-0.5-0.4-0.5h-0.3v-0.9h0.3c0.3,0,0.4-0.2,0.4-0.5v-2.1c0-0.9,0.4-1.3,1.6-1.3h0.4v0.9c-0.7,0-0.9,0.2-0.9,0.7
		V176.3z"/>
	<path class="st1" d="M26.9,194.1c-0.4,0.3-0.9,0.4-1.3,0.4c-0.8,0-1.5-0.5-1.5-1.5v-2.8h-0.7v-0.9h0.7v-1.5h1.1v1.5h1.6v0.9h-1.6
		v2.5c0,0.5,0.2,0.7,0.6,0.7c0.2,0,0.5-0.1,0.8-0.2L26.9,194.1z"/>
	<path class="st1" d="M33.1,191.1v3.3h-1.1v-3c0-0.8-0.5-1.3-1.3-1.3c-0.9,0-1.5,0.7-1.5,1.7v2.6H28V187h1.1v3.1
		c0.4-0.8,1.1-1.1,2-1.1C32.3,189.1,33.1,189.9,33.1,191.1z"/>
	<path class="st1" d="M35.9,187.6c0,0.4-0.3,0.7-0.7,0.7c-0.4,0-0.7-0.3-0.7-0.7c0-0.4,0.3-0.7,0.7-0.7
		C35.6,186.9,35.9,187.2,35.9,187.6z M34.6,194.4v-5.3h1.1v5.3H34.6z"/>
	<path class="st1" d="M40.9,189.6l-0.4,0.8c-0.5-0.3-1.1-0.5-1.5-0.5c-0.4,0-0.8,0.1-0.8,0.5c0,1,2.8,0.5,2.8,2.4c0,1.1-1,1.6-2,1.6
		c-0.8,0-1.6-0.3-2.1-0.7l0.4-0.8c0.5,0.4,1.2,0.7,1.8,0.7c0.5,0,0.9-0.2,0.9-0.6c0-1.1-2.8-0.5-2.8-2.4c0-1.1,0.9-1.5,2-1.5
		C39.7,189.1,40.4,189.3,40.9,189.6z"/>
	<path d="M45.6,193.9c0,0.4-0.3,0.7-0.6,0.7c-0.4,0-0.6-0.3-0.6-0.7c0-0.4,0.3-0.6,0.6-0.6C45.3,193.2,45.6,193.5,45.6,193.9z"/>
	<path class="st2" d="M54.6,191.1v3.3h-1.1v-3c0-0.8-0.5-1.3-1.3-1.3c-0.9,0-1.4,0.6-1.5,1.4v2.8h-1.1v-5.3h1.1v1
		c0.4-0.7,1.1-1.1,2-1.1C53.9,189.1,54.6,189.9,54.6,191.1z"/>
	<path class="st2" d="M59.3,193.8c-0.4,0.5-1,0.7-1.8,0.7c-1.1,0-1.9-0.7-1.9-1.6c0-1,0.7-1.6,2-1.6h1.6v-0.2c0-0.7-0.4-1.1-1.3-1.1
		c-0.5,0-1,0.2-1.6,0.5l-0.5-0.8c0.7-0.4,1.3-0.7,2.3-0.7c1.4,0,2.1,0.7,2.1,1.9l0,3.5h-1.1V193.8z M59.3,192.6v-0.5h-1.4
		c-0.8,0-1.1,0.2-1.1,0.7c0,0.5,0.4,0.8,1,0.8C58.6,193.6,59.3,193.1,59.3,192.6z"/>
	<path class="st2" d="M70.9,191.1v3.3h-1.1v-3c0-0.8-0.5-1.3-1.3-1.3c-0.9,0-1.5,0.7-1.5,1.7v2.6h-1.1v-3c0-0.8-0.5-1.3-1.2-1.3
		c-0.9,0-1.5,0.7-1.5,1.7v2.6H62v-5.3h1.1v1c0.4-0.7,1-1.1,1.9-1.1c0.9,0,1.6,0.5,1.8,1.3c0.3-0.9,1-1.3,2-1.3
		C70.2,189.1,70.9,189.9,70.9,191.1z"/>
	<path class="st2" d="M77.1,192.2h-4c0.2,0.8,0.8,1.3,1.6,1.3c0.6,0,1.1-0.2,1.5-0.6l0.6,0.6c-0.5,0.6-1.3,0.9-2.2,0.9
		c-1.6,0-2.7-1.1-2.7-2.7c0-1.6,1.1-2.7,2.7-2.7C76.5,189.1,77.2,190.3,77.1,192.2z M76.1,191.4c0-0.9-0.6-1.4-1.5-1.4
		c-0.8,0-1.4,0.5-1.6,1.4H76.1z"/>
	<path d="M80.4,190.5v-0.8h4.3v0.8H80.4z M80.4,192.6v-0.8h4.3v0.8H80.4z"/>
	<path class="st4" d="M93.5,191.1v3.3h-1.1v-3c0-0.8-0.5-1.3-1.3-1.3c-0.9,0-1.4,0.6-1.5,1.4v2.8h-1.1v-5.3h1.1v1
		c0.4-0.7,1.1-1.1,2-1.1C92.8,189.1,93.5,189.9,93.5,191.1z"/>
	<path class="st4" d="M98.3,193.8c-0.4,0.5-1,0.7-1.8,0.7c-1.1,0-1.9-0.7-1.9-1.6c0-1,0.7-1.6,2-1.6h1.6v-0.2c0-0.7-0.4-1.1-1.3-1.1
		c-0.5,0-1,0.2-1.6,0.5l-0.5-0.8c0.7-0.4,1.3-0.7,2.3-0.7c1.4,0,2.1,0.7,2.1,1.9l0,3.5h-1.1V193.8z M98.3,192.6v-0.5h-1.4
		c-0.8,0-1.1,0.2-1.1,0.7c0,0.5,0.4,0.8,1,0.8C97.6,193.6,98.2,193.1,98.3,192.6z"/>
	<path class="st4" d="M109.8,191.1v3.3h-1.1v-3c0-0.8-0.5-1.3-1.3-1.3c-0.9,0-1.5,0.7-1.5,1.7v2.6h-1.1v-3c0-0.8-0.5-1.3-1.2-1.3
		c-0.9,0-1.5,0.7-1.5,1.7v2.6h-1.1v-5.3h1.1v1c0.4-0.7,1-1.1,1.9-1.1c0.9,0,1.6,0.5,1.8,1.3c0.3-0.9,1-1.3,2-1.3
		C109.1,189.1,109.8,189.9,109.8,191.1z"/>
	<path class="st4" d="M116,192.2h-4c0.2,0.8,0.8,1.3,1.6,1.3c0.6,0,1.1-0.2,1.5-0.6l0.6,0.6c-0.5,0.6-1.3,0.9-2.2,0.9
		c-1.6,0-2.7-1.1-2.7-2.7c0-1.6,1.1-2.7,2.7-2.7C115.4,189.1,116.2,190.3,116,192.2z M115,191.4c0-0.9-0.6-1.4-1.5-1.4
		c-0.8,0-1.4,0.5-1.6,1.4H115z"/>
	<path d="M118.1,193.9c0,0.2-0.1,0.4-0.2,0.5l-0.6,0.9h-0.6l0.4-0.9c-0.2-0.1-0.3-0.3-0.3-0.5c0-0.4,0.3-0.6,0.6-0.6
		C117.8,193.2,118.1,193.5,118.1,193.9z M116.9,190.9c0-0.4,0.3-0.6,0.6-0.6c0.4,0,0.6,0.3,0.6,0.6c0,0.4-0.3,0.7-0.6,0.7
		C117.1,191.6,116.9,191.3,116.9,190.9z"/>
	<path d="M6.4,205.8H6.1c-0.3,0-0.4,0.1-0.4,0.5v2.1c0,0.9-0.4,1.3-1.6,1.3H3.7v-0.9c0.7,0,1-0.2,1-0.7v-1.6c0-0.6,0.2-0.9,0.7-1.1
		c-0.5-0.1-0.7-0.4-0.7-1.1v-1.6c0-0.5-0.2-0.7-1-0.7V201h0.4c1.1,0,1.6,0.3,1.6,1.3v2.1c0,0.4,0.1,0.5,0.4,0.5h0.3V205.8z"/>
	<path class="st1" d="M8.8,233.8c0,1.6-1,2.7-2.5,2.7c-0.8,0-1.5-0.3-1.9-1v2.9H3.3v-7.3h1.1v0.9c0.4-0.6,1-1,1.9-1
		C7.8,231.1,8.8,232.2,8.8,233.8z M7.7,233.8c0-1-0.7-1.7-1.6-1.7c-0.9,0-1.6,0.7-1.6,1.7c0,1,0.7,1.7,1.6,1.7
		C7,235.5,7.7,234.8,7.7,233.8z"/>
	<path class="st1" d="M14.9,236.4h-1.1v-1c-0.4,0.7-1,1.1-1.9,1.1c-1.2,0-1.9-0.8-1.9-2v-3.3H11v3c0,0.8,0.5,1.3,1.2,1.3
		c0.9,0,1.5-0.7,1.5-1.7v-2.6h1.1V236.4z"/>
	<path class="st1" d="M22.2,233.8c0,1.6-1,2.7-2.5,2.7c-0.8,0-1.5-0.3-1.9-1v0.9h-1.1V229h1.1v3c0.4-0.6,1-1,1.9-1
		C21.1,231.1,22.2,232.2,22.2,233.8z M21,233.8c0-1-0.7-1.7-1.6-1.7c-0.9,0-1.6,0.7-1.6,1.7c0,1,0.7,1.7,1.6,1.7
		C20.3,235.5,21,234.8,21,233.8z"/>
	<path class="st1" d="M23.4,236.4V229h1.1v7.4H23.4z"/>
	<path class="st1" d="M27.5,229.6c0,0.4-0.3,0.7-0.7,0.7c-0.4,0-0.7-0.3-0.7-0.7c0-0.4,0.3-0.7,0.7-0.7
		C27.3,228.9,27.5,229.2,27.5,229.6z M26.3,236.4v-5.3h1.1v5.3H26.3z"/>
	<path class="st1" d="M33.5,231.9l-0.6,0.7c-0.4-0.4-0.9-0.6-1.5-0.6c-0.9,0-1.6,0.7-1.6,1.7s0.7,1.7,1.6,1.7c0.7,0,1.2-0.2,1.6-0.6
		l0.6,0.6c-0.5,0.6-1.2,1-2.3,1c-1.6,0-2.7-1.1-2.7-2.7c0-1.6,1.1-2.7,2.7-2.7C32.3,231.1,33,231.4,33.5,231.9z"/>
	<path class="st1" d="M38.6,236.4l-2.1-5.3h1.2l1.5,4.2l1.5-4.2h1.1l-2,5.3H38.6z"/>
	<path class="st1" d="M47.5,233.8c0,1.6-1.1,2.7-2.8,2.7c-1.6,0-2.8-1.1-2.8-2.7c0-1.6,1.1-2.7,2.8-2.7
		C46.3,231.1,47.5,232.2,47.5,233.8z M43.1,233.8c0,1,0.7,1.7,1.6,1.7c0.9,0,1.6-0.7,1.6-1.7c0-1-0.7-1.7-1.6-1.7
		C43.7,232.1,43.1,232.8,43.1,233.8z"/>
	<path class="st1" d="M49.9,229.6c0,0.4-0.3,0.7-0.7,0.7s-0.7-0.3-0.7-0.7c0-0.4,0.3-0.7,0.7-0.7S49.9,229.2,49.9,229.6z
		 M48.7,236.4v-5.3h1.1v5.3H48.7z"/>
	<path class="st1" d="M56.6,236.4h-1.1v-0.9c-0.4,0.6-1,1-1.9,1c-1.5,0-2.5-1.1-2.5-2.7c0-1.6,1-2.7,2.5-2.7c0.9,0,1.5,0.3,1.9,1v-3
		h1.1V236.4z M55.4,233.8c0-1-0.7-1.7-1.6-1.7c-1,0-1.6,0.7-1.6,1.7c0,1,0.7,1.7,1.6,1.7C54.8,235.5,55.4,234.8,55.4,233.8z"/>
	<path d="M64.4,231.6l-0.4,0.8c-0.5-0.3-1.1-0.5-1.5-0.5c-0.4,0-0.8,0.1-0.8,0.5c0,1,2.8,0.5,2.8,2.4c0,1.1-1,1.6-2,1.6
		c-0.8,0-1.6-0.3-2.1-0.7l0.4-0.8c0.5,0.4,1.2,0.7,1.8,0.7c0.5,0,0.9-0.2,0.9-0.6c0-1.1-2.8-0.5-2.8-2.4c0-1.1,0.9-1.5,2-1.5
		C63.2,231.1,63.9,231.3,64.4,231.6z"/>
	<path d="M70.3,234.2h-4c0.2,0.8,0.8,1.3,1.6,1.3c0.6,0,1.1-0.2,1.5-0.6l0.6,0.6c-0.5,0.6-1.3,0.9-2.2,0.9c-1.6,0-2.7-1.1-2.7-2.7
		c0-1.6,1.1-2.7,2.7-2.7C69.7,231.1,70.4,232.3,70.3,234.2z M69.3,233.4c0-0.9-0.6-1.4-1.5-1.4c-0.8,0-1.4,0.5-1.6,1.4H69.3z"/>
	<path d="M74.5,236.1c-0.4,0.3-0.9,0.4-1.3,0.4c-0.8,0-1.5-0.5-1.5-1.5v-2.8h-0.8v-0.9h0.8v-1.5h1.1v1.5h1.6v0.9h-1.6v2.5
		c0,0.5,0.2,0.7,0.6,0.7c0.2,0,0.5-0.1,0.8-0.2L74.5,236.1z"/>
	<path d="M80.5,236.4l-3.7-5v5h-1.2v-7h1.2l3.7,5v-5h1.2v7H80.5z"/>
	<path d="M86.7,235.8c-0.4,0.5-1,0.7-1.8,0.7c-1.1,0-1.9-0.7-1.9-1.6c0-1,0.7-1.6,2-1.6h1.6v-0.2c0-0.7-0.4-1.1-1.3-1.1
		c-0.5,0-1,0.2-1.6,0.5l-0.5-0.8c0.7-0.4,1.3-0.7,2.3-0.7c1.4,0,2.1,0.7,2.1,1.9l0,3.5h-1.1V235.8z M86.7,234.6v-0.5h-1.4
		c-0.7,0-1.1,0.2-1.1,0.7c0,0.5,0.4,0.8,1,0.8C86,235.6,86.6,235.1,86.7,234.6z"/>
	<path d="M92.3,236.1c-0.4,0.3-0.9,0.4-1.3,0.4c-0.8,0-1.5-0.5-1.5-1.5v-2.8h-0.7v-0.9h0.7v-1.5h1.1v1.5h1.6v0.9h-1.6v2.5
		c0,0.5,0.2,0.7,0.6,0.7c0.2,0,0.5-0.1,0.8-0.2L92.3,236.1z"/>
	<path d="M94.6,229.6c0,0.4-0.3,0.7-0.7,0.7s-0.7-0.3-0.7-0.7c0-0.4,0.3-0.7,0.7-0.7S94.6,229.2,94.6,229.6z M93.4,236.4v-5.3h1.1
		v5.3H93.4z"/>
	<path d="M101.3,233.8c0,1.6-1.1,2.7-2.8,2.7c-1.6,0-2.8-1.1-2.8-2.7c0-1.6,1.1-2.7,2.8-2.7C100.2,231.1,101.3,232.2,101.3,233.8z
		 M96.9,233.8c0,1,0.7,1.7,1.6,1.7c0.9,0,1.6-0.7,1.6-1.7c0-1-0.7-1.7-1.6-1.7C97.6,232.1,96.9,232.8,96.9,233.8z"/>
	<path d="M107.6,233.1v3.3h-1.1v-3c0-0.8-0.5-1.3-1.3-1.3c-0.9,0-1.4,0.6-1.5,1.4v2.8h-1.1v-5.3h1.1v1c0.4-0.7,1.1-1.1,2-1.1
		C106.8,231.1,107.6,231.9,107.6,233.1z"/>
	<path d="M112.3,235.8c-0.4,0.5-1,0.7-1.8,0.7c-1.1,0-1.9-0.7-1.9-1.6c0-1,0.7-1.6,2-1.6h1.6v-0.2c0-0.7-0.4-1.1-1.3-1.1
		c-0.5,0-1,0.2-1.6,0.5l-0.5-0.8c0.7-0.4,1.3-0.7,2.3-0.7c1.4,0,2.1,0.7,2.1,1.9l0,3.5h-1.1V235.8z M112.3,234.6v-0.5h-1.4
		c-0.8,0-1.1,0.2-1.1,0.7c0,0.5,0.4,0.8,1,0.8C111.6,235.6,112.2,235.1,112.3,234.6z"/>
	<path d="M115,236.4V229h1.1v7.4H115z"/>
	<path d="M119.2,229.6c0,0.4-0.3,0.7-0.7,0.7c-0.4,0-0.7-0.3-0.7-0.7c0-0.4,0.3-0.7,0.7-0.7C118.9,228.9,119.2,229.2,119.2,229.6z
		 M117.9,236.4v-5.3h1.1v5.3H117.9z"/>
	<path d="M123.8,236.1c-0.4,0.3-0.9,0.4-1.3,0.4c-0.8,0-1.5-0.5-1.5-1.5v-2.8h-0.8v-0.9h0.8v-1.5h1.1v1.5h1.6v0.9h-1.6v2.5
		c0,0.5,0.2,0.7,0.6,0.7c0.2,0,0.5-0.1,0.8-0.2L123.8,236.1z"/>
	<path d="M126.9,237.2c-0.3,0.8-0.9,1.3-1.7,1.3c-0.5,0-0.9-0.1-1.2-0.5l0.5-0.9c0.3,0.2,0.5,0.3,0.7,0.3c0.4,0,0.6-0.2,0.8-0.6
		l0.2-0.4l-2.2-5.2h1.2l1.6,4l1.5-4h1.1L126.9,237.2z"/>
	<path d="M132.3,229c-0.7,1.1-1.2,2.7-1.2,4.3c0,1.7,0.5,3.2,1.2,4.3h-1c-0.8-1.1-1.2-2.7-1.2-4.3c0-1.7,0.4-3.2,1.2-4.3H132.3z"/>
	<path d="M138.2,230.1l-0.5,1c-0.8-0.5-1.5-0.6-2-0.6c-0.7,0-1.1,0.3-1.1,0.7c0,1.5,3.8,0.7,3.8,3.2c0,1.2-1.1,2-2.6,2
		c-1.1,0-2.1-0.5-2.9-1.1l0.5-1c0.7,0.7,1.6,1,2.4,1c0.8,0,1.3-0.3,1.3-0.8c0-1.6-3.8-0.7-3.8-3.2c0-1.2,1-1.9,2.5-1.9
		C136.6,229.4,137.5,229.7,138.2,230.1z"/>
	<path d="M142.6,236.1c-0.4,0.3-0.9,0.4-1.3,0.4c-0.8,0-1.5-0.5-1.5-1.5v-2.8H139v-0.9h0.7v-1.5h1.1v1.5h1.6v0.9h-1.6v2.5
		c0,0.5,0.2,0.7,0.6,0.7c0.2,0,0.5-0.1,0.8-0.2L142.6,236.1z"/>
	<path d="M144.8,232.2c0.4-0.7,1-1.1,1.8-1.1v1.1c-1.1-0.1-1.7,0.6-1.8,1.5v2.8h-1.1v-5.3h1.1V232.2z"/>
	<path d="M148.8,229.6c0,0.4-0.3,0.7-0.7,0.7c-0.4,0-0.7-0.3-0.7-0.7c0-0.4,0.3-0.7,0.7-0.7C148.5,228.9,148.8,229.2,148.8,229.6z
		 M147.6,236.4v-5.3h1.1v5.3H147.6z"/>
	<path d="M155.5,233.1v3.3h-1.1v-3c0-0.8-0.5-1.3-1.3-1.3c-0.9,0-1.4,0.6-1.5,1.4v2.8h-1.1v-5.3h1.1v1c0.4-0.7,1.1-1.1,2-1.1
		C154.8,231.1,155.5,231.9,155.5,233.1z"/>
	<path d="M161.8,235.9c0,1.5-1.1,2.5-2.8,2.5c-0.8,0-1.6-0.3-2.2-0.7l0.5-0.8c0.5,0.4,1,0.6,1.7,0.6c1,0,1.7-0.6,1.7-1.5v-0.7
		c-0.4,0.6-1,0.9-1.8,0.9c-1.4,0-2.4-1-2.4-2.6c0-1.5,0.9-2.5,2.4-2.5c0.8,0,1.4,0.3,1.8,0.9v-0.9h1.1V235.9z M160.7,233.6
		c0-1-0.6-1.6-1.5-1.6c-0.9,0-1.5,0.7-1.5,1.6c0,1,0.6,1.6,1.5,1.6C160.1,235.3,160.7,234.6,160.7,233.6z"/>
	<path class="st4" d="M171.1,233.1v3.3H170v-3c0-0.8-0.5-1.3-1.3-1.3c-0.9,0-1.4,0.6-1.5,1.4v2.8H166v-5.3h1.1v1
		c0.4-0.7,1.1-1.1,2-1.1C170.4,231.1,171.1,231.9,171.1,233.1z"/>
	<path class="st4" d="M175.8,235.8c-0.4,0.5-1,0.7-1.8,0.7c-1.1,0-1.9-0.7-1.9-1.6c0-1,0.7-1.6,2-1.6h1.6v-0.2
		c0-0.7-0.4-1.1-1.3-1.1c-0.5,0-1,0.2-1.6,0.5l-0.5-0.8c0.7-0.4,1.3-0.7,2.3-0.7c1.4,0,2.1,0.7,2.1,1.9l0,3.5h-1.1V235.8z
		 M175.8,234.6v-0.5h-1.4c-0.8,0-1.1,0.2-1.1,0.7c0,0.5,0.4,0.8,1,0.8C175.1,235.6,175.8,235.1,175.8,234.6z"/>
	<path class="st4" d="M181.5,236.1c-0.4,0.3-0.9,0.4-1.3,0.4c-0.8,0-1.5-0.5-1.5-1.5v-2.8H178v-0.9h0.8v-1.5h1.1v1.5h1.6v0.9h-1.6
		v2.5c0,0.5,0.2,0.7,0.6,0.7c0.2,0,0.5-0.1,0.8-0.2L181.5,236.1z"/>
	<path class="st4" d="M183.8,229.6c0,0.4-0.3,0.7-0.7,0.7c-0.4,0-0.7-0.3-0.7-0.7c0-0.4,0.3-0.7,0.7-0.7
		C183.5,228.9,183.8,229.2,183.8,229.6z M182.6,236.4v-5.3h1.1v5.3H182.6z"/>
	<path class="st4" d="M190.5,233.8c0,1.6-1.1,2.7-2.8,2.7c-1.6,0-2.8-1.1-2.8-2.7c0-1.6,1.1-2.7,2.8-2.7
		C189.3,231.1,190.5,232.2,190.5,233.8z M186.1,233.8c0,1,0.7,1.7,1.6,1.7c0.9,0,1.6-0.7,1.6-1.7c0-1-0.7-1.7-1.6-1.7
		C186.7,232.1,186.1,232.8,186.1,233.8z"/>
	<path class="st4" d="M196.8,233.1v3.3h-1.1v-3c0-0.8-0.5-1.3-1.3-1.3c-0.9,0-1.4,0.6-1.5,1.4v2.8h-1.1v-5.3h1.1v1
		c0.4-0.7,1.1-1.1,2-1.1C196,231.1,196.8,231.9,196.8,233.1z"/>
	<path class="st4" d="M201.5,235.8c-0.4,0.5-1,0.7-1.8,0.7c-1.1,0-1.9-0.7-1.9-1.6c0-1,0.7-1.6,2-1.6h1.6v-0.2
		c0-0.7-0.4-1.1-1.3-1.1c-0.5,0-1,0.2-1.6,0.5l-0.5-0.8c0.7-0.4,1.3-0.7,2.3-0.7c1.4,0,2.1,0.7,2.1,1.9l0,3.5h-1.1V235.8z
		 M201.5,234.6v-0.5H200c-0.7,0-1.1,0.2-1.1,0.7c0,0.5,0.4,0.8,1,0.8C200.8,235.6,201.4,235.1,201.5,234.6z"/>
	<path class="st4" d="M204.2,236.4V229h1.1v7.4H204.2z"/>
	<path class="st4" d="M208.4,229.6c0,0.4-0.3,0.7-0.7,0.7s-0.7-0.3-0.7-0.7c0-0.4,0.3-0.7,0.7-0.7S208.4,229.2,208.4,229.6z
		 M207.1,236.4v-5.3h1.1v5.3H207.1z"/>
	<path class="st4" d="M213,236.1c-0.4,0.3-0.9,0.4-1.3,0.4c-0.8,0-1.5-0.5-1.5-1.5v-2.8h-0.7v-0.9h0.7v-1.5h1.1v1.5h1.6v0.9h-1.6
		v2.5c0,0.5,0.2,0.7,0.6,0.7c0.2,0,0.5-0.1,0.8-0.2L213,236.1z"/>
	<path class="st4" d="M216.1,237.2c-0.3,0.8-0.9,1.3-1.7,1.3c-0.5,0-0.9-0.1-1.2-0.5l0.5-0.9c0.3,0.2,0.4,0.3,0.7,0.3
		c0.3,0,0.6-0.2,0.8-0.6l0.2-0.4l-2.2-5.2h1.2l1.6,4l1.5-4h1.1L216.1,237.2z"/>
	<path d="M220.7,229c0.8,1.1,1.2,2.7,1.2,4.3c0,1.7-0.4,3.2-1.2,4.3h-1c0.7-1.1,1.2-2.7,1.2-4.3c0-1.7-0.5-3.2-1.2-4.3H220.7z"/>
	<path d="M229.2,232.3c0,0.6-0.2,1-0.7,1.1c0.5,0.1,0.7,0.4,0.7,1.1v1.6c0,0.5,0.2,0.7,1,0.7v0.9h-0.4c-1.1,0-1.6-0.4-1.6-1.3v-2.1
		c0-0.4-0.1-0.5-0.4-0.5h-0.3v-0.9h0.3c0.3,0,0.4-0.2,0.4-0.5v-2.1c0-0.9,0.4-1.3,1.6-1.3h0.4v0.9c-0.7,0-1,0.2-1,0.7V232.3z"/>
	<path class="st1" d="M26.9,250.1c-0.4,0.3-0.9,0.4-1.3,0.4c-0.8,0-1.5-0.5-1.5-1.5v-2.8h-0.7v-0.9h0.7v-1.5h1.1v1.5h1.6v0.9h-1.6
		v2.5c0,0.5,0.2,0.7,0.6,0.7c0.2,0,0.5-0.1,0.8-0.2L26.9,250.1z"/>
	<path class="st1" d="M33.1,247.1v3.3h-1.1v-3c0-0.8-0.5-1.3-1.3-1.3c-0.9,0-1.5,0.7-1.5,1.7v2.6H28V243h1.1v3.1
		c0.4-0.8,1.1-1.1,2-1.1C32.3,245.1,33.1,245.9,33.1,247.1z"/>
	<path class="st1" d="M35.9,243.6c0,0.4-0.3,0.7-0.7,0.7c-0.4,0-0.7-0.3-0.7-0.7c0-0.4,0.3-0.7,0.7-0.7
		C35.6,242.9,35.9,243.2,35.9,243.6z M34.6,250.4v-5.3h1.1v5.3H34.6z"/>
	<path class="st1" d="M40.9,245.6l-0.4,0.8c-0.5-0.3-1.1-0.5-1.5-0.5c-0.4,0-0.8,0.1-0.8,0.5c0,1,2.8,0.5,2.8,2.4c0,1.1-1,1.6-2,1.6
		c-0.8,0-1.6-0.3-2.1-0.7l0.4-0.8c0.5,0.4,1.2,0.7,1.8,0.7c0.5,0,0.9-0.2,0.9-0.6c0-1.1-2.8-0.5-2.8-2.4c0-1.1,0.9-1.5,2-1.5
		C39.7,245.1,40.4,245.3,40.9,245.6z"/>
	<path d="M45.6,249.9c0,0.4-0.3,0.7-0.6,0.7c-0.4,0-0.6-0.3-0.6-0.7c0-0.4,0.3-0.6,0.6-0.6C45.3,249.2,45.6,249.5,45.6,249.9z"/>
	<path class="st2" d="M54.6,247.1v3.3h-1.1v-3c0-0.8-0.5-1.3-1.3-1.3c-0.9,0-1.4,0.6-1.5,1.4v2.8h-1.1v-5.3h1.1v1
		c0.4-0.7,1.1-1.1,2-1.1C53.9,245.1,54.6,245.9,54.6,247.1z"/>
	<path class="st2" d="M59.3,249.8c-0.4,0.5-1,0.7-1.8,0.7c-1.1,0-1.9-0.7-1.9-1.6c0-1,0.7-1.6,2-1.6h1.6v-0.2c0-0.7-0.4-1.1-1.3-1.1
		c-0.5,0-1,0.2-1.6,0.5l-0.5-0.8c0.7-0.4,1.3-0.7,2.3-0.7c1.4,0,2.1,0.7,2.1,1.9l0,3.5h-1.1V249.8z M59.3,248.6v-0.5h-1.4
		c-0.8,0-1.1,0.2-1.1,0.7c0,0.5,0.4,0.8,1,0.8C58.6,249.6,59.3,249.1,59.3,248.6z"/>
	<path class="st2" d="M65,250.1c-0.4,0.3-0.9,0.4-1.3,0.4c-0.8,0-1.5-0.5-1.5-1.5v-2.8h-0.8v-0.9h0.8v-1.5h1.1v1.5h1.6v0.9h-1.6v2.5
		c0,0.5,0.2,0.7,0.6,0.7c0.2,0,0.5-0.1,0.8-0.2L65,250.1z"/>
	<path class="st2" d="M67.3,243.6c0,0.4-0.3,0.7-0.7,0.7c-0.4,0-0.7-0.3-0.7-0.7c0-0.4,0.3-0.7,0.7-0.7
		C67,242.9,67.3,243.2,67.3,243.6z M66.1,250.4v-5.3h1.1v5.3H66.1z"/>
	<path class="st2" d="M74,247.8c0,1.6-1.1,2.7-2.8,2.7c-1.6,0-2.8-1.1-2.8-2.7c0-1.6,1.1-2.7,2.8-2.7C72.8,245.1,74,246.2,74,247.8z
		 M69.6,247.8c0,1,0.7,1.7,1.6,1.7c0.9,0,1.6-0.7,1.6-1.7c0-1-0.7-1.7-1.6-1.7C70.2,246.1,69.6,246.8,69.6,247.8z"/>
	<path class="st2" d="M80.2,247.1v3.3h-1.1v-3c0-0.8-0.5-1.3-1.3-1.3c-0.9,0-1.4,0.6-1.5,1.4v2.8h-1.1v-5.3h1.1v1
		c0.4-0.7,1.1-1.1,2-1.1C79.5,245.1,80.2,245.9,80.2,247.1z"/>
	<path class="st2" d="M85,249.8c-0.4,0.5-1,0.7-1.8,0.7c-1.1,0-1.9-0.7-1.9-1.6c0-1,0.7-1.6,2-1.6H85v-0.2c0-0.7-0.4-1.1-1.3-1.1
		c-0.5,0-1,0.2-1.6,0.5l-0.5-0.8c0.7-0.4,1.3-0.7,2.3-0.7c1.4,0,2.1,0.7,2.1,1.9l0,3.5H85V249.8z M85,248.6v-0.5h-1.4
		c-0.7,0-1.1,0.2-1.1,0.7c0,0.5,0.4,0.8,1,0.8C84.3,249.6,84.9,249.1,85,248.6z"/>
	<path class="st2" d="M87.7,250.4V243h1.1v7.4H87.7z"/>
	<path class="st2" d="M91.8,243.6c0,0.4-0.3,0.7-0.7,0.7c-0.4,0-0.7-0.3-0.7-0.7c0-0.4,0.3-0.7,0.7-0.7
		C91.5,242.9,91.8,243.2,91.8,243.6z M90.6,250.4v-5.3h1.1v5.3H90.6z"/>
	<path class="st2" d="M96.4,250.1c-0.4,0.3-0.9,0.4-1.3,0.4c-0.8,0-1.5-0.5-1.5-1.5v-2.8h-0.7v-0.9h0.7v-1.5h1.1v1.5h1.6v0.9h-1.6
		v2.5c0,0.5,0.2,0.7,0.6,0.7c0.2,0,0.5-0.1,0.8-0.2L96.4,250.1z"/>
	<path class="st2" d="M99.6,251.2c-0.3,0.8-0.9,1.3-1.7,1.3c-0.5,0-0.9-0.1-1.2-0.5l0.5-0.9c0.3,0.2,0.4,0.3,0.7,0.3
		c0.3,0,0.6-0.2,0.8-0.6l0.2-0.4l-2.2-5.2h1.2l1.6,4l1.5-4h1.1L99.6,251.2z"/>
	<path d="M104.9,246.5v-0.8h4.3v0.8H104.9z M104.9,248.6v-0.8h4.3v0.8H104.9z"/>
	<path class="st4" d="M118,247.1v3.3h-1.1v-3c0-0.8-0.5-1.3-1.3-1.3c-0.9,0-1.4,0.6-1.5,1.4v2.8H113v-5.3h1.1v1
		c0.4-0.7,1.1-1.1,2-1.1C117.3,245.1,118,245.9,118,247.1z"/>
	<path class="st4" d="M122.8,249.8c-0.4,0.5-1,0.7-1.8,0.7c-1.1,0-1.9-0.7-1.9-1.6c0-1,0.7-1.6,2-1.6h1.6v-0.2
		c0-0.7-0.4-1.1-1.3-1.1c-0.5,0-1,0.2-1.6,0.5l-0.5-0.8c0.7-0.4,1.3-0.7,2.3-0.7c1.4,0,2.1,0.7,2.1,1.9l0,3.5h-1.1V249.8z
		 M122.8,248.6v-0.5h-1.4c-0.8,0-1.1,0.2-1.1,0.7c0,0.5,0.4,0.8,1,0.8C122.1,249.6,122.7,249.1,122.8,248.6z"/>
	<path class="st4" d="M128.5,250.1c-0.4,0.3-0.9,0.4-1.3,0.4c-0.8,0-1.5-0.5-1.5-1.5v-2.8h-0.8v-0.9h0.8v-1.5h1.1v1.5h1.6v0.9h-1.6
		v2.5c0,0.5,0.2,0.7,0.6,0.7c0.2,0,0.5-0.1,0.8-0.2L128.5,250.1z"/>
	<path class="st4" d="M130.8,243.6c0,0.4-0.3,0.7-0.7,0.7s-0.7-0.3-0.7-0.7c0-0.4,0.3-0.7,0.7-0.7S130.8,243.2,130.8,243.6z
		 M129.5,250.4v-5.3h1.1v5.3H129.5z"/>
	<path class="st4" d="M137.4,247.8c0,1.6-1.1,2.7-2.8,2.7c-1.6,0-2.8-1.1-2.8-2.7c0-1.6,1.1-2.7,2.8-2.7
		C136.3,245.1,137.4,246.2,137.4,247.8z M133,247.8c0,1,0.7,1.7,1.6,1.7c0.9,0,1.6-0.7,1.6-1.7c0-1-0.7-1.7-1.6-1.7
		C133.7,246.1,133,246.8,133,247.8z"/>
	<path class="st4" d="M143.7,247.1v3.3h-1.1v-3c0-0.8-0.5-1.3-1.3-1.3c-0.9,0-1.4,0.6-1.5,1.4v2.8h-1.1v-5.3h1.1v1
		c0.4-0.7,1.1-1.1,2-1.1C143,245.1,143.7,245.9,143.7,247.1z"/>
	<path class="st4" d="M148.4,249.8c-0.4,0.5-1,0.7-1.8,0.7c-1.1,0-1.9-0.7-1.9-1.6c0-1,0.7-1.6,2-1.6h1.6v-0.2
		c0-0.7-0.4-1.1-1.3-1.1c-0.5,0-1,0.2-1.6,0.5l-0.5-0.8c0.7-0.4,1.3-0.7,2.3-0.7c1.4,0,2.1,0.7,2.1,1.9l0,3.5h-1.1V249.8z
		 M148.4,248.6v-0.5H147c-0.7,0-1.1,0.2-1.1,0.7c0,0.5,0.4,0.8,1,0.8C147.7,249.6,148.4,249.1,148.4,248.6z"/>
	<path class="st4" d="M151.1,250.4V243h1.1v7.4H151.1z"/>
	<path class="st4" d="M155.3,243.6c0,0.4-0.3,0.7-0.7,0.7c-0.4,0-0.7-0.3-0.7-0.7c0-0.4,0.3-0.7,0.7-0.7
		C155,242.9,155.3,243.2,155.3,243.6z M154,250.4v-5.3h1.1v5.3H154z"/>
	<path class="st4" d="M159.9,250.1c-0.4,0.3-0.9,0.4-1.3,0.4c-0.8,0-1.5-0.5-1.5-1.5v-2.8h-0.7v-0.9h0.7v-1.5h1.1v1.5h1.6v0.9h-1.6
		v2.5c0,0.5,0.2,0.7,0.6,0.7c0.2,0,0.5-0.1,0.8-0.2L159.9,250.1z"/>
	<path class="st4" d="M163,251.2c-0.3,0.8-0.9,1.3-1.7,1.3c-0.5,0-0.9-0.1-1.2-0.5l0.5-0.9c0.3,0.2,0.5,0.3,0.7,0.3
		c0.4,0,0.6-0.2,0.8-0.6l0.2-0.4l-2.2-5.2h1.2l1.6,4l1.5-4h1.1L163,251.2z"/>
	<path d="M167.1,249.9c0,0.2-0.1,0.4-0.2,0.5l-0.6,0.9h-0.6l0.4-0.9c-0.2-0.1-0.3-0.3-0.3-0.5c0-0.4,0.3-0.6,0.6-0.6
		C166.8,249.2,167.1,249.5,167.1,249.9z M165.9,246.9c0-0.4,0.3-0.6,0.6-0.6c0.4,0,0.6,0.3,0.6,0.6c0,0.4-0.3,0.7-0.6,0.7
		C166.1,247.6,165.9,247.3,165.9,246.9z"/>
	<path d="M6.4,261.8H6.1c-0.3,0-0.4,0.1-0.4,0.5v2.1c0,0.9-0.4,1.3-1.6,1.3H3.7v-0.9c0.7,0,1-0.2,1-0.7v-1.6c0-0.6,0.2-0.9,0.7-1.1
		c-0.5-0.1-0.7-0.4-0.7-1.1v-1.6c0-0.5-0.2-0.7-1-0.7V257h0.4c1.1,0,1.6,0.3,1.6,1.3v2.1c0,0.4,0.1,0.5,0.4,0.5h0.3V261.8z"/>
	<path class="st1" d="M8.8,289.8c0,1.6-1,2.7-2.5,2.7c-0.8,0-1.5-0.3-1.9-1v2.9H3.3v-7.3h1.1v0.9c0.4-0.6,1-1,1.9-1
		C7.8,287.1,8.8,288.2,8.8,289.8z M7.7,289.8c0-1-0.7-1.7-1.6-1.7c-0.9,0-1.6,0.7-1.6,1.7c0,1,0.7,1.7,1.6,1.7
		C7,291.5,7.7,290.8,7.7,289.8z"/>
	<path class="st1" d="M14.9,292.4h-1.1v-1c-0.4,0.7-1,1.1-1.9,1.1c-1.2,0-1.9-0.8-1.9-2v-3.3H11v3c0,0.8,0.5,1.3,1.2,1.3
		c0.9,0,1.5-0.7,1.5-1.7v-2.6h1.1V292.4z"/>
	<path class="st1" d="M22.2,289.8c0,1.6-1,2.7-2.5,2.7c-0.8,0-1.5-0.3-1.9-1v0.9h-1.1V285h1.1v3c0.4-0.6,1-1,1.9-1
		C21.1,287.1,22.2,288.2,22.2,289.8z M21,289.8c0-1-0.7-1.7-1.6-1.7c-0.9,0-1.6,0.7-1.6,1.7c0,1,0.7,1.7,1.6,1.7
		C20.3,291.5,21,290.8,21,289.8z"/>
	<path class="st1" d="M23.4,292.4V285h1.1v7.4H23.4z"/>
	<path class="st1" d="M27.5,285.6c0,0.4-0.3,0.7-0.7,0.7c-0.4,0-0.7-0.3-0.7-0.7c0-0.4,0.3-0.7,0.7-0.7
		C27.3,284.9,27.5,285.2,27.5,285.6z M26.3,292.4v-5.3h1.1v5.3H26.3z"/>
	<path class="st1" d="M33.5,287.9l-0.6,0.7c-0.4-0.4-0.9-0.6-1.5-0.6c-0.9,0-1.6,0.7-1.6,1.7s0.7,1.7,1.6,1.7c0.7,0,1.2-0.2,1.6-0.6
		l0.6,0.6c-0.5,0.6-1.2,1-2.3,1c-1.6,0-2.7-1.1-2.7-2.7c0-1.6,1.1-2.7,2.7-2.7C32.3,287.1,33,287.4,33.5,287.9z"/>
	<path class="st1" d="M38.6,292.4l-2.1-5.3h1.2l1.5,4.2l1.5-4.2h1.1l-2,5.3H38.6z"/>
	<path class="st1" d="M47.5,289.8c0,1.6-1.1,2.7-2.8,2.7c-1.6,0-2.8-1.1-2.8-2.7c0-1.6,1.1-2.7,2.8-2.7
		C46.3,287.1,47.5,288.2,47.5,289.8z M43.1,289.8c0,1,0.7,1.7,1.6,1.7c0.9,0,1.6-0.7,1.6-1.7c0-1-0.7-1.7-1.6-1.7
		C43.7,288.1,43.1,288.8,43.1,289.8z"/>
	<path class="st1" d="M49.9,285.6c0,0.4-0.3,0.7-0.7,0.7s-0.7-0.3-0.7-0.7c0-0.4,0.3-0.7,0.7-0.7S49.9,285.2,49.9,285.6z
		 M48.7,292.4v-5.3h1.1v5.3H48.7z"/>
	<path class="st1" d="M56.6,292.4h-1.1v-0.9c-0.4,0.6-1,1-1.9,1c-1.5,0-2.5-1.1-2.5-2.7c0-1.6,1-2.7,2.5-2.7c0.9,0,1.5,0.3,1.9,1v-3
		h1.1V292.4z M55.4,289.8c0-1-0.7-1.7-1.6-1.7c-1,0-1.6,0.7-1.6,1.7c0,1,0.7,1.7,1.6,1.7C54.8,291.5,55.4,290.8,55.4,289.8z"/>
	<path d="M64.4,287.6l-0.4,0.8c-0.5-0.3-1.1-0.5-1.5-0.5c-0.4,0-0.8,0.1-0.8,0.5c0,1,2.8,0.5,2.8,2.4c0,1.1-1,1.6-2,1.6
		c-0.8,0-1.6-0.3-2.1-0.7l0.4-0.8c0.5,0.4,1.2,0.7,1.8,0.7c0.5,0,0.9-0.2,0.9-0.6c0-1.1-2.8-0.5-2.8-2.4c0-1.1,0.9-1.5,2-1.5
		C63.2,287.1,63.9,287.3,64.4,287.6z"/>
	<path d="M70.3,290.2h-4c0.2,0.8,0.8,1.3,1.6,1.3c0.6,0,1.1-0.2,1.5-0.6l0.6,0.6c-0.5,0.6-1.3,0.9-2.2,0.9c-1.6,0-2.7-1.1-2.7-2.7
		c0-1.6,1.1-2.7,2.7-2.7C69.7,287.1,70.4,288.3,70.3,290.2z M69.3,289.4c0-0.9-0.6-1.4-1.5-1.4c-0.8,0-1.4,0.5-1.6,1.4H69.3z"/>
	<path d="M74.5,292.1c-0.4,0.3-0.9,0.4-1.3,0.4c-0.8,0-1.5-0.5-1.5-1.5v-2.8h-0.8v-0.9h0.8v-1.5h1.1v1.5h1.6v0.9h-1.6v2.5
		c0,0.5,0.2,0.7,0.6,0.7c0.2,0,0.5-0.1,0.8-0.2L74.5,292.1z"/>
	<path d="M78.7,285.4c1.4,0,2.3,0.7,2.3,1.7c0,0.8-0.5,1.4-1.2,1.6c0.9,0.2,1.5,0.8,1.5,1.8c0,1.2-1,1.9-2.5,1.9h-3.1v-7H78.7z
		 M76.8,288.3h1.8c0.8,0,1.2-0.3,1.2-0.9s-0.4-0.9-1.2-0.9h-1.8V288.3z M76.8,291.4h1.8c0.9,0,1.5-0.4,1.5-1c0-0.6-0.5-1-1.5-1h-1.8
		V291.4z"/>
	<path d="M83.9,285.6c0,0.4-0.3,0.7-0.7,0.7s-0.7-0.3-0.7-0.7c0-0.4,0.3-0.7,0.7-0.7S83.9,285.2,83.9,285.6z M82.6,292.4v-5.3h1.1
		v5.3H82.6z"/>
	<path d="M86.6,288.2c0.4-0.7,1-1.1,1.8-1.1v1.1c-1.1-0.1-1.7,0.6-1.8,1.5v2.8h-1.1v-5.3h1.1V288.2z"/>
	<path d="M92.4,292.1c-0.4,0.3-0.9,0.4-1.3,0.4c-0.8,0-1.5-0.5-1.5-1.5v-2.8h-0.8v-0.9h0.8v-1.5h1.1v1.5h1.6v0.9h-1.6v2.5
		c0,0.5,0.2,0.7,0.6,0.7c0.2,0,0.5-0.1,0.8-0.2L92.4,292.1z"/>
	<path d="M98.6,289.1v3.3h-1.1v-3c0-0.8-0.5-1.3-1.3-1.3c-0.9,0-1.5,0.7-1.5,1.7v2.6h-1.1V285h1.1v3.1c0.4-0.8,1.1-1.1,2-1.1
		C97.9,287.1,98.6,287.9,98.6,289.1z"/>
	<path d="M103.1,285.4c2.1,0,3.6,1.5,3.6,3.5c0,2-1.5,3.5-3.6,3.5h-2.8v-7H103.1z M101.4,291.4h1.7c1.4,0,2.4-1,2.4-2.4
		c0-1.4-1.1-2.4-2.4-2.4h-1.7V291.4z"/>
	<path d="M111.1,291.8c-0.4,0.5-1,0.7-1.8,0.7c-1.1,0-1.9-0.7-1.9-1.6c0-1,0.7-1.6,2-1.6h1.6v-0.2c0-0.7-0.4-1.1-1.3-1.1
		c-0.5,0-1,0.2-1.6,0.5l-0.5-0.8c0.7-0.4,1.3-0.7,2.3-0.7c1.4,0,2.1,0.7,2.1,1.9l0,3.5h-1.1V291.8z M111.1,290.6v-0.5h-1.4
		c-0.7,0-1.1,0.2-1.1,0.7c0,0.5,0.4,0.8,1,0.8C110.4,291.6,111,291.1,111.1,290.6z"/>
	<path d="M116.8,292.1c-0.4,0.3-0.9,0.4-1.3,0.4c-0.8,0-1.5-0.5-1.5-1.5v-2.8h-0.7v-0.9h0.7v-1.5h1.1v1.5h1.6v0.9h-1.6v2.5
		c0,0.5,0.2,0.7,0.6,0.7c0.2,0,0.5-0.1,0.8-0.2L116.8,292.1z"/>
	<path d="M122.5,290.2h-4c0.2,0.8,0.8,1.3,1.6,1.3c0.6,0,1.1-0.2,1.5-0.6l0.6,0.6c-0.5,0.6-1.3,0.9-2.2,0.9c-1.6,0-2.7-1.1-2.7-2.7
		c0-1.6,1.1-2.7,2.7-2.7C121.8,287.1,122.6,288.3,122.5,290.2z M121.5,289.4c0-0.9-0.6-1.4-1.5-1.4c-0.8,0-1.4,0.5-1.6,1.4H121.5z"
		/>
	<path d="M125.8,285c-0.7,1.1-1.2,2.7-1.2,4.3c0,1.7,0.5,3.2,1.2,4.3h-1c-0.8-1.1-1.2-2.7-1.2-4.3c0-1.7,0.4-3.2,1.2-4.3H125.8z"/>
	<path d="M129.8,285.4c2.1,0,3.6,1.5,3.6,3.5c0,2-1.5,3.5-3.6,3.5h-2.8v-7H129.8z M128.1,291.4h1.7c1.4,0,2.4-1,2.4-2.4
		c0-1.4-1.1-2.4-2.4-2.4h-1.7V291.4z"/>
	<path d="M137.8,291.8c-0.4,0.5-1,0.7-1.8,0.7c-1.1,0-1.9-0.7-1.9-1.6c0-1,0.7-1.6,2-1.6h1.6v-0.2c0-0.7-0.4-1.1-1.3-1.1
		c-0.5,0-1,0.2-1.6,0.5l-0.5-0.8c0.7-0.4,1.3-0.7,2.3-0.7c1.4,0,2.1,0.7,2.1,1.9l0,3.5h-1.1V291.8z M137.8,290.6v-0.5h-1.4
		c-0.7,0-1.1,0.2-1.1,0.7c0,0.5,0.4,0.8,1,0.8C137.1,291.6,137.7,291.1,137.8,290.6z"/>
	<path d="M143.5,292.1c-0.4,0.3-0.9,0.4-1.3,0.4c-0.8,0-1.5-0.5-1.5-1.5v-2.8h-0.8v-0.9h0.8v-1.5h1.1v1.5h1.6v0.9h-1.6v2.5
		c0,0.5,0.2,0.7,0.6,0.7c0.2,0,0.5-0.1,0.8-0.2L143.5,292.1z"/>
	<path d="M149.1,290.2h-4c0.2,0.8,0.8,1.3,1.6,1.3c0.6,0,1.1-0.2,1.5-0.6l0.6,0.6c-0.5,0.6-1.3,0.9-2.2,0.9c-1.6,0-2.7-1.1-2.7-2.7
		c0-1.6,1.1-2.7,2.7-2.7C148.5,287.1,149.3,288.3,149.1,290.2z M148.1,289.4c0-0.9-0.6-1.4-1.5-1.4c-0.8,0-1.4,0.5-1.6,1.4H148.1z"
		/>
	<path class="st4" d="M158.5,289.8c0,1.6-1,2.7-2.5,2.7c-0.8,0-1.5-0.3-1.9-1v0.9H153V285h1.1v3c0.4-0.6,1-1,1.9-1
		C157.5,287.1,158.5,288.2,158.5,289.8z M157.4,289.8c0-1-0.7-1.7-1.6-1.7c-1,0-1.6,0.7-1.6,1.7c0,1,0.7,1.7,1.6,1.7
		C156.7,291.5,157.4,290.8,157.4,289.8z"/>
	<path class="st4" d="M161,285.6c0,0.4-0.3,0.7-0.7,0.7s-0.7-0.3-0.7-0.7c0-0.4,0.3-0.7,0.7-0.7S161,285.2,161,285.6z M159.7,292.4
		v-5.3h1.1v5.3H159.7z"/>
	<path class="st4" d="M163.7,288.2c0.4-0.7,1-1.1,1.8-1.1v1.1c-1.1-0.1-1.7,0.6-1.8,1.5v2.8h-1.1v-5.3h1.1V288.2z"/>
	<path class="st4" d="M169.5,292.1c-0.4,0.3-0.9,0.4-1.3,0.4c-0.8,0-1.5-0.5-1.5-1.5v-2.8H166v-0.9h0.8v-1.5h1.1v1.5h1.6v0.9h-1.6
		v2.5c0,0.5,0.2,0.7,0.6,0.7c0.2,0,0.5-0.1,0.8-0.2L169.5,292.1z"/>
	<path class="st4" d="M175.7,289.1v3.3h-1.1v-3c0-0.8-0.5-1.3-1.3-1.3c-0.9,0-1.5,0.7-1.5,1.7v2.6h-1.1V285h1.1v3.1
		c0.4-0.8,1.1-1.1,2-1.1C175,287.1,175.7,287.9,175.7,289.1z"/>
	<path class="st4" d="M180.2,285.4c2.1,0,3.6,1.5,3.6,3.5c0,2-1.5,3.5-3.6,3.5h-2.8v-7H180.2z M178.5,291.4h1.7c1.4,0,2.4-1,2.4-2.4
		c0-1.4-1.1-2.4-2.4-2.4h-1.7V291.4z"/>
	<path class="st4" d="M188.2,291.8c-0.4,0.5-1,0.7-1.8,0.7c-1.1,0-1.9-0.7-1.9-1.6c0-1,0.7-1.6,2-1.6h1.6v-0.2
		c0-0.7-0.4-1.1-1.3-1.1c-0.5,0-1,0.2-1.6,0.5l-0.5-0.8c0.7-0.4,1.3-0.7,2.3-0.7c1.4,0,2.1,0.7,2.1,1.9l0,3.5h-1.1V291.8z
		 M188.2,290.6v-0.5h-1.4c-0.7,0-1.1,0.2-1.1,0.7c0,0.5,0.4,0.8,1,0.8C187.5,291.6,188.1,291.1,188.2,290.6z"/>
	<path class="st4" d="M193.9,292.1c-0.4,0.3-0.9,0.4-1.3,0.4c-0.8,0-1.5-0.5-1.5-1.5v-2.8h-0.7v-0.9h0.7v-1.5h1.1v1.5h1.6v0.9h-1.6
		v2.5c0,0.5,0.2,0.7,0.6,0.7c0.2,0,0.5-0.1,0.8-0.2L193.9,292.1z"/>
	<path class="st4" d="M199.6,290.2h-4c0.2,0.8,0.8,1.3,1.6,1.3c0.6,0,1.1-0.2,1.5-0.6l0.6,0.6c-0.5,0.6-1.3,0.9-2.2,0.9
		c-1.6,0-2.7-1.1-2.7-2.7c0-1.6,1.1-2.7,2.7-2.7C198.9,287.1,199.7,288.3,199.6,290.2z M198.6,289.4c0-0.9-0.6-1.4-1.5-1.4
		c-0.8,0-1.4,0.5-1.6,1.4H198.6z"/>
	<path d="M202.1,285c0.8,1.1,1.2,2.7,1.2,4.3c0,1.7-0.4,3.2-1.2,4.3h-1c0.7-1.1,1.2-2.7,1.2-4.3c0-1.7-0.4-3.2-1.2-4.3H202.1z"/>
	<path d="M210.7,288.3c0,0.6-0.2,1-0.7,1.1c0.5,0.1,0.7,0.4,0.7,1.1v1.6c0,0.5,0.2,0.7,1,0.7v0.9h-0.4c-1.1,0-1.6-0.4-1.6-1.3v-2.1
		c0-0.4-0.1-0.5-0.4-0.5h-0.3v-0.9h0.3c0.3,0,0.4-0.2,0.4-0.5v-2.1c0-0.9,0.4-1.3,1.6-1.3h0.4v0.9c-0.7,0-1,0.2-1,0.7V288.3z"/>
	<path class="st1" d="M26.9,306.1c-0.4,0.3-0.9,0.4-1.3,0.4c-0.8,0-1.5-0.5-1.5-1.5v-2.8h-0.7v-0.9h0.7v-1.5h1.1v1.5h1.6v0.9h-1.6
		v2.5c0,0.5,0.2,0.7,0.6,0.7c0.2,0,0.5-0.1,0.8-0.2L26.9,306.1z"/>
	<path class="st1" d="M33.1,303.1v3.3h-1.1v-3c0-0.8-0.5-1.3-1.3-1.3c-0.9,0-1.5,0.7-1.5,1.7v2.6H28V299h1.1v3.1
		c0.4-0.8,1.1-1.1,2-1.1C32.3,301.1,33.1,301.9,33.1,303.1z"/>
	<path class="st1" d="M35.9,299.6c0,0.4-0.3,0.7-0.7,0.7c-0.4,0-0.7-0.3-0.7-0.7c0-0.4,0.3-0.7,0.7-0.7
		C35.6,298.9,35.9,299.2,35.9,299.6z M34.6,306.4v-5.3h1.1v5.3H34.6z"/>
	<path class="st1" d="M40.9,301.6l-0.4,0.8c-0.5-0.3-1.1-0.5-1.5-0.5c-0.4,0-0.8,0.1-0.8,0.5c0,1,2.8,0.5,2.8,2.4c0,1.1-1,1.6-2,1.6
		c-0.8,0-1.6-0.3-2.1-0.7l0.4-0.8c0.5,0.4,1.2,0.7,1.8,0.7c0.5,0,0.9-0.2,0.9-0.6c0-1.1-2.8-0.5-2.8-2.4c0-1.1,0.9-1.5,2-1.5
		C39.7,301.1,40.4,301.3,40.9,301.6z"/>
	<path d="M45.6,305.9c0,0.4-0.3,0.7-0.6,0.7c-0.4,0-0.6-0.3-0.6-0.7c0-0.4,0.3-0.6,0.6-0.6C45.3,305.2,45.6,305.5,45.6,305.9z"/>
	<path class="st2" d="M55.1,303.8c0,1.6-1,2.7-2.5,2.7c-0.8,0-1.5-0.3-1.9-1v0.9h-1.1V299h1.1v3c0.4-0.6,1-1,1.9-1
		C54.1,301.1,55.1,302.2,55.1,303.8z M53.9,303.8c0-1-0.7-1.7-1.6-1.7c-0.9,0-1.6,0.7-1.6,1.7c0,1,0.7,1.7,1.6,1.7
		C53.3,305.5,53.9,304.8,53.9,303.8z"/>
	<path class="st2" d="M57.5,299.6c0,0.4-0.3,0.7-0.7,0.7c-0.4,0-0.7-0.3-0.7-0.7c0-0.4,0.3-0.7,0.7-0.7
		C57.3,298.9,57.5,299.2,57.5,299.6z M56.3,306.4v-5.3h1.1v5.3H56.3z"/>
	<path class="st2" d="M60.3,302.2c0.4-0.7,1-1.1,1.8-1.1v1.1c-1.1-0.1-1.7,0.6-1.8,1.5v2.8h-1.1v-5.3h1.1V302.2z"/>
	<path class="st2" d="M66.1,306.1c-0.4,0.3-0.9,0.4-1.3,0.4c-0.8,0-1.5-0.5-1.5-1.5v-2.8h-0.8v-0.9h0.8v-1.5h1.1v1.5H66v0.9h-1.6
		v2.5c0,0.5,0.2,0.7,0.6,0.7c0.2,0,0.5-0.1,0.8-0.2L66.1,306.1z"/>
	<path class="st2" d="M72.3,303.1v3.3h-1.1v-3c0-0.8-0.5-1.3-1.3-1.3c-0.9,0-1.5,0.7-1.5,1.7v2.6h-1.1V299h1.1v3.1
		c0.4-0.8,1.1-1.1,2-1.1C71.6,301.1,72.3,301.9,72.3,303.1z"/>
	<path class="st2" d="M76.8,299.4c2.1,0,3.6,1.5,3.6,3.5c0,2-1.5,3.5-3.6,3.5h-2.8v-7H76.8z M75.1,305.4h1.7c1.4,0,2.4-1,2.4-2.4
		c0-1.4-1.1-2.4-2.4-2.4h-1.7V305.4z"/>
	<path class="st2" d="M84.8,305.8c-0.4,0.5-1,0.7-1.8,0.7c-1.1,0-1.9-0.7-1.9-1.6c0-1,0.7-1.6,2-1.6h1.6v-0.2c0-0.7-0.4-1.1-1.3-1.1
		c-0.5,0-1,0.2-1.6,0.5l-0.5-0.8c0.7-0.4,1.3-0.7,2.3-0.7c1.4,0,2.1,0.7,2.1,1.9l0,3.5h-1.1V305.8z M84.8,304.6v-0.5h-1.4
		c-0.7,0-1.1,0.2-1.1,0.7c0,0.5,0.4,0.8,1,0.8C84.1,305.6,84.7,305.1,84.8,304.6z"/>
	<path class="st2" d="M90.5,306.1c-0.4,0.3-0.9,0.4-1.3,0.4c-0.8,0-1.5-0.5-1.5-1.5v-2.8h-0.8v-0.9h0.8v-1.5h1.1v1.5h1.6v0.9h-1.6
		v2.5c0,0.5,0.2,0.7,0.6,0.7c0.2,0,0.5-0.1,0.8-0.2L90.5,306.1z"/>
	<path class="st2" d="M96.1,304.2h-4c0.2,0.8,0.8,1.3,1.6,1.3c0.6,0,1.1-0.2,1.5-0.6l0.6,0.6c-0.5,0.6-1.3,0.9-2.2,0.9
		c-1.6,0-2.7-1.1-2.7-2.7c0-1.6,1.1-2.7,2.7-2.7C95.5,301.1,96.3,302.3,96.1,304.2z M95.1,303.4c0-0.9-0.6-1.4-1.5-1.4
		c-0.8,0-1.4,0.5-1.6,1.4H95.1z"/>
	<path d="M99.4,302.5v-0.8h4.3v0.8H99.4z M99.4,304.6v-0.8h4.3v0.8H99.4z"/>
	<path class="st4" d="M113.1,303.8c0,1.6-1,2.7-2.5,2.7c-0.8,0-1.5-0.3-1.9-1v0.9h-1.1V299h1.1v3c0.4-0.6,1-1,1.9-1
		C112.1,301.1,113.1,302.2,113.1,303.8z M111.9,303.8c0-1-0.7-1.7-1.6-1.7c-0.9,0-1.6,0.7-1.6,1.7c0,1,0.7,1.7,1.6,1.7
		C111.3,305.5,111.9,304.8,111.9,303.8z"/>
	<path class="st4" d="M115.5,299.6c0,0.4-0.3,0.7-0.7,0.7c-0.4,0-0.7-0.3-0.7-0.7c0-0.4,0.3-0.7,0.7-0.7
		C115.2,298.9,115.5,299.2,115.5,299.6z M114.3,306.4v-5.3h1.1v5.3H114.3z"/>
	<path class="st4" d="M118.3,302.2c0.4-0.7,1-1.1,1.8-1.1v1.1c-1.1-0.1-1.7,0.6-1.8,1.5v2.8h-1.1v-5.3h1.1V302.2z"/>
	<path class="st4" d="M124.1,306.1c-0.4,0.3-0.9,0.4-1.3,0.4c-0.8,0-1.5-0.5-1.5-1.5v-2.8h-0.8v-0.9h0.8v-1.5h1.1v1.5h1.6v0.9h-1.6
		v2.5c0,0.5,0.2,0.7,0.6,0.7c0.2,0,0.5-0.1,0.8-0.2L124.1,306.1z"/>
	<path class="st4" d="M130.3,303.1v3.3h-1.1v-3c0-0.8-0.5-1.3-1.3-1.3c-0.9,0-1.5,0.7-1.5,1.7v2.6h-1.1V299h1.1v3.1
		c0.4-0.8,1.1-1.1,2-1.1C129.5,301.1,130.3,301.9,130.3,303.1z"/>
	<path class="st4" d="M134.8,299.4c2.1,0,3.6,1.5,3.6,3.5c0,2-1.5,3.5-3.6,3.5h-2.8v-7H134.8z M133.1,305.4h1.7c1.4,0,2.4-1,2.4-2.4
		c0-1.4-1.1-2.4-2.4-2.4h-1.7V305.4z"/>
	<path class="st4" d="M142.8,305.8c-0.4,0.5-1,0.7-1.8,0.7c-1.1,0-1.9-0.7-1.9-1.6c0-1,0.7-1.6,2-1.6h1.6v-0.2
		c0-0.7-0.4-1.1-1.3-1.1c-0.5,0-1,0.2-1.6,0.5l-0.5-0.8c0.7-0.4,1.3-0.7,2.3-0.7c1.4,0,2.1,0.7,2.1,1.9l0,3.5h-1.1V305.8z
		 M142.8,304.6v-0.5h-1.4c-0.7,0-1.1,0.2-1.1,0.7c0,0.5,0.4,0.8,1,0.8C142.1,305.6,142.7,305.1,142.8,304.6z"/>
	<path class="st4" d="M148.4,306.1c-0.4,0.3-0.9,0.4-1.3,0.4c-0.8,0-1.5-0.5-1.5-1.5v-2.8h-0.7v-0.9h0.7v-1.5h1.1v1.5h1.6v0.9h-1.6
		v2.5c0,0.5,0.2,0.7,0.6,0.7c0.2,0,0.5-0.1,0.8-0.2L148.4,306.1z"/>
	<path class="st4" d="M154.1,304.2h-4c0.2,0.8,0.8,1.3,1.6,1.3c0.6,0,1.1-0.2,1.5-0.6l0.6,0.6c-0.5,0.6-1.3,0.9-2.2,0.9
		c-1.6,0-2.7-1.1-2.7-2.7c0-1.6,1.1-2.7,2.7-2.7C153.5,301.1,154.3,302.3,154.1,304.2z M153.1,303.4c0-0.9-0.6-1.4-1.5-1.4
		c-0.8,0-1.4,0.5-1.6,1.4H153.1z"/>
	<path d="M156.2,305.9c0,0.2-0.1,0.4-0.2,0.5l-0.6,0.9h-0.6l0.4-0.9c-0.2-0.1-0.3-0.3-0.3-0.5c0-0.4,0.3-0.6,0.6-0.6
		C155.9,305.2,156.2,305.5,156.2,305.9z M154.9,302.9c0-0.4,0.3-0.6,0.6-0.6c0.4,0,0.6,0.3,0.6,0.6c0,0.4-0.3,0.7-0.6,0.7
		C155.2,303.6,154.9,303.3,154.9,302.9z"/>
	<path d="M6.4,317.8H6.1c-0.3,0-0.4,0.1-0.4,0.5v2.1c0,0.9-0.4,1.3-1.6,1.3H3.7v-0.9c0.7,0,1-0.2,1-0.7v-1.6c0-0.6,0.2-0.9,0.7-1.1
		c-0.5-0.1-0.7-0.4-0.7-1.1v-1.6c0-0.5-0.2-0.7-1-0.7V313h0.4c1.1,0,1.6,0.3,1.6,1.3v2.1c0,0.4,0.1,0.5,0.4,0.5h0.3V317.8z"/>
	<path class="st1" d="M8.8,345.8c0,1.6-1,2.7-2.5,2.7c-0.8,0-1.5-0.3-1.9-1v2.9H3.3v-7.3h1.1v0.9c0.4-0.6,1-1,1.9-1
		C7.8,343.1,8.8,344.2,8.8,345.8z M7.7,345.8c0-1-0.7-1.7-1.6-1.7c-0.9,0-1.6,0.7-1.6,1.7c0,1,0.7,1.7,1.6,1.7
		C7,347.5,7.7,346.8,7.7,345.8z"/>
	<path class="st1" d="M14.9,348.4h-1.1v-1c-0.4,0.7-1,1.1-1.9,1.1c-1.2,0-1.9-0.8-1.9-2v-3.3H11v3c0,0.8,0.5,1.3,1.2,1.3
		c0.9,0,1.5-0.7,1.5-1.7v-2.6h1.1V348.4z"/>
	<path class="st1" d="M22.2,345.8c0,1.6-1,2.7-2.5,2.7c-0.8,0-1.5-0.3-1.9-1v0.9h-1.1V341h1.1v3c0.4-0.6,1-1,1.9-1
		C21.1,343.1,22.2,344.2,22.2,345.8z M21,345.8c0-1-0.7-1.7-1.6-1.7c-0.9,0-1.6,0.7-1.6,1.7c0,1,0.7,1.7,1.6,1.7
		C20.3,347.5,21,346.8,21,345.8z"/>
	<path class="st1" d="M23.4,348.4V341h1.1v7.4H23.4z"/>
	<path class="st1" d="M27.5,341.6c0,0.4-0.3,0.7-0.7,0.7c-0.4,0-0.7-0.3-0.7-0.7c0-0.4,0.3-0.7,0.7-0.7
		C27.3,340.9,27.5,341.2,27.5,341.6z M26.3,348.4v-5.3h1.1v5.3H26.3z"/>
	<path class="st1" d="M33.5,343.9l-0.6,0.7c-0.4-0.4-0.9-0.6-1.5-0.6c-0.9,0-1.6,0.7-1.6,1.7s0.7,1.7,1.6,1.7c0.7,0,1.2-0.2,1.6-0.6
		l0.6,0.6c-0.5,0.6-1.2,1-2.3,1c-1.6,0-2.7-1.1-2.7-2.7c0-1.6,1.1-2.7,2.7-2.7C32.3,343.1,33,343.4,33.5,343.9z"/>
	<path class="st1" d="M38.6,348.4l-2.1-5.3h1.2l1.5,4.2l1.5-4.2h1.1l-2,5.3H38.6z"/>
	<path class="st1" d="M47.5,345.8c0,1.6-1.1,2.7-2.8,2.7c-1.6,0-2.8-1.1-2.8-2.7c0-1.6,1.1-2.7,2.8-2.7
		C46.3,343.1,47.5,344.2,47.5,345.8z M43.1,345.8c0,1,0.7,1.7,1.6,1.7c0.9,0,1.6-0.7,1.6-1.7c0-1-0.7-1.7-1.6-1.7
		C43.7,344.1,43.1,344.8,43.1,345.8z"/>
	<path class="st1" d="M49.9,341.6c0,0.4-0.3,0.7-0.7,0.7s-0.7-0.3-0.7-0.7c0-0.4,0.3-0.7,0.7-0.7S49.9,341.2,49.9,341.6z
		 M48.7,348.4v-5.3h1.1v5.3H48.7z"/>
	<path class="st1" d="M56.6,348.4h-1.1v-0.9c-0.4,0.6-1,1-1.9,1c-1.5,0-2.5-1.1-2.5-2.7c0-1.6,1-2.7,2.5-2.7c0.9,0,1.5,0.3,1.9,1v-3
		h1.1V348.4z M55.4,345.8c0-1-0.7-1.7-1.6-1.7c-1,0-1.6,0.7-1.6,1.7c0,1,0.7,1.7,1.6,1.7C54.8,347.5,55.4,346.8,55.4,345.8z"/>
	<path d="M64.4,343.6l-0.4,0.8c-0.5-0.3-1.1-0.5-1.5-0.5c-0.4,0-0.8,0.1-0.8,0.5c0,1,2.8,0.5,2.8,2.4c0,1.1-1,1.6-2,1.6
		c-0.8,0-1.6-0.3-2.1-0.7l0.4-0.8c0.5,0.4,1.2,0.7,1.8,0.7c0.5,0,0.9-0.2,0.9-0.6c0-1.1-2.8-0.5-2.8-2.4c0-1.1,0.9-1.5,2-1.5
		C63.2,343.1,63.9,343.3,64.4,343.6z"/>
	<path d="M70.3,346.2h-4c0.2,0.8,0.8,1.3,1.6,1.3c0.6,0,1.1-0.2,1.5-0.6l0.6,0.6c-0.5,0.6-1.3,0.9-2.2,0.9c-1.6,0-2.7-1.1-2.7-2.7
		c0-1.6,1.1-2.7,2.7-2.7C69.7,343.1,70.4,344.3,70.3,346.2z M69.3,345.4c0-0.9-0.6-1.4-1.5-1.4c-0.8,0-1.4,0.5-1.6,1.4H69.3z"/>
	<path d="M74.5,348.1c-0.4,0.3-0.9,0.4-1.3,0.4c-0.8,0-1.5-0.5-1.5-1.5v-2.8h-0.8v-0.9h0.8v-1.5h1.1v1.5h1.6v0.9h-1.6v2.5
		c0,0.5,0.2,0.7,0.6,0.7c0.2,0,0.5-0.1,0.8-0.2L74.5,348.1z"/>
	<path d="M78.2,342.5v5.9H77v-5.9h-2.2v-1.1h5.6v1.1H78.2z"/>
	<path d="M82.6,341.6c0,0.4-0.3,0.7-0.7,0.7c-0.4,0-0.7-0.3-0.7-0.7c0-0.4,0.3-0.7,0.7-0.7C82.3,340.9,82.6,341.2,82.6,341.6z
		 M81.3,348.4v-5.3h1.1v5.3H81.3z"/>
	<path d="M87.2,348.1c-0.4,0.3-0.9,0.4-1.3,0.4c-0.8,0-1.5-0.5-1.5-1.5v-2.8h-0.8v-0.9h0.8v-1.5h1.1v1.5h1.6v0.9h-1.6v2.5
		c0,0.5,0.2,0.7,0.6,0.7c0.2,0,0.5-0.1,0.8-0.2L87.2,348.1z"/>
	<path d="M88.3,348.4V341h1.1v7.4H88.3z"/>
	<path d="M95.9,346.2h-4c0.2,0.8,0.8,1.3,1.6,1.3c0.6,0,1.1-0.2,1.5-0.6l0.6,0.6c-0.5,0.6-1.3,0.9-2.2,0.9c-1.6,0-2.7-1.1-2.7-2.7
		c0-1.6,1.1-2.7,2.7-2.7C95.3,343.1,96,344.3,95.9,346.2z M94.9,345.4c0-0.9-0.6-1.4-1.5-1.4c-0.8,0-1.4,0.5-1.6,1.4H94.9z"/>
	<path d="M100.5,343.6l-0.4,0.8c-0.5-0.3-1.1-0.5-1.5-0.5c-0.4,0-0.8,0.1-0.8,0.5c0,1,2.8,0.5,2.8,2.4c0,1.1-1,1.6-2,1.6
		c-0.8,0-1.6-0.3-2.1-0.7l0.4-0.8c0.5,0.4,1.2,0.7,1.8,0.7c0.5,0,0.9-0.2,0.9-0.6c0-1.1-2.8-0.5-2.8-2.4c0-1.1,0.9-1.5,2-1.5
		C99.3,343.1,100.1,343.3,100.5,343.6z"/>
	<path d="M104,341c-0.7,1.1-1.2,2.7-1.2,4.3c0,1.7,0.5,3.2,1.2,4.3h-1c-0.8-1.1-1.2-2.7-1.2-4.3c0-1.7,0.4-3.2,1.2-4.3H104z"/>
	<path class="st2" d="M106.2,341.6c0,0.4-0.3,0.7-0.7,0.7c-0.4,0-0.7-0.3-0.7-0.7c0-0.4,0.3-0.7,0.7-0.7
		C105.9,340.9,106.2,341.2,106.2,341.6z M105,348.4v-5.3h1.1v5.3H105z"/>
	<path class="st2" d="M112.9,345.1v3.3h-1.1v-3c0-0.8-0.5-1.3-1.3-1.3c-0.9,0-1.4,0.6-1.5,1.4v2.8h-1.1v-5.3h1.1v1
		c0.4-0.7,1.1-1.1,2-1.1C112.2,343.1,112.9,343.9,112.9,345.1z"/>
	<path class="st2" d="M117.5,348.1c-0.4,0.3-0.9,0.4-1.3,0.4c-0.8,0-1.5-0.5-1.5-1.5v-2.8h-0.7v-0.9h0.7v-1.5h1.1v1.5h1.6v0.9h-1.6
		v2.5c0,0.5,0.2,0.7,0.6,0.7c0.2,0,0.5-0.1,0.8-0.2L117.5,348.1z"/>
	<path class="st4" d="M124.1,348.1c-0.4,0.3-0.9,0.4-1.3,0.4c-0.8,0-1.5-0.5-1.5-1.5v-2.8h-0.8v-0.9h0.8v-1.5h1.1v1.5h1.6v0.9h-1.6
		v2.5c0,0.5,0.2,0.7,0.6,0.7c0.2,0,0.5-0.1,0.8-0.2L124.1,348.1z"/>
	<path class="st4" d="M126.4,341.6c0,0.4-0.3,0.7-0.7,0.7s-0.7-0.3-0.7-0.7c0-0.4,0.3-0.7,0.7-0.7S126.4,341.2,126.4,341.6z
		 M125.2,348.4v-5.3h1.1v5.3H125.2z"/>
	<path class="st4" d="M131,348.1c-0.4,0.3-0.9,0.4-1.3,0.4c-0.8,0-1.5-0.5-1.5-1.5v-2.8h-0.8v-0.9h0.8v-1.5h1.1v1.5h1.6v0.9h-1.6
		v2.5c0,0.5,0.2,0.7,0.6,0.7c0.2,0,0.5-0.1,0.8-0.2L131,348.1z"/>
	<path class="st4" d="M132.1,348.4V341h1.1v7.4H132.1z"/>
	<path class="st4" d="M139.7,346.2h-4c0.2,0.8,0.8,1.3,1.6,1.3c0.6,0,1.1-0.2,1.5-0.6l0.6,0.6c-0.5,0.6-1.3,0.9-2.2,0.9
		c-1.6,0-2.7-1.1-2.7-2.7c0-1.6,1.1-2.7,2.7-2.7C139.1,343.1,139.8,344.3,139.7,346.2z M138.7,345.4c0-0.9-0.6-1.4-1.5-1.4
		c-0.8,0-1.4,0.5-1.6,1.4H138.7z"/>
	<path class="st4" d="M144.4,343.6l-0.4,0.8c-0.5-0.3-1.1-0.5-1.5-0.5c-0.4,0-0.8,0.1-0.8,0.5c0,1,2.8,0.5,2.8,2.4
		c0,1.1-1,1.6-2,1.6c-0.8,0-1.6-0.3-2.1-0.7l0.4-0.8c0.5,0.4,1.2,0.7,1.8,0.7c0.5,0,0.9-0.2,0.9-0.6c0-1.1-2.8-0.5-2.8-2.4
		c0-1.1,0.9-1.5,2-1.5C143.2,343.1,143.9,343.3,144.4,343.6z"/>
	<path d="M147,341c0.8,1.1,1.2,2.7,1.2,4.3c0,1.7-0.4,3.2-1.2,4.3h-1c0.7-1.1,1.2-2.7,1.2-4.3c0-1.7-0.4-3.2-1.2-4.3H147z"/>
	<path d="M155.5,344.3c0,0.6-0.2,1-0.7,1.1c0.5,0.1,0.7,0.4,0.7,1.1v1.6c0,0.5,0.2,0.7,1,0.7v0.9H156c-1.1,0-1.6-0.4-1.6-1.3v-2.1
		c0-0.4-0.1-0.5-0.4-0.5h-0.3v-0.9h0.3c0.3,0,0.4-0.2,0.4-0.5v-2.1c0-0.9,0.4-1.3,1.6-1.3h0.4v0.9c-0.7,0-1,0.2-1,0.7V344.3z"/>
	<path class="st1" d="M26.9,362.1c-0.4,0.3-0.9,0.4-1.3,0.4c-0.8,0-1.5-0.5-1.5-1.5v-2.8h-0.7v-0.9h0.7v-1.5h1.1v1.5h1.6v0.9h-1.6
		v2.5c0,0.5,0.2,0.7,0.6,0.7c0.2,0,0.5-0.1,0.8-0.2L26.9,362.1z"/>
	<path class="st1" d="M33.1,359.1v3.3h-1.1v-3c0-0.8-0.5-1.3-1.3-1.3c-0.9,0-1.5,0.7-1.5,1.7v2.6H28V355h1.1v3.1
		c0.4-0.8,1.1-1.1,2-1.1C32.3,357.1,33.1,357.9,33.1,359.1z"/>
	<path class="st1" d="M35.9,355.6c0,0.4-0.3,0.7-0.7,0.7c-0.4,0-0.7-0.3-0.7-0.7c0-0.4,0.3-0.7,0.7-0.7
		C35.6,354.9,35.9,355.2,35.9,355.6z M34.6,362.4v-5.3h1.1v5.3H34.6z"/>
	<path class="st1" d="M40.9,357.6l-0.4,0.8c-0.5-0.3-1.1-0.5-1.5-0.5c-0.4,0-0.8,0.1-0.8,0.5c0,1,2.8,0.5,2.8,2.4c0,1.1-1,1.6-2,1.6
		c-0.8,0-1.6-0.3-2.1-0.7l0.4-0.8c0.5,0.4,1.2,0.7,1.8,0.7c0.5,0,0.9-0.2,0.9-0.6c0-1.1-2.8-0.5-2.8-2.4c0-1.1,0.9-1.5,2-1.5
		C39.7,357.1,40.4,357.3,40.9,357.6z"/>
	<path d="M45.6,361.9c0,0.4-0.3,0.7-0.6,0.7c-0.4,0-0.6-0.3-0.6-0.7c0-0.4,0.3-0.6,0.6-0.6C45.3,361.2,45.6,361.5,45.6,361.9z"/>
	<path class="st2" d="M52.5,362.1c-0.4,0.3-0.9,0.4-1.3,0.4c-0.8,0-1.5-0.5-1.5-1.5v-2.8H49v-0.9h0.7v-1.5h1.1v1.5h1.6v0.9h-1.6v2.5
		c0,0.5,0.2,0.7,0.6,0.7c0.2,0,0.5-0.1,0.8-0.2L52.5,362.1z"/>
	<path class="st2" d="M54.8,355.6c0,0.4-0.3,0.7-0.7,0.7s-0.7-0.3-0.7-0.7c0-0.4,0.3-0.7,0.7-0.7S54.8,355.2,54.8,355.6z
		 M53.6,362.4v-5.3h1.1v5.3H53.6z"/>
	<path class="st2" d="M59.4,362.1c-0.4,0.3-0.9,0.4-1.3,0.4c-0.8,0-1.5-0.5-1.5-1.5v-2.8h-0.8v-0.9h0.8v-1.5h1.1v1.5h1.6v0.9h-1.6
		v2.5c0,0.5,0.2,0.7,0.6,0.7c0.2,0,0.5-0.1,0.8-0.2L59.4,362.1z"/>
	<path class="st2" d="M60.5,362.4V355h1.1v7.4H60.5z"/>
	<path class="st2" d="M68.1,360.2h-4c0.2,0.8,0.8,1.3,1.6,1.3c0.6,0,1.1-0.2,1.5-0.6l0.6,0.6c-0.5,0.6-1.3,0.9-2.2,0.9
		c-1.6,0-2.7-1.1-2.7-2.7c0-1.6,1.1-2.7,2.7-2.7C67.5,357.1,68.3,358.3,68.1,360.2z M67.1,359.4c0-0.9-0.6-1.4-1.5-1.4
		c-0.8,0-1.4,0.5-1.6,1.4H67.1z"/>
	<path class="st2" d="M72.8,357.6l-0.4,0.8c-0.5-0.3-1.1-0.5-1.5-0.5c-0.4,0-0.8,0.1-0.8,0.5c0,1,2.8,0.5,2.8,2.4c0,1.1-1,1.6-2,1.6
		c-0.8,0-1.6-0.3-2.1-0.7l0.4-0.8c0.5,0.4,1.2,0.7,1.8,0.7c0.5,0,0.9-0.2,0.9-0.6c0-1.1-2.8-0.5-2.8-2.4c0-1.1,0.9-1.5,2-1.5
		C71.6,357.1,72.3,357.3,72.8,357.6z"/>
	<path d="M76.1,358.5v-0.8h4.3v0.8H76.1z M76.1,360.6v-0.8h4.3v0.8H76.1z"/>
	<path class="st4" d="M87.2,362.1c-0.4,0.3-0.9,0.4-1.3,0.4c-0.8,0-1.5-0.5-1.5-1.5v-2.8h-0.7v-0.9h0.7v-1.5h1.1v1.5h1.6v0.9h-1.6
		v2.5c0,0.5,0.2,0.7,0.6,0.7c0.2,0,0.5-0.1,0.8-0.2L87.2,362.1z"/>
	<path class="st4" d="M89.5,355.6c0,0.4-0.3,0.7-0.7,0.7s-0.7-0.3-0.7-0.7c0-0.4,0.3-0.7,0.7-0.7S89.5,355.2,89.5,355.6z
		 M88.2,362.4v-5.3h1.1v5.3H88.2z"/>
	<path class="st4" d="M94.1,362.1c-0.4,0.3-0.9,0.4-1.3,0.4c-0.8,0-1.5-0.5-1.5-1.5v-2.8h-0.8v-0.9h0.8v-1.5h1.1v1.5H94v0.9h-1.6
		v2.5c0,0.5,0.2,0.7,0.6,0.7c0.2,0,0.5-0.1,0.8-0.2L94.1,362.1z"/>
	<path class="st4" d="M95.2,362.4V355h1.1v7.4H95.2z"/>
	<path class="st4" d="M102.8,360.2h-4c0.2,0.8,0.8,1.3,1.6,1.3c0.6,0,1.1-0.2,1.5-0.6l0.6,0.6c-0.5,0.6-1.3,0.9-2.2,0.9
		c-1.6,0-2.7-1.1-2.7-2.7c0-1.6,1.1-2.7,2.7-2.7C102.1,357.1,102.9,358.3,102.8,360.2z M101.8,359.4c0-0.9-0.6-1.4-1.5-1.4
		c-0.8,0-1.4,0.5-1.6,1.4H101.8z"/>
	<path class="st4" d="M107.4,357.6l-0.4,0.8c-0.5-0.3-1.1-0.5-1.5-0.5c-0.4,0-0.8,0.1-0.8,0.5c0,1,2.8,0.5,2.8,2.4
		c0,1.1-1,1.6-2,1.6c-0.8,0-1.6-0.3-2.1-0.7l0.4-0.8c0.5,0.4,1.2,0.7,1.8,0.7c0.5,0,0.9-0.2,0.9-0.6c0-1.1-2.8-0.5-2.8-2.4
		c0-1.1,0.9-1.5,2-1.5C106.2,357.1,106.9,357.3,107.4,357.6z"/>
	<path d="M109.5,361.9c0,0.2-0.1,0.4-0.2,0.5l-0.6,0.9h-0.6l0.4-0.9c-0.2-0.1-0.3-0.3-0.3-0.5c0-0.4,0.3-0.6,0.6-0.6
		C109.2,361.2,109.5,361.5,109.5,361.9z M108.3,358.9c0-0.4,0.3-0.6,0.6-0.6c0.4,0,0.6,0.3,0.6,0.6c0,0.4-0.3,0.7-0.6,0.7
		C108.5,359.6,108.3,359.3,108.3,358.9z"/>
	<path d="M6.4,373.8H6.1c-0.3,0-0.4,0.1-0.4,0.5v2.1c0,0.9-0.4,1.3-1.6,1.3H3.7v-0.9c0.7,0,1-0.2,1-0.7v-1.6c0-0.6,0.2-0.9,0.7-1.1
		c-0.5-0.1-0.7-0.4-0.7-1.1v-1.6c0-0.5-0.2-0.7-1-0.7V369h0.4c1.1,0,1.6,0.3,1.6,1.3v2.1c0,0.4,0.1,0.5,0.4,0.5h0.3V373.8z"/>
	<path d="M-14.2,387.8h-0.3c-0.3,0-0.4,0.1-0.4,0.5v2.1c0,0.9-0.4,1.3-1.6,1.3H-17v-0.9c0.7,0,1-0.2,1-0.7v-1.6
		c0-0.6,0.2-0.9,0.7-1.1c-0.5-0.1-0.7-0.4-0.7-1.1v-1.6c0-0.5-0.2-0.7-1-0.7V383h0.4c1.1,0,1.6,0.3,1.6,1.3v2.1
		c0,0.4,0.1,0.5,0.4,0.5h0.3V387.8z"/>
</g>
<polyline id="XMLID_33_" class="st5" points="-9.4,128.7 -4.9,122.3 -11.3,117.8 "/>
<polyline id="XMLID_2_" class="st5" points="-10.6,182.6 -4.9,177.3 -10.2,171.6 "/>
<polyline id="XMLID_5_" class="st5" points="-11.3,238.6 -4.5,234.7 -8.4,227.9 "/>
<polyline id="XMLID_6_" class="st5" points="-10.6,292.4 -3.6,289 -7,281.9 "/>
<polyline id="XMLID_7_" class="st5" points="-11.3,349.3 -3.8,347 -6.2,339.5 "/>
<line id="XMLID_32_" class="st5" x1="-4.8" y1="122.5" x2="-333.4" y2="162.7"/>
<line class="st5" x1="-279.2" y1="177.3" x2="-4.9" y2="177.3"/>
<line class="st5" x1="-233" y1="191.7" x2="-4.9" y2="234.4"/>
<line class="st5" x1="-241.6" y1="207.7" x2="-4.9" y2="288.6"/>
<line class="st5" x1="-312.4" y1="220" x2="-4.9" y2="346.4"/>
</svg>
