<?xml version="1.0" encoding="utf-8"?>
<!-- Generator: Adobe Illustrator 19.0.0, SVG Export Plug-In . SVG Version: 6.00 Build 0)  -->
<svg version="1.1" id="Layer_1" xmlns="http://www.w3.org/2000/svg" xmlns:xlink="http://www.w3.org/1999/xlink" x="0px" y="0px"
	 viewBox="0 0 537.2 288" style="enable-background:new 0 0 537.2 288;" xml:space="preserve">
<style type="text/css">
	.st0{fill:#619E43;stroke:#000000;stroke-width:2;stroke-miterlimit:10;}
	.st1{fill:#FFFFFF;}
	.st2{fill:#7DC245;stroke:#000000;stroke-width:2;stroke-miterlimit:10;}
	.st3{fill:#A6CE3D;stroke:#000000;stroke-width:2;stroke-miterlimit:10;}
</style>
<g id="XMLID_279_">
	<g id="XMLID_881_">
		<path id="XMLID_925_" d="M26.3,4.3h2.8v12.6h-2.8v-5h-5v5h-2.8V4.3h2.8v5.3h5V4.3z"/>
		<path id="XMLID_923_" d="M37.6,6.7v10.2h-2.8V6.7h-3.6V4.3h9.9v2.4H37.6z"/>
		<path id="XMLID_921_" d="M48.5,6.7v10.2h-2.8V6.7h-3.6V4.3h9.9v2.4H48.5z"/>
		<path id="XMLID_918_" d="M62.8,5.4c0.9,0.8,1.3,1.9,1.3,3.5s-0.5,2.7-1.4,3.4c-0.9,0.7-2.3,1.1-4.1,1.1h-1.7v3.5h-2.8V4.3h4.4
			C60.5,4.3,61.9,4.7,62.8,5.4z M60.7,10.4c0.3-0.4,0.5-0.9,0.5-1.7c0-0.7-0.2-1.2-0.7-1.5s-1.1-0.5-2-0.5h-1.6v4.2h1.9
			C59.8,10.9,60.4,10.7,60.7,10.4z"/>
		<path id="XMLID_915_" d="M81.3,8.5c0,2-0.8,3.3-2.4,3.9l3.2,4.5h-3.5l-2.8-4h-1.9v4h-2.8V4.3h4.8c2,0,3.4,0.3,4.2,1
			S81.3,7,81.3,8.5z M77.9,10c0.3-0.3,0.5-0.8,0.5-1.5c0-0.7-0.2-1.1-0.5-1.4s-1-0.4-1.9-0.4h-2.1v3.7h2.1
			C76.9,10.4,77.6,10.3,77.9,10z"/>
		<path id="XMLID_912_" d="M92.3,15.5c-1.1,1-2.4,1.5-3.8,1.5c-1.5,0-2.7-0.5-3.6-1.4c-1-0.9-1.4-2.1-1.4-3.6c0-1.5,0.5-2.7,1.5-3.6
			S87,7,88.3,7s2.5,0.4,3.4,1.2c0.9,0.8,1.4,1.9,1.4,3.3V13H86c0.1,0.5,0.4,1,0.8,1.3c0.5,0.3,1,0.5,1.6,0.5c0.9,0,1.7-0.3,2.3-1
			L92.3,15.5z M89.7,9.7c-0.4-0.3-0.8-0.5-1.4-0.5s-1,0.2-1.5,0.5c-0.4,0.3-0.7,0.8-0.8,1.3h4.2C90.3,10.5,90.1,10,89.7,9.7z"/>
		<path id="XMLID_909_" d="M95.9,15.6c-0.9-0.9-1.4-2.1-1.4-3.6s0.5-2.7,1.4-3.6c0.9-0.9,1.9-1.4,3-1.4c1.1,0,2.1,0.4,2.9,1.2V7.2
			h2.7v13.2h-2.7v-4.3c-0.8,0.6-1.6,0.9-2.6,0.9C97.9,17,96.8,16.5,95.9,15.6z M97.2,12c0,0.8,0.2,1.4,0.7,1.9
			c0.5,0.5,1,0.7,1.6,0.7s1.2-0.2,1.6-0.7c0.4-0.5,0.6-1.1,0.6-1.9s-0.2-1.4-0.6-2c-0.4-0.5-1-0.8-1.6-0.8s-1.2,0.3-1.6,0.8
			C97.4,10.6,97.2,11.2,97.2,12z"/>
		<path id="XMLID_907_" d="M113.3,12.4V7.2h2.7v9.7h-2.7v-1.3c-0.7,0.9-1.5,1.4-2.6,1.4s-2-0.3-2.7-1s-1.1-1.7-1.1-3V7.2h2.7v5.3
			c0,1.5,0.5,2.2,1.6,2.2c0.5,0,1-0.2,1.4-0.6S113.3,13.1,113.3,12.4z"/>
		<path id="XMLID_904_" d="M126.9,15.5c-1.1,1-2.4,1.5-3.8,1.5c-1.5,0-2.7-0.5-3.6-1.4c-1-0.9-1.4-2.1-1.4-3.6
			c0-1.5,0.5-2.7,1.5-3.6s2.1-1.3,3.5-1.3s2.5,0.4,3.4,1.2c0.9,0.8,1.4,1.9,1.4,3.3V13h-7.1c0.1,0.5,0.4,1,0.8,1.3
			c0.5,0.3,1,0.5,1.6,0.5c0.9,0,1.7-0.3,2.3-1L126.9,15.5z M124.3,9.7c-0.4-0.3-0.8-0.5-1.4-0.5s-1,0.2-1.5,0.5
			c-0.4,0.3-0.7,0.8-0.8,1.3h4.2C124.9,10.5,124.7,10,124.3,9.7z"/>
		<path id="XMLID_902_" d="M136.9,13.9c0,1-0.4,1.7-1.1,2.3c-0.7,0.6-1.6,0.9-2.7,0.9c-0.7,0-1.5-0.1-2.3-0.4
			c-0.8-0.3-1.5-0.6-2.1-1.1l1.2-1.7c1,0.8,2.1,1.2,3.2,1.2c0.3,0,0.6-0.1,0.8-0.2c0.2-0.1,0.3-0.3,0.3-0.5c0-0.2-0.1-0.4-0.4-0.6
			c-0.3-0.2-0.7-0.4-1.2-0.5c-0.5-0.2-0.9-0.3-1.2-0.4c-0.3-0.1-0.6-0.3-1-0.5c-0.7-0.5-1.1-1.1-1.1-2c0-0.9,0.4-1.6,1.1-2.2
			c0.7-0.6,1.6-0.8,2.8-0.8s2.3,0.4,3.4,1.2l-1,1.8c-0.8-0.6-1.7-0.9-2.5-0.9c-0.8,0-1.3,0.2-1.3,0.7c0,0.3,0.1,0.5,0.4,0.6
			c0.3,0.1,0.7,0.3,1.3,0.5c0.6,0.2,1,0.3,1.3,0.4c0.3,0.1,0.6,0.3,0.9,0.5C136.6,12.2,136.9,12.9,136.9,13.9z"/>
		<path id="XMLID_900_" d="M142.2,9.1v4.3c0,0.4,0.1,0.7,0.3,0.9c0.2,0.2,0.4,0.3,0.7,0.3c0.5,0,0.9-0.2,1.3-0.7l1,1.9
			c-0.8,0.8-1.7,1.2-2.7,1.2c-0.9,0-1.7-0.3-2.4-0.9c-0.6-0.6-1-1.4-1-2.5V9.1h-1.1V7.2h1.1V4.3h2.7v2.9h2.3v1.9H142.2z"/>
		<path id="XMLID_898_" d="M163.1,8.9l-3.4,6.9h-1.7l-3.4-6.9v7.9h-2.8V4.3h3.8l3.2,6.9l3.3-6.9h3.8v12.6h-2.8V8.9z"/>
		<path id="XMLID_895_" d="M177.2,15.5c-1.1,1-2.4,1.5-3.8,1.5s-2.7-0.5-3.6-1.4c-1-0.9-1.4-2.1-1.4-3.6c0-1.5,0.5-2.7,1.5-3.6
			c1-0.9,2.1-1.3,3.5-1.3s2.5,0.4,3.4,1.2c0.9,0.8,1.4,1.9,1.4,3.3V13h-7.1c0.1,0.5,0.4,1,0.8,1.3s1,0.5,1.6,0.5
			c0.9,0,1.7-0.3,2.3-1L177.2,15.5z M174.6,9.7c-0.4-0.3-0.8-0.5-1.4-0.5s-1,0.2-1.5,0.5s-0.7,0.8-0.8,1.3h4.2
			C175.2,10.5,174.9,10,174.6,9.7z"/>
		<path id="XMLID_893_" d="M187.2,13.9c0,1-0.4,1.7-1.1,2.3c-0.7,0.6-1.6,0.9-2.7,0.9c-0.7,0-1.5-0.1-2.3-0.4
			c-0.8-0.3-1.5-0.6-2.1-1.1l1.2-1.7c1,0.8,2.1,1.2,3.2,1.2c0.3,0,0.6-0.1,0.8-0.2c0.2-0.1,0.3-0.3,0.3-0.5c0-0.2-0.1-0.4-0.4-0.6
			c-0.3-0.2-0.7-0.4-1.2-0.5c-0.5-0.2-0.9-0.3-1.2-0.4s-0.6-0.3-1-0.5c-0.7-0.5-1.1-1.1-1.1-2c0-0.9,0.4-1.6,1.1-2.2
			c0.7-0.6,1.6-0.8,2.8-0.8c1.1,0,2.3,0.4,3.4,1.2l-1,1.8c-0.8-0.6-1.7-0.9-2.5-0.9s-1.3,0.2-1.3,0.7c0,0.3,0.1,0.5,0.4,0.6
			c0.3,0.1,0.7,0.3,1.3,0.5c0.6,0.2,1,0.3,1.3,0.4c0.3,0.1,0.6,0.3,0.9,0.5C186.9,12.2,187.2,12.9,187.2,13.9z"/>
		<path id="XMLID_891_" d="M196.6,13.9c0,1-0.4,1.7-1.1,2.3s-1.6,0.9-2.7,0.9c-0.7,0-1.5-0.1-2.3-0.4s-1.5-0.6-2.1-1.1l1.2-1.7
			c1,0.8,2.1,1.2,3.2,1.2c0.3,0,0.6-0.1,0.8-0.2c0.2-0.1,0.3-0.3,0.3-0.5c0-0.2-0.1-0.4-0.4-0.6c-0.3-0.2-0.7-0.4-1.2-0.5
			s-0.9-0.3-1.2-0.4c-0.3-0.1-0.6-0.3-1-0.5c-0.7-0.5-1.1-1.1-1.1-2c0-0.9,0.4-1.6,1.1-2.2c0.7-0.6,1.6-0.8,2.8-0.8
			c1.1,0,2.3,0.4,3.4,1.2l-1,1.8c-0.8-0.6-1.7-0.9-2.5-0.9c-0.8,0-1.3,0.2-1.3,0.7c0,0.3,0.1,0.5,0.4,0.6c0.3,0.1,0.7,0.3,1.3,0.5
			c0.6,0.2,1,0.3,1.3,0.4c0.3,0.1,0.6,0.3,0.9,0.5C196.2,12.2,196.6,12.9,196.6,13.9z"/>
		<path id="XMLID_888_" d="M206.9,16.9h-2.5v-1.2c-0.7,0.9-1.6,1.3-2.6,1.3c-1,0-1.9-0.3-2.6-0.9c-0.7-0.6-1-1.4-1-2.4
			s0.4-1.7,1.1-2.2c0.7-0.5,1.7-0.7,3-0.7h2v-0.1c0-1-0.5-1.5-1.6-1.5c-0.5,0-1,0.1-1.5,0.3c-0.5,0.2-1,0.4-1.3,0.7l-1.2-1.7
			c1.3-0.9,2.7-1.4,4.4-1.4c1.2,0,2.1,0.3,2.9,0.9c0.7,0.6,1.1,1.5,1.1,2.8V16.9z M204.1,13.2v-0.5h-1.7c-1.1,0-1.6,0.3-1.6,1
			c0,0.3,0.1,0.6,0.4,0.8c0.3,0.2,0.6,0.3,1.1,0.3c0.5,0,0.9-0.1,1.3-0.4S204.1,13.7,204.1,13.2z"/>
		<path id="XMLID_885_" d="M216.5,15.2c-0.9,0.9-1.9,1.4-3.2,1.4s-2.3-0.4-3.2-1.3c-0.9-0.9-1.3-2-1.3-3.4c0-1.4,0.4-2.6,1.3-3.5
			s1.9-1.4,3.1-1.4c1.2,0,2.1,0.5,2.9,1.4V7.2h2.7v8.4c0,0.9-0.2,1.6-0.5,2.3s-0.7,1.2-1.2,1.6c-1,0.8-2.2,1.2-3.5,1.2
			c-0.7,0-1.5-0.1-2.2-0.4c-0.8-0.2-1.4-0.6-2-1l1-2c0.9,0.7,1.8,1,2.8,1s1.8-0.2,2.3-0.7C216.2,17.1,216.5,16.3,216.5,15.2z
			 M216.1,11.8c0-0.8-0.2-1.4-0.6-1.8c-0.4-0.4-1-0.7-1.6-0.7s-1.2,0.2-1.6,0.7c-0.5,0.4-0.7,1-0.7,1.8c0,0.8,0.2,1.4,0.7,1.9
			c0.5,0.5,1,0.7,1.6,0.7c0.6,0,1.2-0.2,1.6-0.7C215.9,13.2,216.1,12.6,216.1,11.8z"/>
		<path id="XMLID_882_" d="M229.7,15.5c-1.1,1-2.4,1.5-3.8,1.5c-1.5,0-2.7-0.5-3.6-1.4s-1.4-2.1-1.4-3.6c0-1.5,0.5-2.7,1.5-3.6
			c1-0.9,2.1-1.3,3.5-1.3s2.5,0.4,3.4,1.2s1.4,1.9,1.4,3.3V13h-7.1c0.1,0.5,0.4,1,0.8,1.3c0.5,0.3,1,0.5,1.6,0.5
			c0.9,0,1.7-0.3,2.3-1L229.7,15.5z M227.1,9.7c-0.4-0.3-0.8-0.5-1.4-0.5s-1,0.2-1.5,0.5c-0.4,0.3-0.7,0.8-0.8,1.3h4.2
			C227.7,10.5,227.5,10,227.1,9.7z"/>
	</g>
</g>
<rect id="XMLID_25_" x="4.1" y="28.3" class="st0" width="240" height="50"/>
<g id="XMLID_250_">
	<g id="XMLID_510_">
		<path id="XMLID_673_" class="st1" d="M79.1,55.7c-0.2,0-0.3,0-0.5,0h-2.7v3.4H74V47.9h4.5c2.9,0,4.5,1.4,4.5,3.8
			c0,1.8-0.8,3.1-2.3,3.6l2.5,3.7h-2.1L79.1,55.7z M78.6,54.1c1.7,0,2.7-0.7,2.7-2.3c0-1.5-1-2.2-2.7-2.2h-2.7v4.4H78.6z"/>
		<path id="XMLID_670_" class="st1" d="M93,55.6h-6.4c0.3,1.3,1.3,2.1,2.6,2.1c0.9,0,1.8-0.4,2.4-1l1,1c-0.8,0.9-2,1.4-3.5,1.4
			c-2.6,0-4.4-1.7-4.4-4.3c0-2.6,1.8-4.3,4.3-4.3C92,50.6,93.2,52.5,93,55.6z M91.4,54.2c-0.1-1.4-1-2.2-2.4-2.2
			c-1.3,0-2.3,0.8-2.5,2.2H91.4z"/>
		<path id="XMLID_667_" class="st1" d="M103,62.2h-1.8v-4.6c-0.6,1-1.6,1.5-3,1.5c-2.4,0-4.1-1.8-4.1-4.4c0-2.6,1.6-4.3,4-4.3
			c1.4,0,2.4,0.6,3,1.6v-1.5h1.8V62.2z M101.2,54.9c0-1.6-1.1-2.8-2.6-2.8S96,53.3,96,54.9c0,1.6,1.1,2.8,2.6,2.8
			C100.1,57.7,101.2,56.5,101.2,54.9z"/>
		<path id="XMLID_665_" class="st1" d="M113.6,59.1h-1.8v-1.7c-0.6,1.2-1.6,1.7-3,1.7c-2,0-3.1-1.2-3.1-3.3v-5.3h1.8v4.8
			c0,1.3,0.8,2.1,2,2.1c1.5,0,2.3-1.2,2.3-2.7v-4.2h1.8V59.1z"/>
		<path id="XMLID_662_" class="st1" d="M123.8,55.6h-6.4c0.3,1.3,1.3,2.1,2.6,2.1c0.9,0,1.8-0.4,2.4-1l1,1c-0.8,0.9-2,1.4-3.5,1.4
			c-2.6,0-4.4-1.7-4.4-4.3c0-2.6,1.8-4.3,4.3-4.3C122.8,50.6,124,52.5,123.8,55.6z M122.2,54.2c-0.1-1.4-1-2.2-2.4-2.2
			c-1.3,0-2.3,0.8-2.5,2.2H122.2z"/>
		<path id="XMLID_660_" class="st1" d="M131.2,51.4l-0.7,1.4c-0.8-0.5-1.7-0.8-2.4-0.8c-0.7,0-1.2,0.2-1.2,0.8
			c0,1.6,4.5,0.7,4.5,3.8c0,1.7-1.6,2.5-3.3,2.5c-1.2,0-2.6-0.4-3.4-1.2l0.7-1.3c0.7,0.7,1.9,1.1,2.8,1.1c0.8,0,1.4-0.3,1.4-0.9
			c0-1.7-4.5-0.8-4.5-3.8c0-1.7,1.5-2.5,3.1-2.5C129.3,50.5,130.4,50.9,131.2,51.4z"/>
		<path id="XMLID_522_" class="st1" d="M138,58.6c-0.7,0.4-1.4,0.6-2.1,0.6c-1.3,0-2.4-0.7-2.4-2.5v-4.4h-1.2v-1.4h1.2v-2.3h1.8v2.3
			h2.5v1.4h-2.5v4.1c0,0.9,0.3,1.2,0.9,1.2c0.4,0,0.8-0.1,1.3-0.4L138,58.6z"/>
		<path id="XMLID_520_" class="st1" d="M150.7,57.4v1.7H144V47.9h1.9v9.5H150.7z"/>
		<path id="XMLID_517_" class="st1" d="M154.4,48.2c0,0.6-0.5,1.1-1.1,1.1s-1.1-0.5-1.1-1.1c0-0.7,0.5-1.1,1.1-1.1
			S154.4,47.5,154.4,48.2z M152.4,59.1v-8.5h1.8v8.5H152.4z"/>
		<path id="XMLID_514_" class="st1" d="M165.1,53.8v5.3h-1.8v-4.8c0-1.3-0.8-2.1-2-2.1c-1.4,0-2.3,1-2.4,2.3v4.5h-1.8v-8.5h1.8v1.6
			c0.6-1.2,1.7-1.7,3.1-1.7C163.9,50.6,165.1,51.8,165.1,53.8z"/>
		<path id="XMLID_511_" class="st1" d="M175,55.6h-6.4c0.3,1.3,1.3,2.1,2.6,2.1c0.9,0,1.8-0.4,2.4-1l1,1c-0.8,0.9-2,1.4-3.5,1.4
			c-2.6,0-4.4-1.7-4.4-4.3c0-2.6,1.8-4.3,4.3-4.3C174,50.6,175.2,52.5,175,55.6z M173.4,54.2c-0.1-1.4-1-2.2-2.4-2.2
			c-1.3,0-2.3,0.8-2.5,2.2H173.4z"/>
	</g>
</g>
<rect id="XMLID_5_" x="4.1" y="78.3" class="st2" width="240" height="50"/>
<g id="XMLID_215_">
	<g id="XMLID_688_">
		<path id="XMLID_721_" class="st1" d="M66.6,104.7c-0.2,0-0.3,0-0.5,0h-2.7v3.4h-1.9V96.9h4.5c2.9,0,4.5,1.4,4.5,3.8
			c0,1.8-0.8,3.1-2.3,3.6l2.5,3.7h-2.1L66.6,104.7z M66.1,103.1c1.7,0,2.7-0.7,2.7-2.3c0-1.5-1-2.2-2.7-2.2h-2.7v4.4H66.1z"/>
		<path id="XMLID_718_" class="st1" d="M80.5,104.6h-6.4c0.3,1.3,1.3,2.1,2.6,2.1c0.9,0,1.8-0.4,2.4-1l1,1c-0.8,0.9-2,1.4-3.5,1.4
			c-2.6,0-4.4-1.7-4.4-4.3c0-2.6,1.8-4.3,4.3-4.3C79.5,99.6,80.7,101.5,80.5,104.6z M78.9,103.2c-0.1-1.4-1-2.2-2.4-2.2
			c-1.3,0-2.3,0.8-2.5,2.2H78.9z"/>
		<path id="XMLID_715_" class="st1" d="M90.5,111.2h-1.8v-4.6c-0.6,1-1.6,1.5-3,1.5c-2.4,0-4.1-1.8-4.1-4.4c0-2.6,1.6-4.3,4-4.3
			c1.4,0,2.4,0.6,3,1.6v-1.5h1.8V111.2z M88.7,103.9c0-1.6-1.1-2.8-2.6-2.8s-2.6,1.2-2.6,2.8c0,1.6,1.1,2.8,2.6,2.8
			C87.6,106.7,88.7,105.5,88.7,103.9z"/>
		<path id="XMLID_713_" class="st1" d="M101.1,108.1h-1.8v-1.7c-0.6,1.2-1.6,1.7-3,1.7c-2,0-3.1-1.2-3.1-3.3v-5.3h1.8v4.8
			c0,1.3,0.8,2.1,2,2.1c1.5,0,2.3-1.2,2.3-2.7v-4.2h1.8V108.1z"/>
		<path id="XMLID_710_" class="st1" d="M111.3,104.6h-6.4c0.3,1.3,1.3,2.1,2.6,2.1c0.9,0,1.8-0.4,2.4-1l1,1c-0.8,0.9-2,1.4-3.5,1.4
			c-2.6,0-4.4-1.7-4.4-4.3c0-2.6,1.8-4.3,4.3-4.3C110.3,99.6,111.5,101.5,111.3,104.6z M109.7,103.2c-0.1-1.4-1-2.2-2.4-2.2
			c-1.3,0-2.3,0.8-2.5,2.2H109.7z"/>
		<path id="XMLID_708_" class="st1" d="M118.7,100.4l-0.7,1.4c-0.8-0.5-1.7-0.8-2.4-0.8c-0.7,0-1.2,0.2-1.2,0.8
			c0,1.6,4.5,0.7,4.5,3.8c0,1.7-1.6,2.5-3.3,2.5c-1.2,0-2.6-0.4-3.4-1.2l0.7-1.3c0.7,0.7,1.9,1.1,2.8,1.1c0.8,0,1.4-0.3,1.4-0.9
			c0-1.7-4.5-0.8-4.5-3.8c0-1.7,1.5-2.5,3.1-2.5C116.8,99.5,118,99.9,118.7,100.4z"/>
		<path id="XMLID_706_" class="st1" d="M125.5,107.6c-0.7,0.4-1.4,0.6-2.1,0.6c-1.3,0-2.4-0.7-2.4-2.5v-4.4h-1.2v-1.4h1.2v-2.3h1.8
			v2.3h2.5v1.4h-2.5v4.1c0,0.9,0.3,1.2,0.9,1.2c0.4,0,0.8-0.1,1.3-0.4L125.5,107.6z"/>
		<path id="XMLID_703_" class="st1" d="M139.3,108.1v-4.6h-5.9v4.6h-1.9V96.9h1.9v4.9h5.9v-4.9h1.9v11.2H139.3z"/>
		<path id="XMLID_700_" class="st1" d="M151.5,104.6h-6.4c0.3,1.3,1.3,2.1,2.6,2.1c0.9,0,1.8-0.4,2.4-1l1,1c-0.8,0.9-2,1.4-3.5,1.4
			c-2.6,0-4.4-1.7-4.4-4.3c0-2.6,1.8-4.3,4.3-4.3C150.5,99.6,151.7,101.5,151.5,104.6z M149.9,103.2c-0.1-1.4-1-2.2-2.4-2.2
			c-1.3,0-2.3,0.8-2.5,2.2H149.9z"/>
		<path id="XMLID_697_" class="st1" d="M158.5,107.1c-0.6,0.8-1.6,1.1-2.8,1.1c-1.8,0-3-1.1-3-2.6c0-1.6,1.2-2.5,3.2-2.6h2.6v-0.3
			c0-1.1-0.7-1.7-2-1.7c-0.8,0-1.7,0.3-2.5,0.9l-0.8-1.3c1.2-0.7,2-1.1,3.7-1.1c2.2,0,3.4,1.1,3.4,3l0,5.6h-1.8V107.1z M158.5,105.1
			v-0.8h-2.3c-1.2,0-1.8,0.3-1.8,1.1c0,0.8,0.6,1.3,1.6,1.3C157.4,106.8,158.4,106.1,158.5,105.1z"/>
		<path id="XMLID_694_" class="st1" d="M170.9,108.1h-1.8v-1.5c-0.6,1-1.6,1.5-3,1.5c-2.4,0-4.1-1.8-4.1-4.4c0-2.6,1.6-4.3,4-4.3
			c1.4,0,2.4,0.6,3,1.6v-4.8h1.8V108.1z M169.1,103.9c0-1.6-1.1-2.8-2.6-2.8c-1.5,0-2.6,1.2-2.6,2.8c0,1.6,1.1,2.8,2.6,2.8
			C168,106.7,169.1,105.5,169.1,103.9z"/>
		<path id="XMLID_691_" class="st1" d="M181.2,104.6h-6.4c0.3,1.3,1.3,2.1,2.6,2.1c0.9,0,1.8-0.4,2.4-1l1,1c-0.8,0.9-2,1.4-3.5,1.4
			c-2.6,0-4.4-1.7-4.4-4.3c0-2.6,1.8-4.3,4.3-4.3C180.2,99.6,181.4,101.5,181.2,104.6z M179.6,103.2c-0.1-1.4-1-2.2-2.4-2.2
			c-1.3,0-2.3,0.8-2.5,2.2H179.6z"/>
		<path id="XMLID_689_" class="st1" d="M185,101.3c0.6-1.2,1.6-1.8,2.9-1.8v1.8c-1.7-0.1-2.8,0.9-2.9,2.4v4.5h-1.8v-8.5h1.8V101.3z"
			/>
	</g>
</g>
<rect id="XMLID_7_" x="4.1" y="128.3" class="st3" width="240" height="155.7"/>
<g id="XMLID_184_">
	<g id="XMLID_523_">
		<path id="XMLID_656_" class="st1" d="M75.3,207.6c-0.2,0-0.3,0-0.5,0h-2.7v3.4h-1.9v-11.2h4.5c2.9,0,4.5,1.4,4.5,3.8
			c0,1.8-0.8,3.1-2.3,3.6l2.5,3.7h-2.1L75.3,207.6z M74.8,205.9c1.7,0,2.7-0.7,2.7-2.3c0-1.5-1-2.2-2.7-2.2h-2.7v4.4H74.8z"/>
		<path id="XMLID_653_" class="st1" d="M89.2,207.4h-6.4c0.3,1.3,1.3,2.1,2.6,2.1c0.9,0,1.8-0.4,2.4-1l1,1c-0.8,0.9-2,1.4-3.5,1.4
			c-2.6,0-4.4-1.7-4.4-4.3c0-2.6,1.8-4.3,4.3-4.3C88.2,202.4,89.4,204.3,89.2,207.4z M87.6,206.1c-0.1-1.4-1-2.2-2.4-2.2
			c-1.3,0-2.3,0.8-2.5,2.2H87.6z"/>
		<path id="XMLID_650_" class="st1" d="M99.2,214.1h-1.8v-4.6c-0.6,1-1.6,1.5-3,1.5c-2.4,0-4.1-1.8-4.1-4.4c0-2.6,1.6-4.3,4-4.3
			c1.4,0,2.4,0.6,3,1.6v-1.5h1.8V214.1z M97.4,206.7c0-1.6-1.1-2.8-2.6-2.8s-2.6,1.2-2.6,2.8c0,1.6,1.1,2.8,2.6,2.8
			C96.3,209.5,97.4,208.4,97.4,206.7z"/>
		<path id="XMLID_648_" class="st1" d="M109.8,211h-1.8v-1.7c-0.6,1.2-1.6,1.7-3,1.7c-2,0-3.1-1.2-3.1-3.3v-5.3h1.8v4.8
			c0,1.3,0.8,2.1,2,2.1c1.5,0,2.3-1.2,2.3-2.7v-4.2h1.8V211z"/>
		<path id="XMLID_645_" class="st1" d="M120,207.4h-6.4c0.3,1.3,1.3,2.1,2.6,2.1c0.9,0,1.8-0.4,2.4-1l1,1c-0.8,0.9-2,1.4-3.5,1.4
			c-2.6,0-4.4-1.7-4.4-4.3c0-2.6,1.8-4.3,4.3-4.3C119,202.4,120.2,204.3,120,207.4z M118.4,206.1c-0.1-1.4-1-2.2-2.4-2.2
			c-1.3,0-2.3,0.8-2.5,2.2H118.4z"/>
		<path id="XMLID_643_" class="st1" d="M127.4,203.2l-0.7,1.4c-0.8-0.5-1.7-0.8-2.4-0.8c-0.7,0-1.2,0.2-1.2,0.8
			c0,1.6,4.5,0.7,4.5,3.8c0,1.7-1.6,2.5-3.3,2.5c-1.2,0-2.6-0.4-3.4-1.2l0.7-1.3c0.7,0.7,1.9,1.1,2.8,1.1c0.8,0,1.4-0.3,1.4-0.9
			c0-1.7-4.5-0.8-4.5-3.8c0-1.7,1.5-2.5,3.1-2.5C125.5,202.4,126.6,202.7,127.4,203.2z"/>
		<path id="XMLID_603_" class="st1" d="M134.2,210.4c-0.7,0.4-1.4,0.6-2.1,0.6c-1.3,0-2.4-0.7-2.4-2.5v-4.4h-1.2v-1.4h1.2v-2.3h1.8
			v2.3h2.5v1.4h-2.5v4.1c0,0.9,0.3,1.2,0.9,1.2c0.4,0,0.8-0.1,1.3-0.4L134.2,210.4z"/>
		<path id="XMLID_599_" class="st1" d="M145,199.8c2.3,0,3.8,1.1,3.8,2.8c0,1.3-0.8,2.2-2,2.5c1.5,0.3,2.4,1.3,2.4,2.8
			c0,1.9-1.6,3.1-4.1,3.1h-5v-11.2H145z M142,204.4h2.9c1.2,0,1.9-0.6,1.9-1.5s-0.7-1.5-1.9-1.5H142V204.4z M142,209.3h2.9
			c1.5,0,2.4-0.6,2.4-1.6c0-1-0.9-1.6-2.4-1.6H142V209.3z"/>
		<path id="XMLID_596_" class="st1" d="M159.4,206.7c0,2.6-1.8,4.3-4.4,4.3c-2.6,0-4.5-1.8-4.5-4.3c0-2.6,1.8-4.3,4.5-4.3
			C157.6,202.4,159.4,204.1,159.4,206.7z M152.4,206.7c0,1.6,1.1,2.8,2.6,2.8c1.5,0,2.6-1.1,2.6-2.8c0-1.6-1.1-2.8-2.6-2.8
			C153.4,204,152.4,205.1,152.4,206.7z"/>
		<path id="XMLID_526_" class="st1" d="M169.4,211h-1.8v-1.5c-0.6,1-1.6,1.5-3,1.5c-2.4,0-4.1-1.8-4.1-4.4c0-2.6,1.6-4.3,4-4.3
			c1.4,0,2.4,0.6,3,1.6v-4.8h1.8V211z M167.6,206.7c0-1.6-1.1-2.8-2.6-2.8c-1.5,0-2.6,1.2-2.6,2.8c0,1.6,1.1,2.8,2.6,2.8
			C166.5,209.5,167.6,208.4,167.6,206.7z"/>
		<path id="XMLID_524_" class="st1" d="M175.6,212.1c-0.5,1.3-1.5,2-2.8,2c-0.8,0-1.4-0.2-2-0.7l0.8-1.4c0.4,0.3,0.7,0.4,1.1,0.4
			c0.6,0,1-0.3,1.3-0.9l0.3-0.6l-3.5-8.4h1.9l2.5,6.5l2.4-6.5h1.8L175.6,212.1z"/>
	</g>
</g>
<g id="XMLID_135_">
	<g id="XMLID_754_">
		<path id="XMLID_801_" d="M308.4,4.3h2.8v12.6h-2.8v-5h-5v5h-2.8V4.3h2.8v5.3h5V4.3z"/>
		<path id="XMLID_799_" d="M319.7,6.7v10.2h-2.8V6.7h-3.6V4.3h9.9v2.4H319.7z"/>
		<path id="XMLID_797_" d="M330.6,6.7v10.2h-2.8V6.7h-3.6V4.3h9.9v2.4H330.6z"/>
		<path id="XMLID_794_" d="M344.9,5.4c0.9,0.8,1.3,1.9,1.3,3.5s-0.5,2.7-1.4,3.4s-2.3,1.1-4.1,1.1H339v3.5h-2.8V4.3h4.4
			C342.6,4.3,344,4.7,344.9,5.4z M342.8,10.4c0.3-0.4,0.5-0.9,0.5-1.7c0-0.7-0.2-1.2-0.7-1.5c-0.4-0.3-1.1-0.5-2-0.5H339v4.2h1.9
			C341.9,10.9,342.5,10.7,342.8,10.4z"/>
		<path id="XMLID_791_" d="M363.4,8.5c0,2-0.8,3.3-2.4,3.9l3.2,4.5h-3.5l-2.8-4H356v4h-2.8V4.3h4.8c2,0,3.4,0.3,4.2,1
			S363.4,7,363.4,8.5z M360,10c0.3-0.3,0.5-0.8,0.5-1.5c0-0.7-0.2-1.1-0.5-1.4c-0.4-0.3-1-0.4-1.9-0.4H356v3.7h2.1
			C359,10.4,359.6,10.3,360,10z"/>
		<path id="XMLID_788_" d="M374.4,15.5c-1.1,1-2.4,1.5-3.8,1.5c-1.5,0-2.7-0.5-3.6-1.4s-1.4-2.1-1.4-3.6c0-1.5,0.5-2.7,1.5-3.6
			c1-0.9,2.1-1.3,3.5-1.3s2.5,0.4,3.4,1.2s1.4,1.9,1.4,3.3V13h-7.1c0.1,0.5,0.4,1,0.8,1.3c0.5,0.3,1,0.5,1.6,0.5
			c0.9,0,1.7-0.3,2.3-1L374.4,15.5z M371.8,9.7c-0.4-0.3-0.8-0.5-1.4-0.5s-1,0.2-1.5,0.5c-0.4,0.3-0.7,0.8-0.8,1.3h4.2
			C372.4,10.5,372.1,10,371.8,9.7z"/>
		<path id="XMLID_786_" d="M384.4,13.9c0,1-0.4,1.7-1.1,2.3s-1.6,0.9-2.7,0.9c-0.7,0-1.5-0.1-2.3-0.4s-1.5-0.6-2.1-1.1l1.2-1.7
			c1,0.8,2.1,1.2,3.2,1.2c0.3,0,0.6-0.1,0.8-0.2c0.2-0.1,0.3-0.3,0.3-0.5c0-0.2-0.1-0.4-0.4-0.6c-0.3-0.2-0.7-0.4-1.2-0.5
			s-0.9-0.3-1.2-0.4c-0.3-0.1-0.6-0.3-1-0.5c-0.7-0.5-1.1-1.1-1.1-2c0-0.9,0.4-1.6,1.1-2.2c0.7-0.6,1.6-0.8,2.8-0.8
			c1.1,0,2.3,0.4,3.4,1.2l-1,1.8c-0.8-0.6-1.7-0.9-2.5-0.9c-0.8,0-1.3,0.2-1.3,0.7c0,0.3,0.1,0.5,0.4,0.6c0.3,0.1,0.7,0.3,1.3,0.5
			c0.6,0.2,1,0.3,1.3,0.4c0.3,0.1,0.6,0.3,0.9,0.5C384.1,12.2,384.4,12.9,384.4,13.9z"/>
		<path id="XMLID_783_" d="M392.1,7c1.1,0,2.1,0.5,3,1.4c0.9,0.9,1.3,2.1,1.3,3.6s-0.4,2.6-1.3,3.6c-0.9,1-1.9,1.4-3.1,1.4
			s-2.1-0.5-2.9-1.4v4.8h-2.7V7.2h2.7v1.1C390,7.4,391,7,392.1,7z M389.1,12c0,0.8,0.2,1.4,0.7,1.9c0.4,0.5,1,0.7,1.6,0.7
			s1.2-0.2,1.6-0.7s0.7-1.1,0.7-1.9c0-0.8-0.2-1.4-0.7-2c-0.5-0.5-1-0.8-1.6-0.8s-1.2,0.3-1.6,0.8C389.3,10.6,389.1,11.2,389.1,12z"
			/>
		<path id="XMLID_780_" d="M408.1,12c0,1.4-0.5,2.6-1.5,3.5S404.5,17,403,17s-2.7-0.5-3.7-1.4s-1.5-2.1-1.5-3.5
			c0-1.4,0.5-2.6,1.5-3.6c1-1,2.2-1.4,3.7-1.4s2.7,0.5,3.7,1.4C407.6,9.4,408.1,10.6,408.1,12z M400.6,12c0,0.8,0.2,1.4,0.7,1.9
			c0.5,0.5,1,0.7,1.7,0.7s1.3-0.2,1.7-0.7c0.5-0.5,0.7-1.1,0.7-1.9s-0.2-1.4-0.7-1.9c-0.4-0.5-1-0.8-1.7-0.8s-1.3,0.3-1.7,0.8
			C400.8,10.6,400.6,11.2,400.6,12z"/>
		<path id="XMLID_778_" d="M412.8,11.5v5.4h-2.7V7.2h2.7v1.1c0.8-0.8,1.7-1.2,2.8-1.2c1,0,1.9,0.4,2.6,1.1c0.7,0.7,1,1.7,1,2.9v5.9
			h-2.7v-5.5c0-1.5-0.5-2.2-1.6-2.2c-0.5,0-1,0.2-1.4,0.6C413,10.1,412.8,10.7,412.8,11.5z"/>
		<path id="XMLID_776_" d="M428.9,13.9c0,1-0.4,1.7-1.1,2.3s-1.6,0.9-2.7,0.9c-0.7,0-1.5-0.1-2.3-0.4s-1.5-0.6-2.1-1.1l1.2-1.7
			c1,0.8,2.1,1.2,3.2,1.2c0.3,0,0.6-0.1,0.8-0.2c0.2-0.1,0.3-0.3,0.3-0.5c0-0.2-0.1-0.4-0.4-0.6c-0.3-0.2-0.7-0.4-1.2-0.5
			s-0.9-0.3-1.2-0.4c-0.3-0.1-0.6-0.3-1-0.5c-0.7-0.5-1.1-1.1-1.1-2c0-0.9,0.4-1.6,1.1-2.2c0.7-0.6,1.6-0.8,2.8-0.8
			c1.1,0,2.3,0.4,3.4,1.2l-1,1.8c-0.8-0.6-1.7-0.9-2.5-0.9c-0.8,0-1.3,0.2-1.3,0.7c0,0.3,0.1,0.5,0.4,0.6c0.3,0.1,0.7,0.3,1.3,0.5
			c0.6,0.2,1,0.3,1.3,0.4c0.3,0.1,0.6,0.3,0.9,0.5C428.6,12.2,428.9,12.9,428.9,13.9z"/>
		<path id="XMLID_773_" d="M439.4,15.5c-1.1,1-2.4,1.5-3.8,1.5s-2.7-0.5-3.6-1.4c-1-0.9-1.4-2.1-1.4-3.6c0-1.5,0.5-2.7,1.5-3.6
			c1-0.9,2.1-1.3,3.5-1.3s2.5,0.4,3.4,1.2c0.9,0.8,1.4,1.9,1.4,3.3V13h-7.1c0.1,0.5,0.4,1,0.8,1.3s1,0.5,1.6,0.5
			c0.9,0,1.7-0.3,2.3-1L439.4,15.5z M436.8,9.7c-0.4-0.3-0.8-0.5-1.4-0.5s-1,0.2-1.5,0.5s-0.7,0.8-0.8,1.3h4.2
			C437.4,10.5,437.2,10,436.8,9.7z"/>
		<path id="XMLID_771_" d="M458.4,8.9l-3.4,6.9h-1.7l-3.4-6.9v7.9h-2.8V4.3h3.8l3.2,6.9l3.3-6.9h3.8v12.6h-2.8V8.9z"/>
		<path id="XMLID_768_" d="M472.4,15.5c-1.1,1-2.4,1.5-3.8,1.5s-2.7-0.5-3.6-1.4c-1-0.9-1.4-2.1-1.4-3.6c0-1.5,0.5-2.7,1.5-3.6
			c1-0.9,2.1-1.3,3.5-1.3s2.5,0.4,3.4,1.2c0.9,0.8,1.4,1.9,1.4,3.3V13h-7.1c0.1,0.5,0.4,1,0.8,1.3s1,0.5,1.6,0.5
			c0.9,0,1.7-0.3,2.3-1L472.4,15.5z M469.8,9.7c-0.4-0.3-0.8-0.5-1.4-0.5s-1,0.2-1.5,0.5s-0.7,0.8-0.8,1.3h4.2
			C470.4,10.5,470.2,10,469.8,9.7z"/>
		<path id="XMLID_766_" d="M482.4,13.9c0,1-0.4,1.7-1.1,2.3c-0.7,0.6-1.6,0.9-2.7,0.9c-0.7,0-1.5-0.1-2.3-0.4
			c-0.8-0.3-1.5-0.6-2.1-1.1l1.2-1.7c1,0.8,2.1,1.2,3.2,1.2c0.3,0,0.6-0.1,0.8-0.2c0.2-0.1,0.3-0.3,0.3-0.5c0-0.2-0.1-0.4-0.4-0.6
			c-0.3-0.2-0.7-0.4-1.2-0.5c-0.5-0.2-0.9-0.3-1.2-0.4s-0.6-0.3-1-0.5c-0.7-0.5-1.1-1.1-1.1-2c0-0.9,0.4-1.6,1.1-2.2
			c0.7-0.6,1.6-0.8,2.8-0.8c1.1,0,2.3,0.4,3.4,1.2l-1,1.8c-0.8-0.6-1.7-0.9-2.5-0.9s-1.3,0.2-1.3,0.7c0,0.3,0.1,0.5,0.4,0.6
			c0.3,0.1,0.7,0.3,1.3,0.5c0.6,0.2,1,0.3,1.3,0.4c0.3,0.1,0.6,0.3,0.9,0.5C482.1,12.2,482.4,12.9,482.4,13.9z"/>
		<path id="XMLID_764_" d="M491.8,13.9c0,1-0.4,1.7-1.1,2.3s-1.6,0.9-2.7,0.9c-0.7,0-1.5-0.1-2.3-0.4s-1.5-0.6-2.1-1.1l1.2-1.7
			c1,0.8,2.1,1.2,3.2,1.2c0.3,0,0.6-0.1,0.8-0.2c0.2-0.1,0.3-0.3,0.3-0.5c0-0.2-0.1-0.4-0.4-0.6c-0.3-0.2-0.7-0.4-1.2-0.5
			s-0.9-0.3-1.2-0.4c-0.3-0.1-0.6-0.3-1-0.5c-0.7-0.5-1.1-1.1-1.1-2c0-0.9,0.4-1.6,1.1-2.2c0.7-0.6,1.6-0.8,2.8-0.8
			c1.1,0,2.3,0.4,3.4,1.2l-1,1.8c-0.8-0.6-1.7-0.9-2.5-0.9c-0.8,0-1.3,0.2-1.3,0.7c0,0.3,0.1,0.5,0.4,0.6c0.3,0.1,0.7,0.3,1.3,0.5
			c0.6,0.2,1,0.3,1.3,0.4c0.3,0.1,0.6,0.3,0.9,0.5C491.5,12.2,491.8,12.9,491.8,13.9z"/>
		<path id="XMLID_761_" d="M502.1,16.9h-2.5v-1.2c-0.7,0.9-1.6,1.3-2.6,1.3c-1,0-1.9-0.3-2.6-0.9c-0.7-0.6-1-1.4-1-2.4
			s0.4-1.7,1.1-2.2c0.7-0.5,1.7-0.7,3-0.7h2v-0.1c0-1-0.5-1.5-1.6-1.5c-0.5,0-1,0.1-1.5,0.3c-0.5,0.2-1,0.4-1.3,0.7l-1.2-1.7
			c1.3-0.9,2.7-1.4,4.4-1.4c1.2,0,2.1,0.3,2.9,0.9c0.7,0.6,1.1,1.5,1.1,2.8V16.9z M499.4,13.2v-0.5h-1.7c-1.1,0-1.6,0.3-1.6,1
			c0,0.3,0.1,0.6,0.4,0.8c0.3,0.2,0.6,0.3,1.1,0.3c0.5,0,0.9-0.1,1.3-0.4S499.4,13.7,499.4,13.2z"/>
		<path id="XMLID_758_" d="M511.7,15.2c-0.9,0.9-1.9,1.4-3.2,1.4s-2.3-0.4-3.2-1.3c-0.9-0.9-1.3-2-1.3-3.4c0-1.4,0.4-2.6,1.3-3.5
			s1.9-1.4,3.1-1.4c1.2,0,2.1,0.5,2.9,1.4V7.2h2.7v8.4c0,0.9-0.2,1.6-0.5,2.3s-0.7,1.2-1.2,1.6c-1,0.8-2.2,1.2-3.5,1.2
			c-0.7,0-1.5-0.1-2.2-0.4c-0.8-0.2-1.4-0.6-2-1l1-2c0.9,0.7,1.8,1,2.8,1s1.8-0.2,2.3-0.7C511.4,17.1,511.7,16.3,511.7,15.2z
			 M511.4,11.8c0-0.8-0.2-1.4-0.6-1.8c-0.4-0.4-1-0.7-1.6-0.7s-1.2,0.2-1.6,0.7c-0.5,0.4-0.7,1-0.7,1.8c0,0.8,0.2,1.4,0.7,1.9
			c0.5,0.5,1,0.7,1.6,0.7c0.6,0,1.2-0.2,1.6-0.7C511.1,13.2,511.4,12.6,511.4,11.8z"/>
		<path id="XMLID_755_" d="M525,15.5c-1.1,1-2.4,1.5-3.8,1.5c-1.5,0-2.7-0.5-3.6-1.4S516,13.5,516,12c0-1.5,0.5-2.7,1.5-3.6
			c1-0.9,2.1-1.3,3.5-1.3s2.5,0.4,3.4,1.2s1.4,1.9,1.4,3.3V13h-7.1c0.1,0.5,0.4,1,0.8,1.3c0.5,0.3,1,0.5,1.6,0.5
			c0.9,0,1.7-0.3,2.3-1L525,15.5z M522.4,9.7c-0.4-0.3-0.8-0.5-1.4-0.5s-1,0.2-1.5,0.5c-0.4,0.3-0.7,0.8-0.8,1.3h4.2
			C523,10.5,522.7,10,522.4,9.7z"/>
	</g>
</g>
<rect id="XMLID_20_" x="292.8" y="28.3" class="st0" width="240" height="50"/>
<g id="XMLID_103_">
	<g id="XMLID_529_">
		<path id="XMLID_593_" class="st1" d="M362.2,55.7c-0.2,0-0.3,0-0.5,0H359v3.4h-1.9V47.9h4.5c2.9,0,4.5,1.4,4.5,3.8
			c0,1.8-0.8,3.1-2.3,3.6l2.5,3.7h-2.1L362.2,55.7z M361.7,54.1c1.7,0,2.7-0.7,2.7-2.3c0-1.5-1-2.2-2.7-2.2H359v4.4H361.7z"/>
		<path id="XMLID_590_" class="st1" d="M376.1,55.6h-6.4c0.3,1.3,1.3,2.1,2.6,2.1c0.9,0,1.8-0.4,2.4-1l1,1c-0.8,0.9-2,1.4-3.5,1.4
			c-2.6,0-4.4-1.7-4.4-4.3c0-2.6,1.8-4.3,4.3-4.3C375.1,50.6,376.3,52.5,376.1,55.6z M374.5,54.2c-0.1-1.4-1-2.2-2.4-2.2
			c-1.3,0-2.3,0.8-2.5,2.2H374.5z"/>
		<path id="XMLID_588_" class="st1" d="M383.5,51.4l-0.7,1.4c-0.8-0.5-1.7-0.8-2.4-0.8c-0.7,0-1.2,0.2-1.2,0.8
			c0,1.6,4.5,0.7,4.5,3.8c0,1.7-1.6,2.5-3.3,2.5c-1.2,0-2.6-0.4-3.4-1.2l0.7-1.3c0.7,0.7,1.9,1.1,2.8,1.1c0.8,0,1.4-0.3,1.4-0.9
			c0-1.7-4.5-0.8-4.5-3.8c0-1.7,1.5-2.5,3.1-2.5C381.6,50.5,382.8,50.9,383.5,51.4z"/>
		<path id="XMLID_585_" class="st1" d="M394.5,54.9c0,2.5-1.6,4.3-4,4.3c-1.4,0-2.4-0.5-3-1.5v4.6h-1.8V50.6h1.8v1.5
			c0.6-1,1.6-1.5,3-1.5C392.8,50.6,394.5,52.3,394.5,54.9z M392.6,54.9c0-1.6-1.1-2.8-2.6-2.8s-2.6,1.2-2.6,2.8
			c0,1.6,1.1,2.8,2.6,2.8S392.6,56.5,392.6,54.9z"/>
		<path id="XMLID_582_" class="st1" d="M404.5,54.9c0,2.6-1.8,4.3-4.4,4.3c-2.6,0-4.5-1.8-4.5-4.3c0-2.6,1.8-4.3,4.5-4.3
			C402.7,50.6,404.5,52.3,404.5,54.9z M397.4,54.9c0,1.6,1.1,2.8,2.6,2.8c1.5,0,2.6-1.1,2.6-2.8c0-1.6-1.1-2.8-2.6-2.8
			C398.5,52.1,397.4,53.3,397.4,54.9z"/>
		<path id="XMLID_580_" class="st1" d="M414.6,53.8v5.3h-1.8v-4.8c0-1.3-0.8-2.1-2-2.1c-1.4,0-2.3,1-2.4,2.3v4.5h-1.8v-8.5h1.8v1.6
			c0.6-1.2,1.7-1.7,3.1-1.7C413.4,50.6,414.6,51.8,414.6,53.8z"/>
		<path id="XMLID_578_" class="st1" d="M422.5,51.4l-0.7,1.4c-0.8-0.5-1.7-0.8-2.4-0.8c-0.7,0-1.2,0.2-1.2,0.8
			c0,1.6,4.5,0.7,4.5,3.8c0,1.7-1.6,2.5-3.3,2.5c-1.2,0-2.6-0.4-3.4-1.2l0.7-1.3c0.7,0.7,1.9,1.1,2.8,1.1c0.8,0,1.4-0.3,1.4-0.9
			c0-1.7-4.5-0.8-4.5-3.8c0-1.7,1.5-2.5,3.1-2.5C420.6,50.5,421.8,50.9,422.5,51.4z"/>
		<path id="XMLID_541_" class="st1" d="M432,55.6h-6.4c0.3,1.3,1.3,2.1,2.6,2.1c0.9,0,1.8-0.4,2.4-1l1,1c-0.8,0.9-2,1.4-3.5,1.4
			c-2.6,0-4.4-1.7-4.4-4.3c0-2.6,1.8-4.3,4.3-4.3C431,50.6,432.3,52.5,432,55.6z M430.4,54.2c-0.1-1.4-1-2.2-2.4-2.2
			c-1.3,0-2.3,0.8-2.5,2.2H430.4z"/>
		<path id="XMLID_539_" class="st1" d="M444.9,57.4v1.7h-6.7V47.9h1.9v9.5H444.9z"/>
		<path id="XMLID_536_" class="st1" d="M448.6,48.2c0,0.6-0.5,1.1-1.1,1.1s-1.1-0.5-1.1-1.1c0-0.7,0.5-1.1,1.1-1.1
			S448.6,47.5,448.6,48.2z M446.6,59.1v-8.5h1.8v8.5H446.6z"/>
		<path id="XMLID_534_" class="st1" d="M459.3,53.8v5.3h-1.8v-4.8c0-1.3-0.8-2.1-2-2.1c-1.4,0-2.3,1-2.4,2.3v4.5h-1.8v-8.5h1.8v1.6
			c0.6-1.2,1.7-1.7,3.1-1.7C458.1,50.6,459.3,51.8,459.3,53.8z"/>
		<path id="XMLID_530_" class="st1" d="M469.3,55.6h-6.4c0.3,1.3,1.3,2.1,2.6,2.1c0.9,0,1.8-0.4,2.4-1l1,1c-0.8,0.9-2,1.4-3.5,1.4
			c-2.6,0-4.4-1.7-4.4-4.3c0-2.6,1.8-4.3,4.3-4.3C468.3,50.6,469.5,52.5,469.3,55.6z M467.7,54.2c-0.1-1.4-1-2.2-2.4-2.2
			c-1.3,0-2.3,0.8-2.5,2.2H467.7z"/>
	</g>
</g>
<rect id="XMLID_13_" x="292.8" y="78.3" class="st2" width="240" height="50"/>
<g id="XMLID_65_">
	<g id="XMLID_605_">
		<path id="XMLID_640_" class="st1" d="M349.7,104.7c-0.2,0-0.3,0-0.5,0h-2.7v3.4h-1.9V96.9h4.5c2.9,0,4.5,1.4,4.5,3.8
			c0,1.8-0.8,3.1-2.3,3.6l2.5,3.7h-2.1L349.7,104.7z M349.2,103.1c1.7,0,2.7-0.7,2.7-2.3c0-1.5-1-2.2-2.7-2.2h-2.7v4.4H349.2z"/>
		<path id="XMLID_637_" class="st1" d="M363.6,104.6h-6.4c0.3,1.3,1.3,2.1,2.6,2.1c0.9,0,1.8-0.4,2.4-1l1,1c-0.8,0.9-2,1.4-3.5,1.4
			c-2.6,0-4.4-1.7-4.4-4.3c0-2.6,1.8-4.3,4.3-4.3C362.6,99.6,363.8,101.5,363.6,104.6z M362,103.2c-0.1-1.4-1-2.2-2.4-2.2
			c-1.3,0-2.3,0.8-2.5,2.2H362z"/>
		<path id="XMLID_635_" class="st1" d="M371.1,100.4l-0.7,1.4c-0.8-0.5-1.7-0.8-2.4-0.8c-0.7,0-1.2,0.2-1.2,0.8
			c0,1.6,4.5,0.7,4.5,3.8c0,1.7-1.6,2.5-3.3,2.5c-1.2,0-2.6-0.4-3.4-1.2l0.7-1.3c0.7,0.7,1.9,1.1,2.8,1.1c0.8,0,1.4-0.3,1.4-0.9
			c0-1.7-4.5-0.8-4.5-3.8c0-1.7,1.5-2.5,3.1-2.5C369.1,99.5,370.3,99.9,371.1,100.4z"/>
		<path id="XMLID_632_" class="st1" d="M382,103.9c0,2.5-1.6,4.3-4,4.3c-1.4,0-2.4-0.5-3-1.5v4.6h-1.8V99.6h1.8v1.5
			c0.6-1,1.6-1.5,3-1.5C380.4,99.6,382,101.3,382,103.9z M380.2,103.9c0-1.6-1.1-2.8-2.6-2.8c-1.5,0-2.6,1.2-2.6,2.8
			c0,1.6,1.1,2.8,2.6,2.8C379.1,106.6,380.2,105.5,380.2,103.9z"/>
		<path id="XMLID_629_" class="st1" d="M392,103.9c0,2.6-1.8,4.3-4.4,4.3c-2.6,0-4.5-1.8-4.5-4.3c0-2.6,1.8-4.3,4.5-4.3
			C390.2,99.6,392,101.3,392,103.9z M385,103.9c0,1.6,1.1,2.8,2.6,2.8c1.5,0,2.6-1.1,2.6-2.8c0-1.6-1.1-2.8-2.6-2.8
			C386,101.1,385,102.3,385,103.9z"/>
		<path id="XMLID_627_" class="st1" d="M402.1,102.8v5.3h-1.8v-4.8c0-1.3-0.8-2.1-2-2.1c-1.4,0-2.3,1-2.4,2.3v4.5h-1.8v-8.5h1.8v1.6
			c0.6-1.2,1.7-1.7,3.1-1.7C400.9,99.6,402.1,100.8,402.1,102.8z"/>
		<path id="XMLID_625_" class="st1" d="M410.1,100.4l-0.7,1.4c-0.8-0.5-1.7-0.8-2.4-0.8c-0.7,0-1.2,0.2-1.2,0.8
			c0,1.6,4.5,0.7,4.5,3.8c0,1.7-1.6,2.5-3.3,2.5c-1.2,0-2.6-0.4-3.4-1.2l0.7-1.3c0.7,0.7,1.9,1.1,2.8,1.1c0.8,0,1.4-0.3,1.4-0.9
			c0-1.7-4.5-0.8-4.5-3.8c0-1.7,1.5-2.5,3.1-2.5C408.2,99.5,409.3,99.9,410.1,100.4z"/>
		<path id="XMLID_622_" class="st1" d="M419.5,104.6h-6.4c0.3,1.3,1.3,2.1,2.6,2.1c0.9,0,1.8-0.4,2.4-1l1,1c-0.8,0.9-2,1.4-3.5,1.4
			c-2.6,0-4.4-1.7-4.4-4.3c0-2.6,1.8-4.3,4.3-4.3C418.6,99.6,419.8,101.5,419.5,104.6z M417.9,103.2c-0.1-1.4-1-2.2-2.4-2.2
			c-1.3,0-2.3,0.8-2.5,2.2H417.9z"/>
		<path id="XMLID_620_" class="st1" d="M433.5,108.1v-4.6h-5.9v4.6h-1.9V96.9h1.9v4.9h5.9v-4.9h1.9v11.2H433.5z"/>
		<path id="XMLID_617_" class="st1" d="M445.7,104.6h-6.4c0.3,1.3,1.3,2.1,2.6,2.1c0.9,0,1.8-0.4,2.4-1l1,1c-0.8,0.9-2,1.4-3.5,1.4
			c-2.6,0-4.4-1.7-4.4-4.3c0-2.6,1.8-4.3,4.3-4.3C444.7,99.6,446,101.5,445.7,104.6z M444.1,103.2c-0.1-1.4-1-2.2-2.4-2.2
			c-1.3,0-2.3,0.8-2.5,2.2H444.1z"/>
		<path id="XMLID_614_" class="st1" d="M452.8,107.1c-0.6,0.8-1.6,1.1-2.8,1.1c-1.8,0-3-1.1-3-2.6c0-1.6,1.2-2.5,3.2-2.6h2.6v-0.3
			c0-1.1-0.7-1.7-2-1.7c-0.8,0-1.7,0.3-2.5,0.9l-0.8-1.3c1.2-0.7,2-1.1,3.7-1.1c2.2,0,3.4,1.1,3.4,3l0,5.6h-1.8V107.1z M452.7,105.1
			v-0.8h-2.3c-1.2,0-1.8,0.3-1.8,1.1c0,0.8,0.6,1.3,1.6,1.3C451.6,106.8,452.7,106.1,452.7,105.1z"/>
		<path id="XMLID_611_" class="st1" d="M465.1,108.1h-1.8v-1.5c-0.6,1-1.6,1.5-3,1.5c-2.4,0-4.1-1.8-4.1-4.4c0-2.6,1.6-4.3,4-4.3
			c1.4,0,2.4,0.6,3,1.6v-4.8h1.8V108.1z M463.3,103.9c0-1.6-1.1-2.8-2.6-2.8c-1.5,0-2.6,1.2-2.6,2.8c0,1.6,1.1,2.8,2.6,2.8
			C462.2,106.7,463.3,105.5,463.3,103.9z"/>
		<path id="XMLID_608_" class="st1" d="M475.4,104.6H469c0.3,1.3,1.3,2.1,2.6,2.1c0.9,0,1.8-0.4,2.4-1l1,1c-0.8,0.9-2,1.4-3.5,1.4
			c-2.6,0-4.4-1.7-4.4-4.3c0-2.6,1.8-4.3,4.3-4.3C474.4,99.6,475.7,101.5,475.4,104.6z M473.8,103.2c-0.1-1.4-1-2.2-2.4-2.2
			c-1.3,0-2.3,0.8-2.5,2.2H473.8z"/>
		<path id="XMLID_606_" class="st1" d="M479.2,101.3c0.6-1.2,1.6-1.8,2.9-1.8v1.8c-1.7-0.1-2.8,0.9-2.9,2.4v4.5h-1.8v-8.5h1.8V101.3
			z"/>
	</g>
</g>
<rect id="XMLID_9_" x="292.8" y="128.3" class="st3" width="240" height="155.7"/>
<g id="XMLID_1_">
	<g id="XMLID_542_">
		<path id="XMLID_573_" class="st1" d="M358.4,207.6c-0.2,0-0.3,0-0.5,0h-2.7v3.4h-1.9v-11.2h4.5c2.9,0,4.5,1.4,4.5,3.8
			c0,1.8-0.8,3.1-2.3,3.6l2.5,3.7h-2.1L358.4,207.6z M357.9,205.9c1.7,0,2.7-0.7,2.7-2.3c0-1.5-1-2.2-2.7-2.2h-2.7v4.4H357.9z"/>
		<path id="XMLID_570_" class="st1" d="M372.3,207.4h-6.4c0.3,1.3,1.3,2.1,2.6,2.1c0.9,0,1.8-0.4,2.4-1l1,1c-0.8,0.9-2,1.4-3.5,1.4
			c-2.6,0-4.4-1.7-4.4-4.3c0-2.6,1.8-4.3,4.3-4.3C371.3,202.4,372.5,204.3,372.3,207.4z M370.7,206.1c-0.1-1.4-1-2.2-2.4-2.2
			c-1.3,0-2.3,0.8-2.5,2.2H370.7z"/>
		<path id="XMLID_568_" class="st1" d="M379.7,203.2l-0.7,1.4c-0.8-0.5-1.7-0.8-2.4-0.8c-0.7,0-1.2,0.2-1.2,0.8
			c0,1.6,4.5,0.7,4.5,3.8c0,1.7-1.6,2.5-3.3,2.5c-1.2,0-2.6-0.4-3.4-1.2l0.7-1.3c0.7,0.7,1.9,1.1,2.8,1.1c0.8,0,1.4-0.3,1.4-0.9
			c0-1.7-4.5-0.8-4.5-3.8c0-1.7,1.5-2.5,3.1-2.5C377.8,202.4,379,202.7,379.7,203.2z"/>
		<path id="XMLID_565_" class="st1" d="M390.7,206.7c0,2.5-1.6,4.3-4,4.3c-1.4,0-2.4-0.5-3-1.5v4.6h-1.8v-11.6h1.8v1.5
			c0.6-1,1.6-1.5,3-1.5C389,202.4,390.7,204.2,390.7,206.7z M388.8,206.7c0-1.6-1.1-2.8-2.6-2.8s-2.6,1.2-2.6,2.8
			c0,1.6,1.1,2.8,2.6,2.8S388.8,208.3,388.8,206.7z"/>
		<path id="XMLID_562_" class="st1" d="M400.7,206.7c0,2.6-1.8,4.3-4.4,4.3c-2.6,0-4.5-1.8-4.5-4.3c0-2.6,1.8-4.3,4.5-4.3
			C398.9,202.4,400.7,204.1,400.7,206.7z M393.6,206.7c0,1.6,1.1,2.8,2.6,2.8c1.5,0,2.6-1.1,2.6-2.8c0-1.6-1.1-2.8-2.6-2.8
			C394.7,204,393.6,205.1,393.6,206.7z"/>
		<path id="XMLID_560_" class="st1" d="M410.8,205.7v5.3h-1.8v-4.8c0-1.3-0.8-2.1-2-2.1c-1.4,0-2.3,1-2.4,2.3v4.5h-1.8v-8.5h1.8v1.6
			c0.6-1.2,1.7-1.7,3.1-1.7C409.6,202.4,410.8,203.6,410.8,205.7z"/>
		<path id="XMLID_558_" class="st1" d="M418.7,203.2l-0.7,1.4c-0.8-0.5-1.7-0.8-2.4-0.8c-0.7,0-1.2,0.2-1.2,0.8
			c0,1.6,4.5,0.7,4.5,3.8c0,1.7-1.6,2.5-3.3,2.5c-1.2,0-2.6-0.4-3.4-1.2l0.7-1.3c0.7,0.7,1.9,1.1,2.8,1.1c0.8,0,1.4-0.3,1.4-0.9
			c0-1.7-4.5-0.8-4.5-3.8c0-1.7,1.5-2.5,3.1-2.5C416.8,202.4,418,202.7,418.7,203.2z"/>
		<path id="XMLID_555_" class="st1" d="M428.2,207.4h-6.4c0.3,1.3,1.3,2.1,2.6,2.1c0.9,0,1.8-0.4,2.4-1l1,1c-0.8,0.9-2,1.4-3.5,1.4
			c-2.6,0-4.4-1.7-4.4-4.3c0-2.6,1.8-4.3,4.3-4.3C427.2,202.4,428.5,204.3,428.2,207.4z M426.6,206.1c-0.1-1.4-1-2.2-2.4-2.2
			c-1.3,0-2.3,0.8-2.5,2.2H426.6z"/>
		<path id="XMLID_551_" class="st1" d="M439.3,199.8c2.3,0,3.8,1.1,3.8,2.8c0,1.3-0.8,2.2-2,2.5c1.5,0.3,2.4,1.3,2.4,2.8
			c0,1.9-1.6,3.1-4.1,3.1h-5v-11.2H439.3z M436.3,204.4h2.9c1.2,0,1.9-0.6,1.9-1.5s-0.7-1.5-1.9-1.5h-2.9V204.4z M436.3,209.3h2.9
			c1.5,0,2.4-0.6,2.4-1.6c0-1-0.9-1.6-2.4-1.6h-2.9V209.3z"/>
		<path id="XMLID_548_" class="st1" d="M453.7,206.7c0,2.6-1.8,4.3-4.4,4.3c-2.6,0-4.5-1.8-4.5-4.3c0-2.6,1.8-4.3,4.5-4.3
			C451.8,202.4,453.7,204.1,453.7,206.7z M446.6,206.7c0,1.6,1.1,2.8,2.6,2.8c1.5,0,2.6-1.1,2.6-2.8c0-1.6-1.1-2.8-2.6-2.8
			C447.7,204,446.6,205.1,446.6,206.7z"/>
		<path id="XMLID_545_" class="st1" d="M463.7,211h-1.8v-1.5c-0.6,1-1.6,1.5-3,1.5c-2.4,0-4.1-1.8-4.1-4.4c0-2.6,1.6-4.3,4-4.3
			c1.4,0,2.4,0.6,3,1.6v-4.8h1.8V211z M461.8,206.7c0-1.6-1.1-2.8-2.6-2.8c-1.5,0-2.6,1.2-2.6,2.8c0,1.6,1.1,2.8,2.6,2.8
			C460.8,209.5,461.8,208.4,461.8,206.7z"/>
		<path id="XMLID_543_" class="st1" d="M469.8,212.1c-0.5,1.3-1.5,2-2.8,2c-0.8,0-1.4-0.2-2-0.7l0.8-1.4c0.4,0.3,0.7,0.4,1.1,0.4
			c0.6,0,1-0.3,1.3-0.9l0.3-0.6l-3.5-8.4h1.9l2.5,6.5l2.4-6.5h1.8L469.8,212.1z"/>
	</g>
</g>
</svg>
