<?xml version="1.0" encoding="utf-8"?>
<!-- Generator: Adobe Illustrator 19.0.0, SVG Export Plug-In . SVG Version: 6.00 Build 0)  -->
<svg version="1.1" id="Layer_1" xmlns="http://www.w3.org/2000/svg" xmlns:xlink="http://www.w3.org/1999/xlink" x="0px" y="0px"
	 viewBox="-353.3 248.7 477.3 139.7" style="enable-background:new -353.3 248.7 477.3 139.7;" xml:space="preserve">
<style type="text/css">
	.st0{fill:#6BB245;stroke:#000000;stroke-width:2;stroke-miterlimit:10;}
	.st1{fill:#FFFFFF;}
	.st2{fill:none;stroke:#000000;stroke-width:2;stroke-miterlimit:10;}
</style>
<rect id="XMLID_29_" x="-346.5" y="263" class="st0" width="120" height="110.9"/>
<g>
	<path class="st1" d="M-304,318.8c1.2,0,2.2-0.5,3-1.5l1.6,1.6c-1.3,1.4-2.8,2.1-4.5,2.1s-3.1-0.5-4.3-1.6s-1.7-2.5-1.7-4.1
		c0-1.7,0.6-3,1.7-4.2c1.1-1.1,2.5-1.7,4.2-1.7c1.8,0,3.4,0.7,4.6,2.1l-1.6,1.8c-0.8-1-1.8-1.5-2.9-1.5c-0.9,0-1.7,0.3-2.4,0.9
		s-1,1.4-1,2.5s0.3,1.9,0.9,2.5C-305.7,318.5-304.9,318.8-304,318.8z"/>
	<path class="st1" d="M-295.3,321h-2.4v-11.9h2.4V321z"/>
	<path class="st1" d="M-292.8,311.3c-0.3-0.3-0.4-0.6-0.4-1s0.1-0.7,0.4-1c0.3-0.3,0.6-0.4,1-0.4s0.7,0.1,1,0.4
		c0.3,0.3,0.4,0.6,0.4,1s-0.1,0.7-0.4,1c-0.3,0.3-0.6,0.4-1,0.4S-292.5,311.6-292.8,311.3z M-290.6,321h-2.4v-8.6h2.4V321z"/>
	<path class="st1" d="M-280.9,319.8c-1,0.9-2.1,1.4-3.4,1.4s-2.4-0.4-3.2-1.2c-0.9-0.8-1.3-1.9-1.3-3.2c0-1.4,0.4-2.4,1.3-3.2
		c0.9-0.8,1.9-1.2,3.1-1.2s2.2,0.4,3,1.1c0.8,0.7,1.2,1.7,1.2,2.9v1.3h-6.3c0.1,0.5,0.3,0.9,0.7,1.2c0.4,0.3,0.9,0.4,1.4,0.4
		c0.8,0,1.5-0.3,2.1-0.8L-280.9,319.8z M-283.2,314.7c-0.3-0.3-0.7-0.4-1.2-0.4s-0.9,0.1-1.3,0.4s-0.6,0.7-0.7,1.2h3.8
		C-282.7,315.3-282.8,315-283.2,314.7z"/>
	<path class="st1" d="M-276,316.2v4.8h-2.4v-8.6h2.4v1c0.7-0.7,1.5-1.1,2.4-1.1s1.7,0.3,2.3,1c0.6,0.6,0.9,1.5,0.9,2.6v5.2h-2.4
		v-4.9c0-1.3-0.5-2-1.5-2c-0.5,0-0.9,0.2-1.3,0.5S-276,315.6-276,316.2z"/>
	<path class="st1" d="M-265.5,314.1v3.9c0,0.3,0.1,0.6,0.3,0.8s0.4,0.3,0.6,0.3c0.4,0,0.8-0.2,1.1-0.6l0.9,1.7c-0.7,0.7-1.5,1-2.4,1
		c-0.8,0-1.5-0.3-2.1-0.8c-0.6-0.5-0.9-1.3-0.9-2.2v-4h-1v-1.7h1v-2.6h2.4v2.6h2.1v1.7H-265.5z"/>
</g>
<rect id="XMLID_3_" x="-1.8" y="263" class="st0" width="120" height="110.9"/>
<g>
	<path class="st1" d="M36,312.1c-0.2,0.2-0.4,0.5-0.4,0.8s0.1,0.6,0.4,0.8c0.3,0.2,1,0.4,2,0.7c1.1,0.3,1.9,0.7,2.5,1.2
		s0.9,1.3,0.9,2.3s-0.4,1.8-1.1,2.4s-1.7,0.9-3,0.9c-1.8,0-3.4-0.7-4.8-2l1.5-1.8c1.2,1.1,2.3,1.6,3.3,1.6c0.5,0,0.8-0.1,1.1-0.3
		c0.3-0.2,0.4-0.5,0.4-0.8s-0.1-0.6-0.4-0.8s-0.8-0.4-1.6-0.6c-1.3-0.3-2.3-0.7-2.9-1.2S33,314,33,312.9s0.4-1.9,1.1-2.5
		s1.7-0.9,2.9-0.9c0.7,0,1.5,0.1,2.2,0.4c0.7,0.3,1.4,0.6,2,1.1l-1.3,1.8c-1-0.7-2-1.1-3-1.1C36.5,311.8,36.2,311.9,36,312.1z"/>
	<path class="st1" d="M50.8,319.8c-1,0.9-2.1,1.4-3.4,1.4s-2.4-0.4-3.2-1.2c-0.9-0.8-1.3-1.9-1.3-3.2c0-1.4,0.4-2.4,1.3-3.2
		s1.9-1.2,3.1-1.2c1.2,0,2.2,0.4,3,1.1c0.8,0.7,1.2,1.7,1.2,2.9v1.3h-6.3c0.1,0.5,0.3,0.9,0.7,1.2c0.4,0.3,0.9,0.4,1.4,0.4
		c0.8,0,1.5-0.3,2.1-0.8L50.8,319.8z M48.5,314.7c-0.3-0.3-0.7-0.4-1.2-0.4s-0.9,0.1-1.3,0.4s-0.6,0.7-0.7,1.2h3.8
		C49,315.3,48.8,315,48.5,314.7z"/>
	<path class="st1" d="M57.7,314.5c-0.7,0-1.2,0.3-1.6,0.8c-0.4,0.5-0.5,1.2-0.5,2v3.7h-2.4v-8.6h2.4v1.1c0.3-0.4,0.7-0.7,1.2-0.9
		c0.5-0.2,0.9-0.4,1.4-0.4l0,2.3H57.7z"/>
	<path class="st1" d="M62.1,321l-3.4-8.6h2.5l2.1,5.4l2.1-5.4H68l-3.4,8.6H62.1z"/>
	<path class="st1" d="M76.6,319.8c-1,0.9-2.1,1.4-3.4,1.4s-2.4-0.4-3.2-1.2c-0.9-0.8-1.3-1.9-1.3-3.2c0-1.4,0.4-2.4,1.3-3.2
		s1.9-1.2,3.1-1.2c1.2,0,2.2,0.4,3,1.1c0.8,0.7,1.2,1.7,1.2,2.9v1.3h-6.3c0.1,0.5,0.3,0.9,0.7,1.2c0.4,0.3,0.9,0.4,1.4,0.4
		c0.8,0,1.5-0.3,2.1-0.8L76.6,319.8z M74.3,314.7c-0.3-0.3-0.7-0.4-1.2-0.4s-0.9,0.1-1.3,0.4s-0.6,0.7-0.7,1.2h3.8
		C74.8,315.3,74.6,315,74.3,314.7z"/>
	<path class="st1" d="M83.6,314.5c-0.7,0-1.2,0.3-1.6,0.8c-0.4,0.5-0.5,1.2-0.5,2v3.7h-2.4v-8.6h2.4v1.1c0.3-0.4,0.7-0.7,1.2-0.9
		c0.5-0.2,0.9-0.4,1.4-0.4l0,2.3H83.6z"/>
</g>
<g>
	<path d="M-141,267.8c-0.2,0-0.3,0-0.5,0h-2.7v3.4h-1.9V260h4.5c2.9,0,4.5,1.4,4.5,3.8c0,1.8-0.8,3.1-2.3,3.6l2.5,3.7h-2.1
		L-141,267.8z M-141.5,266.1c1.7,0,2.7-0.7,2.7-2.3c0-1.5-1-2.2-2.7-2.2h-2.7v4.4H-141.5z"/>
	<path d="M-127.1,267.6h-6.4c0.3,1.3,1.3,2.1,2.6,2.1c0.9,0,1.8-0.4,2.4-1l1,1c-0.8,0.9-2,1.4-3.5,1.4c-2.6,0-4.4-1.7-4.4-4.3
		c0-2.6,1.8-4.3,4.3-4.3C-128.1,262.6-126.9,264.5-127.1,267.6z M-128.7,266.3c-0.1-1.4-1-2.2-2.4-2.2c-1.3,0-2.3,0.8-2.5,2.2
		H-128.7z"/>
	<path d="M-117.1,274.3h-1.8v-4.6c-0.6,1-1.6,1.5-3,1.5c-2.4,0-4.1-1.8-4.1-4.4c0-2.6,1.6-4.3,4-4.3c1.4,0,2.4,0.6,3,1.6v-1.5h1.8
		V274.3z M-118.9,266.9c0-1.6-1.1-2.8-2.6-2.8s-2.6,1.2-2.6,2.8c0,1.6,1.1,2.8,2.6,2.8C-120,269.7-118.9,268.6-118.9,266.9z"/>
	<path d="M-106.5,271.2h-1.8v-1.7c-0.6,1.2-1.6,1.7-3,1.7c-2,0-3.1-1.2-3.1-3.3v-5.3h1.8v4.8c0,1.3,0.8,2.1,2,2.1
		c1.5,0,2.3-1.2,2.3-2.7v-4.2h1.8V271.2z"/>
	<path d="M-96.3,267.6h-6.4c0.3,1.3,1.3,2.1,2.6,2.1c0.9,0,1.8-0.4,2.4-1l1,1c-0.8,0.9-2,1.4-3.5,1.4c-2.6,0-4.4-1.7-4.4-4.3
		c0-2.6,1.8-4.3,4.3-4.3C-97.3,262.6-96.1,264.5-96.3,267.6z M-97.9,266.3c-0.1-1.4-1-2.2-2.4-2.2c-1.3,0-2.3,0.8-2.5,2.2H-97.9z"/>
	<path d="M-88.9,263.4l-0.7,1.4c-0.8-0.5-1.7-0.8-2.4-0.8c-0.7,0-1.2,0.2-1.2,0.8c0,1.6,4.5,0.7,4.5,3.8c0,1.7-1.6,2.5-3.3,2.5
		c-1.2,0-2.6-0.4-3.4-1.2l0.7-1.3c0.7,0.7,1.9,1.1,2.8,1.1c0.8,0,1.4-0.3,1.4-0.9c0-1.7-4.5-0.8-4.5-3.8c0-1.7,1.5-2.5,3.1-2.5
		C-90.8,262.6-89.7,262.9-88.9,263.4z"/>
	<path d="M-82.1,270.6c-0.7,0.4-1.4,0.6-2.1,0.6c-1.3,0-2.4-0.7-2.4-2.5v-4.4h-1.2V263h1.2v-2.3h1.8v2.3h2.5v1.4h-2.5v4.1
		c0,0.9,0.3,1.2,0.9,1.2c0.4,0,0.8-0.1,1.3-0.4L-82.1,270.6z"/>
	<path d="M-182.1,285.7c0,2.9-1.8,4.7-4.9,4.7c-3,0-4.9-1.8-4.9-4.7v-6.6h1.9v6.6c0,1.9,1.2,3,3,3c1.8,0,3-1.1,3-3v-6.6h1.9V285.7z"
		/>
	<path d="M-174.4,287c-0.2,0-0.3,0-0.5,0h-2.7v3.4h-1.9v-11.2h4.5c2.9,0,4.5,1.4,4.5,3.8c0,1.8-0.8,3.1-2.3,3.6l2.5,3.7h-2.1
		L-174.4,287z M-174.9,285.3c1.7,0,2.7-0.7,2.7-2.3c0-1.5-1-2.2-2.7-2.2h-2.7v4.4H-174.9z"/>
	<path d="M-161.1,288.7v1.7h-6.7v-11.2h1.9v9.5H-161.1z"/>
	<path d="M-152.1,285.8v2.8h-1.2v-2.8h-2.8v-1.3h2.8v-2.8h1.2v2.8h2.8v1.3H-152.1z"/>
	<path d="M-135.3,290.4v-4.6h-5.9v4.6h-1.9v-11.2h1.9v4.9h5.9v-4.9h1.9v11.2H-135.3z"/>
	<path d="M-126.3,280.9v9.5h-1.9v-9.5h-3.5v-1.7h9v1.7H-126.3z"/>
	<path d="M-117.1,280.9v9.5h-1.9v-9.5h-3.5v-1.7h9v1.7H-117.1z"/>
	<path d="M-107.4,279.2c2.8,0,4.4,1.4,4.4,3.8c0,2.5-1.6,4-4.4,4h-2.6v3.4h-1.9v-11.2H-107.4z M-110,285.3h2.5
		c1.7,0,2.7-0.7,2.7-2.3c0-1.5-1-2.2-2.7-2.2h-2.5V285.3z"/>
	<path d="M-86.9,290.4l0-8.4l-3.5,7.2h-1.2l-3.5-7.2v8.4H-97v-11.2h2.2l3.7,7.4l3.7-7.4h2.2v11.2H-86.9z"/>
	<path d="M-74.8,286.8h-6.4c0.3,1.3,1.3,2.1,2.6,2.1c0.9,0,1.8-0.4,2.4-1l1,1c-0.8,0.9-2,1.4-3.5,1.4c-2.6,0-4.4-1.7-4.4-4.3
		c0-2.6,1.8-4.3,4.3-4.3C-75.8,281.8-74.6,283.7-74.8,286.8z M-76.4,285.5c-0.1-1.4-1-2.2-2.4-2.2c-1.3,0-2.3,0.8-2.5,2.2H-76.4z"/>
	<path d="M-68.1,289.8c-0.7,0.4-1.4,0.6-2.1,0.6c-1.3,0-2.4-0.7-2.4-2.5v-4.4h-1.2v-1.4h1.2v-2.3h1.8v2.3h2.5v1.4h-2.5v4.1
		c0,0.9,0.3,1.2,0.9,1.2c0.4,0,0.8-0.1,1.3-0.4L-68.1,289.8z"/>
	<path d="M-58.2,285.1v5.3H-60v-4.8c0-1.3-0.8-2.1-2-2.1c-1.5,0-2.4,1.2-2.4,2.7v4.2h-1.8v-11.9h1.8v5c0.6-1.2,1.7-1.7,3.2-1.7
		C-59.3,281.8-58.2,283-58.2,285.1z"/>
	<path d="M-47.6,286.1c0,2.6-1.8,4.3-4.4,4.3c-2.6,0-4.5-1.8-4.5-4.3c0-2.6,1.8-4.3,4.5-4.3C-49.4,281.8-47.6,283.5-47.6,286.1z
		 M-54.7,286.1c0,1.6,1.1,2.8,2.6,2.8c1.5,0,2.6-1.1,2.6-2.8c0-1.6-1.1-2.8-2.6-2.8C-53.6,283.4-54.7,284.5-54.7,286.1z"/>
	<path d="M-37.6,290.4h-1.8v-1.5c-0.6,1-1.6,1.5-3,1.5c-2.4,0-4.1-1.8-4.1-4.4c0-2.6,1.6-4.3,4-4.3c1.4,0,2.4,0.6,3,1.6v-4.8h1.8
		V290.4z M-39.4,286.1c0-1.6-1.1-2.8-2.6-2.8c-1.5,0-2.6,1.2-2.6,2.8c0,1.6,1.1,2.8,2.6,2.8C-40.5,288.9-39.4,287.8-39.4,286.1z"/>
</g>
<g>
	<path d="M-146.6,354.8c-0.2,0-0.3,0-0.5,0h-2.7v3.4h-1.9V347h4.5c2.9,0,4.5,1.4,4.5,3.8c0,1.8-0.8,3.1-2.3,3.6l2.5,3.7h-2.1
		L-146.6,354.8z M-147.1,353.1c1.7,0,2.7-0.7,2.7-2.3c0-1.5-1-2.2-2.7-2.2h-2.7v4.4H-147.1z"/>
	<path d="M-132.7,354.6h-6.4c0.3,1.3,1.3,2.1,2.6,2.1c0.9,0,1.8-0.4,2.4-1l1,1c-0.8,0.9-2,1.4-3.5,1.4c-2.6,0-4.4-1.7-4.4-4.3
		c0-2.6,1.8-4.3,4.3-4.3C-133.7,349.6-132.4,351.5-132.7,354.6z M-134.3,353.3c-0.1-1.4-1-2.2-2.4-2.2c-1.3,0-2.3,0.8-2.5,2.2
		H-134.3z"/>
	<path d="M-125.2,350.4l-0.7,1.4c-0.8-0.5-1.7-0.8-2.4-0.8c-0.7,0-1.2,0.2-1.2,0.8c0,1.6,4.5,0.7,4.5,3.8c0,1.7-1.6,2.5-3.3,2.5
		c-1.2,0-2.6-0.4-3.4-1.2l0.7-1.3c0.7,0.7,1.9,1.1,2.8,1.1c0.8,0,1.4-0.3,1.4-0.9c0-1.7-4.5-0.8-4.5-3.8c0-1.7,1.5-2.5,3.1-2.5
		C-127.1,349.6-126,349.9-125.2,350.4z"/>
	<path d="M-114.3,353.9c0,2.5-1.6,4.3-4,4.3c-1.4,0-2.4-0.5-3-1.5v4.6h-1.8v-11.6h1.8v1.5c0.6-1,1.6-1.5,3-1.5
		C-115.9,349.6-114.3,351.3-114.3,353.9z M-116.1,353.9c0-1.6-1.1-2.8-2.6-2.8c-1.5,0-2.6,1.2-2.6,2.8c0,1.6,1.1,2.8,2.6,2.8
		C-117.2,356.7-116.1,355.5-116.1,353.9z"/>
	<path d="M-104.3,353.9c0,2.6-1.8,4.3-4.4,4.3c-2.6,0-4.5-1.8-4.5-4.3c0-2.6,1.8-4.3,4.5-4.3C-106.1,349.6-104.3,351.3-104.3,353.9z
		 M-111.3,353.9c0,1.6,1.1,2.8,2.6,2.8c1.5,0,2.6-1.1,2.6-2.8c0-1.6-1.1-2.8-2.6-2.8C-110.2,351.2-111.3,352.3-111.3,353.9z"/>
	<path d="M-94.2,352.9v5.3H-96v-4.8c0-1.3-0.8-2.1-2-2.1c-1.4,0-2.3,1-2.4,2.3v4.5h-1.8v-8.5h1.8v1.6c0.6-1.2,1.7-1.7,3.1-1.7
		C-95.4,349.6-94.2,350.8-94.2,352.9z"/>
	<path d="M-86.2,350.4l-0.7,1.4c-0.8-0.5-1.7-0.8-2.4-0.8c-0.7,0-1.2,0.2-1.2,0.8c0,1.6,4.5,0.7,4.5,3.8c0,1.7-1.6,2.5-3.3,2.5
		c-1.2,0-2.6-0.4-3.4-1.2l0.7-1.3c0.7,0.7,1.9,1.1,2.8,1.1c0.8,0,1.4-0.3,1.4-0.9c0-1.7-4.5-0.8-4.5-3.8c0-1.7,1.5-2.5,3.1-2.5
		C-88.1,349.6-87,349.9-86.2,350.4z"/>
	<path d="M-76.7,354.6h-6.4c0.3,1.3,1.3,2.1,2.6,2.1c0.9,0,1.8-0.4,2.4-1l1,1c-0.8,0.9-2,1.4-3.5,1.4c-2.6,0-4.4-1.7-4.4-4.3
		c0-2.6,1.8-4.3,4.3-4.3C-77.7,349.6-76.5,351.5-76.7,354.6z M-78.3,353.3c-0.1-1.4-1-2.2-2.4-2.2c-1.3,0-2.3,0.8-2.5,2.2H-78.3z"/>
	<path d="M-136.9,365.5c-1.2,1.8-1.9,4.3-1.9,6.9s0.7,5.1,1.9,6.9h-1.7c-1.3-1.8-2-4.3-2-6.9s0.7-5.1,2-6.9H-136.9z"/>
	<path d="M-129.9,373.9c0,2.3-1.3,3.5-3.5,3.5c-1.3,0-2.5-0.6-3.3-1.6l0.9-1.4c0.7,0.8,1.6,1.2,2.4,1.2c1,0,1.6-0.6,1.6-1.8v-6h-3.9
		v-1.7h5.8V373.9z"/>
	<path d="M-119.6,367.2l-0.8,1.7c-1.2-0.7-2.4-1-3.3-1c-1.1,0-1.8,0.4-1.8,1.2c0,2.4,6.1,1.1,6,5.2c0,2-1.8,3.2-4.2,3.2
		c-1.8,0-3.4-0.7-4.6-1.8l0.8-1.6c1.2,1.1,2.6,1.6,3.8,1.6c1.3,0,2.1-0.5,2.1-1.4c0-2.5-6.1-1.1-6.1-5.1c0-1.9,1.6-3.1,4.1-3.1
		C-122,366.1-120.6,366.5-119.6,367.2z"/>
	<path d="M-106.3,371.8c0,3.2-2.6,5.7-5.9,5.7c-3.3,0-5.9-2.5-5.9-5.7c0-3.2,2.6-5.7,5.9-5.7C-108.9,366.1-106.3,368.6-106.3,371.8z
		 M-116.2,371.8c0,2.2,1.8,4,4,4s4-1.8,4-4c0-2.2-1.8-4-4-4C-114.4,367.8-116.2,369.5-116.2,371.8z"/>
	<path d="M-96.4,377.4l-6-8v8h-1.9v-11.2h1.9l6,8.1v-8.1h1.9v11.2H-96.4z"/>
	<path d="M-89.5,365.5c1.3,1.8,2,4.3,2,6.9s-0.7,5.1-2,6.9h-1.7c1.2-1.8,1.9-4.3,1.9-6.9s-0.7-5.1-1.9-6.9H-89.5z"/>
</g>
<polyline id="XMLID_33_" class="st2" points="-12,303.3 -6.4,297.9 -11.9,292.2 "/>
<line id="XMLID_32_" class="st2" x1="-6.4" y1="297.8" x2="-222.9" y2="297.8"/>
<polyline id="XMLID_5_" class="st2" points="-217.3,334.7 -222.9,340.1 -217.4,345.8 "/>
<line id="XMLID_4_" class="st2" x1="-222.9" y1="340.2" x2="-6.4" y2="340.2"/>
</svg>
